G04 #@! TF.GenerationSoftware,KiCad,Pcbnew,(5.0.0)*
G04 #@! TF.CreationDate,2019-03-24T13:44:05-05:00*
G04 #@! TF.ProjectId,MRDTLogo_HalfBooster,4D5244544C6F676F5F48616C66426F6F,rev?*
G04 #@! TF.SameCoordinates,Original*
G04 #@! TF.FileFunction,Soldermask,Bot*
G04 #@! TF.FilePolarity,Negative*
%FSLAX46Y46*%
G04 Gerber Fmt 4.6, Leading zero omitted, Abs format (unit mm)*
G04 Created by KiCad (PCBNEW (5.0.0)) date 03/24/19 13:44:05*
%MOMM*%
%LPD*%
G01*
G04 APERTURE LIST*
%ADD10R,1.390600X2.178000*%
G04 APERTURE END LIST*
D10*
G04 #@! TO.C,U1*
X120650000Y-85953600D03*
X123190000Y-85953600D03*
X125730000Y-85953600D03*
X128270000Y-85953600D03*
X130810000Y-85953600D03*
X133350000Y-85953600D03*
X135890000Y-85953600D03*
X138430000Y-85953600D03*
X140970000Y-85953600D03*
X143510000Y-85953600D03*
X120650000Y-91846400D03*
X123190000Y-91846400D03*
X125730000Y-91846400D03*
X128270000Y-91846400D03*
X130810000Y-91846400D03*
X133350000Y-91846400D03*
X135890000Y-91846400D03*
X138430000Y-91846400D03*
X140970000Y-91846400D03*
X143510000Y-91846400D03*
X120650000Y-48666400D03*
X123190000Y-48666400D03*
X125730000Y-48666400D03*
X128270000Y-48666400D03*
X130810000Y-48666400D03*
X133350000Y-48666400D03*
X135890000Y-48666400D03*
X138430000Y-48666400D03*
X140970000Y-48666400D03*
X143510000Y-48666400D03*
X120650000Y-42773600D03*
X123190000Y-42773600D03*
X125730000Y-42773600D03*
X128270000Y-42773600D03*
X130810000Y-42773600D03*
X133350000Y-42773600D03*
X135890000Y-42773600D03*
X138430000Y-42773600D03*
X140970000Y-42773600D03*
X143510000Y-42773600D03*
G04 #@! TD*
M02*
