G04 #@! TF.GenerationSoftware,KiCad,Pcbnew,(5.0.2)-1*
G04 #@! TF.CreationDate,2019-04-02T19:39:49-05:00*
G04 #@! TF.ProjectId,MRDTLogo_HalfBooster,4d524454-4c6f-4676-9f5f-48616c66426f,rev?*
G04 #@! TF.SameCoordinates,Original*
G04 #@! TF.FileFunction,Legend,Top*
G04 #@! TF.FilePolarity,Positive*
%FSLAX46Y46*%
G04 Gerber Fmt 4.6, Leading zero omitted, Abs format (unit mm)*
G04 Created by KiCad (PCBNEW (5.0.2)-1) date 4/2/2019 7:39:49 PM*
%MOMM*%
%LPD*%
G01*
G04 APERTURE LIST*
%ADD10C,0.250000*%
%ADD11C,0.300000*%
%ADD12C,0.700000*%
%ADD13C,0.010000*%
G04 APERTURE END LIST*
D10*
X127773476Y-105313285D02*
X129087761Y-105313285D01*
X128430619Y-107113285D02*
X128430619Y-105313285D01*
X130183000Y-107113285D02*
X129963952Y-107027571D01*
X129854428Y-106941857D01*
X129744904Y-106770428D01*
X129744904Y-106256142D01*
X129854428Y-106084714D01*
X129963952Y-105999000D01*
X130183000Y-105913285D01*
X130511571Y-105913285D01*
X130730619Y-105999000D01*
X130840142Y-106084714D01*
X130949666Y-106256142D01*
X130949666Y-106770428D01*
X130840142Y-106941857D01*
X130730619Y-107027571D01*
X130511571Y-107113285D01*
X130183000Y-107113285D01*
X132921095Y-107113285D02*
X132921095Y-105313285D01*
X132921095Y-107027571D02*
X132702047Y-107113285D01*
X132263952Y-107113285D01*
X132044904Y-107027571D01*
X131935380Y-106941857D01*
X131825857Y-106770428D01*
X131825857Y-106256142D01*
X131935380Y-106084714D01*
X132044904Y-105999000D01*
X132263952Y-105913285D01*
X132702047Y-105913285D01*
X132921095Y-105999000D01*
X135002047Y-107113285D02*
X135002047Y-106170428D01*
X134892523Y-105999000D01*
X134673476Y-105913285D01*
X134235380Y-105913285D01*
X134016333Y-105999000D01*
X135002047Y-107027571D02*
X134783000Y-107113285D01*
X134235380Y-107113285D01*
X134016333Y-107027571D01*
X133906809Y-106856142D01*
X133906809Y-106684714D01*
X134016333Y-106513285D01*
X134235380Y-106427571D01*
X134783000Y-106427571D01*
X135002047Y-106341857D01*
X135878238Y-105913285D02*
X136425857Y-107113285D01*
X136973476Y-105913285D02*
X136425857Y-107113285D01*
X136206809Y-107541857D01*
X136097285Y-107627571D01*
X135878238Y-107713285D01*
X137849666Y-106941857D02*
X137959190Y-107027571D01*
X137849666Y-107113285D01*
X137740142Y-107027571D01*
X137849666Y-106941857D01*
X137849666Y-107113285D01*
X140368714Y-105313285D02*
X141683000Y-105313285D01*
X141025857Y-107113285D02*
X141025857Y-105313285D01*
X142778238Y-107113285D02*
X142559190Y-107027571D01*
X142449666Y-106941857D01*
X142340142Y-106770428D01*
X142340142Y-106256142D01*
X142449666Y-106084714D01*
X142559190Y-105999000D01*
X142778238Y-105913285D01*
X143106809Y-105913285D01*
X143325857Y-105999000D01*
X143435380Y-106084714D01*
X143544904Y-106256142D01*
X143544904Y-106770428D01*
X143435380Y-106941857D01*
X143325857Y-107027571D01*
X143106809Y-107113285D01*
X142778238Y-107113285D01*
X144530619Y-107113285D02*
X144530619Y-105913285D01*
X144530619Y-106084714D02*
X144640142Y-105999000D01*
X144859190Y-105913285D01*
X145187761Y-105913285D01*
X145406809Y-105999000D01*
X145516333Y-106170428D01*
X145516333Y-107113285D01*
X145516333Y-106170428D02*
X145625857Y-105999000D01*
X145844904Y-105913285D01*
X146173476Y-105913285D01*
X146392523Y-105999000D01*
X146502047Y-106170428D01*
X146502047Y-107113285D01*
X147925857Y-107113285D02*
X147706809Y-107027571D01*
X147597285Y-106941857D01*
X147487761Y-106770428D01*
X147487761Y-106256142D01*
X147597285Y-106084714D01*
X147706809Y-105999000D01*
X147925857Y-105913285D01*
X148254428Y-105913285D01*
X148473476Y-105999000D01*
X148583000Y-106084714D01*
X148692523Y-106256142D01*
X148692523Y-106770428D01*
X148583000Y-106941857D01*
X148473476Y-107027571D01*
X148254428Y-107113285D01*
X147925857Y-107113285D01*
X149678238Y-107113285D02*
X149678238Y-105913285D01*
X149678238Y-106256142D02*
X149787761Y-106084714D01*
X149897285Y-105999000D01*
X150116333Y-105913285D01*
X150335380Y-105913285D01*
X151102047Y-107113285D02*
X151102047Y-105913285D01*
X151102047Y-106256142D02*
X151211571Y-106084714D01*
X151321095Y-105999000D01*
X151540142Y-105913285D01*
X151759190Y-105913285D01*
X152854428Y-107113285D02*
X152635380Y-107027571D01*
X152525857Y-106941857D01*
X152416333Y-106770428D01*
X152416333Y-106256142D01*
X152525857Y-106084714D01*
X152635380Y-105999000D01*
X152854428Y-105913285D01*
X153183000Y-105913285D01*
X153402047Y-105999000D01*
X153511571Y-106084714D01*
X153621095Y-106256142D01*
X153621095Y-106770428D01*
X153511571Y-106941857D01*
X153402047Y-107027571D01*
X153183000Y-107113285D01*
X152854428Y-107113285D01*
X154387761Y-105913285D02*
X154825857Y-107113285D01*
X155263952Y-106256142D01*
X155702047Y-107113285D01*
X156140142Y-105913285D01*
X157016333Y-106941857D02*
X157125857Y-107027571D01*
X157016333Y-107113285D01*
X156906809Y-107027571D01*
X157016333Y-106941857D01*
X157016333Y-107113285D01*
X160630619Y-106170428D02*
X159863952Y-106170428D01*
X159863952Y-107113285D02*
X159863952Y-105313285D01*
X160959190Y-105313285D01*
X162163952Y-107113285D02*
X161944904Y-107027571D01*
X161835380Y-106941857D01*
X161725857Y-106770428D01*
X161725857Y-106256142D01*
X161835380Y-106084714D01*
X161944904Y-105999000D01*
X162163952Y-105913285D01*
X162492523Y-105913285D01*
X162711571Y-105999000D01*
X162821095Y-106084714D01*
X162930619Y-106256142D01*
X162930619Y-106770428D01*
X162821095Y-106941857D01*
X162711571Y-107027571D01*
X162492523Y-107113285D01*
X162163952Y-107113285D01*
X163916333Y-107113285D02*
X163916333Y-105913285D01*
X163916333Y-106256142D02*
X164025857Y-106084714D01*
X164135380Y-105999000D01*
X164354428Y-105913285D01*
X164573476Y-105913285D01*
X166216333Y-107027571D02*
X165997285Y-107113285D01*
X165559190Y-107113285D01*
X165340142Y-107027571D01*
X165230619Y-106856142D01*
X165230619Y-106170428D01*
X165340142Y-105999000D01*
X165559190Y-105913285D01*
X165997285Y-105913285D01*
X166216333Y-105999000D01*
X166325857Y-106170428D01*
X166325857Y-106341857D01*
X165230619Y-106513285D01*
X167092523Y-105913285D02*
X167640142Y-107113285D01*
X168187761Y-105913285D01*
X169940142Y-107027571D02*
X169721095Y-107113285D01*
X169283000Y-107113285D01*
X169063952Y-107027571D01*
X168954428Y-106856142D01*
X168954428Y-106170428D01*
X169063952Y-105999000D01*
X169283000Y-105913285D01*
X169721095Y-105913285D01*
X169940142Y-105999000D01*
X170049666Y-106170428D01*
X170049666Y-106341857D01*
X168954428Y-106513285D01*
X171035380Y-107113285D02*
X171035380Y-105913285D01*
X171035380Y-106256142D02*
X171144904Y-106084714D01*
X171254428Y-105999000D01*
X171473476Y-105913285D01*
X171692523Y-105913285D01*
D11*
X128152047Y-103811285D02*
X128152047Y-102011285D01*
X128885380Y-103297000D01*
X129618714Y-102011285D01*
X129618714Y-103811285D01*
X130561571Y-103297000D02*
X131609190Y-103297000D01*
X130352047Y-103811285D02*
X131085380Y-102011285D01*
X131818714Y-103811285D01*
X133809190Y-103811285D02*
X133075857Y-102954142D01*
X132552047Y-103811285D02*
X132552047Y-102011285D01*
X133390142Y-102011285D01*
X133599666Y-102097000D01*
X133704428Y-102182714D01*
X133809190Y-102354142D01*
X133809190Y-102611285D01*
X133704428Y-102782714D01*
X133599666Y-102868428D01*
X133390142Y-102954142D01*
X132552047Y-102954142D01*
X134647285Y-103725571D02*
X134961571Y-103811285D01*
X135485380Y-103811285D01*
X135694904Y-103725571D01*
X135799666Y-103639857D01*
X135904428Y-103468428D01*
X135904428Y-103297000D01*
X135799666Y-103125571D01*
X135694904Y-103039857D01*
X135485380Y-102954142D01*
X135066333Y-102868428D01*
X134856809Y-102782714D01*
X134752047Y-102697000D01*
X134647285Y-102525571D01*
X134647285Y-102354142D01*
X134752047Y-102182714D01*
X134856809Y-102097000D01*
X135066333Y-102011285D01*
X135590142Y-102011285D01*
X135904428Y-102097000D01*
X139780619Y-103811285D02*
X139047285Y-102954142D01*
X138523476Y-103811285D02*
X138523476Y-102011285D01*
X139361571Y-102011285D01*
X139571095Y-102097000D01*
X139675857Y-102182714D01*
X139780619Y-102354142D01*
X139780619Y-102611285D01*
X139675857Y-102782714D01*
X139571095Y-102868428D01*
X139361571Y-102954142D01*
X138523476Y-102954142D01*
X141142523Y-102011285D02*
X141561571Y-102011285D01*
X141771095Y-102097000D01*
X141980619Y-102268428D01*
X142085380Y-102611285D01*
X142085380Y-103211285D01*
X141980619Y-103554142D01*
X141771095Y-103725571D01*
X141561571Y-103811285D01*
X141142523Y-103811285D01*
X140933000Y-103725571D01*
X140723476Y-103554142D01*
X140618714Y-103211285D01*
X140618714Y-102611285D01*
X140723476Y-102268428D01*
X140933000Y-102097000D01*
X141142523Y-102011285D01*
X142713952Y-102011285D02*
X143447285Y-103811285D01*
X144180619Y-102011285D01*
X144913952Y-102868428D02*
X145647285Y-102868428D01*
X145961571Y-103811285D02*
X144913952Y-103811285D01*
X144913952Y-102011285D01*
X145961571Y-102011285D01*
X148161571Y-103811285D02*
X147428238Y-102954142D01*
X146904428Y-103811285D02*
X146904428Y-102011285D01*
X147742523Y-102011285D01*
X147952047Y-102097000D01*
X148056809Y-102182714D01*
X148161571Y-102354142D01*
X148161571Y-102611285D01*
X148056809Y-102782714D01*
X147952047Y-102868428D01*
X147742523Y-102954142D01*
X146904428Y-102954142D01*
X150780619Y-103811285D02*
X150780619Y-102011285D01*
X151304428Y-102011285D01*
X151618714Y-102097000D01*
X151828238Y-102268428D01*
X151933000Y-102439857D01*
X152037761Y-102782714D01*
X152037761Y-103039857D01*
X151933000Y-103382714D01*
X151828238Y-103554142D01*
X151618714Y-103725571D01*
X151304428Y-103811285D01*
X150780619Y-103811285D01*
X152980619Y-102868428D02*
X153713952Y-102868428D01*
X154028238Y-103811285D02*
X152980619Y-103811285D01*
X152980619Y-102011285D01*
X154028238Y-102011285D01*
X154866333Y-103725571D02*
X155180619Y-103811285D01*
X155704428Y-103811285D01*
X155913952Y-103725571D01*
X156018714Y-103639857D01*
X156123476Y-103468428D01*
X156123476Y-103297000D01*
X156018714Y-103125571D01*
X155913952Y-103039857D01*
X155704428Y-102954142D01*
X155285380Y-102868428D01*
X155075857Y-102782714D01*
X154971095Y-102697000D01*
X154866333Y-102525571D01*
X154866333Y-102354142D01*
X154971095Y-102182714D01*
X155075857Y-102097000D01*
X155285380Y-102011285D01*
X155809190Y-102011285D01*
X156123476Y-102097000D01*
X157066333Y-103811285D02*
X157066333Y-102011285D01*
X159266333Y-102097000D02*
X159056809Y-102011285D01*
X158742523Y-102011285D01*
X158428238Y-102097000D01*
X158218714Y-102268428D01*
X158113952Y-102439857D01*
X158009190Y-102782714D01*
X158009190Y-103039857D01*
X158113952Y-103382714D01*
X158218714Y-103554142D01*
X158428238Y-103725571D01*
X158742523Y-103811285D01*
X158952047Y-103811285D01*
X159266333Y-103725571D01*
X159371095Y-103639857D01*
X159371095Y-103039857D01*
X158952047Y-103039857D01*
X160313952Y-103811285D02*
X160313952Y-102011285D01*
X161571095Y-103811285D01*
X161571095Y-102011285D01*
X163980619Y-102011285D02*
X165237761Y-102011285D01*
X164609190Y-103811285D02*
X164609190Y-102011285D01*
X165971095Y-102868428D02*
X166704428Y-102868428D01*
X167018714Y-103811285D02*
X165971095Y-103811285D01*
X165971095Y-102011285D01*
X167018714Y-102011285D01*
X167856809Y-103297000D02*
X168904428Y-103297000D01*
X167647285Y-103811285D02*
X168380619Y-102011285D01*
X169113952Y-103811285D01*
X169847285Y-103811285D02*
X169847285Y-102011285D01*
X170580619Y-103297000D01*
X171313952Y-102011285D01*
X171313952Y-103811285D01*
D12*
X128099714Y-95960714D02*
X130333047Y-100460714D01*
X132566380Y-95960714D01*
X134480666Y-99175000D02*
X137671142Y-99175000D01*
X133842571Y-100460714D02*
X136075904Y-95960714D01*
X138309238Y-100460714D01*
X143733047Y-100460714D02*
X140542571Y-100460714D01*
X140542571Y-95960714D01*
X145966380Y-100460714D02*
X145966380Y-95960714D01*
X149794952Y-100460714D02*
X146923523Y-97889285D01*
X149794952Y-95960714D02*
X145966380Y-98532142D01*
X153942571Y-98317857D02*
X153942571Y-100460714D01*
X151709238Y-95960714D02*
X153942571Y-98317857D01*
X156175904Y-95960714D01*
X162237809Y-100460714D02*
X160004476Y-98317857D01*
X158409238Y-100460714D02*
X158409238Y-95960714D01*
X160961619Y-95960714D01*
X161599714Y-96175000D01*
X161918761Y-96389285D01*
X162237809Y-96817857D01*
X162237809Y-97460714D01*
X161918761Y-97889285D01*
X161599714Y-98103571D01*
X160961619Y-98317857D01*
X158409238Y-98317857D01*
X165109238Y-100460714D02*
X165109238Y-95960714D01*
X168299714Y-98103571D02*
X170533047Y-98103571D01*
X171490190Y-100460714D02*
X168299714Y-100460714D01*
X168299714Y-95960714D01*
X171490190Y-95960714D01*
D13*
G04 #@! TO.C,G\002A\002A\002A*
G36*
X174672490Y-19609527D02*
X174999768Y-19656730D01*
X175266236Y-19734198D01*
X175306881Y-19751798D01*
X175470000Y-19827387D01*
X175320000Y-19802014D01*
X174797943Y-19743464D01*
X174308955Y-19747363D01*
X173875248Y-19813467D01*
X173857340Y-19817913D01*
X173351937Y-19984118D01*
X172825273Y-20233170D01*
X172275552Y-20566532D01*
X171700977Y-20985665D01*
X171099751Y-21492032D01*
X170470079Y-22087095D01*
X169810163Y-22772317D01*
X169118207Y-23549160D01*
X168773404Y-23955923D01*
X168453962Y-24341726D01*
X168148782Y-24717942D01*
X167853082Y-25091484D01*
X167562079Y-25469265D01*
X167270991Y-25858199D01*
X166975035Y-26265197D01*
X166669430Y-26697175D01*
X166349392Y-27161044D01*
X166010139Y-27663718D01*
X165646889Y-28212111D01*
X165254859Y-28813135D01*
X164829268Y-29473703D01*
X164365332Y-30200729D01*
X163858270Y-31001127D01*
X163432150Y-31677000D01*
X162460427Y-33243974D01*
X161525806Y-34797400D01*
X160643311Y-36312203D01*
X160421211Y-36702000D01*
X160220492Y-37054175D01*
X159987952Y-37459226D01*
X159742735Y-37883990D01*
X159503985Y-38295304D01*
X159294500Y-38653781D01*
X159085850Y-39011452D01*
X158856973Y-39407551D01*
X158625532Y-39811262D01*
X158409192Y-40191766D01*
X158225619Y-40518246D01*
X158219746Y-40528781D01*
X158061427Y-40812341D01*
X157911235Y-41080448D01*
X157779162Y-41315331D01*
X157675201Y-41499222D01*
X157609344Y-41614351D01*
X157607271Y-41617915D01*
X157481494Y-41833831D01*
X157287385Y-41317915D01*
X157185575Y-41062761D01*
X157059000Y-40769719D01*
X156914010Y-40451246D01*
X156756953Y-40119800D01*
X156594181Y-39787839D01*
X156432044Y-39467820D01*
X156276891Y-39172201D01*
X156135072Y-38913439D01*
X156012937Y-38703991D01*
X155916837Y-38556316D01*
X155853122Y-38482870D01*
X155839279Y-38477000D01*
X155805683Y-38518802D01*
X155733564Y-38634721D01*
X155631243Y-38810519D01*
X155507037Y-39031962D01*
X155393679Y-39239500D01*
X155210640Y-39577132D01*
X155014366Y-39936871D01*
X154810834Y-40307972D01*
X154606023Y-40679691D01*
X154405908Y-41041281D01*
X154216468Y-41381999D01*
X154043681Y-41691100D01*
X153893524Y-41957838D01*
X153771974Y-42171469D01*
X153685009Y-42321248D01*
X153638607Y-42396430D01*
X153634338Y-42402000D01*
X153630870Y-42380051D01*
X153657448Y-42281472D01*
X153709018Y-42123269D01*
X153760595Y-41977000D01*
X153885854Y-41632830D01*
X154025089Y-41253161D01*
X154174322Y-40848593D01*
X154329572Y-40429725D01*
X154486861Y-40007159D01*
X154642207Y-39591493D01*
X154791632Y-39193328D01*
X154931156Y-38823264D01*
X155056799Y-38491900D01*
X155164581Y-38209838D01*
X155250522Y-37987676D01*
X155310643Y-37836015D01*
X155340963Y-37765455D01*
X155343108Y-37762001D01*
X155385281Y-37781553D01*
X155464381Y-37869078D01*
X155565261Y-38007178D01*
X155593371Y-38049501D01*
X155697663Y-38203641D01*
X155782667Y-38318378D01*
X155833172Y-38373467D01*
X155838372Y-38375570D01*
X155870030Y-38333005D01*
X155941199Y-38214563D01*
X156044765Y-38032830D01*
X156173611Y-37800390D01*
X156320619Y-37529831D01*
X156395000Y-37391141D01*
X156570163Y-37065004D01*
X156779880Y-36677487D01*
X157010003Y-36254550D01*
X157246386Y-35822153D01*
X157474881Y-35406255D01*
X157613576Y-35155070D01*
X157814906Y-34790713D01*
X158051404Y-34361687D01*
X158310357Y-33891115D01*
X158579055Y-33402120D01*
X158844785Y-32917827D01*
X159094835Y-32461359D01*
X159182009Y-32302000D01*
X159587158Y-31566919D01*
X159985109Y-30856339D01*
X160371551Y-30177491D01*
X160742174Y-29537607D01*
X161092667Y-28943919D01*
X161418718Y-28403660D01*
X161716018Y-27924060D01*
X161980255Y-27512351D01*
X162207118Y-27175767D01*
X162378474Y-26939517D01*
X162618500Y-26650096D01*
X162832571Y-26442006D01*
X163017138Y-26317227D01*
X163168655Y-26277742D01*
X163283573Y-26325530D01*
X163336974Y-26404352D01*
X163386473Y-26537914D01*
X163394991Y-26616437D01*
X163366821Y-26626923D01*
X163306255Y-26556373D01*
X163293475Y-26536091D01*
X163196991Y-26418900D01*
X163107349Y-26386147D01*
X163106162Y-26386359D01*
X163012195Y-26446337D01*
X162882054Y-26596108D01*
X162717319Y-26832866D01*
X162519572Y-27153804D01*
X162290394Y-27556118D01*
X162031367Y-28037000D01*
X161744071Y-28593645D01*
X161430088Y-29223248D01*
X161090999Y-29923001D01*
X160969985Y-30177000D01*
X160850808Y-30430949D01*
X160705345Y-30745511D01*
X160537259Y-31112457D01*
X160350208Y-31523559D01*
X160147852Y-31970587D01*
X159933853Y-32445313D01*
X159711869Y-32939507D01*
X159485561Y-33444941D01*
X159258589Y-33953386D01*
X159034613Y-34456613D01*
X158817293Y-34946394D01*
X158610289Y-35414499D01*
X158417262Y-35852700D01*
X158241870Y-36252767D01*
X158087776Y-36606473D01*
X157958637Y-36905587D01*
X157858115Y-37141881D01*
X157789870Y-37307127D01*
X157757561Y-37393096D01*
X157755668Y-37403681D01*
X157786279Y-37367903D01*
X157864667Y-37260091D01*
X157983079Y-37091374D01*
X158133760Y-36872881D01*
X158308955Y-36615743D01*
X158445000Y-36414293D01*
X158671787Y-36079369D01*
X158940282Y-35686376D01*
X159243631Y-35245108D01*
X159574982Y-34765355D01*
X159927481Y-34256909D01*
X160294275Y-33729560D01*
X160668510Y-33193101D01*
X161043334Y-32657323D01*
X161411892Y-32132017D01*
X161767331Y-31626975D01*
X162102798Y-31151988D01*
X162411441Y-30716847D01*
X162686405Y-30331344D01*
X162920836Y-30005270D01*
X163107883Y-29748417D01*
X163160652Y-29677000D01*
X164073378Y-28463337D01*
X164943805Y-27337415D01*
X165773820Y-26297266D01*
X166565311Y-25340921D01*
X167320164Y-24466412D01*
X168040267Y-23671773D01*
X168727507Y-22955034D01*
X169383771Y-22314229D01*
X170010947Y-21747389D01*
X170610922Y-21252546D01*
X171185583Y-20827733D01*
X171736818Y-20470982D01*
X172266513Y-20180324D01*
X172270000Y-20178592D01*
X172664843Y-19990152D01*
X173000898Y-19848691D01*
X173302781Y-19746020D01*
X173595107Y-19673946D01*
X173902492Y-19624278D01*
X173955302Y-19617794D01*
X174314351Y-19595559D01*
X174672490Y-19609527D01*
X174672490Y-19609527D01*
G37*
X174672490Y-19609527D02*
X174999768Y-19656730D01*
X175266236Y-19734198D01*
X175306881Y-19751798D01*
X175470000Y-19827387D01*
X175320000Y-19802014D01*
X174797943Y-19743464D01*
X174308955Y-19747363D01*
X173875248Y-19813467D01*
X173857340Y-19817913D01*
X173351937Y-19984118D01*
X172825273Y-20233170D01*
X172275552Y-20566532D01*
X171700977Y-20985665D01*
X171099751Y-21492032D01*
X170470079Y-22087095D01*
X169810163Y-22772317D01*
X169118207Y-23549160D01*
X168773404Y-23955923D01*
X168453962Y-24341726D01*
X168148782Y-24717942D01*
X167853082Y-25091484D01*
X167562079Y-25469265D01*
X167270991Y-25858199D01*
X166975035Y-26265197D01*
X166669430Y-26697175D01*
X166349392Y-27161044D01*
X166010139Y-27663718D01*
X165646889Y-28212111D01*
X165254859Y-28813135D01*
X164829268Y-29473703D01*
X164365332Y-30200729D01*
X163858270Y-31001127D01*
X163432150Y-31677000D01*
X162460427Y-33243974D01*
X161525806Y-34797400D01*
X160643311Y-36312203D01*
X160421211Y-36702000D01*
X160220492Y-37054175D01*
X159987952Y-37459226D01*
X159742735Y-37883990D01*
X159503985Y-38295304D01*
X159294500Y-38653781D01*
X159085850Y-39011452D01*
X158856973Y-39407551D01*
X158625532Y-39811262D01*
X158409192Y-40191766D01*
X158225619Y-40518246D01*
X158219746Y-40528781D01*
X158061427Y-40812341D01*
X157911235Y-41080448D01*
X157779162Y-41315331D01*
X157675201Y-41499222D01*
X157609344Y-41614351D01*
X157607271Y-41617915D01*
X157481494Y-41833831D01*
X157287385Y-41317915D01*
X157185575Y-41062761D01*
X157059000Y-40769719D01*
X156914010Y-40451246D01*
X156756953Y-40119800D01*
X156594181Y-39787839D01*
X156432044Y-39467820D01*
X156276891Y-39172201D01*
X156135072Y-38913439D01*
X156012937Y-38703991D01*
X155916837Y-38556316D01*
X155853122Y-38482870D01*
X155839279Y-38477000D01*
X155805683Y-38518802D01*
X155733564Y-38634721D01*
X155631243Y-38810519D01*
X155507037Y-39031962D01*
X155393679Y-39239500D01*
X155210640Y-39577132D01*
X155014366Y-39936871D01*
X154810834Y-40307972D01*
X154606023Y-40679691D01*
X154405908Y-41041281D01*
X154216468Y-41381999D01*
X154043681Y-41691100D01*
X153893524Y-41957838D01*
X153771974Y-42171469D01*
X153685009Y-42321248D01*
X153638607Y-42396430D01*
X153634338Y-42402000D01*
X153630870Y-42380051D01*
X153657448Y-42281472D01*
X153709018Y-42123269D01*
X153760595Y-41977000D01*
X153885854Y-41632830D01*
X154025089Y-41253161D01*
X154174322Y-40848593D01*
X154329572Y-40429725D01*
X154486861Y-40007159D01*
X154642207Y-39591493D01*
X154791632Y-39193328D01*
X154931156Y-38823264D01*
X155056799Y-38491900D01*
X155164581Y-38209838D01*
X155250522Y-37987676D01*
X155310643Y-37836015D01*
X155340963Y-37765455D01*
X155343108Y-37762001D01*
X155385281Y-37781553D01*
X155464381Y-37869078D01*
X155565261Y-38007178D01*
X155593371Y-38049501D01*
X155697663Y-38203641D01*
X155782667Y-38318378D01*
X155833172Y-38373467D01*
X155838372Y-38375570D01*
X155870030Y-38333005D01*
X155941199Y-38214563D01*
X156044765Y-38032830D01*
X156173611Y-37800390D01*
X156320619Y-37529831D01*
X156395000Y-37391141D01*
X156570163Y-37065004D01*
X156779880Y-36677487D01*
X157010003Y-36254550D01*
X157246386Y-35822153D01*
X157474881Y-35406255D01*
X157613576Y-35155070D01*
X157814906Y-34790713D01*
X158051404Y-34361687D01*
X158310357Y-33891115D01*
X158579055Y-33402120D01*
X158844785Y-32917827D01*
X159094835Y-32461359D01*
X159182009Y-32302000D01*
X159587158Y-31566919D01*
X159985109Y-30856339D01*
X160371551Y-30177491D01*
X160742174Y-29537607D01*
X161092667Y-28943919D01*
X161418718Y-28403660D01*
X161716018Y-27924060D01*
X161980255Y-27512351D01*
X162207118Y-27175767D01*
X162378474Y-26939517D01*
X162618500Y-26650096D01*
X162832571Y-26442006D01*
X163017138Y-26317227D01*
X163168655Y-26277742D01*
X163283573Y-26325530D01*
X163336974Y-26404352D01*
X163386473Y-26537914D01*
X163394991Y-26616437D01*
X163366821Y-26626923D01*
X163306255Y-26556373D01*
X163293475Y-26536091D01*
X163196991Y-26418900D01*
X163107349Y-26386147D01*
X163106162Y-26386359D01*
X163012195Y-26446337D01*
X162882054Y-26596108D01*
X162717319Y-26832866D01*
X162519572Y-27153804D01*
X162290394Y-27556118D01*
X162031367Y-28037000D01*
X161744071Y-28593645D01*
X161430088Y-29223248D01*
X161090999Y-29923001D01*
X160969985Y-30177000D01*
X160850808Y-30430949D01*
X160705345Y-30745511D01*
X160537259Y-31112457D01*
X160350208Y-31523559D01*
X160147852Y-31970587D01*
X159933853Y-32445313D01*
X159711869Y-32939507D01*
X159485561Y-33444941D01*
X159258589Y-33953386D01*
X159034613Y-34456613D01*
X158817293Y-34946394D01*
X158610289Y-35414499D01*
X158417262Y-35852700D01*
X158241870Y-36252767D01*
X158087776Y-36606473D01*
X157958637Y-36905587D01*
X157858115Y-37141881D01*
X157789870Y-37307127D01*
X157757561Y-37393096D01*
X157755668Y-37403681D01*
X157786279Y-37367903D01*
X157864667Y-37260091D01*
X157983079Y-37091374D01*
X158133760Y-36872881D01*
X158308955Y-36615743D01*
X158445000Y-36414293D01*
X158671787Y-36079369D01*
X158940282Y-35686376D01*
X159243631Y-35245108D01*
X159574982Y-34765355D01*
X159927481Y-34256909D01*
X160294275Y-33729560D01*
X160668510Y-33193101D01*
X161043334Y-32657323D01*
X161411892Y-32132017D01*
X161767331Y-31626975D01*
X162102798Y-31151988D01*
X162411441Y-30716847D01*
X162686405Y-30331344D01*
X162920836Y-30005270D01*
X163107883Y-29748417D01*
X163160652Y-29677000D01*
X164073378Y-28463337D01*
X164943805Y-27337415D01*
X165773820Y-26297266D01*
X166565311Y-25340921D01*
X167320164Y-24466412D01*
X168040267Y-23671773D01*
X168727507Y-22955034D01*
X169383771Y-22314229D01*
X170010947Y-21747389D01*
X170610922Y-21252546D01*
X171185583Y-20827733D01*
X171736818Y-20470982D01*
X172266513Y-20180324D01*
X172270000Y-20178592D01*
X172664843Y-19990152D01*
X173000898Y-19848691D01*
X173302781Y-19746020D01*
X173595107Y-19673946D01*
X173902492Y-19624278D01*
X173955302Y-19617794D01*
X174314351Y-19595559D01*
X174672490Y-19609527D01*
G36*
X153595000Y-42502000D02*
X153570000Y-42527000D01*
X153545000Y-42502000D01*
X153570000Y-42477000D01*
X153595000Y-42502000D01*
X153595000Y-42502000D01*
G37*
X153595000Y-42502000D02*
X153570000Y-42527000D01*
X153545000Y-42502000D01*
X153570000Y-42477000D01*
X153595000Y-42502000D01*
G36*
X158285976Y-30756749D02*
X158259792Y-30817014D01*
X158174641Y-30945213D01*
X158125789Y-31014384D01*
X158034400Y-31149282D01*
X157944859Y-31297350D01*
X157851546Y-31470429D01*
X157748843Y-31680359D01*
X157631132Y-31938981D01*
X157492792Y-32258136D01*
X157328206Y-32649665D01*
X157181679Y-33003962D01*
X157057062Y-33309884D01*
X156903367Y-33692242D01*
X156727257Y-34134078D01*
X156535396Y-34618433D01*
X156334447Y-35128351D01*
X156131073Y-35646872D01*
X155931939Y-36157037D01*
X155743707Y-36641890D01*
X155573041Y-37084471D01*
X155426604Y-37467822D01*
X155397467Y-37544734D01*
X155343494Y-37687469D01*
X155063041Y-37303440D01*
X154939042Y-37142885D01*
X154834337Y-37024351D01*
X154763412Y-36963364D01*
X154743236Y-36960705D01*
X154715256Y-37011752D01*
X154647626Y-37145313D01*
X154544060Y-37353793D01*
X154408276Y-37629600D01*
X154243986Y-37965138D01*
X154054908Y-38352814D01*
X153844755Y-38785034D01*
X153617242Y-39254203D01*
X153376086Y-39752728D01*
X153279849Y-39952000D01*
X152725786Y-41099117D01*
X152211649Y-42162140D01*
X151734401Y-43147274D01*
X151291007Y-44060725D01*
X150878432Y-44908701D01*
X150493640Y-45697408D01*
X150133595Y-46433052D01*
X149795263Y-47121840D01*
X149475608Y-47769978D01*
X149171593Y-48383673D01*
X148880185Y-48969131D01*
X148598346Y-49532558D01*
X148437917Y-49852000D01*
X148220483Y-50286890D01*
X148034814Y-50660745D01*
X147874305Y-50982148D01*
X147732355Y-51259684D01*
X147602358Y-51501938D01*
X147477713Y-51717492D01*
X147351815Y-51914932D01*
X147218061Y-52102843D01*
X147069849Y-52289807D01*
X146900574Y-52484410D01*
X146703633Y-52695236D01*
X146472424Y-52930870D01*
X146200342Y-53199894D01*
X145880784Y-53510895D01*
X145507147Y-53872455D01*
X145072828Y-54293160D01*
X144870000Y-54490269D01*
X144504153Y-54848245D01*
X144146229Y-55202215D01*
X143805569Y-55542687D01*
X143491510Y-55860166D01*
X143213392Y-56145158D01*
X142980554Y-56388171D01*
X142802336Y-56579711D01*
X142698596Y-56697556D01*
X142416461Y-57029288D01*
X142074340Y-57421544D01*
X141682239Y-57863428D01*
X141250166Y-58344041D01*
X140788125Y-58852486D01*
X140306122Y-59377864D01*
X139814165Y-59909277D01*
X139322258Y-60435829D01*
X138840407Y-60946620D01*
X138378620Y-61430753D01*
X137946900Y-61877331D01*
X137876258Y-61949713D01*
X137637334Y-62194835D01*
X137424004Y-62415033D01*
X137245487Y-62600679D01*
X137111004Y-62742148D01*
X137029774Y-62829813D01*
X137009380Y-62854803D01*
X137070836Y-62876699D01*
X137210079Y-62916759D01*
X137407611Y-62970013D01*
X137643930Y-63031491D01*
X137899538Y-63096221D01*
X138154935Y-63159234D01*
X138390621Y-63215559D01*
X138587097Y-63260224D01*
X138663003Y-63276319D01*
X138984121Y-63336869D01*
X139217491Y-63368758D01*
X139370994Y-63372572D01*
X139452510Y-63348895D01*
X139464581Y-63335767D01*
X139512351Y-63288636D01*
X139620441Y-63194968D01*
X139770710Y-63070222D01*
X139880032Y-62981704D01*
X140270000Y-62668874D01*
X139875408Y-63041042D01*
X139480817Y-63413210D01*
X139650408Y-63443561D01*
X139951004Y-63487039D01*
X140311289Y-63522258D01*
X140717612Y-63549318D01*
X141156321Y-63568319D01*
X141613766Y-63579360D01*
X142076296Y-63582543D01*
X142530258Y-63577965D01*
X142962002Y-63565729D01*
X143357877Y-63545933D01*
X143704231Y-63518677D01*
X143987414Y-63484062D01*
X144193773Y-63442186D01*
X144283187Y-63409648D01*
X144340360Y-63350656D01*
X144441552Y-63213558D01*
X144581371Y-63007186D01*
X144754424Y-62740374D01*
X144955321Y-62421957D01*
X145178668Y-62060766D01*
X145419073Y-61665635D01*
X145671145Y-61245399D01*
X145929492Y-60808889D01*
X146188721Y-60364941D01*
X146443440Y-59922386D01*
X146688258Y-59490059D01*
X146821083Y-59252000D01*
X147031854Y-58878407D01*
X147258222Y-58488364D01*
X147486993Y-58103842D01*
X147704968Y-57746813D01*
X147898951Y-57439249D01*
X148022283Y-57252000D01*
X148206809Y-56970244D01*
X148421106Y-56627924D01*
X148648306Y-56252931D01*
X148871538Y-55873156D01*
X149073930Y-55516491D01*
X149094179Y-55479896D01*
X149342664Y-55040901D01*
X149587014Y-54635165D01*
X149844806Y-54235415D01*
X150133616Y-53814376D01*
X150463626Y-53354896D01*
X151170316Y-52367520D01*
X151838116Y-51391997D01*
X152482551Y-50404268D01*
X153119145Y-49380274D01*
X153763424Y-48295956D01*
X154062809Y-47777000D01*
X154242456Y-47468298D01*
X154405933Y-47201833D01*
X154567973Y-46956723D01*
X154743312Y-46712088D01*
X154946686Y-46447048D01*
X155192828Y-46140725D01*
X155368352Y-45927000D01*
X155610598Y-45633153D01*
X155851558Y-45340051D01*
X156077567Y-45064373D01*
X156274963Y-44822800D01*
X156430083Y-44632011D01*
X156494652Y-44552000D01*
X156650048Y-44360571D01*
X156846796Y-44121204D01*
X157061523Y-43862190D01*
X157270854Y-43611816D01*
X157305464Y-43570674D01*
X157475903Y-43364296D01*
X157620527Y-43181591D01*
X157728036Y-43037433D01*
X157787135Y-42946699D01*
X157795000Y-42926064D01*
X157781660Y-42850980D01*
X157747336Y-42714525D01*
X157700568Y-42546088D01*
X157649895Y-42375058D01*
X157603859Y-42230824D01*
X157570999Y-42142776D01*
X157563701Y-42130118D01*
X157520044Y-42150364D01*
X157426228Y-42224666D01*
X157309879Y-42330118D01*
X157194490Y-42434100D01*
X157140473Y-42468554D01*
X157150946Y-42431547D01*
X157153701Y-42427000D01*
X157223606Y-42305450D01*
X157309605Y-42145809D01*
X157343535Y-42080197D01*
X157411767Y-41951942D01*
X157453615Y-41902140D01*
X157486564Y-41919382D01*
X157515269Y-41968160D01*
X157542179Y-42009070D01*
X157576165Y-42023089D01*
X157630080Y-42002181D01*
X157716776Y-41938310D01*
X157849107Y-41823438D01*
X158039925Y-41649529D01*
X158072006Y-41620043D01*
X158637923Y-41104091D01*
X159142083Y-40654113D01*
X159591936Y-40263895D01*
X159994930Y-39927226D01*
X160358513Y-39637894D01*
X160690134Y-39389685D01*
X160997241Y-39176388D01*
X161020000Y-39161291D01*
X161427046Y-38909249D01*
X161775355Y-38729834D01*
X162063194Y-38623660D01*
X162288832Y-38591343D01*
X162450536Y-38633496D01*
X162470000Y-38646915D01*
X162523376Y-38693667D01*
X162513439Y-38716499D01*
X162425707Y-38724311D01*
X162342289Y-38725409D01*
X162119378Y-38758470D01*
X161898209Y-38864267D01*
X161888360Y-38870462D01*
X161713233Y-38994200D01*
X161486413Y-39173122D01*
X161226328Y-39391117D01*
X160951406Y-39632076D01*
X160680078Y-39879888D01*
X160430770Y-40118442D01*
X160245000Y-40307105D01*
X160090716Y-40471564D01*
X159895270Y-40682411D01*
X159668923Y-40928343D01*
X159421932Y-41198058D01*
X159164558Y-41480252D01*
X158907059Y-41763623D01*
X158659696Y-42036868D01*
X158432728Y-42288683D01*
X158236414Y-42507766D01*
X158081013Y-42682814D01*
X157976785Y-42802524D01*
X157942595Y-42843700D01*
X157832392Y-42983801D01*
X157967626Y-43592900D01*
X158078715Y-44121951D01*
X158165094Y-44606131D01*
X158230030Y-45073709D01*
X158276792Y-45552950D01*
X158308648Y-46072123D01*
X158328867Y-46659495D01*
X158330574Y-46731857D01*
X158336841Y-47544710D01*
X158315052Y-48286716D01*
X158262616Y-48983731D01*
X158176941Y-49661612D01*
X158055436Y-50346214D01*
X157897159Y-51056591D01*
X157551051Y-52275381D01*
X157113502Y-53458028D01*
X156588032Y-54599730D01*
X155978164Y-55695683D01*
X155287418Y-56741082D01*
X154519316Y-57731123D01*
X153677380Y-58661003D01*
X152765131Y-59525917D01*
X151786089Y-60321062D01*
X150743777Y-61041634D01*
X150439741Y-61230181D01*
X149402098Y-61806216D01*
X148316653Y-62310108D01*
X147200040Y-62735592D01*
X146068888Y-63076401D01*
X144939832Y-63326271D01*
X144820000Y-63347333D01*
X144557162Y-63400833D01*
X144387571Y-63456012D01*
X144305771Y-63513202D01*
X144260414Y-63577881D01*
X144166974Y-63712604D01*
X144034000Y-63904992D01*
X143870040Y-64142671D01*
X143683640Y-64413263D01*
X143536568Y-64627000D01*
X142987859Y-65406000D01*
X142471679Y-66098827D01*
X141982399Y-66711743D01*
X141514388Y-67251008D01*
X141062017Y-67722882D01*
X140619655Y-68133626D01*
X140181673Y-68489500D01*
X139851130Y-68725201D01*
X139559807Y-68903074D01*
X139224435Y-69079363D01*
X138876825Y-69239343D01*
X138548790Y-69368288D01*
X138292446Y-69446653D01*
X137882409Y-69519453D01*
X137438710Y-69551827D01*
X137004934Y-69542279D01*
X136685340Y-69501766D01*
X136092819Y-69338674D01*
X135524945Y-69078851D01*
X134982480Y-68722674D01*
X134794703Y-68571899D01*
X134649764Y-68459030D01*
X134531783Y-68400443D01*
X134397647Y-68379073D01*
X134302311Y-68377000D01*
X133632252Y-68337729D01*
X132952355Y-68224318D01*
X132790664Y-68180434D01*
X136485789Y-68180434D01*
X136555010Y-68223850D01*
X136620000Y-68244146D01*
X136714834Y-68255057D01*
X136878864Y-68260404D01*
X137081402Y-68259393D01*
X137145000Y-68257734D01*
X137436665Y-68236675D01*
X137677333Y-68188228D01*
X137883939Y-68115965D01*
X138221918Y-67961647D01*
X138524385Y-67784928D01*
X138818306Y-67567283D01*
X139130647Y-67290189D01*
X139241378Y-67183504D01*
X139404787Y-67020717D01*
X139526244Y-66894044D01*
X139596752Y-66813368D01*
X139607313Y-66788574D01*
X139595000Y-66795044D01*
X139078204Y-67116015D01*
X138631665Y-67371974D01*
X138251575Y-67565100D01*
X138233384Y-67573545D01*
X137965059Y-67688553D01*
X137657749Y-67806084D01*
X137339252Y-67916788D01*
X137037366Y-68011318D01*
X136779889Y-68080325D01*
X136644377Y-68107899D01*
X136515761Y-68140757D01*
X136485789Y-68180434D01*
X132790664Y-68180434D01*
X132285654Y-68043372D01*
X131655186Y-67801493D01*
X131083984Y-67505284D01*
X130935123Y-67411749D01*
X130762947Y-67311569D01*
X130593708Y-67233705D01*
X130495000Y-67202546D01*
X130364809Y-67163868D01*
X130181828Y-67094003D01*
X129982446Y-67007005D01*
X129953365Y-66993343D01*
X129553386Y-66748932D01*
X129552739Y-66748324D01*
X134421874Y-66748324D01*
X134438459Y-66787964D01*
X134485196Y-66841562D01*
X134496225Y-66853304D01*
X134558778Y-66914987D01*
X134620943Y-66953123D01*
X134702055Y-66968294D01*
X134821450Y-66961084D01*
X134998465Y-66932077D01*
X135252434Y-66881856D01*
X135276996Y-66876871D01*
X135481321Y-66831311D01*
X135715405Y-66772703D01*
X135961151Y-66706399D01*
X136200462Y-66637751D01*
X136415242Y-66572112D01*
X136587394Y-66514832D01*
X136698822Y-66471265D01*
X136731429Y-66446763D01*
X136731391Y-66446725D01*
X136677311Y-66446518D01*
X136548774Y-66461696D01*
X136369613Y-66489236D01*
X136293304Y-66502298D01*
X136075173Y-66535485D01*
X135793968Y-66570875D01*
X135486406Y-66604176D01*
X135196729Y-66630493D01*
X134888768Y-66655627D01*
X134668887Y-66676291D01*
X134525502Y-66696172D01*
X134447026Y-66718955D01*
X134421874Y-66748324D01*
X129552739Y-66748324D01*
X129206574Y-66423485D01*
X128916276Y-66022672D01*
X128685838Y-65552162D01*
X128518607Y-65017625D01*
X128417930Y-64424730D01*
X128413862Y-64385239D01*
X128378681Y-64170234D01*
X128316893Y-63915285D01*
X128241257Y-63672374D01*
X128233883Y-63652000D01*
X128038172Y-63049625D01*
X128012991Y-62952000D01*
X128987329Y-62952000D01*
X129009140Y-63309634D01*
X129031239Y-63527420D01*
X129076243Y-63705975D01*
X129158539Y-63892795D01*
X129221215Y-64009634D01*
X129646678Y-64697818D01*
X130108620Y-65295636D01*
X130610217Y-65807017D01*
X130820000Y-65986083D01*
X131120000Y-66229118D01*
X131445000Y-66198127D01*
X131614292Y-66179419D01*
X131739198Y-66160804D01*
X131790833Y-66147068D01*
X131801545Y-66133606D01*
X131792002Y-66115854D01*
X131746484Y-66082682D01*
X131649274Y-66022959D01*
X131484653Y-65925557D01*
X131445000Y-65902192D01*
X130898533Y-65533975D01*
X130407848Y-65103407D01*
X129964959Y-64601579D01*
X129561876Y-64019582D01*
X129235856Y-63438158D01*
X128987329Y-62952000D01*
X128012991Y-62952000D01*
X127860303Y-62360062D01*
X127702681Y-61594924D01*
X127567711Y-60765822D01*
X127462389Y-59927000D01*
X127439417Y-59665205D01*
X127420142Y-59346679D01*
X127404671Y-58986590D01*
X127393110Y-58600108D01*
X127385565Y-58202401D01*
X127382143Y-57808638D01*
X127382949Y-57433988D01*
X127388090Y-57093620D01*
X127397672Y-56802703D01*
X127411802Y-56576405D01*
X127430585Y-56429895D01*
X127437706Y-56402000D01*
X127465265Y-56326362D01*
X127480577Y-56322530D01*
X127487946Y-56400607D01*
X127490986Y-56527000D01*
X127507219Y-56924249D01*
X127542206Y-57395990D01*
X127592991Y-57919101D01*
X127656617Y-58470458D01*
X127730126Y-59026940D01*
X127810563Y-59565423D01*
X127894971Y-60062784D01*
X127980393Y-60495902D01*
X128021751Y-60677786D01*
X128098146Y-60982302D01*
X128179117Y-61282634D01*
X128260040Y-61563919D01*
X128336289Y-61811292D01*
X128403241Y-62009892D01*
X128456270Y-62144853D01*
X128490753Y-62201313D01*
X128495839Y-62201481D01*
X128541767Y-62120541D01*
X128564724Y-61961543D01*
X128564747Y-61743747D01*
X128541873Y-61486410D01*
X128496139Y-61208794D01*
X128493917Y-61197935D01*
X128421490Y-60825273D01*
X128362637Y-60468583D01*
X128315964Y-60110890D01*
X128280081Y-59735219D01*
X128253594Y-59324593D01*
X128235111Y-58862038D01*
X128223239Y-58330578D01*
X128217426Y-57827000D01*
X128209632Y-56853257D01*
X128497446Y-56853257D01*
X128502248Y-57047542D01*
X128512167Y-57289453D01*
X128526332Y-57561632D01*
X128543874Y-57846720D01*
X128563922Y-58127360D01*
X128585608Y-58386193D01*
X128599377Y-58527000D01*
X128627153Y-58761690D01*
X128664058Y-59030805D01*
X128706808Y-59314713D01*
X128752122Y-59593783D01*
X128796716Y-59848384D01*
X128837307Y-60058884D01*
X128870613Y-60205653D01*
X128889862Y-60264092D01*
X128916859Y-60243785D01*
X128966379Y-60143636D01*
X129031653Y-59979420D01*
X129105918Y-59766909D01*
X129115054Y-59739092D01*
X129227541Y-59403643D01*
X129328135Y-59121952D01*
X129413029Y-58903599D01*
X129478419Y-58758163D01*
X129520498Y-58695221D01*
X129529792Y-58695125D01*
X129528112Y-58749263D01*
X129508195Y-58881695D01*
X129473343Y-59073059D01*
X129426858Y-59303996D01*
X129422172Y-59326269D01*
X129358332Y-59641506D01*
X129290336Y-59998210D01*
X129228075Y-60343606D01*
X129196044Y-60532887D01*
X129098705Y-61129530D01*
X129250642Y-61565765D01*
X129377779Y-61900284D01*
X129534991Y-62267109D01*
X129709038Y-62638688D01*
X129886680Y-62987472D01*
X130054675Y-63285908D01*
X130148461Y-63433985D01*
X130386893Y-63749765D01*
X130676236Y-64075068D01*
X130986174Y-64378415D01*
X131286391Y-64628329D01*
X131327986Y-64658742D01*
X131479315Y-64758250D01*
X131665668Y-64867885D01*
X131867076Y-64977549D01*
X132063570Y-65077143D01*
X132235184Y-65156571D01*
X132361947Y-65205732D01*
X132423892Y-65214531D01*
X132425106Y-65213560D01*
X132415902Y-65161578D01*
X132372666Y-65042900D01*
X132304196Y-64881193D01*
X132288985Y-64847391D01*
X132141366Y-64507679D01*
X131975307Y-64101043D01*
X131801680Y-63656169D01*
X131631355Y-63201741D01*
X131475203Y-62766442D01*
X131344095Y-62378959D01*
X131295906Y-62227000D01*
X131212581Y-61948478D01*
X131122678Y-61633690D01*
X131030244Y-61298351D01*
X130939323Y-60958175D01*
X130853962Y-60628879D01*
X130778206Y-60326179D01*
X130716102Y-60065789D01*
X130671695Y-59863426D01*
X130649031Y-59734806D01*
X130646974Y-59706304D01*
X130665204Y-59725461D01*
X130716056Y-59827663D01*
X130795232Y-60003019D01*
X130898434Y-60241638D01*
X131021362Y-60533631D01*
X131159718Y-60869107D01*
X131264448Y-61127000D01*
X131484022Y-61666631D01*
X131677077Y-62129934D01*
X131851768Y-62534375D01*
X132016250Y-62897422D01*
X132178678Y-63236541D01*
X132347207Y-63569199D01*
X132529992Y-63912865D01*
X132735189Y-64285004D01*
X132757359Y-64324642D01*
X132956786Y-64678221D01*
X133115855Y-64952964D01*
X133241179Y-65158317D01*
X133339370Y-65303727D01*
X133417039Y-65398640D01*
X133480799Y-65452504D01*
X133537261Y-65474766D01*
X133563906Y-65477000D01*
X133654526Y-65450366D01*
X133803843Y-65378482D01*
X133988584Y-65273372D01*
X134127445Y-65185855D01*
X134331257Y-65045623D01*
X134583669Y-64862319D01*
X134856483Y-64656922D01*
X135121503Y-64450411D01*
X135195417Y-64391262D01*
X135243347Y-64352000D01*
X138145000Y-64352000D01*
X138170000Y-64377000D01*
X138195000Y-64352000D01*
X138170000Y-64327000D01*
X138145000Y-64352000D01*
X135243347Y-64352000D01*
X135294951Y-64309728D01*
X138245000Y-64309728D01*
X138283221Y-64300257D01*
X138397469Y-64227000D01*
X138587121Y-64090398D01*
X138851553Y-63890888D01*
X138985655Y-63787753D01*
X139154040Y-63653999D01*
X139285043Y-63542867D01*
X139363286Y-63467865D01*
X139377907Y-63443240D01*
X139333867Y-63464426D01*
X139229148Y-63535093D01*
X139080996Y-63642051D01*
X138906656Y-63772109D01*
X138723375Y-63912077D01*
X138548398Y-64048765D01*
X138398970Y-64168984D01*
X138292339Y-64259542D01*
X138245749Y-64307249D01*
X138245000Y-64309728D01*
X135294951Y-64309728D01*
X135410625Y-64214974D01*
X135646910Y-64016670D01*
X135892822Y-63806487D01*
X136136913Y-63594563D01*
X136367734Y-63391038D01*
X136573836Y-63206050D01*
X136743770Y-63049737D01*
X136866088Y-62932237D01*
X136929341Y-62863689D01*
X136935061Y-62850727D01*
X136885045Y-62828809D01*
X136759699Y-62779825D01*
X136577659Y-62710916D01*
X136357562Y-62629225D01*
X136346315Y-62625088D01*
X135181757Y-62145850D01*
X134057580Y-61580931D01*
X132980537Y-60935322D01*
X131957380Y-60214013D01*
X130994862Y-59421995D01*
X130099734Y-58564258D01*
X129278751Y-57645792D01*
X128822213Y-57064500D01*
X128695954Y-56898794D01*
X128591824Y-56768457D01*
X128524017Y-56690922D01*
X128506669Y-56677000D01*
X128498630Y-56723957D01*
X128497446Y-56853257D01*
X128209632Y-56853257D01*
X128204418Y-56202000D01*
X127870111Y-55652000D01*
X127259907Y-54552666D01*
X126738924Y-53409089D01*
X126306975Y-52220713D01*
X125963875Y-50986982D01*
X125709438Y-49707342D01*
X125588812Y-48827000D01*
X125565501Y-48548548D01*
X125548216Y-48193128D01*
X125536957Y-47783589D01*
X125531723Y-47342780D01*
X125532515Y-46893551D01*
X125539334Y-46458750D01*
X125552177Y-46061229D01*
X125571047Y-45723835D01*
X125588812Y-45527000D01*
X125785012Y-44213906D01*
X126071187Y-42944418D01*
X126447430Y-41718309D01*
X126913833Y-40535353D01*
X127470491Y-39395321D01*
X128117496Y-38297986D01*
X128854942Y-37243122D01*
X129139959Y-36877000D01*
X129394506Y-36573748D01*
X129704569Y-36227862D01*
X130049121Y-35861059D01*
X130407135Y-35495055D01*
X130757584Y-35151568D01*
X131079441Y-34852315D01*
X131220000Y-34728704D01*
X132225602Y-33930466D01*
X133282925Y-33217057D01*
X134388177Y-32590130D01*
X135537564Y-32051336D01*
X136727292Y-31602329D01*
X137953570Y-31244762D01*
X139212603Y-30980288D01*
X140120000Y-30850430D01*
X140492097Y-30816761D01*
X140935633Y-30791893D01*
X141424655Y-30776026D01*
X141933208Y-30769361D01*
X142435338Y-30772097D01*
X142905091Y-30784436D01*
X143316512Y-30806578D01*
X143520000Y-30824178D01*
X144814854Y-31005486D01*
X146069458Y-31278215D01*
X147284880Y-31642804D01*
X148462183Y-32099695D01*
X149602434Y-32649326D01*
X150706700Y-33292138D01*
X151776044Y-34028572D01*
X152345000Y-34469893D01*
X152563248Y-34654725D01*
X152823568Y-34888960D01*
X153110786Y-35157631D01*
X153409731Y-35445768D01*
X153705230Y-35738405D01*
X153982110Y-36020573D01*
X154225200Y-36277304D01*
X154419327Y-36493629D01*
X154520000Y-36615622D01*
X154625781Y-36747399D01*
X154707125Y-36840709D01*
X154745000Y-36874439D01*
X154772654Y-36831818D01*
X154839564Y-36710207D01*
X154940277Y-36520065D01*
X155069340Y-36271852D01*
X155221300Y-35976026D01*
X155390703Y-35643047D01*
X155506427Y-35413945D01*
X155865241Y-34708969D01*
X156210321Y-34045417D01*
X156538679Y-33428463D01*
X156847323Y-32863280D01*
X157133266Y-32355045D01*
X157393516Y-31908929D01*
X157625084Y-31530107D01*
X157824981Y-31223754D01*
X157990215Y-30995044D01*
X158117799Y-30849150D01*
X158168011Y-30807900D01*
X158254835Y-30756388D01*
X158285976Y-30756749D01*
X158285976Y-30756749D01*
G37*
X158285976Y-30756749D02*
X158259792Y-30817014D01*
X158174641Y-30945213D01*
X158125789Y-31014384D01*
X158034400Y-31149282D01*
X157944859Y-31297350D01*
X157851546Y-31470429D01*
X157748843Y-31680359D01*
X157631132Y-31938981D01*
X157492792Y-32258136D01*
X157328206Y-32649665D01*
X157181679Y-33003962D01*
X157057062Y-33309884D01*
X156903367Y-33692242D01*
X156727257Y-34134078D01*
X156535396Y-34618433D01*
X156334447Y-35128351D01*
X156131073Y-35646872D01*
X155931939Y-36157037D01*
X155743707Y-36641890D01*
X155573041Y-37084471D01*
X155426604Y-37467822D01*
X155397467Y-37544734D01*
X155343494Y-37687469D01*
X155063041Y-37303440D01*
X154939042Y-37142885D01*
X154834337Y-37024351D01*
X154763412Y-36963364D01*
X154743236Y-36960705D01*
X154715256Y-37011752D01*
X154647626Y-37145313D01*
X154544060Y-37353793D01*
X154408276Y-37629600D01*
X154243986Y-37965138D01*
X154054908Y-38352814D01*
X153844755Y-38785034D01*
X153617242Y-39254203D01*
X153376086Y-39752728D01*
X153279849Y-39952000D01*
X152725786Y-41099117D01*
X152211649Y-42162140D01*
X151734401Y-43147274D01*
X151291007Y-44060725D01*
X150878432Y-44908701D01*
X150493640Y-45697408D01*
X150133595Y-46433052D01*
X149795263Y-47121840D01*
X149475608Y-47769978D01*
X149171593Y-48383673D01*
X148880185Y-48969131D01*
X148598346Y-49532558D01*
X148437917Y-49852000D01*
X148220483Y-50286890D01*
X148034814Y-50660745D01*
X147874305Y-50982148D01*
X147732355Y-51259684D01*
X147602358Y-51501938D01*
X147477713Y-51717492D01*
X147351815Y-51914932D01*
X147218061Y-52102843D01*
X147069849Y-52289807D01*
X146900574Y-52484410D01*
X146703633Y-52695236D01*
X146472424Y-52930870D01*
X146200342Y-53199894D01*
X145880784Y-53510895D01*
X145507147Y-53872455D01*
X145072828Y-54293160D01*
X144870000Y-54490269D01*
X144504153Y-54848245D01*
X144146229Y-55202215D01*
X143805569Y-55542687D01*
X143491510Y-55860166D01*
X143213392Y-56145158D01*
X142980554Y-56388171D01*
X142802336Y-56579711D01*
X142698596Y-56697556D01*
X142416461Y-57029288D01*
X142074340Y-57421544D01*
X141682239Y-57863428D01*
X141250166Y-58344041D01*
X140788125Y-58852486D01*
X140306122Y-59377864D01*
X139814165Y-59909277D01*
X139322258Y-60435829D01*
X138840407Y-60946620D01*
X138378620Y-61430753D01*
X137946900Y-61877331D01*
X137876258Y-61949713D01*
X137637334Y-62194835D01*
X137424004Y-62415033D01*
X137245487Y-62600679D01*
X137111004Y-62742148D01*
X137029774Y-62829813D01*
X137009380Y-62854803D01*
X137070836Y-62876699D01*
X137210079Y-62916759D01*
X137407611Y-62970013D01*
X137643930Y-63031491D01*
X137899538Y-63096221D01*
X138154935Y-63159234D01*
X138390621Y-63215559D01*
X138587097Y-63260224D01*
X138663003Y-63276319D01*
X138984121Y-63336869D01*
X139217491Y-63368758D01*
X139370994Y-63372572D01*
X139452510Y-63348895D01*
X139464581Y-63335767D01*
X139512351Y-63288636D01*
X139620441Y-63194968D01*
X139770710Y-63070222D01*
X139880032Y-62981704D01*
X140270000Y-62668874D01*
X139875408Y-63041042D01*
X139480817Y-63413210D01*
X139650408Y-63443561D01*
X139951004Y-63487039D01*
X140311289Y-63522258D01*
X140717612Y-63549318D01*
X141156321Y-63568319D01*
X141613766Y-63579360D01*
X142076296Y-63582543D01*
X142530258Y-63577965D01*
X142962002Y-63565729D01*
X143357877Y-63545933D01*
X143704231Y-63518677D01*
X143987414Y-63484062D01*
X144193773Y-63442186D01*
X144283187Y-63409648D01*
X144340360Y-63350656D01*
X144441552Y-63213558D01*
X144581371Y-63007186D01*
X144754424Y-62740374D01*
X144955321Y-62421957D01*
X145178668Y-62060766D01*
X145419073Y-61665635D01*
X145671145Y-61245399D01*
X145929492Y-60808889D01*
X146188721Y-60364941D01*
X146443440Y-59922386D01*
X146688258Y-59490059D01*
X146821083Y-59252000D01*
X147031854Y-58878407D01*
X147258222Y-58488364D01*
X147486993Y-58103842D01*
X147704968Y-57746813D01*
X147898951Y-57439249D01*
X148022283Y-57252000D01*
X148206809Y-56970244D01*
X148421106Y-56627924D01*
X148648306Y-56252931D01*
X148871538Y-55873156D01*
X149073930Y-55516491D01*
X149094179Y-55479896D01*
X149342664Y-55040901D01*
X149587014Y-54635165D01*
X149844806Y-54235415D01*
X150133616Y-53814376D01*
X150463626Y-53354896D01*
X151170316Y-52367520D01*
X151838116Y-51391997D01*
X152482551Y-50404268D01*
X153119145Y-49380274D01*
X153763424Y-48295956D01*
X154062809Y-47777000D01*
X154242456Y-47468298D01*
X154405933Y-47201833D01*
X154567973Y-46956723D01*
X154743312Y-46712088D01*
X154946686Y-46447048D01*
X155192828Y-46140725D01*
X155368352Y-45927000D01*
X155610598Y-45633153D01*
X155851558Y-45340051D01*
X156077567Y-45064373D01*
X156274963Y-44822800D01*
X156430083Y-44632011D01*
X156494652Y-44552000D01*
X156650048Y-44360571D01*
X156846796Y-44121204D01*
X157061523Y-43862190D01*
X157270854Y-43611816D01*
X157305464Y-43570674D01*
X157475903Y-43364296D01*
X157620527Y-43181591D01*
X157728036Y-43037433D01*
X157787135Y-42946699D01*
X157795000Y-42926064D01*
X157781660Y-42850980D01*
X157747336Y-42714525D01*
X157700568Y-42546088D01*
X157649895Y-42375058D01*
X157603859Y-42230824D01*
X157570999Y-42142776D01*
X157563701Y-42130118D01*
X157520044Y-42150364D01*
X157426228Y-42224666D01*
X157309879Y-42330118D01*
X157194490Y-42434100D01*
X157140473Y-42468554D01*
X157150946Y-42431547D01*
X157153701Y-42427000D01*
X157223606Y-42305450D01*
X157309605Y-42145809D01*
X157343535Y-42080197D01*
X157411767Y-41951942D01*
X157453615Y-41902140D01*
X157486564Y-41919382D01*
X157515269Y-41968160D01*
X157542179Y-42009070D01*
X157576165Y-42023089D01*
X157630080Y-42002181D01*
X157716776Y-41938310D01*
X157849107Y-41823438D01*
X158039925Y-41649529D01*
X158072006Y-41620043D01*
X158637923Y-41104091D01*
X159142083Y-40654113D01*
X159591936Y-40263895D01*
X159994930Y-39927226D01*
X160358513Y-39637894D01*
X160690134Y-39389685D01*
X160997241Y-39176388D01*
X161020000Y-39161291D01*
X161427046Y-38909249D01*
X161775355Y-38729834D01*
X162063194Y-38623660D01*
X162288832Y-38591343D01*
X162450536Y-38633496D01*
X162470000Y-38646915D01*
X162523376Y-38693667D01*
X162513439Y-38716499D01*
X162425707Y-38724311D01*
X162342289Y-38725409D01*
X162119378Y-38758470D01*
X161898209Y-38864267D01*
X161888360Y-38870462D01*
X161713233Y-38994200D01*
X161486413Y-39173122D01*
X161226328Y-39391117D01*
X160951406Y-39632076D01*
X160680078Y-39879888D01*
X160430770Y-40118442D01*
X160245000Y-40307105D01*
X160090716Y-40471564D01*
X159895270Y-40682411D01*
X159668923Y-40928343D01*
X159421932Y-41198058D01*
X159164558Y-41480252D01*
X158907059Y-41763623D01*
X158659696Y-42036868D01*
X158432728Y-42288683D01*
X158236414Y-42507766D01*
X158081013Y-42682814D01*
X157976785Y-42802524D01*
X157942595Y-42843700D01*
X157832392Y-42983801D01*
X157967626Y-43592900D01*
X158078715Y-44121951D01*
X158165094Y-44606131D01*
X158230030Y-45073709D01*
X158276792Y-45552950D01*
X158308648Y-46072123D01*
X158328867Y-46659495D01*
X158330574Y-46731857D01*
X158336841Y-47544710D01*
X158315052Y-48286716D01*
X158262616Y-48983731D01*
X158176941Y-49661612D01*
X158055436Y-50346214D01*
X157897159Y-51056591D01*
X157551051Y-52275381D01*
X157113502Y-53458028D01*
X156588032Y-54599730D01*
X155978164Y-55695683D01*
X155287418Y-56741082D01*
X154519316Y-57731123D01*
X153677380Y-58661003D01*
X152765131Y-59525917D01*
X151786089Y-60321062D01*
X150743777Y-61041634D01*
X150439741Y-61230181D01*
X149402098Y-61806216D01*
X148316653Y-62310108D01*
X147200040Y-62735592D01*
X146068888Y-63076401D01*
X144939832Y-63326271D01*
X144820000Y-63347333D01*
X144557162Y-63400833D01*
X144387571Y-63456012D01*
X144305771Y-63513202D01*
X144260414Y-63577881D01*
X144166974Y-63712604D01*
X144034000Y-63904992D01*
X143870040Y-64142671D01*
X143683640Y-64413263D01*
X143536568Y-64627000D01*
X142987859Y-65406000D01*
X142471679Y-66098827D01*
X141982399Y-66711743D01*
X141514388Y-67251008D01*
X141062017Y-67722882D01*
X140619655Y-68133626D01*
X140181673Y-68489500D01*
X139851130Y-68725201D01*
X139559807Y-68903074D01*
X139224435Y-69079363D01*
X138876825Y-69239343D01*
X138548790Y-69368288D01*
X138292446Y-69446653D01*
X137882409Y-69519453D01*
X137438710Y-69551827D01*
X137004934Y-69542279D01*
X136685340Y-69501766D01*
X136092819Y-69338674D01*
X135524945Y-69078851D01*
X134982480Y-68722674D01*
X134794703Y-68571899D01*
X134649764Y-68459030D01*
X134531783Y-68400443D01*
X134397647Y-68379073D01*
X134302311Y-68377000D01*
X133632252Y-68337729D01*
X132952355Y-68224318D01*
X132790664Y-68180434D01*
X136485789Y-68180434D01*
X136555010Y-68223850D01*
X136620000Y-68244146D01*
X136714834Y-68255057D01*
X136878864Y-68260404D01*
X137081402Y-68259393D01*
X137145000Y-68257734D01*
X137436665Y-68236675D01*
X137677333Y-68188228D01*
X137883939Y-68115965D01*
X138221918Y-67961647D01*
X138524385Y-67784928D01*
X138818306Y-67567283D01*
X139130647Y-67290189D01*
X139241378Y-67183504D01*
X139404787Y-67020717D01*
X139526244Y-66894044D01*
X139596752Y-66813368D01*
X139607313Y-66788574D01*
X139595000Y-66795044D01*
X139078204Y-67116015D01*
X138631665Y-67371974D01*
X138251575Y-67565100D01*
X138233384Y-67573545D01*
X137965059Y-67688553D01*
X137657749Y-67806084D01*
X137339252Y-67916788D01*
X137037366Y-68011318D01*
X136779889Y-68080325D01*
X136644377Y-68107899D01*
X136515761Y-68140757D01*
X136485789Y-68180434D01*
X132790664Y-68180434D01*
X132285654Y-68043372D01*
X131655186Y-67801493D01*
X131083984Y-67505284D01*
X130935123Y-67411749D01*
X130762947Y-67311569D01*
X130593708Y-67233705D01*
X130495000Y-67202546D01*
X130364809Y-67163868D01*
X130181828Y-67094003D01*
X129982446Y-67007005D01*
X129953365Y-66993343D01*
X129553386Y-66748932D01*
X129552739Y-66748324D01*
X134421874Y-66748324D01*
X134438459Y-66787964D01*
X134485196Y-66841562D01*
X134496225Y-66853304D01*
X134558778Y-66914987D01*
X134620943Y-66953123D01*
X134702055Y-66968294D01*
X134821450Y-66961084D01*
X134998465Y-66932077D01*
X135252434Y-66881856D01*
X135276996Y-66876871D01*
X135481321Y-66831311D01*
X135715405Y-66772703D01*
X135961151Y-66706399D01*
X136200462Y-66637751D01*
X136415242Y-66572112D01*
X136587394Y-66514832D01*
X136698822Y-66471265D01*
X136731429Y-66446763D01*
X136731391Y-66446725D01*
X136677311Y-66446518D01*
X136548774Y-66461696D01*
X136369613Y-66489236D01*
X136293304Y-66502298D01*
X136075173Y-66535485D01*
X135793968Y-66570875D01*
X135486406Y-66604176D01*
X135196729Y-66630493D01*
X134888768Y-66655627D01*
X134668887Y-66676291D01*
X134525502Y-66696172D01*
X134447026Y-66718955D01*
X134421874Y-66748324D01*
X129552739Y-66748324D01*
X129206574Y-66423485D01*
X128916276Y-66022672D01*
X128685838Y-65552162D01*
X128518607Y-65017625D01*
X128417930Y-64424730D01*
X128413862Y-64385239D01*
X128378681Y-64170234D01*
X128316893Y-63915285D01*
X128241257Y-63672374D01*
X128233883Y-63652000D01*
X128038172Y-63049625D01*
X128012991Y-62952000D01*
X128987329Y-62952000D01*
X129009140Y-63309634D01*
X129031239Y-63527420D01*
X129076243Y-63705975D01*
X129158539Y-63892795D01*
X129221215Y-64009634D01*
X129646678Y-64697818D01*
X130108620Y-65295636D01*
X130610217Y-65807017D01*
X130820000Y-65986083D01*
X131120000Y-66229118D01*
X131445000Y-66198127D01*
X131614292Y-66179419D01*
X131739198Y-66160804D01*
X131790833Y-66147068D01*
X131801545Y-66133606D01*
X131792002Y-66115854D01*
X131746484Y-66082682D01*
X131649274Y-66022959D01*
X131484653Y-65925557D01*
X131445000Y-65902192D01*
X130898533Y-65533975D01*
X130407848Y-65103407D01*
X129964959Y-64601579D01*
X129561876Y-64019582D01*
X129235856Y-63438158D01*
X128987329Y-62952000D01*
X128012991Y-62952000D01*
X127860303Y-62360062D01*
X127702681Y-61594924D01*
X127567711Y-60765822D01*
X127462389Y-59927000D01*
X127439417Y-59665205D01*
X127420142Y-59346679D01*
X127404671Y-58986590D01*
X127393110Y-58600108D01*
X127385565Y-58202401D01*
X127382143Y-57808638D01*
X127382949Y-57433988D01*
X127388090Y-57093620D01*
X127397672Y-56802703D01*
X127411802Y-56576405D01*
X127430585Y-56429895D01*
X127437706Y-56402000D01*
X127465265Y-56326362D01*
X127480577Y-56322530D01*
X127487946Y-56400607D01*
X127490986Y-56527000D01*
X127507219Y-56924249D01*
X127542206Y-57395990D01*
X127592991Y-57919101D01*
X127656617Y-58470458D01*
X127730126Y-59026940D01*
X127810563Y-59565423D01*
X127894971Y-60062784D01*
X127980393Y-60495902D01*
X128021751Y-60677786D01*
X128098146Y-60982302D01*
X128179117Y-61282634D01*
X128260040Y-61563919D01*
X128336289Y-61811292D01*
X128403241Y-62009892D01*
X128456270Y-62144853D01*
X128490753Y-62201313D01*
X128495839Y-62201481D01*
X128541767Y-62120541D01*
X128564724Y-61961543D01*
X128564747Y-61743747D01*
X128541873Y-61486410D01*
X128496139Y-61208794D01*
X128493917Y-61197935D01*
X128421490Y-60825273D01*
X128362637Y-60468583D01*
X128315964Y-60110890D01*
X128280081Y-59735219D01*
X128253594Y-59324593D01*
X128235111Y-58862038D01*
X128223239Y-58330578D01*
X128217426Y-57827000D01*
X128209632Y-56853257D01*
X128497446Y-56853257D01*
X128502248Y-57047542D01*
X128512167Y-57289453D01*
X128526332Y-57561632D01*
X128543874Y-57846720D01*
X128563922Y-58127360D01*
X128585608Y-58386193D01*
X128599377Y-58527000D01*
X128627153Y-58761690D01*
X128664058Y-59030805D01*
X128706808Y-59314713D01*
X128752122Y-59593783D01*
X128796716Y-59848384D01*
X128837307Y-60058884D01*
X128870613Y-60205653D01*
X128889862Y-60264092D01*
X128916859Y-60243785D01*
X128966379Y-60143636D01*
X129031653Y-59979420D01*
X129105918Y-59766909D01*
X129115054Y-59739092D01*
X129227541Y-59403643D01*
X129328135Y-59121952D01*
X129413029Y-58903599D01*
X129478419Y-58758163D01*
X129520498Y-58695221D01*
X129529792Y-58695125D01*
X129528112Y-58749263D01*
X129508195Y-58881695D01*
X129473343Y-59073059D01*
X129426858Y-59303996D01*
X129422172Y-59326269D01*
X129358332Y-59641506D01*
X129290336Y-59998210D01*
X129228075Y-60343606D01*
X129196044Y-60532887D01*
X129098705Y-61129530D01*
X129250642Y-61565765D01*
X129377779Y-61900284D01*
X129534991Y-62267109D01*
X129709038Y-62638688D01*
X129886680Y-62987472D01*
X130054675Y-63285908D01*
X130148461Y-63433985D01*
X130386893Y-63749765D01*
X130676236Y-64075068D01*
X130986174Y-64378415D01*
X131286391Y-64628329D01*
X131327986Y-64658742D01*
X131479315Y-64758250D01*
X131665668Y-64867885D01*
X131867076Y-64977549D01*
X132063570Y-65077143D01*
X132235184Y-65156571D01*
X132361947Y-65205732D01*
X132423892Y-65214531D01*
X132425106Y-65213560D01*
X132415902Y-65161578D01*
X132372666Y-65042900D01*
X132304196Y-64881193D01*
X132288985Y-64847391D01*
X132141366Y-64507679D01*
X131975307Y-64101043D01*
X131801680Y-63656169D01*
X131631355Y-63201741D01*
X131475203Y-62766442D01*
X131344095Y-62378959D01*
X131295906Y-62227000D01*
X131212581Y-61948478D01*
X131122678Y-61633690D01*
X131030244Y-61298351D01*
X130939323Y-60958175D01*
X130853962Y-60628879D01*
X130778206Y-60326179D01*
X130716102Y-60065789D01*
X130671695Y-59863426D01*
X130649031Y-59734806D01*
X130646974Y-59706304D01*
X130665204Y-59725461D01*
X130716056Y-59827663D01*
X130795232Y-60003019D01*
X130898434Y-60241638D01*
X131021362Y-60533631D01*
X131159718Y-60869107D01*
X131264448Y-61127000D01*
X131484022Y-61666631D01*
X131677077Y-62129934D01*
X131851768Y-62534375D01*
X132016250Y-62897422D01*
X132178678Y-63236541D01*
X132347207Y-63569199D01*
X132529992Y-63912865D01*
X132735189Y-64285004D01*
X132757359Y-64324642D01*
X132956786Y-64678221D01*
X133115855Y-64952964D01*
X133241179Y-65158317D01*
X133339370Y-65303727D01*
X133417039Y-65398640D01*
X133480799Y-65452504D01*
X133537261Y-65474766D01*
X133563906Y-65477000D01*
X133654526Y-65450366D01*
X133803843Y-65378482D01*
X133988584Y-65273372D01*
X134127445Y-65185855D01*
X134331257Y-65045623D01*
X134583669Y-64862319D01*
X134856483Y-64656922D01*
X135121503Y-64450411D01*
X135195417Y-64391262D01*
X135243347Y-64352000D01*
X138145000Y-64352000D01*
X138170000Y-64377000D01*
X138195000Y-64352000D01*
X138170000Y-64327000D01*
X138145000Y-64352000D01*
X135243347Y-64352000D01*
X135294951Y-64309728D01*
X138245000Y-64309728D01*
X138283221Y-64300257D01*
X138397469Y-64227000D01*
X138587121Y-64090398D01*
X138851553Y-63890888D01*
X138985655Y-63787753D01*
X139154040Y-63653999D01*
X139285043Y-63542867D01*
X139363286Y-63467865D01*
X139377907Y-63443240D01*
X139333867Y-63464426D01*
X139229148Y-63535093D01*
X139080996Y-63642051D01*
X138906656Y-63772109D01*
X138723375Y-63912077D01*
X138548398Y-64048765D01*
X138398970Y-64168984D01*
X138292339Y-64259542D01*
X138245749Y-64307249D01*
X138245000Y-64309728D01*
X135294951Y-64309728D01*
X135410625Y-64214974D01*
X135646910Y-64016670D01*
X135892822Y-63806487D01*
X136136913Y-63594563D01*
X136367734Y-63391038D01*
X136573836Y-63206050D01*
X136743770Y-63049737D01*
X136866088Y-62932237D01*
X136929341Y-62863689D01*
X136935061Y-62850727D01*
X136885045Y-62828809D01*
X136759699Y-62779825D01*
X136577659Y-62710916D01*
X136357562Y-62629225D01*
X136346315Y-62625088D01*
X135181757Y-62145850D01*
X134057580Y-61580931D01*
X132980537Y-60935322D01*
X131957380Y-60214013D01*
X130994862Y-59421995D01*
X130099734Y-58564258D01*
X129278751Y-57645792D01*
X128822213Y-57064500D01*
X128695954Y-56898794D01*
X128591824Y-56768457D01*
X128524017Y-56690922D01*
X128506669Y-56677000D01*
X128498630Y-56723957D01*
X128497446Y-56853257D01*
X128209632Y-56853257D01*
X128204418Y-56202000D01*
X127870111Y-55652000D01*
X127259907Y-54552666D01*
X126738924Y-53409089D01*
X126306975Y-52220713D01*
X125963875Y-50986982D01*
X125709438Y-49707342D01*
X125588812Y-48827000D01*
X125565501Y-48548548D01*
X125548216Y-48193128D01*
X125536957Y-47783589D01*
X125531723Y-47342780D01*
X125532515Y-46893551D01*
X125539334Y-46458750D01*
X125552177Y-46061229D01*
X125571047Y-45723835D01*
X125588812Y-45527000D01*
X125785012Y-44213906D01*
X126071187Y-42944418D01*
X126447430Y-41718309D01*
X126913833Y-40535353D01*
X127470491Y-39395321D01*
X128117496Y-38297986D01*
X128854942Y-37243122D01*
X129139959Y-36877000D01*
X129394506Y-36573748D01*
X129704569Y-36227862D01*
X130049121Y-35861059D01*
X130407135Y-35495055D01*
X130757584Y-35151568D01*
X131079441Y-34852315D01*
X131220000Y-34728704D01*
X132225602Y-33930466D01*
X133282925Y-33217057D01*
X134388177Y-32590130D01*
X135537564Y-32051336D01*
X136727292Y-31602329D01*
X137953570Y-31244762D01*
X139212603Y-30980288D01*
X140120000Y-30850430D01*
X140492097Y-30816761D01*
X140935633Y-30791893D01*
X141424655Y-30776026D01*
X141933208Y-30769361D01*
X142435338Y-30772097D01*
X142905091Y-30784436D01*
X143316512Y-30806578D01*
X143520000Y-30824178D01*
X144814854Y-31005486D01*
X146069458Y-31278215D01*
X147284880Y-31642804D01*
X148462183Y-32099695D01*
X149602434Y-32649326D01*
X150706700Y-33292138D01*
X151776044Y-34028572D01*
X152345000Y-34469893D01*
X152563248Y-34654725D01*
X152823568Y-34888960D01*
X153110786Y-35157631D01*
X153409731Y-35445768D01*
X153705230Y-35738405D01*
X153982110Y-36020573D01*
X154225200Y-36277304D01*
X154419327Y-36493629D01*
X154520000Y-36615622D01*
X154625781Y-36747399D01*
X154707125Y-36840709D01*
X154745000Y-36874439D01*
X154772654Y-36831818D01*
X154839564Y-36710207D01*
X154940277Y-36520065D01*
X155069340Y-36271852D01*
X155221300Y-35976026D01*
X155390703Y-35643047D01*
X155506427Y-35413945D01*
X155865241Y-34708969D01*
X156210321Y-34045417D01*
X156538679Y-33428463D01*
X156847323Y-32863280D01*
X157133266Y-32355045D01*
X157393516Y-31908929D01*
X157625084Y-31530107D01*
X157824981Y-31223754D01*
X157990215Y-30995044D01*
X158117799Y-30849150D01*
X158168011Y-30807900D01*
X158254835Y-30756388D01*
X158285976Y-30756749D01*
G04 #@! TD*
M02*
