G04 #@! TF.GenerationSoftware,KiCad,Pcbnew,(5.0.2)-1*
G04 #@! TF.CreationDate,2019-04-02T19:39:49-05:00*
G04 #@! TF.ProjectId,MRDTLogo_HalfBooster,4d524454-4c6f-4676-9f5f-48616c66426f,rev?*
G04 #@! TF.SameCoordinates,Original*
G04 #@! TF.FileFunction,Paste,Top*
G04 #@! TF.FilePolarity,Positive*
%FSLAX46Y46*%
G04 Gerber Fmt 4.6, Leading zero omitted, Abs format (unit mm)*
G04 Created by KiCad (PCBNEW (5.0.2)-1) date 4/2/2019 7:39:49 PM*
%MOMM*%
%LPD*%
G01*
G04 APERTURE LIST*
%ADD10C,0.100000*%
%ADD11C,0.318000*%
G04 APERTURE END LIST*
D10*
G04 #@! TO.C,REF\002A\002A*
G36*
X178740292Y-114628383D02*
X178748010Y-114629528D01*
X178755578Y-114631423D01*
X178762923Y-114634052D01*
X178769976Y-114637387D01*
X178776668Y-114641398D01*
X178782934Y-114646046D01*
X178788715Y-114651285D01*
X178793954Y-114657066D01*
X178798602Y-114663332D01*
X178802613Y-114670024D01*
X178805948Y-114677077D01*
X178808577Y-114684422D01*
X178810472Y-114691990D01*
X178811617Y-114699708D01*
X178812000Y-114707500D01*
X178812000Y-114908500D01*
X178811617Y-114916292D01*
X178810472Y-114924010D01*
X178808577Y-114931578D01*
X178805948Y-114938923D01*
X178802613Y-114945976D01*
X178798602Y-114952668D01*
X178793954Y-114958934D01*
X178788715Y-114964715D01*
X178782934Y-114969954D01*
X178776668Y-114974602D01*
X178769976Y-114978613D01*
X178762923Y-114981948D01*
X178755578Y-114984577D01*
X178748010Y-114986472D01*
X178740292Y-114987617D01*
X178732500Y-114988000D01*
X178573500Y-114988000D01*
X178565708Y-114987617D01*
X178557990Y-114986472D01*
X178550422Y-114984577D01*
X178543077Y-114981948D01*
X178536024Y-114978613D01*
X178529332Y-114974602D01*
X178523066Y-114969954D01*
X178517285Y-114964715D01*
X178512046Y-114958934D01*
X178507398Y-114952668D01*
X178503387Y-114945976D01*
X178500052Y-114938923D01*
X178497423Y-114931578D01*
X178495528Y-114924010D01*
X178494383Y-114916292D01*
X178494000Y-114908500D01*
X178494000Y-114707500D01*
X178494383Y-114699708D01*
X178495528Y-114691990D01*
X178497423Y-114684422D01*
X178500052Y-114677077D01*
X178503387Y-114670024D01*
X178507398Y-114663332D01*
X178512046Y-114657066D01*
X178517285Y-114651285D01*
X178523066Y-114646046D01*
X178529332Y-114641398D01*
X178536024Y-114637387D01*
X178543077Y-114634052D01*
X178550422Y-114631423D01*
X178557990Y-114629528D01*
X178565708Y-114628383D01*
X178573500Y-114628000D01*
X178732500Y-114628000D01*
X178740292Y-114628383D01*
X178740292Y-114628383D01*
G37*
D11*
X178653000Y-114808000D03*
D10*
G36*
X178050292Y-114628383D02*
X178058010Y-114629528D01*
X178065578Y-114631423D01*
X178072923Y-114634052D01*
X178079976Y-114637387D01*
X178086668Y-114641398D01*
X178092934Y-114646046D01*
X178098715Y-114651285D01*
X178103954Y-114657066D01*
X178108602Y-114663332D01*
X178112613Y-114670024D01*
X178115948Y-114677077D01*
X178118577Y-114684422D01*
X178120472Y-114691990D01*
X178121617Y-114699708D01*
X178122000Y-114707500D01*
X178122000Y-114908500D01*
X178121617Y-114916292D01*
X178120472Y-114924010D01*
X178118577Y-114931578D01*
X178115948Y-114938923D01*
X178112613Y-114945976D01*
X178108602Y-114952668D01*
X178103954Y-114958934D01*
X178098715Y-114964715D01*
X178092934Y-114969954D01*
X178086668Y-114974602D01*
X178079976Y-114978613D01*
X178072923Y-114981948D01*
X178065578Y-114984577D01*
X178058010Y-114986472D01*
X178050292Y-114987617D01*
X178042500Y-114988000D01*
X177883500Y-114988000D01*
X177875708Y-114987617D01*
X177867990Y-114986472D01*
X177860422Y-114984577D01*
X177853077Y-114981948D01*
X177846024Y-114978613D01*
X177839332Y-114974602D01*
X177833066Y-114969954D01*
X177827285Y-114964715D01*
X177822046Y-114958934D01*
X177817398Y-114952668D01*
X177813387Y-114945976D01*
X177810052Y-114938923D01*
X177807423Y-114931578D01*
X177805528Y-114924010D01*
X177804383Y-114916292D01*
X177804000Y-114908500D01*
X177804000Y-114707500D01*
X177804383Y-114699708D01*
X177805528Y-114691990D01*
X177807423Y-114684422D01*
X177810052Y-114677077D01*
X177813387Y-114670024D01*
X177817398Y-114663332D01*
X177822046Y-114657066D01*
X177827285Y-114651285D01*
X177833066Y-114646046D01*
X177839332Y-114641398D01*
X177846024Y-114637387D01*
X177853077Y-114634052D01*
X177860422Y-114631423D01*
X177867990Y-114629528D01*
X177875708Y-114628383D01*
X177883500Y-114628000D01*
X178042500Y-114628000D01*
X178050292Y-114628383D01*
X178050292Y-114628383D01*
G37*
D11*
X177963000Y-114808000D03*
G04 #@! TD*
M02*
