G04 #@! TF.GenerationSoftware,KiCad,Pcbnew,(5.0.2)-1*
G04 #@! TF.CreationDate,2019-04-02T19:39:49-05:00*
G04 #@! TF.ProjectId,MRDTLogo_HalfBooster,4d524454-4c6f-4676-9f5f-48616c66426f,rev?*
G04 #@! TF.SameCoordinates,Original*
G04 #@! TF.FileFunction,Soldermask,Bot*
G04 #@! TF.FilePolarity,Negative*
%FSLAX46Y46*%
G04 Gerber Fmt 4.6, Leading zero omitted, Abs format (unit mm)*
G04 Created by KiCad (PCBNEW (5.0.2)-1) date 4/2/2019 7:39:49 PM*
%MOMM*%
%LPD*%
G01*
G04 APERTURE LIST*
%ADD10C,0.100000*%
G04 APERTURE END LIST*
D10*
G36*
X144205300Y-92935400D02*
X142814700Y-92935400D01*
X142814700Y-90757400D01*
X144205300Y-90757400D01*
X144205300Y-92935400D01*
X144205300Y-92935400D01*
G37*
G36*
X121345300Y-92935400D02*
X119954700Y-92935400D01*
X119954700Y-90757400D01*
X121345300Y-90757400D01*
X121345300Y-92935400D01*
X121345300Y-92935400D01*
G37*
G36*
X123885300Y-92935400D02*
X122494700Y-92935400D01*
X122494700Y-90757400D01*
X123885300Y-90757400D01*
X123885300Y-92935400D01*
X123885300Y-92935400D01*
G37*
G36*
X126425300Y-92935400D02*
X125034700Y-92935400D01*
X125034700Y-90757400D01*
X126425300Y-90757400D01*
X126425300Y-92935400D01*
X126425300Y-92935400D01*
G37*
G36*
X128965300Y-92935400D02*
X127574700Y-92935400D01*
X127574700Y-90757400D01*
X128965300Y-90757400D01*
X128965300Y-92935400D01*
X128965300Y-92935400D01*
G37*
G36*
X134045300Y-92935400D02*
X132654700Y-92935400D01*
X132654700Y-90757400D01*
X134045300Y-90757400D01*
X134045300Y-92935400D01*
X134045300Y-92935400D01*
G37*
G36*
X136585300Y-92935400D02*
X135194700Y-92935400D01*
X135194700Y-90757400D01*
X136585300Y-90757400D01*
X136585300Y-92935400D01*
X136585300Y-92935400D01*
G37*
G36*
X139125300Y-92935400D02*
X137734700Y-92935400D01*
X137734700Y-90757400D01*
X139125300Y-90757400D01*
X139125300Y-92935400D01*
X139125300Y-92935400D01*
G37*
G36*
X141665300Y-92935400D02*
X140274700Y-92935400D01*
X140274700Y-90757400D01*
X141665300Y-90757400D01*
X141665300Y-92935400D01*
X141665300Y-92935400D01*
G37*
G36*
X131505300Y-92935400D02*
X130114700Y-92935400D01*
X130114700Y-90757400D01*
X131505300Y-90757400D01*
X131505300Y-92935400D01*
X131505300Y-92935400D01*
G37*
G36*
X141665300Y-87042600D02*
X140274700Y-87042600D01*
X140274700Y-84864600D01*
X141665300Y-84864600D01*
X141665300Y-87042600D01*
X141665300Y-87042600D01*
G37*
G36*
X123885300Y-87042600D02*
X122494700Y-87042600D01*
X122494700Y-84864600D01*
X123885300Y-84864600D01*
X123885300Y-87042600D01*
X123885300Y-87042600D01*
G37*
G36*
X126425300Y-87042600D02*
X125034700Y-87042600D01*
X125034700Y-84864600D01*
X126425300Y-84864600D01*
X126425300Y-87042600D01*
X126425300Y-87042600D01*
G37*
G36*
X128965300Y-87042600D02*
X127574700Y-87042600D01*
X127574700Y-84864600D01*
X128965300Y-84864600D01*
X128965300Y-87042600D01*
X128965300Y-87042600D01*
G37*
G36*
X131505300Y-87042600D02*
X130114700Y-87042600D01*
X130114700Y-84864600D01*
X131505300Y-84864600D01*
X131505300Y-87042600D01*
X131505300Y-87042600D01*
G37*
G36*
X134045300Y-87042600D02*
X132654700Y-87042600D01*
X132654700Y-84864600D01*
X134045300Y-84864600D01*
X134045300Y-87042600D01*
X134045300Y-87042600D01*
G37*
G36*
X136585300Y-87042600D02*
X135194700Y-87042600D01*
X135194700Y-84864600D01*
X136585300Y-84864600D01*
X136585300Y-87042600D01*
X136585300Y-87042600D01*
G37*
G36*
X139125300Y-87042600D02*
X137734700Y-87042600D01*
X137734700Y-84864600D01*
X139125300Y-84864600D01*
X139125300Y-87042600D01*
X139125300Y-87042600D01*
G37*
G36*
X144205300Y-87042600D02*
X142814700Y-87042600D01*
X142814700Y-84864600D01*
X144205300Y-84864600D01*
X144205300Y-87042600D01*
X144205300Y-87042600D01*
G37*
G36*
X121345300Y-87042600D02*
X119954700Y-87042600D01*
X119954700Y-84864600D01*
X121345300Y-84864600D01*
X121345300Y-87042600D01*
X121345300Y-87042600D01*
G37*
G36*
X144205300Y-49755400D02*
X142814700Y-49755400D01*
X142814700Y-47577400D01*
X144205300Y-47577400D01*
X144205300Y-49755400D01*
X144205300Y-49755400D01*
G37*
G36*
X141665300Y-49755400D02*
X140274700Y-49755400D01*
X140274700Y-47577400D01*
X141665300Y-47577400D01*
X141665300Y-49755400D01*
X141665300Y-49755400D01*
G37*
G36*
X139125300Y-49755400D02*
X137734700Y-49755400D01*
X137734700Y-47577400D01*
X139125300Y-47577400D01*
X139125300Y-49755400D01*
X139125300Y-49755400D01*
G37*
G36*
X136585300Y-49755400D02*
X135194700Y-49755400D01*
X135194700Y-47577400D01*
X136585300Y-47577400D01*
X136585300Y-49755400D01*
X136585300Y-49755400D01*
G37*
G36*
X134045300Y-49755400D02*
X132654700Y-49755400D01*
X132654700Y-47577400D01*
X134045300Y-47577400D01*
X134045300Y-49755400D01*
X134045300Y-49755400D01*
G37*
G36*
X131505300Y-49755400D02*
X130114700Y-49755400D01*
X130114700Y-47577400D01*
X131505300Y-47577400D01*
X131505300Y-49755400D01*
X131505300Y-49755400D01*
G37*
G36*
X128965300Y-49755400D02*
X127574700Y-49755400D01*
X127574700Y-47577400D01*
X128965300Y-47577400D01*
X128965300Y-49755400D01*
X128965300Y-49755400D01*
G37*
G36*
X126425300Y-49755400D02*
X125034700Y-49755400D01*
X125034700Y-47577400D01*
X126425300Y-47577400D01*
X126425300Y-49755400D01*
X126425300Y-49755400D01*
G37*
G36*
X123885300Y-49755400D02*
X122494700Y-49755400D01*
X122494700Y-47577400D01*
X123885300Y-47577400D01*
X123885300Y-49755400D01*
X123885300Y-49755400D01*
G37*
G36*
X121345300Y-49755400D02*
X119954700Y-49755400D01*
X119954700Y-47577400D01*
X121345300Y-47577400D01*
X121345300Y-49755400D01*
X121345300Y-49755400D01*
G37*
G36*
X144205300Y-43862600D02*
X142814700Y-43862600D01*
X142814700Y-41684600D01*
X144205300Y-41684600D01*
X144205300Y-43862600D01*
X144205300Y-43862600D01*
G37*
G36*
X141665300Y-43862600D02*
X140274700Y-43862600D01*
X140274700Y-41684600D01*
X141665300Y-41684600D01*
X141665300Y-43862600D01*
X141665300Y-43862600D01*
G37*
G36*
X139125300Y-43862600D02*
X137734700Y-43862600D01*
X137734700Y-41684600D01*
X139125300Y-41684600D01*
X139125300Y-43862600D01*
X139125300Y-43862600D01*
G37*
G36*
X136585300Y-43862600D02*
X135194700Y-43862600D01*
X135194700Y-41684600D01*
X136585300Y-41684600D01*
X136585300Y-43862600D01*
X136585300Y-43862600D01*
G37*
G36*
X134045300Y-43862600D02*
X132654700Y-43862600D01*
X132654700Y-41684600D01*
X134045300Y-41684600D01*
X134045300Y-43862600D01*
X134045300Y-43862600D01*
G37*
G36*
X131505300Y-43862600D02*
X130114700Y-43862600D01*
X130114700Y-41684600D01*
X131505300Y-41684600D01*
X131505300Y-43862600D01*
X131505300Y-43862600D01*
G37*
G36*
X128965300Y-43862600D02*
X127574700Y-43862600D01*
X127574700Y-41684600D01*
X128965300Y-41684600D01*
X128965300Y-43862600D01*
X128965300Y-43862600D01*
G37*
G36*
X126425300Y-43862600D02*
X125034700Y-43862600D01*
X125034700Y-41684600D01*
X126425300Y-41684600D01*
X126425300Y-43862600D01*
X126425300Y-43862600D01*
G37*
G36*
X123885300Y-43862600D02*
X122494700Y-43862600D01*
X122494700Y-41684600D01*
X123885300Y-41684600D01*
X123885300Y-43862600D01*
X123885300Y-43862600D01*
G37*
G36*
X121345300Y-43862600D02*
X119954700Y-43862600D01*
X119954700Y-41684600D01*
X121345300Y-41684600D01*
X121345300Y-43862600D01*
X121345300Y-43862600D01*
G37*
M02*
