G04 #@! TF.GenerationSoftware,KiCad,Pcbnew,(5.0.2)-1*
G04 #@! TF.CreationDate,2019-04-02T19:39:49-05:00*
G04 #@! TF.ProjectId,MRDTLogo_HalfBooster,4d524454-4c6f-4676-9f5f-48616c66426f,rev?*
G04 #@! TF.SameCoordinates,Original*
G04 #@! TF.FileFunction,Copper,L1,Top*
G04 #@! TF.FilePolarity,Positive*
%FSLAX46Y46*%
G04 Gerber Fmt 4.6, Leading zero omitted, Abs format (unit mm)*
G04 Created by KiCad (PCBNEW (5.0.2)-1) date 4/2/2019 7:39:49 PM*
%MOMM*%
%LPD*%
G01*
G04 APERTURE LIST*
G04 #@! TA.AperFunction,Conductor*
%ADD10C,0.100000*%
G04 #@! TD*
G04 #@! TA.AperFunction,SMDPad,CuDef*
%ADD11C,0.400000*%
G04 #@! TD*
G04 #@! TA.AperFunction,ViaPad*
%ADD12C,0.800000*%
G04 #@! TD*
G04 #@! TA.AperFunction,Conductor*
%ADD13C,0.254000*%
G04 #@! TD*
G04 APERTURE END LIST*
D10*
G04 #@! TO.N,N/C*
G04 #@! TO.C,REF\002A\002A*
G36*
X178767802Y-114608482D02*
X178777509Y-114609921D01*
X178787028Y-114612306D01*
X178796268Y-114615612D01*
X178805140Y-114619808D01*
X178813557Y-114624853D01*
X178821439Y-114630699D01*
X178828711Y-114637289D01*
X178835301Y-114644561D01*
X178841147Y-114652443D01*
X178846192Y-114660860D01*
X178850388Y-114669732D01*
X178853694Y-114678972D01*
X178856079Y-114688491D01*
X178857518Y-114698198D01*
X178858000Y-114708000D01*
X178858000Y-114908000D01*
X178857518Y-114917802D01*
X178856079Y-114927509D01*
X178853694Y-114937028D01*
X178850388Y-114946268D01*
X178846192Y-114955140D01*
X178841147Y-114963557D01*
X178835301Y-114971439D01*
X178828711Y-114978711D01*
X178821439Y-114985301D01*
X178813557Y-114991147D01*
X178805140Y-114996192D01*
X178796268Y-115000388D01*
X178787028Y-115003694D01*
X178777509Y-115006079D01*
X178767802Y-115007518D01*
X178758000Y-115008000D01*
X178498000Y-115008000D01*
X178488198Y-115007518D01*
X178478491Y-115006079D01*
X178468972Y-115003694D01*
X178459732Y-115000388D01*
X178450860Y-114996192D01*
X178442443Y-114991147D01*
X178434561Y-114985301D01*
X178427289Y-114978711D01*
X178420699Y-114971439D01*
X178414853Y-114963557D01*
X178409808Y-114955140D01*
X178405612Y-114946268D01*
X178402306Y-114937028D01*
X178399921Y-114927509D01*
X178398482Y-114917802D01*
X178398000Y-114908000D01*
X178398000Y-114708000D01*
X178398482Y-114698198D01*
X178399921Y-114688491D01*
X178402306Y-114678972D01*
X178405612Y-114669732D01*
X178409808Y-114660860D01*
X178414853Y-114652443D01*
X178420699Y-114644561D01*
X178427289Y-114637289D01*
X178434561Y-114630699D01*
X178442443Y-114624853D01*
X178450860Y-114619808D01*
X178459732Y-114615612D01*
X178468972Y-114612306D01*
X178478491Y-114609921D01*
X178488198Y-114608482D01*
X178498000Y-114608000D01*
X178758000Y-114608000D01*
X178767802Y-114608482D01*
X178767802Y-114608482D01*
G37*
D11*
G04 #@! TD*
G04 #@! TO.P,REF\002A\002A,2*
G04 #@! TO.N,N/C*
X178628000Y-114808000D03*
D10*
G04 #@! TO.N,N/C*
G04 #@! TO.C,REF\002A\002A*
G36*
X178127802Y-114608482D02*
X178137509Y-114609921D01*
X178147028Y-114612306D01*
X178156268Y-114615612D01*
X178165140Y-114619808D01*
X178173557Y-114624853D01*
X178181439Y-114630699D01*
X178188711Y-114637289D01*
X178195301Y-114644561D01*
X178201147Y-114652443D01*
X178206192Y-114660860D01*
X178210388Y-114669732D01*
X178213694Y-114678972D01*
X178216079Y-114688491D01*
X178217518Y-114698198D01*
X178218000Y-114708000D01*
X178218000Y-114908000D01*
X178217518Y-114917802D01*
X178216079Y-114927509D01*
X178213694Y-114937028D01*
X178210388Y-114946268D01*
X178206192Y-114955140D01*
X178201147Y-114963557D01*
X178195301Y-114971439D01*
X178188711Y-114978711D01*
X178181439Y-114985301D01*
X178173557Y-114991147D01*
X178165140Y-114996192D01*
X178156268Y-115000388D01*
X178147028Y-115003694D01*
X178137509Y-115006079D01*
X178127802Y-115007518D01*
X178118000Y-115008000D01*
X177858000Y-115008000D01*
X177848198Y-115007518D01*
X177838491Y-115006079D01*
X177828972Y-115003694D01*
X177819732Y-115000388D01*
X177810860Y-114996192D01*
X177802443Y-114991147D01*
X177794561Y-114985301D01*
X177787289Y-114978711D01*
X177780699Y-114971439D01*
X177774853Y-114963557D01*
X177769808Y-114955140D01*
X177765612Y-114946268D01*
X177762306Y-114937028D01*
X177759921Y-114927509D01*
X177758482Y-114917802D01*
X177758000Y-114908000D01*
X177758000Y-114708000D01*
X177758482Y-114698198D01*
X177759921Y-114688491D01*
X177762306Y-114678972D01*
X177765612Y-114669732D01*
X177769808Y-114660860D01*
X177774853Y-114652443D01*
X177780699Y-114644561D01*
X177787289Y-114637289D01*
X177794561Y-114630699D01*
X177802443Y-114624853D01*
X177810860Y-114619808D01*
X177819732Y-114615612D01*
X177828972Y-114612306D01*
X177838491Y-114609921D01*
X177848198Y-114608482D01*
X177858000Y-114608000D01*
X178118000Y-114608000D01*
X178127802Y-114608482D01*
X178127802Y-114608482D01*
G37*
D11*
G04 #@! TD*
G04 #@! TO.P,REF\002A\002A,1*
G04 #@! TO.N,N/C*
X177988000Y-114808000D03*
D12*
G04 #@! TO.N,Net-(U1-PadGND)*
X123190000Y-88900000D03*
G04 #@! TD*
D13*
G04 #@! TO.N,Net-(U1-PadGND)*
G36*
X178677009Y-17788090D02*
X179016352Y-17942381D01*
X179298752Y-18185712D01*
X179501506Y-18498523D01*
X179615348Y-18879184D01*
X179630001Y-19076363D01*
X179630000Y-69037419D01*
X179569910Y-69457009D01*
X179415619Y-69796352D01*
X179172288Y-70078752D01*
X178859479Y-70281506D01*
X178478815Y-70395348D01*
X178281649Y-70410000D01*
X162629926Y-70410000D01*
X162560000Y-70396091D01*
X162490075Y-70410000D01*
X162490074Y-70410000D01*
X162282972Y-70451195D01*
X162048119Y-70608119D01*
X161891195Y-70842972D01*
X161836091Y-71120000D01*
X161850001Y-71189931D01*
X161850000Y-91878074D01*
X161836091Y-91948000D01*
X161891195Y-92225028D01*
X162048119Y-92459881D01*
X162282972Y-92616805D01*
X162442571Y-92648551D01*
X162560000Y-92671909D01*
X162629925Y-92658000D01*
X178257419Y-92658000D01*
X178677009Y-92718090D01*
X179016352Y-92872381D01*
X179298752Y-93115712D01*
X179501506Y-93428523D01*
X179615348Y-93809184D01*
X179630001Y-94006363D01*
X179630000Y-101497281D01*
X179544491Y-101523423D01*
X179452033Y-101550460D01*
X179444159Y-101554098D01*
X178922644Y-101798948D01*
X178842075Y-101851872D01*
X178760927Y-101903768D01*
X178754390Y-101909470D01*
X178322558Y-102290851D01*
X178260096Y-102364244D01*
X178196760Y-102436847D01*
X178192087Y-102444154D01*
X177884654Y-102931407D01*
X177845298Y-103019387D01*
X177804889Y-103106840D01*
X177802457Y-103115160D01*
X177802454Y-103115166D01*
X177802453Y-103115173D01*
X177644134Y-103669118D01*
X177631056Y-103764586D01*
X177616813Y-103859890D01*
X177616813Y-103868564D01*
X177620333Y-104444687D01*
X177634588Y-104540068D01*
X177647654Y-104635455D01*
X177650088Y-104643781D01*
X177815164Y-105195758D01*
X177855591Y-105283250D01*
X177894930Y-105371194D01*
X177899603Y-105378501D01*
X178212966Y-105861961D01*
X178276328Y-105934594D01*
X178338763Y-106007955D01*
X178345296Y-106013654D01*
X178345300Y-106013658D01*
X178345305Y-106013661D01*
X178781759Y-106389734D01*
X178862942Y-106441653D01*
X178943475Y-106494554D01*
X178951346Y-106498190D01*
X178951349Y-106498192D01*
X178951352Y-106498193D01*
X179475817Y-106736653D01*
X179568309Y-106763700D01*
X179630001Y-106782561D01*
X179630000Y-114757418D01*
X179569910Y-115177009D01*
X179415619Y-115516352D01*
X179172288Y-115798752D01*
X178859479Y-116001506D01*
X178478815Y-116115348D01*
X178281649Y-116130000D01*
X121462581Y-116130000D01*
X121042991Y-116069910D01*
X120703648Y-115915619D01*
X120421248Y-115672288D01*
X120218494Y-115359479D01*
X120104652Y-114978815D01*
X120090000Y-114781649D01*
X120090000Y-114708000D01*
X177110560Y-114708000D01*
X177110560Y-114908000D01*
X177167455Y-115194033D01*
X177329480Y-115436520D01*
X177571967Y-115598545D01*
X177858000Y-115655440D01*
X178118000Y-115655440D01*
X178308000Y-115617647D01*
X178498000Y-115655440D01*
X178758000Y-115655440D01*
X179044033Y-115598545D01*
X179286520Y-115436520D01*
X179448545Y-115194033D01*
X179505440Y-114908000D01*
X179505440Y-114708000D01*
X179448545Y-114421967D01*
X179286520Y-114179480D01*
X179044033Y-114017455D01*
X178758000Y-113960560D01*
X178498000Y-113960560D01*
X178308000Y-113998353D01*
X178118000Y-113960560D01*
X177858000Y-113960560D01*
X177571967Y-114017455D01*
X177329480Y-114179480D01*
X177167455Y-114421967D01*
X177110560Y-114708000D01*
X120090000Y-114708000D01*
X120090000Y-106782719D01*
X120175509Y-106756577D01*
X120267967Y-106729540D01*
X120275841Y-106725902D01*
X120797356Y-106481052D01*
X120877925Y-106428128D01*
X120959073Y-106376232D01*
X120965610Y-106370530D01*
X121397442Y-105989149D01*
X121459887Y-105915776D01*
X121523240Y-105843153D01*
X121527913Y-105835846D01*
X121835346Y-105348593D01*
X121874687Y-105260645D01*
X121915111Y-105173160D01*
X121917545Y-105164835D01*
X122075866Y-104610882D01*
X122088943Y-104515421D01*
X122103187Y-104420111D01*
X122103187Y-104411436D01*
X122099667Y-103835313D01*
X122085414Y-103739943D01*
X122072346Y-103644544D01*
X122069912Y-103636219D01*
X121904836Y-103084241D01*
X121864418Y-102996769D01*
X121825071Y-102908806D01*
X121820397Y-102901499D01*
X121507034Y-102418040D01*
X121443707Y-102345447D01*
X121381237Y-102272045D01*
X121374700Y-102266343D01*
X120938241Y-101890266D01*
X120857058Y-101838347D01*
X120776525Y-101785446D01*
X120768654Y-101781810D01*
X120768651Y-101781808D01*
X120768648Y-101781807D01*
X120244183Y-101543347D01*
X120151691Y-101516300D01*
X120090000Y-101497439D01*
X120090000Y-19100581D01*
X120150090Y-18680991D01*
X120304381Y-18341648D01*
X120547712Y-18059248D01*
X120860523Y-17856494D01*
X121241184Y-17742652D01*
X121438350Y-17728000D01*
X178257419Y-17728000D01*
X178677009Y-17788090D01*
X178677009Y-17788090D01*
G37*
X178677009Y-17788090D02*
X179016352Y-17942381D01*
X179298752Y-18185712D01*
X179501506Y-18498523D01*
X179615348Y-18879184D01*
X179630001Y-19076363D01*
X179630000Y-69037419D01*
X179569910Y-69457009D01*
X179415619Y-69796352D01*
X179172288Y-70078752D01*
X178859479Y-70281506D01*
X178478815Y-70395348D01*
X178281649Y-70410000D01*
X162629926Y-70410000D01*
X162560000Y-70396091D01*
X162490075Y-70410000D01*
X162490074Y-70410000D01*
X162282972Y-70451195D01*
X162048119Y-70608119D01*
X161891195Y-70842972D01*
X161836091Y-71120000D01*
X161850001Y-71189931D01*
X161850000Y-91878074D01*
X161836091Y-91948000D01*
X161891195Y-92225028D01*
X162048119Y-92459881D01*
X162282972Y-92616805D01*
X162442571Y-92648551D01*
X162560000Y-92671909D01*
X162629925Y-92658000D01*
X178257419Y-92658000D01*
X178677009Y-92718090D01*
X179016352Y-92872381D01*
X179298752Y-93115712D01*
X179501506Y-93428523D01*
X179615348Y-93809184D01*
X179630001Y-94006363D01*
X179630000Y-101497281D01*
X179544491Y-101523423D01*
X179452033Y-101550460D01*
X179444159Y-101554098D01*
X178922644Y-101798948D01*
X178842075Y-101851872D01*
X178760927Y-101903768D01*
X178754390Y-101909470D01*
X178322558Y-102290851D01*
X178260096Y-102364244D01*
X178196760Y-102436847D01*
X178192087Y-102444154D01*
X177884654Y-102931407D01*
X177845298Y-103019387D01*
X177804889Y-103106840D01*
X177802457Y-103115160D01*
X177802454Y-103115166D01*
X177802453Y-103115173D01*
X177644134Y-103669118D01*
X177631056Y-103764586D01*
X177616813Y-103859890D01*
X177616813Y-103868564D01*
X177620333Y-104444687D01*
X177634588Y-104540068D01*
X177647654Y-104635455D01*
X177650088Y-104643781D01*
X177815164Y-105195758D01*
X177855591Y-105283250D01*
X177894930Y-105371194D01*
X177899603Y-105378501D01*
X178212966Y-105861961D01*
X178276328Y-105934594D01*
X178338763Y-106007955D01*
X178345296Y-106013654D01*
X178345300Y-106013658D01*
X178345305Y-106013661D01*
X178781759Y-106389734D01*
X178862942Y-106441653D01*
X178943475Y-106494554D01*
X178951346Y-106498190D01*
X178951349Y-106498192D01*
X178951352Y-106498193D01*
X179475817Y-106736653D01*
X179568309Y-106763700D01*
X179630001Y-106782561D01*
X179630000Y-114757418D01*
X179569910Y-115177009D01*
X179415619Y-115516352D01*
X179172288Y-115798752D01*
X178859479Y-116001506D01*
X178478815Y-116115348D01*
X178281649Y-116130000D01*
X121462581Y-116130000D01*
X121042991Y-116069910D01*
X120703648Y-115915619D01*
X120421248Y-115672288D01*
X120218494Y-115359479D01*
X120104652Y-114978815D01*
X120090000Y-114781649D01*
X120090000Y-114708000D01*
X177110560Y-114708000D01*
X177110560Y-114908000D01*
X177167455Y-115194033D01*
X177329480Y-115436520D01*
X177571967Y-115598545D01*
X177858000Y-115655440D01*
X178118000Y-115655440D01*
X178308000Y-115617647D01*
X178498000Y-115655440D01*
X178758000Y-115655440D01*
X179044033Y-115598545D01*
X179286520Y-115436520D01*
X179448545Y-115194033D01*
X179505440Y-114908000D01*
X179505440Y-114708000D01*
X179448545Y-114421967D01*
X179286520Y-114179480D01*
X179044033Y-114017455D01*
X178758000Y-113960560D01*
X178498000Y-113960560D01*
X178308000Y-113998353D01*
X178118000Y-113960560D01*
X177858000Y-113960560D01*
X177571967Y-114017455D01*
X177329480Y-114179480D01*
X177167455Y-114421967D01*
X177110560Y-114708000D01*
X120090000Y-114708000D01*
X120090000Y-106782719D01*
X120175509Y-106756577D01*
X120267967Y-106729540D01*
X120275841Y-106725902D01*
X120797356Y-106481052D01*
X120877925Y-106428128D01*
X120959073Y-106376232D01*
X120965610Y-106370530D01*
X121397442Y-105989149D01*
X121459887Y-105915776D01*
X121523240Y-105843153D01*
X121527913Y-105835846D01*
X121835346Y-105348593D01*
X121874687Y-105260645D01*
X121915111Y-105173160D01*
X121917545Y-105164835D01*
X122075866Y-104610882D01*
X122088943Y-104515421D01*
X122103187Y-104420111D01*
X122103187Y-104411436D01*
X122099667Y-103835313D01*
X122085414Y-103739943D01*
X122072346Y-103644544D01*
X122069912Y-103636219D01*
X121904836Y-103084241D01*
X121864418Y-102996769D01*
X121825071Y-102908806D01*
X121820397Y-102901499D01*
X121507034Y-102418040D01*
X121443707Y-102345447D01*
X121381237Y-102272045D01*
X121374700Y-102266343D01*
X120938241Y-101890266D01*
X120857058Y-101838347D01*
X120776525Y-101785446D01*
X120768654Y-101781810D01*
X120768651Y-101781808D01*
X120768648Y-101781807D01*
X120244183Y-101543347D01*
X120151691Y-101516300D01*
X120090000Y-101497439D01*
X120090000Y-19100581D01*
X120150090Y-18680991D01*
X120304381Y-18341648D01*
X120547712Y-18059248D01*
X120860523Y-17856494D01*
X121241184Y-17742652D01*
X121438350Y-17728000D01*
X178257419Y-17728000D01*
X178677009Y-17788090D01*
G04 #@! TD*
M02*
