G04 #@! TF.GenerationSoftware,KiCad,Pcbnew,(5.0.0)*
G04 #@! TF.CreationDate,2019-03-24T13:44:05-05:00*
G04 #@! TF.ProjectId,MRDTLogo_HalfBooster,4D5244544C6F676F5F48616C66426F6F,rev?*
G04 #@! TF.SameCoordinates,Original*
G04 #@! TF.FileFunction,Copper,L1,Top,Signal*
G04 #@! TF.FilePolarity,Positive*
%FSLAX46Y46*%
G04 Gerber Fmt 4.6, Leading zero omitted, Abs format (unit mm)*
G04 Created by KiCad (PCBNEW (5.0.0)) date 03/24/19 13:44:05*
%MOMM*%
%LPD*%
G01*
G04 APERTURE LIST*
G04 #@! TA.AperFunction,ViaPad*
%ADD10C,0.800000*%
G04 #@! TD*
G04 #@! TA.AperFunction,Conductor*
%ADD11C,0.254000*%
G04 #@! TD*
G04 APERTURE END LIST*
D10*
G04 #@! TO.N,Net-(U1-PadGND)*
X123190000Y-88900000D03*
G04 #@! TD*
D11*
G04 #@! TO.N,Net-(U1-PadGND)*
G36*
X178677009Y-17788090D02*
X179016352Y-17942381D01*
X179298752Y-18185712D01*
X179501506Y-18498523D01*
X179615348Y-18879184D01*
X179630001Y-19076363D01*
X179630000Y-69037419D01*
X179569910Y-69457009D01*
X179415619Y-69796352D01*
X179172288Y-70078752D01*
X178859479Y-70281506D01*
X178478815Y-70395348D01*
X178281649Y-70410000D01*
X162629926Y-70410000D01*
X162560000Y-70396091D01*
X162490075Y-70410000D01*
X162490074Y-70410000D01*
X162282972Y-70451195D01*
X162048119Y-70608119D01*
X161891195Y-70842972D01*
X161836091Y-71120000D01*
X161850001Y-71189931D01*
X161850000Y-91878074D01*
X161836091Y-91948000D01*
X161891195Y-92225028D01*
X162048119Y-92459881D01*
X162282972Y-92616805D01*
X162442571Y-92648551D01*
X162560000Y-92671909D01*
X162629925Y-92658000D01*
X178257419Y-92658000D01*
X178677009Y-92718090D01*
X179016352Y-92872381D01*
X179298752Y-93115712D01*
X179501506Y-93428523D01*
X179615348Y-93809184D01*
X179630001Y-94006363D01*
X179630000Y-101497281D01*
X179544491Y-101523423D01*
X179452033Y-101550460D01*
X179444159Y-101554098D01*
X178922644Y-101798948D01*
X178842075Y-101851872D01*
X178760927Y-101903768D01*
X178754390Y-101909470D01*
X178322558Y-102290851D01*
X178260096Y-102364244D01*
X178196760Y-102436847D01*
X178192087Y-102444154D01*
X177884654Y-102931407D01*
X177845298Y-103019387D01*
X177804889Y-103106840D01*
X177802457Y-103115160D01*
X177802454Y-103115166D01*
X177802453Y-103115173D01*
X177644134Y-103669118D01*
X177631056Y-103764586D01*
X177616813Y-103859890D01*
X177616813Y-103868564D01*
X177620333Y-104444687D01*
X177634588Y-104540068D01*
X177647654Y-104635455D01*
X177650088Y-104643781D01*
X177815164Y-105195758D01*
X177855591Y-105283250D01*
X177894930Y-105371194D01*
X177899603Y-105378501D01*
X178212966Y-105861961D01*
X178276328Y-105934594D01*
X178338763Y-106007955D01*
X178345296Y-106013654D01*
X178345300Y-106013658D01*
X178345305Y-106013661D01*
X178781759Y-106389734D01*
X178862942Y-106441653D01*
X178943475Y-106494554D01*
X178951346Y-106498190D01*
X178951349Y-106498192D01*
X178951352Y-106498193D01*
X179475817Y-106736653D01*
X179568309Y-106763700D01*
X179630001Y-106782561D01*
X179630000Y-114757418D01*
X179569910Y-115177009D01*
X179415619Y-115516352D01*
X179172288Y-115798752D01*
X178859479Y-116001506D01*
X178478815Y-116115348D01*
X178281649Y-116130000D01*
X121462581Y-116130000D01*
X121042991Y-116069910D01*
X120703648Y-115915619D01*
X120421248Y-115672288D01*
X120218494Y-115359479D01*
X120104652Y-114978815D01*
X120090000Y-114781649D01*
X120090000Y-106782719D01*
X120175509Y-106756577D01*
X120267967Y-106729540D01*
X120275841Y-106725902D01*
X120797356Y-106481052D01*
X120877925Y-106428128D01*
X120959073Y-106376232D01*
X120965610Y-106370530D01*
X121397442Y-105989149D01*
X121459887Y-105915776D01*
X121523240Y-105843153D01*
X121527913Y-105835846D01*
X121835346Y-105348593D01*
X121874687Y-105260645D01*
X121915111Y-105173160D01*
X121917545Y-105164835D01*
X122075866Y-104610882D01*
X122088943Y-104515421D01*
X122103187Y-104420111D01*
X122103187Y-104411436D01*
X122099667Y-103835313D01*
X122085414Y-103739943D01*
X122072346Y-103644544D01*
X122069912Y-103636219D01*
X121904836Y-103084241D01*
X121864418Y-102996769D01*
X121825071Y-102908806D01*
X121820397Y-102901499D01*
X121507034Y-102418040D01*
X121443707Y-102345447D01*
X121381237Y-102272045D01*
X121374700Y-102266343D01*
X120938241Y-101890266D01*
X120857058Y-101838347D01*
X120776525Y-101785446D01*
X120768654Y-101781810D01*
X120768651Y-101781808D01*
X120768648Y-101781807D01*
X120244183Y-101543347D01*
X120151691Y-101516300D01*
X120090000Y-101497439D01*
X120090000Y-19100581D01*
X120150090Y-18680991D01*
X120304381Y-18341648D01*
X120547712Y-18059248D01*
X120860523Y-17856494D01*
X121241184Y-17742652D01*
X121438350Y-17728000D01*
X178257419Y-17728000D01*
X178677009Y-17788090D01*
X178677009Y-17788090D01*
G37*
X178677009Y-17788090D02*
X179016352Y-17942381D01*
X179298752Y-18185712D01*
X179501506Y-18498523D01*
X179615348Y-18879184D01*
X179630001Y-19076363D01*
X179630000Y-69037419D01*
X179569910Y-69457009D01*
X179415619Y-69796352D01*
X179172288Y-70078752D01*
X178859479Y-70281506D01*
X178478815Y-70395348D01*
X178281649Y-70410000D01*
X162629926Y-70410000D01*
X162560000Y-70396091D01*
X162490075Y-70410000D01*
X162490074Y-70410000D01*
X162282972Y-70451195D01*
X162048119Y-70608119D01*
X161891195Y-70842972D01*
X161836091Y-71120000D01*
X161850001Y-71189931D01*
X161850000Y-91878074D01*
X161836091Y-91948000D01*
X161891195Y-92225028D01*
X162048119Y-92459881D01*
X162282972Y-92616805D01*
X162442571Y-92648551D01*
X162560000Y-92671909D01*
X162629925Y-92658000D01*
X178257419Y-92658000D01*
X178677009Y-92718090D01*
X179016352Y-92872381D01*
X179298752Y-93115712D01*
X179501506Y-93428523D01*
X179615348Y-93809184D01*
X179630001Y-94006363D01*
X179630000Y-101497281D01*
X179544491Y-101523423D01*
X179452033Y-101550460D01*
X179444159Y-101554098D01*
X178922644Y-101798948D01*
X178842075Y-101851872D01*
X178760927Y-101903768D01*
X178754390Y-101909470D01*
X178322558Y-102290851D01*
X178260096Y-102364244D01*
X178196760Y-102436847D01*
X178192087Y-102444154D01*
X177884654Y-102931407D01*
X177845298Y-103019387D01*
X177804889Y-103106840D01*
X177802457Y-103115160D01*
X177802454Y-103115166D01*
X177802453Y-103115173D01*
X177644134Y-103669118D01*
X177631056Y-103764586D01*
X177616813Y-103859890D01*
X177616813Y-103868564D01*
X177620333Y-104444687D01*
X177634588Y-104540068D01*
X177647654Y-104635455D01*
X177650088Y-104643781D01*
X177815164Y-105195758D01*
X177855591Y-105283250D01*
X177894930Y-105371194D01*
X177899603Y-105378501D01*
X178212966Y-105861961D01*
X178276328Y-105934594D01*
X178338763Y-106007955D01*
X178345296Y-106013654D01*
X178345300Y-106013658D01*
X178345305Y-106013661D01*
X178781759Y-106389734D01*
X178862942Y-106441653D01*
X178943475Y-106494554D01*
X178951346Y-106498190D01*
X178951349Y-106498192D01*
X178951352Y-106498193D01*
X179475817Y-106736653D01*
X179568309Y-106763700D01*
X179630001Y-106782561D01*
X179630000Y-114757418D01*
X179569910Y-115177009D01*
X179415619Y-115516352D01*
X179172288Y-115798752D01*
X178859479Y-116001506D01*
X178478815Y-116115348D01*
X178281649Y-116130000D01*
X121462581Y-116130000D01*
X121042991Y-116069910D01*
X120703648Y-115915619D01*
X120421248Y-115672288D01*
X120218494Y-115359479D01*
X120104652Y-114978815D01*
X120090000Y-114781649D01*
X120090000Y-106782719D01*
X120175509Y-106756577D01*
X120267967Y-106729540D01*
X120275841Y-106725902D01*
X120797356Y-106481052D01*
X120877925Y-106428128D01*
X120959073Y-106376232D01*
X120965610Y-106370530D01*
X121397442Y-105989149D01*
X121459887Y-105915776D01*
X121523240Y-105843153D01*
X121527913Y-105835846D01*
X121835346Y-105348593D01*
X121874687Y-105260645D01*
X121915111Y-105173160D01*
X121917545Y-105164835D01*
X122075866Y-104610882D01*
X122088943Y-104515421D01*
X122103187Y-104420111D01*
X122103187Y-104411436D01*
X122099667Y-103835313D01*
X122085414Y-103739943D01*
X122072346Y-103644544D01*
X122069912Y-103636219D01*
X121904836Y-103084241D01*
X121864418Y-102996769D01*
X121825071Y-102908806D01*
X121820397Y-102901499D01*
X121507034Y-102418040D01*
X121443707Y-102345447D01*
X121381237Y-102272045D01*
X121374700Y-102266343D01*
X120938241Y-101890266D01*
X120857058Y-101838347D01*
X120776525Y-101785446D01*
X120768654Y-101781810D01*
X120768651Y-101781808D01*
X120768648Y-101781807D01*
X120244183Y-101543347D01*
X120151691Y-101516300D01*
X120090000Y-101497439D01*
X120090000Y-19100581D01*
X120150090Y-18680991D01*
X120304381Y-18341648D01*
X120547712Y-18059248D01*
X120860523Y-17856494D01*
X121241184Y-17742652D01*
X121438350Y-17728000D01*
X178257419Y-17728000D01*
X178677009Y-17788090D01*
G04 #@! TD*
M02*
