G04 #@! TF.GenerationSoftware,KiCad,Pcbnew,(5.0.2)-1*
G04 #@! TF.CreationDate,2019-04-02T19:39:49-05:00*
G04 #@! TF.ProjectId,MRDTLogo_HalfBooster,4d524454-4c6f-4676-9f5f-48616c66426f,rev?*
G04 #@! TF.SameCoordinates,Original*
G04 #@! TF.FileFunction,Soldermask,Top*
G04 #@! TF.FilePolarity,Negative*
%FSLAX46Y46*%
G04 Gerber Fmt 4.6, Leading zero omitted, Abs format (unit mm)*
G04 Created by KiCad (PCBNEW (5.0.2)-1) date 4/2/2019 7:39:49 PM*
%MOMM*%
%LPD*%
G01*
G04 APERTURE LIST*
%ADD10C,0.100000*%
G04 APERTURE END LIST*
D10*
G36*
X178295746Y-114410107D02*
X178320254Y-114410107D01*
X178341643Y-114408000D01*
X178914359Y-114408000D01*
X178947208Y-114411235D01*
X178972886Y-114419025D01*
X178996557Y-114431677D01*
X179017300Y-114448700D01*
X179034323Y-114469443D01*
X179046975Y-114493114D01*
X179054765Y-114518792D01*
X179058000Y-114551641D01*
X179058000Y-115064359D01*
X179054765Y-115097208D01*
X179046975Y-115122886D01*
X179034323Y-115146557D01*
X179017300Y-115167300D01*
X178996557Y-115184323D01*
X178972886Y-115196975D01*
X178947208Y-115204765D01*
X178914359Y-115208000D01*
X178341643Y-115208000D01*
X178320254Y-115205893D01*
X178295746Y-115205893D01*
X178274357Y-115208000D01*
X177701641Y-115208000D01*
X177668792Y-115204765D01*
X177643114Y-115196975D01*
X177619443Y-115184323D01*
X177598700Y-115167300D01*
X177581677Y-115146557D01*
X177569025Y-115122886D01*
X177561235Y-115097208D01*
X177558000Y-115064359D01*
X177558000Y-114551641D01*
X177561235Y-114518792D01*
X177569025Y-114493114D01*
X177581677Y-114469443D01*
X177598700Y-114448700D01*
X177619443Y-114431677D01*
X177643114Y-114419025D01*
X177668792Y-114411235D01*
X177701641Y-114408000D01*
X178274357Y-114408000D01*
X178295746Y-114410107D01*
X178295746Y-114410107D01*
G37*
M02*
