G04 #@! TF.GenerationSoftware,KiCad,Pcbnew,(5.0.0)*
G04 #@! TF.CreationDate,2019-03-03T18:18:34-06:00*
G04 #@! TF.ProjectId,ValkyrieBoard_HalfBooster,56616C6B79726965426F6172645F4861,rev?*
G04 #@! TF.SameCoordinates,Original*
G04 #@! TF.FileFunction,Copper,L2,Bot,Signal*
G04 #@! TF.FilePolarity,Positive*
%FSLAX46Y46*%
G04 Gerber Fmt 4.6, Leading zero omitted, Abs format (unit mm)*
G04 Created by KiCad (PCBNEW (5.0.0)) date 03/03/19 18:18:34*
%MOMM*%
%LPD*%
G01*
G04 APERTURE LIST*
G04 #@! TA.AperFunction,SMDPad,CuDef*
%ADD10R,0.990600X1.778000*%
G04 #@! TD*
G04 #@! TA.AperFunction,ViaPad*
%ADD11C,0.800000*%
G04 #@! TD*
G04 #@! TA.AperFunction,Conductor*
%ADD12C,0.254000*%
G04 #@! TD*
G04 APERTURE END LIST*
D10*
G04 #@! TO.P,U1,+5V*
G04 #@! TO.N,Net-(U1-Pad+5V)*
X120650000Y-85953600D03*
G04 #@! TO.P,U1,GND*
G04 #@! TO.N,Net-(U1-PadGND)*
X123190000Y-85953600D03*
G04 #@! TO.P,U1,PE0*
G04 #@! TO.N,Net-(U1-PadPE0)*
X125730000Y-85953600D03*
G04 #@! TO.P,U1,PE1*
G04 #@! TO.N,Net-(U1-PadPE1)*
X128270000Y-85953600D03*
G04 #@! TO.P,U1,PE2*
G04 #@! TO.N,Net-(U1-PadPE2)*
X130810000Y-85953600D03*
G04 #@! TO.P,U1,PE3*
G04 #@! TO.N,Net-(U1-PadPE3)*
X133350000Y-85953600D03*
G04 #@! TO.P,U1,PD7*
G04 #@! TO.N,Net-(U1-PadPD7)*
X135890000Y-85953600D03*
G04 #@! TO.P,U1,PA6*
G04 #@! TO.N,Net-(U1-PadPA6)*
X138430000Y-85953600D03*
G04 #@! TO.P,U1,PM4*
G04 #@! TO.N,Net-(U1-PadPM4)*
X140970000Y-85953600D03*
G04 #@! TO.P,U1,PM5*
G04 #@! TO.N,Net-(U1-PadPM5)*
X143510000Y-85953600D03*
G04 #@! TO.P,U1,+3V3*
G04 #@! TO.N,Net-(U1-Pad+3V3)*
X120650000Y-91846400D03*
G04 #@! TO.P,U1,PE4*
G04 #@! TO.N,Net-(U1-PadPE4)*
X123190000Y-91846400D03*
G04 #@! TO.P,U1,PC4*
G04 #@! TO.N,Net-(U1-PadPC4)*
X125730000Y-91846400D03*
G04 #@! TO.P,U1,PC5*
G04 #@! TO.N,Net-(U1-PadPC5)*
X128270000Y-91846400D03*
G04 #@! TO.P,U1,PC6*
G04 #@! TO.N,Net-(U1-PadPC6)*
X130810000Y-91846400D03*
G04 #@! TO.P,U1,PE5*
G04 #@! TO.N,Net-(U1-PadPE5)*
X133350000Y-91846400D03*
G04 #@! TO.P,U1,PD3*
G04 #@! TO.N,Net-(U1-PadPD3)*
X135890000Y-91846400D03*
G04 #@! TO.P,U1,PC7*
G04 #@! TO.N,Net-(U1-PadPC7)*
X138430000Y-91846400D03*
G04 #@! TO.P,U1,PB2*
G04 #@! TO.N,Net-(U1-PadPB2)*
X140970000Y-91846400D03*
G04 #@! TO.P,U1,PB3*
G04 #@! TO.N,Net-(U1-PadPB3)*
X143510000Y-91846400D03*
G04 #@! TO.P,U1,PF1*
G04 #@! TO.N,Net-(U1-PadPF1)*
X120650000Y-48666400D03*
G04 #@! TO.P,U1,PF2*
G04 #@! TO.N,Net-(U1-PadPF2)*
X123190000Y-48666400D03*
G04 #@! TO.P,U1,PF3*
G04 #@! TO.N,Net-(U1-PadPF3)*
X125730000Y-48666400D03*
G04 #@! TO.P,U1,PG0*
G04 #@! TO.N,Net-(U1-PadPG0)*
X128270000Y-48666400D03*
G04 #@! TO.P,U1,PL4*
G04 #@! TO.N,Net-(U1-PadPL4)*
X130810000Y-48666400D03*
G04 #@! TO.P,U1,PL5*
G04 #@! TO.N,Net-(U1-PadPL5)*
X133350000Y-48666400D03*
G04 #@! TO.P,U1,PL0*
G04 #@! TO.N,Net-(U1-PadPL0)*
X135890000Y-48666400D03*
G04 #@! TO.P,U1,PL1*
G04 #@! TO.N,Net-(U1-PadPL1)*
X138430000Y-48666400D03*
G04 #@! TO.P,U1,PL2*
G04 #@! TO.N,Net-(U1-PadPL2)*
X140970000Y-48666400D03*
G04 #@! TO.P,U1,PL3*
G04 #@! TO.N,Net-(U1-PadPL3)*
X143510000Y-48666400D03*
G04 #@! TO.P,U1,GND*
G04 #@! TO.N,Net-(U1-PadGND)*
X120650000Y-42773600D03*
G04 #@! TO.P,U1,PM3*
G04 #@! TO.N,Net-(U1-PadPM3)*
X123190000Y-42773600D03*
G04 #@! TO.P,U1,PH2*
G04 #@! TO.N,Net-(U1-PadPH2)*
X125730000Y-42773600D03*
G04 #@! TO.P,U1,PH3*
G04 #@! TO.N,Net-(U1-PadPH3)*
X128270000Y-42773600D03*
G04 #@! TO.P,U1,Rese*
G04 #@! TO.N,Net-(U1-PadRese)*
X130810000Y-42773600D03*
G04 #@! TO.P,U1,PD1*
G04 #@! TO.N,Net-(U1-PadPD1)*
X133350000Y-42773600D03*
G04 #@! TO.P,U1,PD0*
G04 #@! TO.N,Net-(U1-PadPD0)*
X135890000Y-42773600D03*
G04 #@! TO.P,U1,PN2*
G04 #@! TO.N,Net-(U1-PadPN2)*
X138430000Y-42773600D03*
G04 #@! TO.P,U1,PN3*
G04 #@! TO.N,Net-(U1-PadPN3)*
X140970000Y-42773600D03*
G04 #@! TO.P,U1,PP2*
G04 #@! TO.N,Net-(U1-PadPP2)*
X143510000Y-42773600D03*
G04 #@! TD*
D11*
G04 #@! TO.N,Net-(U1-PadGND)*
X123190000Y-88900000D03*
G04 #@! TD*
D12*
G04 #@! TO.N,Net-(U1-PadGND)*
G36*
X178677009Y-17788090D02*
X179016352Y-17942381D01*
X179298752Y-18185712D01*
X179501506Y-18498523D01*
X179615348Y-18879184D01*
X179630001Y-19076363D01*
X179630000Y-69037419D01*
X179569910Y-69457009D01*
X179415619Y-69796352D01*
X179172288Y-70078752D01*
X178859479Y-70281506D01*
X178478815Y-70395348D01*
X178281649Y-70410000D01*
X162629926Y-70410000D01*
X162560000Y-70396091D01*
X162490075Y-70410000D01*
X162490074Y-70410000D01*
X162282972Y-70451195D01*
X162048119Y-70608119D01*
X161891195Y-70842972D01*
X161836091Y-71120000D01*
X161850001Y-71189931D01*
X161850000Y-91878074D01*
X161836091Y-91948000D01*
X161891195Y-92225028D01*
X162048119Y-92459881D01*
X162282972Y-92616805D01*
X162442571Y-92648551D01*
X162560000Y-92671909D01*
X162629925Y-92658000D01*
X178257419Y-92658000D01*
X178677009Y-92718090D01*
X179016352Y-92872381D01*
X179298752Y-93115712D01*
X179501506Y-93428523D01*
X179615348Y-93809184D01*
X179630001Y-94006363D01*
X179630000Y-101497281D01*
X179544491Y-101523423D01*
X179452033Y-101550460D01*
X179444159Y-101554098D01*
X178922644Y-101798948D01*
X178842075Y-101851872D01*
X178760927Y-101903768D01*
X178754390Y-101909470D01*
X178322558Y-102290851D01*
X178260096Y-102364244D01*
X178196760Y-102436847D01*
X178192087Y-102444154D01*
X177884654Y-102931407D01*
X177845298Y-103019387D01*
X177804889Y-103106840D01*
X177802457Y-103115160D01*
X177802454Y-103115166D01*
X177802453Y-103115173D01*
X177644134Y-103669118D01*
X177631056Y-103764586D01*
X177616813Y-103859890D01*
X177616813Y-103868564D01*
X177620333Y-104444687D01*
X177634588Y-104540068D01*
X177647654Y-104635455D01*
X177650088Y-104643781D01*
X177815164Y-105195758D01*
X177855591Y-105283250D01*
X177894930Y-105371194D01*
X177899603Y-105378501D01*
X178212966Y-105861961D01*
X178276328Y-105934594D01*
X178338763Y-106007955D01*
X178345296Y-106013654D01*
X178345300Y-106013658D01*
X178345305Y-106013661D01*
X178781759Y-106389734D01*
X178862942Y-106441653D01*
X178943475Y-106494554D01*
X178951346Y-106498190D01*
X178951349Y-106498192D01*
X178951352Y-106498193D01*
X179475817Y-106736653D01*
X179568309Y-106763700D01*
X179630001Y-106782561D01*
X179630000Y-114757418D01*
X179569910Y-115177009D01*
X179415619Y-115516352D01*
X179172288Y-115798752D01*
X178859479Y-116001506D01*
X178478815Y-116115348D01*
X178281649Y-116130000D01*
X121462581Y-116130000D01*
X121042991Y-116069910D01*
X120703648Y-115915619D01*
X120421248Y-115672288D01*
X120218494Y-115359479D01*
X120104652Y-114978815D01*
X120090000Y-114781649D01*
X120090000Y-106782719D01*
X120175509Y-106756577D01*
X120267967Y-106729540D01*
X120275841Y-106725902D01*
X120797356Y-106481052D01*
X120877925Y-106428128D01*
X120959073Y-106376232D01*
X120965610Y-106370530D01*
X121397442Y-105989149D01*
X121459887Y-105915776D01*
X121523240Y-105843153D01*
X121527913Y-105835846D01*
X121835346Y-105348593D01*
X121874687Y-105260645D01*
X121915111Y-105173160D01*
X121917545Y-105164835D01*
X122075866Y-104610882D01*
X122088943Y-104515421D01*
X122103187Y-104420111D01*
X122103187Y-104411436D01*
X122099667Y-103835313D01*
X122085414Y-103739943D01*
X122072346Y-103644544D01*
X122069912Y-103636219D01*
X121904836Y-103084241D01*
X121864418Y-102996769D01*
X121825071Y-102908806D01*
X121820397Y-102901499D01*
X121507034Y-102418040D01*
X121443707Y-102345447D01*
X121381237Y-102272045D01*
X121374700Y-102266343D01*
X120938241Y-101890266D01*
X120857058Y-101838347D01*
X120776525Y-101785446D01*
X120768654Y-101781810D01*
X120768651Y-101781808D01*
X120768648Y-101781807D01*
X120244183Y-101543347D01*
X120151691Y-101516300D01*
X120090000Y-101497439D01*
X120090000Y-93369971D01*
X120154700Y-93382840D01*
X121145300Y-93382840D01*
X121393065Y-93333557D01*
X121603109Y-93193209D01*
X121743457Y-92983165D01*
X121792740Y-92735400D01*
X121792740Y-90957400D01*
X122047260Y-90957400D01*
X122047260Y-92735400D01*
X122096543Y-92983165D01*
X122236891Y-93193209D01*
X122446935Y-93333557D01*
X122694700Y-93382840D01*
X123685300Y-93382840D01*
X123933065Y-93333557D01*
X124143109Y-93193209D01*
X124283457Y-92983165D01*
X124332740Y-92735400D01*
X124332740Y-90957400D01*
X124587260Y-90957400D01*
X124587260Y-92735400D01*
X124636543Y-92983165D01*
X124776891Y-93193209D01*
X124986935Y-93333557D01*
X125234700Y-93382840D01*
X126225300Y-93382840D01*
X126473065Y-93333557D01*
X126683109Y-93193209D01*
X126823457Y-92983165D01*
X126872740Y-92735400D01*
X126872740Y-90957400D01*
X127127260Y-90957400D01*
X127127260Y-92735400D01*
X127176543Y-92983165D01*
X127316891Y-93193209D01*
X127526935Y-93333557D01*
X127774700Y-93382840D01*
X128765300Y-93382840D01*
X129013065Y-93333557D01*
X129223109Y-93193209D01*
X129363457Y-92983165D01*
X129412740Y-92735400D01*
X129412740Y-90957400D01*
X129667260Y-90957400D01*
X129667260Y-92735400D01*
X129716543Y-92983165D01*
X129856891Y-93193209D01*
X130066935Y-93333557D01*
X130314700Y-93382840D01*
X131305300Y-93382840D01*
X131553065Y-93333557D01*
X131763109Y-93193209D01*
X131903457Y-92983165D01*
X131952740Y-92735400D01*
X131952740Y-90957400D01*
X132207260Y-90957400D01*
X132207260Y-92735400D01*
X132256543Y-92983165D01*
X132396891Y-93193209D01*
X132606935Y-93333557D01*
X132854700Y-93382840D01*
X133845300Y-93382840D01*
X134093065Y-93333557D01*
X134303109Y-93193209D01*
X134443457Y-92983165D01*
X134492740Y-92735400D01*
X134492740Y-90957400D01*
X134747260Y-90957400D01*
X134747260Y-92735400D01*
X134796543Y-92983165D01*
X134936891Y-93193209D01*
X135146935Y-93333557D01*
X135394700Y-93382840D01*
X136385300Y-93382840D01*
X136633065Y-93333557D01*
X136843109Y-93193209D01*
X136983457Y-92983165D01*
X137032740Y-92735400D01*
X137032740Y-90957400D01*
X137287260Y-90957400D01*
X137287260Y-92735400D01*
X137336543Y-92983165D01*
X137476891Y-93193209D01*
X137686935Y-93333557D01*
X137934700Y-93382840D01*
X138925300Y-93382840D01*
X139173065Y-93333557D01*
X139383109Y-93193209D01*
X139523457Y-92983165D01*
X139572740Y-92735400D01*
X139572740Y-90957400D01*
X139827260Y-90957400D01*
X139827260Y-92735400D01*
X139876543Y-92983165D01*
X140016891Y-93193209D01*
X140226935Y-93333557D01*
X140474700Y-93382840D01*
X141465300Y-93382840D01*
X141713065Y-93333557D01*
X141923109Y-93193209D01*
X142063457Y-92983165D01*
X142112740Y-92735400D01*
X142112740Y-90957400D01*
X142367260Y-90957400D01*
X142367260Y-92735400D01*
X142416543Y-92983165D01*
X142556891Y-93193209D01*
X142766935Y-93333557D01*
X143014700Y-93382840D01*
X144005300Y-93382840D01*
X144253065Y-93333557D01*
X144463109Y-93193209D01*
X144603457Y-92983165D01*
X144652740Y-92735400D01*
X144652740Y-90957400D01*
X144603457Y-90709635D01*
X144463109Y-90499591D01*
X144253065Y-90359243D01*
X144005300Y-90309960D01*
X143014700Y-90309960D01*
X142766935Y-90359243D01*
X142556891Y-90499591D01*
X142416543Y-90709635D01*
X142367260Y-90957400D01*
X142112740Y-90957400D01*
X142063457Y-90709635D01*
X141923109Y-90499591D01*
X141713065Y-90359243D01*
X141465300Y-90309960D01*
X140474700Y-90309960D01*
X140226935Y-90359243D01*
X140016891Y-90499591D01*
X139876543Y-90709635D01*
X139827260Y-90957400D01*
X139572740Y-90957400D01*
X139523457Y-90709635D01*
X139383109Y-90499591D01*
X139173065Y-90359243D01*
X138925300Y-90309960D01*
X137934700Y-90309960D01*
X137686935Y-90359243D01*
X137476891Y-90499591D01*
X137336543Y-90709635D01*
X137287260Y-90957400D01*
X137032740Y-90957400D01*
X136983457Y-90709635D01*
X136843109Y-90499591D01*
X136633065Y-90359243D01*
X136385300Y-90309960D01*
X135394700Y-90309960D01*
X135146935Y-90359243D01*
X134936891Y-90499591D01*
X134796543Y-90709635D01*
X134747260Y-90957400D01*
X134492740Y-90957400D01*
X134443457Y-90709635D01*
X134303109Y-90499591D01*
X134093065Y-90359243D01*
X133845300Y-90309960D01*
X132854700Y-90309960D01*
X132606935Y-90359243D01*
X132396891Y-90499591D01*
X132256543Y-90709635D01*
X132207260Y-90957400D01*
X131952740Y-90957400D01*
X131903457Y-90709635D01*
X131763109Y-90499591D01*
X131553065Y-90359243D01*
X131305300Y-90309960D01*
X130314700Y-90309960D01*
X130066935Y-90359243D01*
X129856891Y-90499591D01*
X129716543Y-90709635D01*
X129667260Y-90957400D01*
X129412740Y-90957400D01*
X129363457Y-90709635D01*
X129223109Y-90499591D01*
X129013065Y-90359243D01*
X128765300Y-90309960D01*
X127774700Y-90309960D01*
X127526935Y-90359243D01*
X127316891Y-90499591D01*
X127176543Y-90709635D01*
X127127260Y-90957400D01*
X126872740Y-90957400D01*
X126823457Y-90709635D01*
X126683109Y-90499591D01*
X126473065Y-90359243D01*
X126225300Y-90309960D01*
X125234700Y-90309960D01*
X124986935Y-90359243D01*
X124776891Y-90499591D01*
X124636543Y-90709635D01*
X124587260Y-90957400D01*
X124332740Y-90957400D01*
X124283457Y-90709635D01*
X124143109Y-90499591D01*
X123933065Y-90359243D01*
X123685300Y-90309960D01*
X122694700Y-90309960D01*
X122446935Y-90359243D01*
X122236891Y-90499591D01*
X122096543Y-90709635D01*
X122047260Y-90957400D01*
X121792740Y-90957400D01*
X121743457Y-90709635D01*
X121603109Y-90499591D01*
X121393065Y-90359243D01*
X121145300Y-90309960D01*
X120154700Y-90309960D01*
X120090000Y-90322829D01*
X120090000Y-87477171D01*
X120154700Y-87490040D01*
X121145300Y-87490040D01*
X121393065Y-87440757D01*
X121603109Y-87300409D01*
X121743457Y-87090365D01*
X121792740Y-86842600D01*
X121792740Y-85064600D01*
X124587260Y-85064600D01*
X124587260Y-86842600D01*
X124636543Y-87090365D01*
X124776891Y-87300409D01*
X124986935Y-87440757D01*
X125234700Y-87490040D01*
X126225300Y-87490040D01*
X126473065Y-87440757D01*
X126683109Y-87300409D01*
X126823457Y-87090365D01*
X126872740Y-86842600D01*
X126872740Y-85064600D01*
X127127260Y-85064600D01*
X127127260Y-86842600D01*
X127176543Y-87090365D01*
X127316891Y-87300409D01*
X127526935Y-87440757D01*
X127774700Y-87490040D01*
X128765300Y-87490040D01*
X129013065Y-87440757D01*
X129223109Y-87300409D01*
X129363457Y-87090365D01*
X129412740Y-86842600D01*
X129412740Y-85064600D01*
X129667260Y-85064600D01*
X129667260Y-86842600D01*
X129716543Y-87090365D01*
X129856891Y-87300409D01*
X130066935Y-87440757D01*
X130314700Y-87490040D01*
X131305300Y-87490040D01*
X131553065Y-87440757D01*
X131763109Y-87300409D01*
X131903457Y-87090365D01*
X131952740Y-86842600D01*
X131952740Y-85064600D01*
X132207260Y-85064600D01*
X132207260Y-86842600D01*
X132256543Y-87090365D01*
X132396891Y-87300409D01*
X132606935Y-87440757D01*
X132854700Y-87490040D01*
X133845300Y-87490040D01*
X134093065Y-87440757D01*
X134303109Y-87300409D01*
X134443457Y-87090365D01*
X134492740Y-86842600D01*
X134492740Y-85064600D01*
X134747260Y-85064600D01*
X134747260Y-86842600D01*
X134796543Y-87090365D01*
X134936891Y-87300409D01*
X135146935Y-87440757D01*
X135394700Y-87490040D01*
X136385300Y-87490040D01*
X136633065Y-87440757D01*
X136843109Y-87300409D01*
X136983457Y-87090365D01*
X137032740Y-86842600D01*
X137032740Y-85064600D01*
X137287260Y-85064600D01*
X137287260Y-86842600D01*
X137336543Y-87090365D01*
X137476891Y-87300409D01*
X137686935Y-87440757D01*
X137934700Y-87490040D01*
X138925300Y-87490040D01*
X139173065Y-87440757D01*
X139383109Y-87300409D01*
X139523457Y-87090365D01*
X139572740Y-86842600D01*
X139572740Y-85064600D01*
X139827260Y-85064600D01*
X139827260Y-86842600D01*
X139876543Y-87090365D01*
X140016891Y-87300409D01*
X140226935Y-87440757D01*
X140474700Y-87490040D01*
X141465300Y-87490040D01*
X141713065Y-87440757D01*
X141923109Y-87300409D01*
X142063457Y-87090365D01*
X142112740Y-86842600D01*
X142112740Y-85064600D01*
X142367260Y-85064600D01*
X142367260Y-86842600D01*
X142416543Y-87090365D01*
X142556891Y-87300409D01*
X142766935Y-87440757D01*
X143014700Y-87490040D01*
X144005300Y-87490040D01*
X144253065Y-87440757D01*
X144463109Y-87300409D01*
X144603457Y-87090365D01*
X144652740Y-86842600D01*
X144652740Y-85064600D01*
X144603457Y-84816835D01*
X144463109Y-84606791D01*
X144253065Y-84466443D01*
X144005300Y-84417160D01*
X143014700Y-84417160D01*
X142766935Y-84466443D01*
X142556891Y-84606791D01*
X142416543Y-84816835D01*
X142367260Y-85064600D01*
X142112740Y-85064600D01*
X142063457Y-84816835D01*
X141923109Y-84606791D01*
X141713065Y-84466443D01*
X141465300Y-84417160D01*
X140474700Y-84417160D01*
X140226935Y-84466443D01*
X140016891Y-84606791D01*
X139876543Y-84816835D01*
X139827260Y-85064600D01*
X139572740Y-85064600D01*
X139523457Y-84816835D01*
X139383109Y-84606791D01*
X139173065Y-84466443D01*
X138925300Y-84417160D01*
X137934700Y-84417160D01*
X137686935Y-84466443D01*
X137476891Y-84606791D01*
X137336543Y-84816835D01*
X137287260Y-85064600D01*
X137032740Y-85064600D01*
X136983457Y-84816835D01*
X136843109Y-84606791D01*
X136633065Y-84466443D01*
X136385300Y-84417160D01*
X135394700Y-84417160D01*
X135146935Y-84466443D01*
X134936891Y-84606791D01*
X134796543Y-84816835D01*
X134747260Y-85064600D01*
X134492740Y-85064600D01*
X134443457Y-84816835D01*
X134303109Y-84606791D01*
X134093065Y-84466443D01*
X133845300Y-84417160D01*
X132854700Y-84417160D01*
X132606935Y-84466443D01*
X132396891Y-84606791D01*
X132256543Y-84816835D01*
X132207260Y-85064600D01*
X131952740Y-85064600D01*
X131903457Y-84816835D01*
X131763109Y-84606791D01*
X131553065Y-84466443D01*
X131305300Y-84417160D01*
X130314700Y-84417160D01*
X130066935Y-84466443D01*
X129856891Y-84606791D01*
X129716543Y-84816835D01*
X129667260Y-85064600D01*
X129412740Y-85064600D01*
X129363457Y-84816835D01*
X129223109Y-84606791D01*
X129013065Y-84466443D01*
X128765300Y-84417160D01*
X127774700Y-84417160D01*
X127526935Y-84466443D01*
X127316891Y-84606791D01*
X127176543Y-84816835D01*
X127127260Y-85064600D01*
X126872740Y-85064600D01*
X126823457Y-84816835D01*
X126683109Y-84606791D01*
X126473065Y-84466443D01*
X126225300Y-84417160D01*
X125234700Y-84417160D01*
X124986935Y-84466443D01*
X124776891Y-84606791D01*
X124636543Y-84816835D01*
X124587260Y-85064600D01*
X121792740Y-85064600D01*
X121743457Y-84816835D01*
X121603109Y-84606791D01*
X121393065Y-84466443D01*
X121145300Y-84417160D01*
X120154700Y-84417160D01*
X120090000Y-84430029D01*
X120090000Y-50189971D01*
X120154700Y-50202840D01*
X121145300Y-50202840D01*
X121393065Y-50153557D01*
X121603109Y-50013209D01*
X121743457Y-49803165D01*
X121792740Y-49555400D01*
X121792740Y-47777400D01*
X122047260Y-47777400D01*
X122047260Y-49555400D01*
X122096543Y-49803165D01*
X122236891Y-50013209D01*
X122446935Y-50153557D01*
X122694700Y-50202840D01*
X123685300Y-50202840D01*
X123933065Y-50153557D01*
X124143109Y-50013209D01*
X124283457Y-49803165D01*
X124332740Y-49555400D01*
X124332740Y-47777400D01*
X124587260Y-47777400D01*
X124587260Y-49555400D01*
X124636543Y-49803165D01*
X124776891Y-50013209D01*
X124986935Y-50153557D01*
X125234700Y-50202840D01*
X126225300Y-50202840D01*
X126473065Y-50153557D01*
X126683109Y-50013209D01*
X126823457Y-49803165D01*
X126872740Y-49555400D01*
X126872740Y-47777400D01*
X127127260Y-47777400D01*
X127127260Y-49555400D01*
X127176543Y-49803165D01*
X127316891Y-50013209D01*
X127526935Y-50153557D01*
X127774700Y-50202840D01*
X128765300Y-50202840D01*
X129013065Y-50153557D01*
X129223109Y-50013209D01*
X129363457Y-49803165D01*
X129412740Y-49555400D01*
X129412740Y-47777400D01*
X129667260Y-47777400D01*
X129667260Y-49555400D01*
X129716543Y-49803165D01*
X129856891Y-50013209D01*
X130066935Y-50153557D01*
X130314700Y-50202840D01*
X131305300Y-50202840D01*
X131553065Y-50153557D01*
X131763109Y-50013209D01*
X131903457Y-49803165D01*
X131952740Y-49555400D01*
X131952740Y-47777400D01*
X132207260Y-47777400D01*
X132207260Y-49555400D01*
X132256543Y-49803165D01*
X132396891Y-50013209D01*
X132606935Y-50153557D01*
X132854700Y-50202840D01*
X133845300Y-50202840D01*
X134093065Y-50153557D01*
X134303109Y-50013209D01*
X134443457Y-49803165D01*
X134492740Y-49555400D01*
X134492740Y-47777400D01*
X134747260Y-47777400D01*
X134747260Y-49555400D01*
X134796543Y-49803165D01*
X134936891Y-50013209D01*
X135146935Y-50153557D01*
X135394700Y-50202840D01*
X136385300Y-50202840D01*
X136633065Y-50153557D01*
X136843109Y-50013209D01*
X136983457Y-49803165D01*
X137032740Y-49555400D01*
X137032740Y-47777400D01*
X137287260Y-47777400D01*
X137287260Y-49555400D01*
X137336543Y-49803165D01*
X137476891Y-50013209D01*
X137686935Y-50153557D01*
X137934700Y-50202840D01*
X138925300Y-50202840D01*
X139173065Y-50153557D01*
X139383109Y-50013209D01*
X139523457Y-49803165D01*
X139572740Y-49555400D01*
X139572740Y-47777400D01*
X139827260Y-47777400D01*
X139827260Y-49555400D01*
X139876543Y-49803165D01*
X140016891Y-50013209D01*
X140226935Y-50153557D01*
X140474700Y-50202840D01*
X141465300Y-50202840D01*
X141713065Y-50153557D01*
X141923109Y-50013209D01*
X142063457Y-49803165D01*
X142112740Y-49555400D01*
X142112740Y-47777400D01*
X142367260Y-47777400D01*
X142367260Y-49555400D01*
X142416543Y-49803165D01*
X142556891Y-50013209D01*
X142766935Y-50153557D01*
X143014700Y-50202840D01*
X144005300Y-50202840D01*
X144253065Y-50153557D01*
X144463109Y-50013209D01*
X144603457Y-49803165D01*
X144652740Y-49555400D01*
X144652740Y-47777400D01*
X144603457Y-47529635D01*
X144463109Y-47319591D01*
X144253065Y-47179243D01*
X144005300Y-47129960D01*
X143014700Y-47129960D01*
X142766935Y-47179243D01*
X142556891Y-47319591D01*
X142416543Y-47529635D01*
X142367260Y-47777400D01*
X142112740Y-47777400D01*
X142063457Y-47529635D01*
X141923109Y-47319591D01*
X141713065Y-47179243D01*
X141465300Y-47129960D01*
X140474700Y-47129960D01*
X140226935Y-47179243D01*
X140016891Y-47319591D01*
X139876543Y-47529635D01*
X139827260Y-47777400D01*
X139572740Y-47777400D01*
X139523457Y-47529635D01*
X139383109Y-47319591D01*
X139173065Y-47179243D01*
X138925300Y-47129960D01*
X137934700Y-47129960D01*
X137686935Y-47179243D01*
X137476891Y-47319591D01*
X137336543Y-47529635D01*
X137287260Y-47777400D01*
X137032740Y-47777400D01*
X136983457Y-47529635D01*
X136843109Y-47319591D01*
X136633065Y-47179243D01*
X136385300Y-47129960D01*
X135394700Y-47129960D01*
X135146935Y-47179243D01*
X134936891Y-47319591D01*
X134796543Y-47529635D01*
X134747260Y-47777400D01*
X134492740Y-47777400D01*
X134443457Y-47529635D01*
X134303109Y-47319591D01*
X134093065Y-47179243D01*
X133845300Y-47129960D01*
X132854700Y-47129960D01*
X132606935Y-47179243D01*
X132396891Y-47319591D01*
X132256543Y-47529635D01*
X132207260Y-47777400D01*
X131952740Y-47777400D01*
X131903457Y-47529635D01*
X131763109Y-47319591D01*
X131553065Y-47179243D01*
X131305300Y-47129960D01*
X130314700Y-47129960D01*
X130066935Y-47179243D01*
X129856891Y-47319591D01*
X129716543Y-47529635D01*
X129667260Y-47777400D01*
X129412740Y-47777400D01*
X129363457Y-47529635D01*
X129223109Y-47319591D01*
X129013065Y-47179243D01*
X128765300Y-47129960D01*
X127774700Y-47129960D01*
X127526935Y-47179243D01*
X127316891Y-47319591D01*
X127176543Y-47529635D01*
X127127260Y-47777400D01*
X126872740Y-47777400D01*
X126823457Y-47529635D01*
X126683109Y-47319591D01*
X126473065Y-47179243D01*
X126225300Y-47129960D01*
X125234700Y-47129960D01*
X124986935Y-47179243D01*
X124776891Y-47319591D01*
X124636543Y-47529635D01*
X124587260Y-47777400D01*
X124332740Y-47777400D01*
X124283457Y-47529635D01*
X124143109Y-47319591D01*
X123933065Y-47179243D01*
X123685300Y-47129960D01*
X122694700Y-47129960D01*
X122446935Y-47179243D01*
X122236891Y-47319591D01*
X122096543Y-47529635D01*
X122047260Y-47777400D01*
X121792740Y-47777400D01*
X121743457Y-47529635D01*
X121603109Y-47319591D01*
X121393065Y-47179243D01*
X121145300Y-47129960D01*
X120154700Y-47129960D01*
X120090000Y-47142829D01*
X120090000Y-41884600D01*
X122047260Y-41884600D01*
X122047260Y-43662600D01*
X122096543Y-43910365D01*
X122236891Y-44120409D01*
X122446935Y-44260757D01*
X122694700Y-44310040D01*
X123685300Y-44310040D01*
X123933065Y-44260757D01*
X124143109Y-44120409D01*
X124283457Y-43910365D01*
X124332740Y-43662600D01*
X124332740Y-41884600D01*
X124587260Y-41884600D01*
X124587260Y-43662600D01*
X124636543Y-43910365D01*
X124776891Y-44120409D01*
X124986935Y-44260757D01*
X125234700Y-44310040D01*
X126225300Y-44310040D01*
X126473065Y-44260757D01*
X126683109Y-44120409D01*
X126823457Y-43910365D01*
X126872740Y-43662600D01*
X126872740Y-41884600D01*
X127127260Y-41884600D01*
X127127260Y-43662600D01*
X127176543Y-43910365D01*
X127316891Y-44120409D01*
X127526935Y-44260757D01*
X127774700Y-44310040D01*
X128765300Y-44310040D01*
X129013065Y-44260757D01*
X129223109Y-44120409D01*
X129363457Y-43910365D01*
X129412740Y-43662600D01*
X129412740Y-41884600D01*
X129667260Y-41884600D01*
X129667260Y-43662600D01*
X129716543Y-43910365D01*
X129856891Y-44120409D01*
X130066935Y-44260757D01*
X130314700Y-44310040D01*
X131305300Y-44310040D01*
X131553065Y-44260757D01*
X131763109Y-44120409D01*
X131903457Y-43910365D01*
X131952740Y-43662600D01*
X131952740Y-41884600D01*
X132207260Y-41884600D01*
X132207260Y-43662600D01*
X132256543Y-43910365D01*
X132396891Y-44120409D01*
X132606935Y-44260757D01*
X132854700Y-44310040D01*
X133845300Y-44310040D01*
X134093065Y-44260757D01*
X134303109Y-44120409D01*
X134443457Y-43910365D01*
X134492740Y-43662600D01*
X134492740Y-41884600D01*
X134747260Y-41884600D01*
X134747260Y-43662600D01*
X134796543Y-43910365D01*
X134936891Y-44120409D01*
X135146935Y-44260757D01*
X135394700Y-44310040D01*
X136385300Y-44310040D01*
X136633065Y-44260757D01*
X136843109Y-44120409D01*
X136983457Y-43910365D01*
X137032740Y-43662600D01*
X137032740Y-41884600D01*
X137287260Y-41884600D01*
X137287260Y-43662600D01*
X137336543Y-43910365D01*
X137476891Y-44120409D01*
X137686935Y-44260757D01*
X137934700Y-44310040D01*
X138925300Y-44310040D01*
X139173065Y-44260757D01*
X139383109Y-44120409D01*
X139523457Y-43910365D01*
X139572740Y-43662600D01*
X139572740Y-41884600D01*
X139827260Y-41884600D01*
X139827260Y-43662600D01*
X139876543Y-43910365D01*
X140016891Y-44120409D01*
X140226935Y-44260757D01*
X140474700Y-44310040D01*
X141465300Y-44310040D01*
X141713065Y-44260757D01*
X141923109Y-44120409D01*
X142063457Y-43910365D01*
X142112740Y-43662600D01*
X142112740Y-41884600D01*
X142367260Y-41884600D01*
X142367260Y-43662600D01*
X142416543Y-43910365D01*
X142556891Y-44120409D01*
X142766935Y-44260757D01*
X143014700Y-44310040D01*
X144005300Y-44310040D01*
X144253065Y-44260757D01*
X144463109Y-44120409D01*
X144603457Y-43910365D01*
X144652740Y-43662600D01*
X144652740Y-41884600D01*
X144603457Y-41636835D01*
X144463109Y-41426791D01*
X144253065Y-41286443D01*
X144005300Y-41237160D01*
X143014700Y-41237160D01*
X142766935Y-41286443D01*
X142556891Y-41426791D01*
X142416543Y-41636835D01*
X142367260Y-41884600D01*
X142112740Y-41884600D01*
X142063457Y-41636835D01*
X141923109Y-41426791D01*
X141713065Y-41286443D01*
X141465300Y-41237160D01*
X140474700Y-41237160D01*
X140226935Y-41286443D01*
X140016891Y-41426791D01*
X139876543Y-41636835D01*
X139827260Y-41884600D01*
X139572740Y-41884600D01*
X139523457Y-41636835D01*
X139383109Y-41426791D01*
X139173065Y-41286443D01*
X138925300Y-41237160D01*
X137934700Y-41237160D01*
X137686935Y-41286443D01*
X137476891Y-41426791D01*
X137336543Y-41636835D01*
X137287260Y-41884600D01*
X137032740Y-41884600D01*
X136983457Y-41636835D01*
X136843109Y-41426791D01*
X136633065Y-41286443D01*
X136385300Y-41237160D01*
X135394700Y-41237160D01*
X135146935Y-41286443D01*
X134936891Y-41426791D01*
X134796543Y-41636835D01*
X134747260Y-41884600D01*
X134492740Y-41884600D01*
X134443457Y-41636835D01*
X134303109Y-41426791D01*
X134093065Y-41286443D01*
X133845300Y-41237160D01*
X132854700Y-41237160D01*
X132606935Y-41286443D01*
X132396891Y-41426791D01*
X132256543Y-41636835D01*
X132207260Y-41884600D01*
X131952740Y-41884600D01*
X131903457Y-41636835D01*
X131763109Y-41426791D01*
X131553065Y-41286443D01*
X131305300Y-41237160D01*
X130314700Y-41237160D01*
X130066935Y-41286443D01*
X129856891Y-41426791D01*
X129716543Y-41636835D01*
X129667260Y-41884600D01*
X129412740Y-41884600D01*
X129363457Y-41636835D01*
X129223109Y-41426791D01*
X129013065Y-41286443D01*
X128765300Y-41237160D01*
X127774700Y-41237160D01*
X127526935Y-41286443D01*
X127316891Y-41426791D01*
X127176543Y-41636835D01*
X127127260Y-41884600D01*
X126872740Y-41884600D01*
X126823457Y-41636835D01*
X126683109Y-41426791D01*
X126473065Y-41286443D01*
X126225300Y-41237160D01*
X125234700Y-41237160D01*
X124986935Y-41286443D01*
X124776891Y-41426791D01*
X124636543Y-41636835D01*
X124587260Y-41884600D01*
X124332740Y-41884600D01*
X124283457Y-41636835D01*
X124143109Y-41426791D01*
X123933065Y-41286443D01*
X123685300Y-41237160D01*
X122694700Y-41237160D01*
X122446935Y-41286443D01*
X122236891Y-41426791D01*
X122096543Y-41636835D01*
X122047260Y-41884600D01*
X120090000Y-41884600D01*
X120090000Y-19100581D01*
X120150090Y-18680991D01*
X120304381Y-18341648D01*
X120547712Y-18059248D01*
X120860523Y-17856494D01*
X121241184Y-17742652D01*
X121438350Y-17728000D01*
X178257419Y-17728000D01*
X178677009Y-17788090D01*
X178677009Y-17788090D01*
G37*
X178677009Y-17788090D02*
X179016352Y-17942381D01*
X179298752Y-18185712D01*
X179501506Y-18498523D01*
X179615348Y-18879184D01*
X179630001Y-19076363D01*
X179630000Y-69037419D01*
X179569910Y-69457009D01*
X179415619Y-69796352D01*
X179172288Y-70078752D01*
X178859479Y-70281506D01*
X178478815Y-70395348D01*
X178281649Y-70410000D01*
X162629926Y-70410000D01*
X162560000Y-70396091D01*
X162490075Y-70410000D01*
X162490074Y-70410000D01*
X162282972Y-70451195D01*
X162048119Y-70608119D01*
X161891195Y-70842972D01*
X161836091Y-71120000D01*
X161850001Y-71189931D01*
X161850000Y-91878074D01*
X161836091Y-91948000D01*
X161891195Y-92225028D01*
X162048119Y-92459881D01*
X162282972Y-92616805D01*
X162442571Y-92648551D01*
X162560000Y-92671909D01*
X162629925Y-92658000D01*
X178257419Y-92658000D01*
X178677009Y-92718090D01*
X179016352Y-92872381D01*
X179298752Y-93115712D01*
X179501506Y-93428523D01*
X179615348Y-93809184D01*
X179630001Y-94006363D01*
X179630000Y-101497281D01*
X179544491Y-101523423D01*
X179452033Y-101550460D01*
X179444159Y-101554098D01*
X178922644Y-101798948D01*
X178842075Y-101851872D01*
X178760927Y-101903768D01*
X178754390Y-101909470D01*
X178322558Y-102290851D01*
X178260096Y-102364244D01*
X178196760Y-102436847D01*
X178192087Y-102444154D01*
X177884654Y-102931407D01*
X177845298Y-103019387D01*
X177804889Y-103106840D01*
X177802457Y-103115160D01*
X177802454Y-103115166D01*
X177802453Y-103115173D01*
X177644134Y-103669118D01*
X177631056Y-103764586D01*
X177616813Y-103859890D01*
X177616813Y-103868564D01*
X177620333Y-104444687D01*
X177634588Y-104540068D01*
X177647654Y-104635455D01*
X177650088Y-104643781D01*
X177815164Y-105195758D01*
X177855591Y-105283250D01*
X177894930Y-105371194D01*
X177899603Y-105378501D01*
X178212966Y-105861961D01*
X178276328Y-105934594D01*
X178338763Y-106007955D01*
X178345296Y-106013654D01*
X178345300Y-106013658D01*
X178345305Y-106013661D01*
X178781759Y-106389734D01*
X178862942Y-106441653D01*
X178943475Y-106494554D01*
X178951346Y-106498190D01*
X178951349Y-106498192D01*
X178951352Y-106498193D01*
X179475817Y-106736653D01*
X179568309Y-106763700D01*
X179630001Y-106782561D01*
X179630000Y-114757418D01*
X179569910Y-115177009D01*
X179415619Y-115516352D01*
X179172288Y-115798752D01*
X178859479Y-116001506D01*
X178478815Y-116115348D01*
X178281649Y-116130000D01*
X121462581Y-116130000D01*
X121042991Y-116069910D01*
X120703648Y-115915619D01*
X120421248Y-115672288D01*
X120218494Y-115359479D01*
X120104652Y-114978815D01*
X120090000Y-114781649D01*
X120090000Y-106782719D01*
X120175509Y-106756577D01*
X120267967Y-106729540D01*
X120275841Y-106725902D01*
X120797356Y-106481052D01*
X120877925Y-106428128D01*
X120959073Y-106376232D01*
X120965610Y-106370530D01*
X121397442Y-105989149D01*
X121459887Y-105915776D01*
X121523240Y-105843153D01*
X121527913Y-105835846D01*
X121835346Y-105348593D01*
X121874687Y-105260645D01*
X121915111Y-105173160D01*
X121917545Y-105164835D01*
X122075866Y-104610882D01*
X122088943Y-104515421D01*
X122103187Y-104420111D01*
X122103187Y-104411436D01*
X122099667Y-103835313D01*
X122085414Y-103739943D01*
X122072346Y-103644544D01*
X122069912Y-103636219D01*
X121904836Y-103084241D01*
X121864418Y-102996769D01*
X121825071Y-102908806D01*
X121820397Y-102901499D01*
X121507034Y-102418040D01*
X121443707Y-102345447D01*
X121381237Y-102272045D01*
X121374700Y-102266343D01*
X120938241Y-101890266D01*
X120857058Y-101838347D01*
X120776525Y-101785446D01*
X120768654Y-101781810D01*
X120768651Y-101781808D01*
X120768648Y-101781807D01*
X120244183Y-101543347D01*
X120151691Y-101516300D01*
X120090000Y-101497439D01*
X120090000Y-93369971D01*
X120154700Y-93382840D01*
X121145300Y-93382840D01*
X121393065Y-93333557D01*
X121603109Y-93193209D01*
X121743457Y-92983165D01*
X121792740Y-92735400D01*
X121792740Y-90957400D01*
X122047260Y-90957400D01*
X122047260Y-92735400D01*
X122096543Y-92983165D01*
X122236891Y-93193209D01*
X122446935Y-93333557D01*
X122694700Y-93382840D01*
X123685300Y-93382840D01*
X123933065Y-93333557D01*
X124143109Y-93193209D01*
X124283457Y-92983165D01*
X124332740Y-92735400D01*
X124332740Y-90957400D01*
X124587260Y-90957400D01*
X124587260Y-92735400D01*
X124636543Y-92983165D01*
X124776891Y-93193209D01*
X124986935Y-93333557D01*
X125234700Y-93382840D01*
X126225300Y-93382840D01*
X126473065Y-93333557D01*
X126683109Y-93193209D01*
X126823457Y-92983165D01*
X126872740Y-92735400D01*
X126872740Y-90957400D01*
X127127260Y-90957400D01*
X127127260Y-92735400D01*
X127176543Y-92983165D01*
X127316891Y-93193209D01*
X127526935Y-93333557D01*
X127774700Y-93382840D01*
X128765300Y-93382840D01*
X129013065Y-93333557D01*
X129223109Y-93193209D01*
X129363457Y-92983165D01*
X129412740Y-92735400D01*
X129412740Y-90957400D01*
X129667260Y-90957400D01*
X129667260Y-92735400D01*
X129716543Y-92983165D01*
X129856891Y-93193209D01*
X130066935Y-93333557D01*
X130314700Y-93382840D01*
X131305300Y-93382840D01*
X131553065Y-93333557D01*
X131763109Y-93193209D01*
X131903457Y-92983165D01*
X131952740Y-92735400D01*
X131952740Y-90957400D01*
X132207260Y-90957400D01*
X132207260Y-92735400D01*
X132256543Y-92983165D01*
X132396891Y-93193209D01*
X132606935Y-93333557D01*
X132854700Y-93382840D01*
X133845300Y-93382840D01*
X134093065Y-93333557D01*
X134303109Y-93193209D01*
X134443457Y-92983165D01*
X134492740Y-92735400D01*
X134492740Y-90957400D01*
X134747260Y-90957400D01*
X134747260Y-92735400D01*
X134796543Y-92983165D01*
X134936891Y-93193209D01*
X135146935Y-93333557D01*
X135394700Y-93382840D01*
X136385300Y-93382840D01*
X136633065Y-93333557D01*
X136843109Y-93193209D01*
X136983457Y-92983165D01*
X137032740Y-92735400D01*
X137032740Y-90957400D01*
X137287260Y-90957400D01*
X137287260Y-92735400D01*
X137336543Y-92983165D01*
X137476891Y-93193209D01*
X137686935Y-93333557D01*
X137934700Y-93382840D01*
X138925300Y-93382840D01*
X139173065Y-93333557D01*
X139383109Y-93193209D01*
X139523457Y-92983165D01*
X139572740Y-92735400D01*
X139572740Y-90957400D01*
X139827260Y-90957400D01*
X139827260Y-92735400D01*
X139876543Y-92983165D01*
X140016891Y-93193209D01*
X140226935Y-93333557D01*
X140474700Y-93382840D01*
X141465300Y-93382840D01*
X141713065Y-93333557D01*
X141923109Y-93193209D01*
X142063457Y-92983165D01*
X142112740Y-92735400D01*
X142112740Y-90957400D01*
X142367260Y-90957400D01*
X142367260Y-92735400D01*
X142416543Y-92983165D01*
X142556891Y-93193209D01*
X142766935Y-93333557D01*
X143014700Y-93382840D01*
X144005300Y-93382840D01*
X144253065Y-93333557D01*
X144463109Y-93193209D01*
X144603457Y-92983165D01*
X144652740Y-92735400D01*
X144652740Y-90957400D01*
X144603457Y-90709635D01*
X144463109Y-90499591D01*
X144253065Y-90359243D01*
X144005300Y-90309960D01*
X143014700Y-90309960D01*
X142766935Y-90359243D01*
X142556891Y-90499591D01*
X142416543Y-90709635D01*
X142367260Y-90957400D01*
X142112740Y-90957400D01*
X142063457Y-90709635D01*
X141923109Y-90499591D01*
X141713065Y-90359243D01*
X141465300Y-90309960D01*
X140474700Y-90309960D01*
X140226935Y-90359243D01*
X140016891Y-90499591D01*
X139876543Y-90709635D01*
X139827260Y-90957400D01*
X139572740Y-90957400D01*
X139523457Y-90709635D01*
X139383109Y-90499591D01*
X139173065Y-90359243D01*
X138925300Y-90309960D01*
X137934700Y-90309960D01*
X137686935Y-90359243D01*
X137476891Y-90499591D01*
X137336543Y-90709635D01*
X137287260Y-90957400D01*
X137032740Y-90957400D01*
X136983457Y-90709635D01*
X136843109Y-90499591D01*
X136633065Y-90359243D01*
X136385300Y-90309960D01*
X135394700Y-90309960D01*
X135146935Y-90359243D01*
X134936891Y-90499591D01*
X134796543Y-90709635D01*
X134747260Y-90957400D01*
X134492740Y-90957400D01*
X134443457Y-90709635D01*
X134303109Y-90499591D01*
X134093065Y-90359243D01*
X133845300Y-90309960D01*
X132854700Y-90309960D01*
X132606935Y-90359243D01*
X132396891Y-90499591D01*
X132256543Y-90709635D01*
X132207260Y-90957400D01*
X131952740Y-90957400D01*
X131903457Y-90709635D01*
X131763109Y-90499591D01*
X131553065Y-90359243D01*
X131305300Y-90309960D01*
X130314700Y-90309960D01*
X130066935Y-90359243D01*
X129856891Y-90499591D01*
X129716543Y-90709635D01*
X129667260Y-90957400D01*
X129412740Y-90957400D01*
X129363457Y-90709635D01*
X129223109Y-90499591D01*
X129013065Y-90359243D01*
X128765300Y-90309960D01*
X127774700Y-90309960D01*
X127526935Y-90359243D01*
X127316891Y-90499591D01*
X127176543Y-90709635D01*
X127127260Y-90957400D01*
X126872740Y-90957400D01*
X126823457Y-90709635D01*
X126683109Y-90499591D01*
X126473065Y-90359243D01*
X126225300Y-90309960D01*
X125234700Y-90309960D01*
X124986935Y-90359243D01*
X124776891Y-90499591D01*
X124636543Y-90709635D01*
X124587260Y-90957400D01*
X124332740Y-90957400D01*
X124283457Y-90709635D01*
X124143109Y-90499591D01*
X123933065Y-90359243D01*
X123685300Y-90309960D01*
X122694700Y-90309960D01*
X122446935Y-90359243D01*
X122236891Y-90499591D01*
X122096543Y-90709635D01*
X122047260Y-90957400D01*
X121792740Y-90957400D01*
X121743457Y-90709635D01*
X121603109Y-90499591D01*
X121393065Y-90359243D01*
X121145300Y-90309960D01*
X120154700Y-90309960D01*
X120090000Y-90322829D01*
X120090000Y-87477171D01*
X120154700Y-87490040D01*
X121145300Y-87490040D01*
X121393065Y-87440757D01*
X121603109Y-87300409D01*
X121743457Y-87090365D01*
X121792740Y-86842600D01*
X121792740Y-85064600D01*
X124587260Y-85064600D01*
X124587260Y-86842600D01*
X124636543Y-87090365D01*
X124776891Y-87300409D01*
X124986935Y-87440757D01*
X125234700Y-87490040D01*
X126225300Y-87490040D01*
X126473065Y-87440757D01*
X126683109Y-87300409D01*
X126823457Y-87090365D01*
X126872740Y-86842600D01*
X126872740Y-85064600D01*
X127127260Y-85064600D01*
X127127260Y-86842600D01*
X127176543Y-87090365D01*
X127316891Y-87300409D01*
X127526935Y-87440757D01*
X127774700Y-87490040D01*
X128765300Y-87490040D01*
X129013065Y-87440757D01*
X129223109Y-87300409D01*
X129363457Y-87090365D01*
X129412740Y-86842600D01*
X129412740Y-85064600D01*
X129667260Y-85064600D01*
X129667260Y-86842600D01*
X129716543Y-87090365D01*
X129856891Y-87300409D01*
X130066935Y-87440757D01*
X130314700Y-87490040D01*
X131305300Y-87490040D01*
X131553065Y-87440757D01*
X131763109Y-87300409D01*
X131903457Y-87090365D01*
X131952740Y-86842600D01*
X131952740Y-85064600D01*
X132207260Y-85064600D01*
X132207260Y-86842600D01*
X132256543Y-87090365D01*
X132396891Y-87300409D01*
X132606935Y-87440757D01*
X132854700Y-87490040D01*
X133845300Y-87490040D01*
X134093065Y-87440757D01*
X134303109Y-87300409D01*
X134443457Y-87090365D01*
X134492740Y-86842600D01*
X134492740Y-85064600D01*
X134747260Y-85064600D01*
X134747260Y-86842600D01*
X134796543Y-87090365D01*
X134936891Y-87300409D01*
X135146935Y-87440757D01*
X135394700Y-87490040D01*
X136385300Y-87490040D01*
X136633065Y-87440757D01*
X136843109Y-87300409D01*
X136983457Y-87090365D01*
X137032740Y-86842600D01*
X137032740Y-85064600D01*
X137287260Y-85064600D01*
X137287260Y-86842600D01*
X137336543Y-87090365D01*
X137476891Y-87300409D01*
X137686935Y-87440757D01*
X137934700Y-87490040D01*
X138925300Y-87490040D01*
X139173065Y-87440757D01*
X139383109Y-87300409D01*
X139523457Y-87090365D01*
X139572740Y-86842600D01*
X139572740Y-85064600D01*
X139827260Y-85064600D01*
X139827260Y-86842600D01*
X139876543Y-87090365D01*
X140016891Y-87300409D01*
X140226935Y-87440757D01*
X140474700Y-87490040D01*
X141465300Y-87490040D01*
X141713065Y-87440757D01*
X141923109Y-87300409D01*
X142063457Y-87090365D01*
X142112740Y-86842600D01*
X142112740Y-85064600D01*
X142367260Y-85064600D01*
X142367260Y-86842600D01*
X142416543Y-87090365D01*
X142556891Y-87300409D01*
X142766935Y-87440757D01*
X143014700Y-87490040D01*
X144005300Y-87490040D01*
X144253065Y-87440757D01*
X144463109Y-87300409D01*
X144603457Y-87090365D01*
X144652740Y-86842600D01*
X144652740Y-85064600D01*
X144603457Y-84816835D01*
X144463109Y-84606791D01*
X144253065Y-84466443D01*
X144005300Y-84417160D01*
X143014700Y-84417160D01*
X142766935Y-84466443D01*
X142556891Y-84606791D01*
X142416543Y-84816835D01*
X142367260Y-85064600D01*
X142112740Y-85064600D01*
X142063457Y-84816835D01*
X141923109Y-84606791D01*
X141713065Y-84466443D01*
X141465300Y-84417160D01*
X140474700Y-84417160D01*
X140226935Y-84466443D01*
X140016891Y-84606791D01*
X139876543Y-84816835D01*
X139827260Y-85064600D01*
X139572740Y-85064600D01*
X139523457Y-84816835D01*
X139383109Y-84606791D01*
X139173065Y-84466443D01*
X138925300Y-84417160D01*
X137934700Y-84417160D01*
X137686935Y-84466443D01*
X137476891Y-84606791D01*
X137336543Y-84816835D01*
X137287260Y-85064600D01*
X137032740Y-85064600D01*
X136983457Y-84816835D01*
X136843109Y-84606791D01*
X136633065Y-84466443D01*
X136385300Y-84417160D01*
X135394700Y-84417160D01*
X135146935Y-84466443D01*
X134936891Y-84606791D01*
X134796543Y-84816835D01*
X134747260Y-85064600D01*
X134492740Y-85064600D01*
X134443457Y-84816835D01*
X134303109Y-84606791D01*
X134093065Y-84466443D01*
X133845300Y-84417160D01*
X132854700Y-84417160D01*
X132606935Y-84466443D01*
X132396891Y-84606791D01*
X132256543Y-84816835D01*
X132207260Y-85064600D01*
X131952740Y-85064600D01*
X131903457Y-84816835D01*
X131763109Y-84606791D01*
X131553065Y-84466443D01*
X131305300Y-84417160D01*
X130314700Y-84417160D01*
X130066935Y-84466443D01*
X129856891Y-84606791D01*
X129716543Y-84816835D01*
X129667260Y-85064600D01*
X129412740Y-85064600D01*
X129363457Y-84816835D01*
X129223109Y-84606791D01*
X129013065Y-84466443D01*
X128765300Y-84417160D01*
X127774700Y-84417160D01*
X127526935Y-84466443D01*
X127316891Y-84606791D01*
X127176543Y-84816835D01*
X127127260Y-85064600D01*
X126872740Y-85064600D01*
X126823457Y-84816835D01*
X126683109Y-84606791D01*
X126473065Y-84466443D01*
X126225300Y-84417160D01*
X125234700Y-84417160D01*
X124986935Y-84466443D01*
X124776891Y-84606791D01*
X124636543Y-84816835D01*
X124587260Y-85064600D01*
X121792740Y-85064600D01*
X121743457Y-84816835D01*
X121603109Y-84606791D01*
X121393065Y-84466443D01*
X121145300Y-84417160D01*
X120154700Y-84417160D01*
X120090000Y-84430029D01*
X120090000Y-50189971D01*
X120154700Y-50202840D01*
X121145300Y-50202840D01*
X121393065Y-50153557D01*
X121603109Y-50013209D01*
X121743457Y-49803165D01*
X121792740Y-49555400D01*
X121792740Y-47777400D01*
X122047260Y-47777400D01*
X122047260Y-49555400D01*
X122096543Y-49803165D01*
X122236891Y-50013209D01*
X122446935Y-50153557D01*
X122694700Y-50202840D01*
X123685300Y-50202840D01*
X123933065Y-50153557D01*
X124143109Y-50013209D01*
X124283457Y-49803165D01*
X124332740Y-49555400D01*
X124332740Y-47777400D01*
X124587260Y-47777400D01*
X124587260Y-49555400D01*
X124636543Y-49803165D01*
X124776891Y-50013209D01*
X124986935Y-50153557D01*
X125234700Y-50202840D01*
X126225300Y-50202840D01*
X126473065Y-50153557D01*
X126683109Y-50013209D01*
X126823457Y-49803165D01*
X126872740Y-49555400D01*
X126872740Y-47777400D01*
X127127260Y-47777400D01*
X127127260Y-49555400D01*
X127176543Y-49803165D01*
X127316891Y-50013209D01*
X127526935Y-50153557D01*
X127774700Y-50202840D01*
X128765300Y-50202840D01*
X129013065Y-50153557D01*
X129223109Y-50013209D01*
X129363457Y-49803165D01*
X129412740Y-49555400D01*
X129412740Y-47777400D01*
X129667260Y-47777400D01*
X129667260Y-49555400D01*
X129716543Y-49803165D01*
X129856891Y-50013209D01*
X130066935Y-50153557D01*
X130314700Y-50202840D01*
X131305300Y-50202840D01*
X131553065Y-50153557D01*
X131763109Y-50013209D01*
X131903457Y-49803165D01*
X131952740Y-49555400D01*
X131952740Y-47777400D01*
X132207260Y-47777400D01*
X132207260Y-49555400D01*
X132256543Y-49803165D01*
X132396891Y-50013209D01*
X132606935Y-50153557D01*
X132854700Y-50202840D01*
X133845300Y-50202840D01*
X134093065Y-50153557D01*
X134303109Y-50013209D01*
X134443457Y-49803165D01*
X134492740Y-49555400D01*
X134492740Y-47777400D01*
X134747260Y-47777400D01*
X134747260Y-49555400D01*
X134796543Y-49803165D01*
X134936891Y-50013209D01*
X135146935Y-50153557D01*
X135394700Y-50202840D01*
X136385300Y-50202840D01*
X136633065Y-50153557D01*
X136843109Y-50013209D01*
X136983457Y-49803165D01*
X137032740Y-49555400D01*
X137032740Y-47777400D01*
X137287260Y-47777400D01*
X137287260Y-49555400D01*
X137336543Y-49803165D01*
X137476891Y-50013209D01*
X137686935Y-50153557D01*
X137934700Y-50202840D01*
X138925300Y-50202840D01*
X139173065Y-50153557D01*
X139383109Y-50013209D01*
X139523457Y-49803165D01*
X139572740Y-49555400D01*
X139572740Y-47777400D01*
X139827260Y-47777400D01*
X139827260Y-49555400D01*
X139876543Y-49803165D01*
X140016891Y-50013209D01*
X140226935Y-50153557D01*
X140474700Y-50202840D01*
X141465300Y-50202840D01*
X141713065Y-50153557D01*
X141923109Y-50013209D01*
X142063457Y-49803165D01*
X142112740Y-49555400D01*
X142112740Y-47777400D01*
X142367260Y-47777400D01*
X142367260Y-49555400D01*
X142416543Y-49803165D01*
X142556891Y-50013209D01*
X142766935Y-50153557D01*
X143014700Y-50202840D01*
X144005300Y-50202840D01*
X144253065Y-50153557D01*
X144463109Y-50013209D01*
X144603457Y-49803165D01*
X144652740Y-49555400D01*
X144652740Y-47777400D01*
X144603457Y-47529635D01*
X144463109Y-47319591D01*
X144253065Y-47179243D01*
X144005300Y-47129960D01*
X143014700Y-47129960D01*
X142766935Y-47179243D01*
X142556891Y-47319591D01*
X142416543Y-47529635D01*
X142367260Y-47777400D01*
X142112740Y-47777400D01*
X142063457Y-47529635D01*
X141923109Y-47319591D01*
X141713065Y-47179243D01*
X141465300Y-47129960D01*
X140474700Y-47129960D01*
X140226935Y-47179243D01*
X140016891Y-47319591D01*
X139876543Y-47529635D01*
X139827260Y-47777400D01*
X139572740Y-47777400D01*
X139523457Y-47529635D01*
X139383109Y-47319591D01*
X139173065Y-47179243D01*
X138925300Y-47129960D01*
X137934700Y-47129960D01*
X137686935Y-47179243D01*
X137476891Y-47319591D01*
X137336543Y-47529635D01*
X137287260Y-47777400D01*
X137032740Y-47777400D01*
X136983457Y-47529635D01*
X136843109Y-47319591D01*
X136633065Y-47179243D01*
X136385300Y-47129960D01*
X135394700Y-47129960D01*
X135146935Y-47179243D01*
X134936891Y-47319591D01*
X134796543Y-47529635D01*
X134747260Y-47777400D01*
X134492740Y-47777400D01*
X134443457Y-47529635D01*
X134303109Y-47319591D01*
X134093065Y-47179243D01*
X133845300Y-47129960D01*
X132854700Y-47129960D01*
X132606935Y-47179243D01*
X132396891Y-47319591D01*
X132256543Y-47529635D01*
X132207260Y-47777400D01*
X131952740Y-47777400D01*
X131903457Y-47529635D01*
X131763109Y-47319591D01*
X131553065Y-47179243D01*
X131305300Y-47129960D01*
X130314700Y-47129960D01*
X130066935Y-47179243D01*
X129856891Y-47319591D01*
X129716543Y-47529635D01*
X129667260Y-47777400D01*
X129412740Y-47777400D01*
X129363457Y-47529635D01*
X129223109Y-47319591D01*
X129013065Y-47179243D01*
X128765300Y-47129960D01*
X127774700Y-47129960D01*
X127526935Y-47179243D01*
X127316891Y-47319591D01*
X127176543Y-47529635D01*
X127127260Y-47777400D01*
X126872740Y-47777400D01*
X126823457Y-47529635D01*
X126683109Y-47319591D01*
X126473065Y-47179243D01*
X126225300Y-47129960D01*
X125234700Y-47129960D01*
X124986935Y-47179243D01*
X124776891Y-47319591D01*
X124636543Y-47529635D01*
X124587260Y-47777400D01*
X124332740Y-47777400D01*
X124283457Y-47529635D01*
X124143109Y-47319591D01*
X123933065Y-47179243D01*
X123685300Y-47129960D01*
X122694700Y-47129960D01*
X122446935Y-47179243D01*
X122236891Y-47319591D01*
X122096543Y-47529635D01*
X122047260Y-47777400D01*
X121792740Y-47777400D01*
X121743457Y-47529635D01*
X121603109Y-47319591D01*
X121393065Y-47179243D01*
X121145300Y-47129960D01*
X120154700Y-47129960D01*
X120090000Y-47142829D01*
X120090000Y-41884600D01*
X122047260Y-41884600D01*
X122047260Y-43662600D01*
X122096543Y-43910365D01*
X122236891Y-44120409D01*
X122446935Y-44260757D01*
X122694700Y-44310040D01*
X123685300Y-44310040D01*
X123933065Y-44260757D01*
X124143109Y-44120409D01*
X124283457Y-43910365D01*
X124332740Y-43662600D01*
X124332740Y-41884600D01*
X124587260Y-41884600D01*
X124587260Y-43662600D01*
X124636543Y-43910365D01*
X124776891Y-44120409D01*
X124986935Y-44260757D01*
X125234700Y-44310040D01*
X126225300Y-44310040D01*
X126473065Y-44260757D01*
X126683109Y-44120409D01*
X126823457Y-43910365D01*
X126872740Y-43662600D01*
X126872740Y-41884600D01*
X127127260Y-41884600D01*
X127127260Y-43662600D01*
X127176543Y-43910365D01*
X127316891Y-44120409D01*
X127526935Y-44260757D01*
X127774700Y-44310040D01*
X128765300Y-44310040D01*
X129013065Y-44260757D01*
X129223109Y-44120409D01*
X129363457Y-43910365D01*
X129412740Y-43662600D01*
X129412740Y-41884600D01*
X129667260Y-41884600D01*
X129667260Y-43662600D01*
X129716543Y-43910365D01*
X129856891Y-44120409D01*
X130066935Y-44260757D01*
X130314700Y-44310040D01*
X131305300Y-44310040D01*
X131553065Y-44260757D01*
X131763109Y-44120409D01*
X131903457Y-43910365D01*
X131952740Y-43662600D01*
X131952740Y-41884600D01*
X132207260Y-41884600D01*
X132207260Y-43662600D01*
X132256543Y-43910365D01*
X132396891Y-44120409D01*
X132606935Y-44260757D01*
X132854700Y-44310040D01*
X133845300Y-44310040D01*
X134093065Y-44260757D01*
X134303109Y-44120409D01*
X134443457Y-43910365D01*
X134492740Y-43662600D01*
X134492740Y-41884600D01*
X134747260Y-41884600D01*
X134747260Y-43662600D01*
X134796543Y-43910365D01*
X134936891Y-44120409D01*
X135146935Y-44260757D01*
X135394700Y-44310040D01*
X136385300Y-44310040D01*
X136633065Y-44260757D01*
X136843109Y-44120409D01*
X136983457Y-43910365D01*
X137032740Y-43662600D01*
X137032740Y-41884600D01*
X137287260Y-41884600D01*
X137287260Y-43662600D01*
X137336543Y-43910365D01*
X137476891Y-44120409D01*
X137686935Y-44260757D01*
X137934700Y-44310040D01*
X138925300Y-44310040D01*
X139173065Y-44260757D01*
X139383109Y-44120409D01*
X139523457Y-43910365D01*
X139572740Y-43662600D01*
X139572740Y-41884600D01*
X139827260Y-41884600D01*
X139827260Y-43662600D01*
X139876543Y-43910365D01*
X140016891Y-44120409D01*
X140226935Y-44260757D01*
X140474700Y-44310040D01*
X141465300Y-44310040D01*
X141713065Y-44260757D01*
X141923109Y-44120409D01*
X142063457Y-43910365D01*
X142112740Y-43662600D01*
X142112740Y-41884600D01*
X142367260Y-41884600D01*
X142367260Y-43662600D01*
X142416543Y-43910365D01*
X142556891Y-44120409D01*
X142766935Y-44260757D01*
X143014700Y-44310040D01*
X144005300Y-44310040D01*
X144253065Y-44260757D01*
X144463109Y-44120409D01*
X144603457Y-43910365D01*
X144652740Y-43662600D01*
X144652740Y-41884600D01*
X144603457Y-41636835D01*
X144463109Y-41426791D01*
X144253065Y-41286443D01*
X144005300Y-41237160D01*
X143014700Y-41237160D01*
X142766935Y-41286443D01*
X142556891Y-41426791D01*
X142416543Y-41636835D01*
X142367260Y-41884600D01*
X142112740Y-41884600D01*
X142063457Y-41636835D01*
X141923109Y-41426791D01*
X141713065Y-41286443D01*
X141465300Y-41237160D01*
X140474700Y-41237160D01*
X140226935Y-41286443D01*
X140016891Y-41426791D01*
X139876543Y-41636835D01*
X139827260Y-41884600D01*
X139572740Y-41884600D01*
X139523457Y-41636835D01*
X139383109Y-41426791D01*
X139173065Y-41286443D01*
X138925300Y-41237160D01*
X137934700Y-41237160D01*
X137686935Y-41286443D01*
X137476891Y-41426791D01*
X137336543Y-41636835D01*
X137287260Y-41884600D01*
X137032740Y-41884600D01*
X136983457Y-41636835D01*
X136843109Y-41426791D01*
X136633065Y-41286443D01*
X136385300Y-41237160D01*
X135394700Y-41237160D01*
X135146935Y-41286443D01*
X134936891Y-41426791D01*
X134796543Y-41636835D01*
X134747260Y-41884600D01*
X134492740Y-41884600D01*
X134443457Y-41636835D01*
X134303109Y-41426791D01*
X134093065Y-41286443D01*
X133845300Y-41237160D01*
X132854700Y-41237160D01*
X132606935Y-41286443D01*
X132396891Y-41426791D01*
X132256543Y-41636835D01*
X132207260Y-41884600D01*
X131952740Y-41884600D01*
X131903457Y-41636835D01*
X131763109Y-41426791D01*
X131553065Y-41286443D01*
X131305300Y-41237160D01*
X130314700Y-41237160D01*
X130066935Y-41286443D01*
X129856891Y-41426791D01*
X129716543Y-41636835D01*
X129667260Y-41884600D01*
X129412740Y-41884600D01*
X129363457Y-41636835D01*
X129223109Y-41426791D01*
X129013065Y-41286443D01*
X128765300Y-41237160D01*
X127774700Y-41237160D01*
X127526935Y-41286443D01*
X127316891Y-41426791D01*
X127176543Y-41636835D01*
X127127260Y-41884600D01*
X126872740Y-41884600D01*
X126823457Y-41636835D01*
X126683109Y-41426791D01*
X126473065Y-41286443D01*
X126225300Y-41237160D01*
X125234700Y-41237160D01*
X124986935Y-41286443D01*
X124776891Y-41426791D01*
X124636543Y-41636835D01*
X124587260Y-41884600D01*
X124332740Y-41884600D01*
X124283457Y-41636835D01*
X124143109Y-41426791D01*
X123933065Y-41286443D01*
X123685300Y-41237160D01*
X122694700Y-41237160D01*
X122446935Y-41286443D01*
X122236891Y-41426791D01*
X122096543Y-41636835D01*
X122047260Y-41884600D01*
X120090000Y-41884600D01*
X120090000Y-19100581D01*
X120150090Y-18680991D01*
X120304381Y-18341648D01*
X120547712Y-18059248D01*
X120860523Y-17856494D01*
X121241184Y-17742652D01*
X121438350Y-17728000D01*
X178257419Y-17728000D01*
X178677009Y-17788090D01*
G04 #@! TD*
M02*
