G04 #@! TF.GenerationSoftware,KiCad,Pcbnew,(5.0.0)*
G04 #@! TF.CreationDate,2018-10-11T16:37:49-05:00*
G04 #@! TF.ProjectId,StandardBoard_FullTiva,5374616E64617264426F6172645F4675,rev?*
G04 #@! TF.SameCoordinates,Original*
G04 #@! TF.FileFunction,Profile,NP*
%FSLAX46Y46*%
G04 Gerber Fmt 4.6, Leading zero omitted, Abs format (unit mm)*
G04 Created by KiCad (PCBNEW (5.0.0)) date 10/11/18 16:37:49*
%MOMM*%
%LPD*%
G01*
G04 APERTURE LIST*
%ADD10C,0.150000*%
G04 APERTURE END LIST*
D10*
X215900000Y-96266000D02*
X215900000Y-58420000D01*
X91440000Y-58420000D02*
X91440000Y-129286000D01*
X213868000Y-56388000D02*
X93472000Y-56388000D01*
X93472000Y-56388000D02*
G75*
G03X91440000Y-58420000I0J-2032000D01*
G01*
X215900000Y-58420000D02*
G75*
G03X213868000Y-56388000I-2032000J0D01*
G01*
X93472000Y-131318000D02*
G75*
G03X91440000Y-129286000I-2032000J0D01*
G01*
X91440000Y-133350000D02*
G75*
G03X93472000Y-131318000I0J2032000D01*
G01*
X91440000Y-141986000D02*
G75*
G03X93472000Y-144018000I2032000J0D01*
G01*
X213868000Y-144018000D02*
G75*
G03X215900000Y-141986000I0J2032000D01*
G01*
X213868000Y-131318000D02*
G75*
G03X215900000Y-133350000I2032000J0D01*
G01*
X215900000Y-129286000D02*
G75*
G03X213868000Y-131318000I0J-2032000D01*
G01*
X215900000Y-121158000D02*
G75*
G03X213868000Y-119126000I-2032000J0D01*
G01*
X213868000Y-98298000D02*
G75*
G03X215900000Y-96266000I0J2032000D01*
G01*
X213868000Y-98298000D02*
X198120000Y-98298000D01*
X198120000Y-119126000D02*
X198120000Y-98298000D01*
X213868000Y-119126000D02*
X198120000Y-119126000D01*
X215900000Y-129286000D02*
X215900000Y-121158000D01*
X215900000Y-141986000D02*
X215900000Y-133350000D01*
X93472000Y-144018000D02*
X213868000Y-144018000D01*
X91440000Y-133350000D02*
X91440000Y-141986000D01*
M02*
