G04 #@! TF.GenerationSoftware,KiCad,Pcbnew,(5.0.0)*
G04 #@! TF.CreationDate,2018-10-11T16:39:52-05:00*
G04 #@! TF.ProjectId,StandardBoard_HalfTiva,5374616E64617264426F6172645F4861,rev?*
G04 #@! TF.SameCoordinates,Original*
G04 #@! TF.FileFunction,Legend,Top*
G04 #@! TF.FilePolarity,Positive*
%FSLAX46Y46*%
G04 Gerber Fmt 4.6, Leading zero omitted, Abs format (unit mm)*
G04 Created by KiCad (PCBNEW (5.0.0)) date 10/11/18 16:39:52*
%MOMM*%
%LPD*%
G01*
G04 APERTURE LIST*
%ADD10C,0.150000*%
%ADD11C,0.300000*%
%ADD12C,0.148400*%
%ADD13C,0.508000*%
%ADD14C,0.010000*%
G04 APERTURE END LIST*
D10*
X157480000Y-137160000D02*
X152400000Y-142240000D01*
X200660000Y-116840000D02*
X198120000Y-119380000D01*
X208280000Y-116840000D02*
X205740000Y-119380000D01*
X215900000Y-116840000D02*
X213360000Y-119380000D01*
X210820000Y-144780000D02*
X218440000Y-137160000D01*
X203200000Y-144780000D02*
X205740000Y-142240000D01*
X205740000Y-142240000D02*
X215900000Y-132080000D01*
X200660000Y-139700000D02*
X215900000Y-124460000D01*
X200660000Y-132080000D02*
X213360000Y-119380000D01*
X193040000Y-132080000D02*
X205740000Y-119380000D01*
X185420000Y-132080000D02*
X198120000Y-119380000D01*
X177800000Y-132080000D02*
X180340000Y-129540000D01*
X180340000Y-129540000D02*
X185420000Y-124460000D01*
X172720000Y-144780000D02*
X175260000Y-142240000D01*
X165100000Y-144780000D02*
X172720000Y-137160000D01*
X167640000Y-134620000D02*
X154940000Y-147320000D01*
X162560000Y-132080000D02*
X157480000Y-137160000D01*
X154940000Y-119126000D02*
X215900000Y-119126000D01*
D11*
X165150285Y-45319142D02*
X166293142Y-45319142D01*
X167007428Y-45319142D02*
X168150285Y-45319142D01*
X168864571Y-45319142D02*
X170007428Y-45319142D01*
X170721714Y-45319142D02*
X171864571Y-45319142D01*
X172578857Y-45319142D02*
X173721714Y-45319142D01*
X174436000Y-45319142D02*
X175578857Y-45319142D01*
X176293142Y-45319142D02*
X177436000Y-45319142D01*
X178150285Y-45319142D02*
X179293142Y-45319142D01*
X180007428Y-45319142D02*
X181150285Y-45319142D01*
X181864571Y-45319142D02*
X183007428Y-45319142D01*
X184507428Y-45890571D02*
X183650285Y-45890571D01*
X184078857Y-45890571D02*
X184078857Y-44390571D01*
X183936000Y-44604857D01*
X183793142Y-44747714D01*
X183650285Y-44819142D01*
X185436000Y-44390571D02*
X185578857Y-44390571D01*
X185721714Y-44462000D01*
X185793142Y-44533428D01*
X185864571Y-44676285D01*
X185936000Y-44962000D01*
X185936000Y-45319142D01*
X185864571Y-45604857D01*
X185793142Y-45747714D01*
X185721714Y-45819142D01*
X185578857Y-45890571D01*
X185436000Y-45890571D01*
X185293142Y-45819142D01*
X185221714Y-45747714D01*
X185150285Y-45604857D01*
X185078857Y-45319142D01*
X185078857Y-44962000D01*
X185150285Y-44676285D01*
X185221714Y-44533428D01*
X185293142Y-44462000D01*
X185436000Y-44390571D01*
X187221714Y-45819142D02*
X187078857Y-45890571D01*
X186793142Y-45890571D01*
X186650285Y-45819142D01*
X186578857Y-45747714D01*
X186507428Y-45604857D01*
X186507428Y-45176285D01*
X186578857Y-45033428D01*
X186650285Y-44962000D01*
X186793142Y-44890571D01*
X187078857Y-44890571D01*
X187221714Y-44962000D01*
X187864571Y-45890571D02*
X187864571Y-44890571D01*
X187864571Y-45033428D02*
X187936000Y-44962000D01*
X188078857Y-44890571D01*
X188293142Y-44890571D01*
X188436000Y-44962000D01*
X188507428Y-45104857D01*
X188507428Y-45890571D01*
X188507428Y-45104857D02*
X188578857Y-44962000D01*
X188721714Y-44890571D01*
X188936000Y-44890571D01*
X189078857Y-44962000D01*
X189150285Y-45104857D01*
X189150285Y-45890571D01*
X189864571Y-45319142D02*
X191007428Y-45319142D01*
X191721714Y-45319142D02*
X192864571Y-45319142D01*
X193578857Y-45319142D02*
X194721714Y-45319142D01*
X195436000Y-45319142D02*
X196578857Y-45319142D01*
X197293142Y-45319142D02*
X198436000Y-45319142D01*
X199150285Y-45319142D02*
X200293142Y-45319142D01*
X201007428Y-45319142D02*
X202150285Y-45319142D01*
X202864571Y-45319142D02*
X204007428Y-45319142D01*
X204721714Y-45319142D02*
X205864571Y-45319142D01*
X206578857Y-45319142D02*
X207721714Y-45319142D01*
D10*
X180546476Y-105116380D02*
X181213142Y-106116380D01*
X181213142Y-105116380D02*
X180546476Y-106116380D01*
X181736952Y-105544952D02*
X181641714Y-105497333D01*
X181594095Y-105449714D01*
X181546476Y-105354476D01*
X181546476Y-105306857D01*
X181594095Y-105211619D01*
X181641714Y-105164000D01*
X181736952Y-105116380D01*
X181927428Y-105116380D01*
X182022666Y-105164000D01*
X182070285Y-105211619D01*
X182117904Y-105306857D01*
X182117904Y-105354476D01*
X182070285Y-105449714D01*
X182022666Y-105497333D01*
X181927428Y-105544952D01*
X181736952Y-105544952D01*
X181641714Y-105592571D01*
X181594095Y-105640190D01*
X181546476Y-105735428D01*
X181546476Y-105925904D01*
X181594095Y-106021142D01*
X181641714Y-106068761D01*
X181736952Y-106116380D01*
X181927428Y-106116380D01*
X182022666Y-106068761D01*
X182070285Y-106021142D01*
X182117904Y-105925904D01*
X182117904Y-105735428D01*
X182070285Y-105640190D01*
X182022666Y-105592571D01*
X181927428Y-105544952D01*
X180546476Y-82764380D02*
X181213142Y-83764380D01*
X181213142Y-82764380D02*
X180546476Y-83764380D01*
X181641714Y-83764380D02*
X181832190Y-83764380D01*
X181927428Y-83716761D01*
X181975047Y-83669142D01*
X182070285Y-83526285D01*
X182117904Y-83335809D01*
X182117904Y-82954857D01*
X182070285Y-82859619D01*
X182022666Y-82812000D01*
X181927428Y-82764380D01*
X181736952Y-82764380D01*
X181641714Y-82812000D01*
X181594095Y-82859619D01*
X181546476Y-82954857D01*
X181546476Y-83192952D01*
X181594095Y-83288190D01*
X181641714Y-83335809D01*
X181736952Y-83383428D01*
X181927428Y-83383428D01*
X182022666Y-83335809D01*
X182070285Y-83288190D01*
X182117904Y-83192952D01*
D12*
X165917619Y-99801668D02*
X166917619Y-99926668D01*
X166917619Y-100307621D01*
X166870000Y-100396906D01*
X166822380Y-100438573D01*
X166727142Y-100474287D01*
X166584285Y-100456430D01*
X166489047Y-100396906D01*
X166441428Y-100343335D01*
X166393809Y-100242144D01*
X166393809Y-99861192D01*
X166441428Y-100867144D02*
X166441428Y-101200478D01*
X165917619Y-101277859D02*
X165917619Y-100801668D01*
X166917619Y-100926668D01*
X166917619Y-101402859D01*
X166822380Y-101771906D02*
X166870000Y-101825478D01*
X166917619Y-101926668D01*
X166917619Y-102164763D01*
X166870000Y-102254049D01*
X166822380Y-102295716D01*
X166727142Y-102331430D01*
X166631904Y-102319525D01*
X166489047Y-102254049D01*
X165917619Y-101611192D01*
X165917619Y-102230240D01*
X173537619Y-99825478D02*
X174537619Y-99950478D01*
X174537619Y-100331430D01*
X174490000Y-100420716D01*
X174442380Y-100462382D01*
X174347142Y-100498097D01*
X174204285Y-100480240D01*
X174109047Y-100420716D01*
X174061428Y-100367144D01*
X174013809Y-100265954D01*
X174013809Y-99885002D01*
X173823333Y-100813573D02*
X173823333Y-101289763D01*
X173537619Y-100682621D02*
X174537619Y-101140954D01*
X173537619Y-101349287D01*
X174537619Y-102236192D02*
X174537619Y-102045716D01*
X174490000Y-101944525D01*
X174442380Y-101890954D01*
X174299523Y-101777859D01*
X174109047Y-101706430D01*
X173728095Y-101658811D01*
X173632857Y-101694525D01*
X173585238Y-101736192D01*
X173537619Y-101825478D01*
X173537619Y-102015954D01*
X173585238Y-102117144D01*
X173632857Y-102170716D01*
X173728095Y-102230240D01*
X173966190Y-102260002D01*
X174061428Y-102224287D01*
X174109047Y-102182621D01*
X174156666Y-102093335D01*
X174156666Y-101902859D01*
X174109047Y-101801668D01*
X174061428Y-101748097D01*
X173966190Y-101688573D01*
X165917619Y-103310049D02*
X166917619Y-103435049D01*
X166917619Y-103816002D01*
X166870000Y-103905287D01*
X166822380Y-103946954D01*
X166727142Y-103982668D01*
X166584285Y-103964811D01*
X166489047Y-103905287D01*
X166441428Y-103851716D01*
X166393809Y-103750525D01*
X166393809Y-103369573D01*
X166012857Y-104893382D02*
X165965238Y-104839811D01*
X165917619Y-104691002D01*
X165917619Y-104595763D01*
X165965238Y-104458859D01*
X166060476Y-104375525D01*
X166155714Y-104339811D01*
X166346190Y-104316002D01*
X166489047Y-104333859D01*
X166679523Y-104405287D01*
X166774761Y-104464811D01*
X166870000Y-104571954D01*
X166917619Y-104720763D01*
X166917619Y-104816002D01*
X166870000Y-104952906D01*
X166822380Y-104994573D01*
X166917619Y-105863621D02*
X166917619Y-105673144D01*
X166870000Y-105571954D01*
X166822380Y-105518382D01*
X166679523Y-105405287D01*
X166489047Y-105333859D01*
X166108095Y-105286240D01*
X166012857Y-105321954D01*
X165965238Y-105363621D01*
X165917619Y-105452906D01*
X165917619Y-105643382D01*
X165965238Y-105744573D01*
X166012857Y-105798144D01*
X166108095Y-105857668D01*
X166346190Y-105887430D01*
X166441428Y-105851716D01*
X166489047Y-105810049D01*
X166536666Y-105720763D01*
X166536666Y-105530287D01*
X166489047Y-105429097D01*
X166441428Y-105375525D01*
X166346190Y-105316002D01*
X156138571Y-99754049D02*
X156138571Y-100515954D01*
X155757619Y-100087382D02*
X156519523Y-100182621D01*
X156757619Y-101545716D02*
X156757619Y-101069525D01*
X156281428Y-100962382D01*
X156329047Y-101015954D01*
X156376666Y-101117144D01*
X156376666Y-101355240D01*
X156329047Y-101444525D01*
X156281428Y-101486192D01*
X156186190Y-101521906D01*
X155948095Y-101492144D01*
X155852857Y-101432621D01*
X155805238Y-101379049D01*
X155757619Y-101277859D01*
X155757619Y-101039763D01*
X155805238Y-100950478D01*
X155852857Y-100908811D01*
X156757619Y-101879049D02*
X155757619Y-102087382D01*
X156757619Y-102545716D01*
X160837619Y-99801668D02*
X161837619Y-99926668D01*
X161837619Y-100307621D01*
X161790000Y-100396906D01*
X161742380Y-100438573D01*
X161647142Y-100474287D01*
X161504285Y-100456430D01*
X161409047Y-100396906D01*
X161361428Y-100343335D01*
X161313809Y-100242144D01*
X161313809Y-99861192D01*
X161361428Y-100867144D02*
X161361428Y-101200478D01*
X160837619Y-101277859D02*
X160837619Y-100801668D01*
X161837619Y-100926668D01*
X161837619Y-101402859D01*
X161837619Y-102021906D02*
X161837619Y-102117144D01*
X161790000Y-102206430D01*
X161742380Y-102248097D01*
X161647142Y-102283811D01*
X161456666Y-102307621D01*
X161218571Y-102277859D01*
X161028095Y-102206430D01*
X160932857Y-102146906D01*
X160885238Y-102093335D01*
X160837619Y-101992144D01*
X160837619Y-101896906D01*
X160885238Y-101807621D01*
X160932857Y-101765954D01*
X161028095Y-101730240D01*
X161218571Y-101706430D01*
X161456666Y-101736192D01*
X161647142Y-101807621D01*
X161742380Y-101867144D01*
X161790000Y-101920716D01*
X161837619Y-102021906D01*
X170997619Y-99754049D02*
X171997619Y-99879049D01*
X171997619Y-100260002D01*
X171950000Y-100349287D01*
X171902380Y-100390954D01*
X171807142Y-100426668D01*
X171664285Y-100408811D01*
X171569047Y-100349287D01*
X171521428Y-100295716D01*
X171473809Y-100194525D01*
X171473809Y-99813573D01*
X170997619Y-100754049D02*
X171997619Y-100879049D01*
X171997619Y-101117144D01*
X171950000Y-101254049D01*
X171854761Y-101337382D01*
X171759523Y-101373097D01*
X171569047Y-101396906D01*
X171426190Y-101379049D01*
X171235714Y-101307621D01*
X171140476Y-101248097D01*
X171045238Y-101140954D01*
X170997619Y-100992144D01*
X170997619Y-100754049D01*
X171997619Y-101783811D02*
X171997619Y-102450478D01*
X170997619Y-101896906D01*
X158297619Y-103357668D02*
X159297619Y-103482668D01*
X159297619Y-103863621D01*
X159250000Y-103952906D01*
X159202380Y-103994573D01*
X159107142Y-104030287D01*
X158964285Y-104012430D01*
X158869047Y-103952906D01*
X158821428Y-103899335D01*
X158773809Y-103798144D01*
X158773809Y-103417192D01*
X158821428Y-104423144D02*
X158821428Y-104756478D01*
X158297619Y-104833859D02*
X158297619Y-104357668D01*
X159297619Y-104482668D01*
X159297619Y-104958859D01*
X158964285Y-105774335D02*
X158297619Y-105691002D01*
X159345238Y-105583859D02*
X158630952Y-105256478D01*
X158630952Y-105875525D01*
X178617619Y-99682621D02*
X179617619Y-99807621D01*
X179617619Y-100188573D01*
X179570000Y-100277859D01*
X179522380Y-100319525D01*
X179427142Y-100355240D01*
X179284285Y-100337382D01*
X179189047Y-100277859D01*
X179141428Y-100224287D01*
X179093809Y-100123097D01*
X179093809Y-99742144D01*
X178617619Y-100682621D02*
X179617619Y-100807621D01*
X178903333Y-101051668D01*
X179617619Y-101474287D01*
X178617619Y-101349287D01*
X179617619Y-102426668D02*
X179617619Y-101950478D01*
X179141428Y-101843335D01*
X179189047Y-101896906D01*
X179236666Y-101998097D01*
X179236666Y-102236192D01*
X179189047Y-102325478D01*
X179141428Y-102367144D01*
X179046190Y-102402859D01*
X178808095Y-102373097D01*
X178712857Y-102313573D01*
X178665238Y-102260002D01*
X178617619Y-102158811D01*
X178617619Y-101920716D01*
X178665238Y-101831430D01*
X178712857Y-101789763D01*
X159250000Y-100349287D02*
X159297619Y-100260002D01*
X159297619Y-100117144D01*
X159250000Y-99968335D01*
X159154761Y-99861192D01*
X159059523Y-99801668D01*
X158869047Y-99730240D01*
X158726190Y-99712382D01*
X158535714Y-99736192D01*
X158440476Y-99771906D01*
X158345238Y-99855240D01*
X158297619Y-99992144D01*
X158297619Y-100087382D01*
X158345238Y-100236192D01*
X158392857Y-100289763D01*
X158726190Y-100331430D01*
X158726190Y-100140954D01*
X158297619Y-100706430D02*
X159297619Y-100831430D01*
X158297619Y-101277859D01*
X159297619Y-101402859D01*
X158297619Y-101754049D02*
X159297619Y-101879049D01*
X159297619Y-102117144D01*
X159250000Y-102254049D01*
X159154761Y-102337382D01*
X159059523Y-102373097D01*
X158869047Y-102396906D01*
X158726190Y-102379049D01*
X158535714Y-102307621D01*
X158440476Y-102248097D01*
X158345238Y-102140954D01*
X158297619Y-101992144D01*
X158297619Y-101754049D01*
X168457619Y-103357668D02*
X169457619Y-103482668D01*
X169457619Y-103863621D01*
X169410000Y-103952906D01*
X169362380Y-103994573D01*
X169267142Y-104030287D01*
X169124285Y-104012430D01*
X169029047Y-103952906D01*
X168981428Y-103899335D01*
X168933809Y-103798144D01*
X168933809Y-103417192D01*
X168981428Y-104423144D02*
X168981428Y-104756478D01*
X168457619Y-104833859D02*
X168457619Y-104357668D01*
X169457619Y-104482668D01*
X169457619Y-104958859D01*
X169457619Y-105863621D02*
X169457619Y-105387430D01*
X168981428Y-105280287D01*
X169029047Y-105333859D01*
X169076666Y-105435049D01*
X169076666Y-105673144D01*
X169029047Y-105762430D01*
X168981428Y-105804097D01*
X168886190Y-105839811D01*
X168648095Y-105810049D01*
X168552857Y-105750525D01*
X168505238Y-105696954D01*
X168457619Y-105595763D01*
X168457619Y-105357668D01*
X168505238Y-105268382D01*
X168552857Y-105226716D01*
X163377619Y-103310049D02*
X164377619Y-103435049D01*
X164377619Y-103816002D01*
X164330000Y-103905287D01*
X164282380Y-103946954D01*
X164187142Y-103982668D01*
X164044285Y-103964811D01*
X163949047Y-103905287D01*
X163901428Y-103851716D01*
X163853809Y-103750525D01*
X163853809Y-103369573D01*
X163472857Y-104893382D02*
X163425238Y-104839811D01*
X163377619Y-104691002D01*
X163377619Y-104595763D01*
X163425238Y-104458859D01*
X163520476Y-104375525D01*
X163615714Y-104339811D01*
X163806190Y-104316002D01*
X163949047Y-104333859D01*
X164139523Y-104405287D01*
X164234761Y-104464811D01*
X164330000Y-104571954D01*
X164377619Y-104720763D01*
X164377619Y-104816002D01*
X164330000Y-104952906D01*
X164282380Y-104994573D01*
X164377619Y-105911240D02*
X164377619Y-105435049D01*
X163901428Y-105327906D01*
X163949047Y-105381478D01*
X163996666Y-105482668D01*
X163996666Y-105720763D01*
X163949047Y-105810049D01*
X163901428Y-105851716D01*
X163806190Y-105887430D01*
X163568095Y-105857668D01*
X163472857Y-105798144D01*
X163425238Y-105744573D01*
X163377619Y-105643382D01*
X163377619Y-105405287D01*
X163425238Y-105316002D01*
X163472857Y-105274335D01*
X176077619Y-99682621D02*
X177077619Y-99807621D01*
X177077619Y-100188573D01*
X177030000Y-100277859D01*
X176982380Y-100319525D01*
X176887142Y-100355240D01*
X176744285Y-100337382D01*
X176649047Y-100277859D01*
X176601428Y-100224287D01*
X176553809Y-100123097D01*
X176553809Y-99742144D01*
X176077619Y-100682621D02*
X177077619Y-100807621D01*
X176363333Y-101051668D01*
X177077619Y-101474287D01*
X176077619Y-101349287D01*
X176744285Y-102337382D02*
X176077619Y-102254049D01*
X177125238Y-102146906D02*
X176410952Y-101819525D01*
X176410952Y-102438573D01*
X170997619Y-103310049D02*
X171997619Y-103435049D01*
X171997619Y-103816002D01*
X171950000Y-103905287D01*
X171902380Y-103946954D01*
X171807142Y-103982668D01*
X171664285Y-103964811D01*
X171569047Y-103905287D01*
X171521428Y-103851716D01*
X171473809Y-103750525D01*
X171473809Y-103369573D01*
X170997619Y-104310049D02*
X171997619Y-104435049D01*
X171997619Y-104673144D01*
X171950000Y-104810049D01*
X171854761Y-104893382D01*
X171759523Y-104929097D01*
X171569047Y-104952906D01*
X171426190Y-104935049D01*
X171235714Y-104863621D01*
X171140476Y-104804097D01*
X171045238Y-104696954D01*
X170997619Y-104548144D01*
X170997619Y-104310049D01*
X171997619Y-105339811D02*
X171997619Y-105958859D01*
X171616666Y-105577906D01*
X171616666Y-105720763D01*
X171569047Y-105810049D01*
X171521428Y-105851716D01*
X171426190Y-105887430D01*
X171188095Y-105857668D01*
X171092857Y-105798144D01*
X171045238Y-105744573D01*
X170997619Y-105643382D01*
X170997619Y-105357668D01*
X171045238Y-105268382D01*
X171092857Y-105226716D01*
X168457619Y-99801668D02*
X169457619Y-99926668D01*
X169457619Y-100307621D01*
X169410000Y-100396906D01*
X169362380Y-100438573D01*
X169267142Y-100474287D01*
X169124285Y-100456430D01*
X169029047Y-100396906D01*
X168981428Y-100343335D01*
X168933809Y-100242144D01*
X168933809Y-99861192D01*
X168981428Y-100867144D02*
X168981428Y-101200478D01*
X168457619Y-101277859D02*
X168457619Y-100801668D01*
X169457619Y-100926668D01*
X169457619Y-101402859D01*
X169457619Y-101736192D02*
X169457619Y-102355240D01*
X169076666Y-101974287D01*
X169076666Y-102117144D01*
X169029047Y-102206430D01*
X168981428Y-102248097D01*
X168886190Y-102283811D01*
X168648095Y-102254049D01*
X168552857Y-102194525D01*
X168505238Y-102140954D01*
X168457619Y-102039763D01*
X168457619Y-101754049D01*
X168505238Y-101664763D01*
X168552857Y-101623097D01*
X156138571Y-103310049D02*
X156138571Y-104071954D01*
X155757619Y-103643382D02*
X156519523Y-103738621D01*
X156757619Y-104530287D02*
X156757619Y-105149335D01*
X156376666Y-104768382D01*
X156376666Y-104911240D01*
X156329047Y-105000525D01*
X156281428Y-105042192D01*
X156186190Y-105077906D01*
X155948095Y-105048144D01*
X155852857Y-104988621D01*
X155805238Y-104935049D01*
X155757619Y-104833859D01*
X155757619Y-104548144D01*
X155805238Y-104458859D01*
X155852857Y-104417192D01*
X156757619Y-105435049D02*
X155757619Y-105643382D01*
X156757619Y-106101716D01*
X160837619Y-103310049D02*
X161837619Y-103435049D01*
X161837619Y-103816002D01*
X161790000Y-103905287D01*
X161742380Y-103946954D01*
X161647142Y-103982668D01*
X161504285Y-103964811D01*
X161409047Y-103905287D01*
X161361428Y-103851716D01*
X161313809Y-103750525D01*
X161313809Y-103369573D01*
X160932857Y-104893382D02*
X160885238Y-104839811D01*
X160837619Y-104691002D01*
X160837619Y-104595763D01*
X160885238Y-104458859D01*
X160980476Y-104375525D01*
X161075714Y-104339811D01*
X161266190Y-104316002D01*
X161409047Y-104333859D01*
X161599523Y-104405287D01*
X161694761Y-104464811D01*
X161790000Y-104571954D01*
X161837619Y-104720763D01*
X161837619Y-104816002D01*
X161790000Y-104952906D01*
X161742380Y-104994573D01*
X161504285Y-105821954D02*
X160837619Y-105738621D01*
X161885238Y-105631478D02*
X161170952Y-105304097D01*
X161170952Y-105923144D01*
D10*
X166917619Y-98536095D02*
X166917619Y-98059904D01*
X166441428Y-98012285D01*
X166489047Y-98059904D01*
X166536666Y-98155142D01*
X166536666Y-98393238D01*
X166489047Y-98488476D01*
X166441428Y-98536095D01*
X166346190Y-98583714D01*
X166108095Y-98583714D01*
X166012857Y-98536095D01*
X165965238Y-98488476D01*
X165917619Y-98393238D01*
X165917619Y-98155142D01*
X165965238Y-98059904D01*
X166012857Y-98012285D01*
X161837619Y-97964666D02*
X161837619Y-98583714D01*
X161456666Y-98250380D01*
X161456666Y-98393238D01*
X161409047Y-98488476D01*
X161361428Y-98536095D01*
X161266190Y-98583714D01*
X161028095Y-98583714D01*
X160932857Y-98536095D01*
X160885238Y-98488476D01*
X160837619Y-98393238D01*
X160837619Y-98107523D01*
X160885238Y-98012285D01*
X160932857Y-97964666D01*
X178617619Y-98107523D02*
X178617619Y-97536095D01*
X178617619Y-97821809D02*
X179617619Y-97821809D01*
X179474761Y-97726571D01*
X179379523Y-97631333D01*
X179331904Y-97536095D01*
X179617619Y-98726571D02*
X179617619Y-98821809D01*
X179570000Y-98917047D01*
X179522380Y-98964666D01*
X179427142Y-99012285D01*
X179236666Y-99059904D01*
X178998571Y-99059904D01*
X178808095Y-99012285D01*
X178712857Y-98964666D01*
X178665238Y-98917047D01*
X178617619Y-98821809D01*
X178617619Y-98726571D01*
X178665238Y-98631333D01*
X178712857Y-98583714D01*
X178808095Y-98536095D01*
X178998571Y-98488476D01*
X179236666Y-98488476D01*
X179427142Y-98536095D01*
X179522380Y-98583714D01*
X179570000Y-98631333D01*
X179617619Y-98726571D01*
X155757619Y-98583714D02*
X155757619Y-98012285D01*
X155757619Y-98298000D02*
X156757619Y-98298000D01*
X156614761Y-98202761D01*
X156519523Y-98107523D01*
X156471904Y-98012285D01*
D12*
X178617619Y-103310049D02*
X179617619Y-103435049D01*
X179617619Y-103816002D01*
X179570000Y-103905287D01*
X179522380Y-103946954D01*
X179427142Y-103982668D01*
X179284285Y-103964811D01*
X179189047Y-103905287D01*
X179141428Y-103851716D01*
X179093809Y-103750525D01*
X179093809Y-103369573D01*
X179141428Y-104708859D02*
X179093809Y-104845763D01*
X179046190Y-104887430D01*
X178950952Y-104923144D01*
X178808095Y-104905287D01*
X178712857Y-104845763D01*
X178665238Y-104792192D01*
X178617619Y-104691002D01*
X178617619Y-104310049D01*
X179617619Y-104435049D01*
X179617619Y-104768382D01*
X179570000Y-104857668D01*
X179522380Y-104899335D01*
X179427142Y-104935049D01*
X179331904Y-104923144D01*
X179236666Y-104863621D01*
X179189047Y-104810049D01*
X179141428Y-104708859D01*
X179141428Y-104375525D01*
X179617619Y-105339811D02*
X179617619Y-105958859D01*
X179236666Y-105577906D01*
X179236666Y-105720763D01*
X179189047Y-105810049D01*
X179141428Y-105851716D01*
X179046190Y-105887430D01*
X178808095Y-105857668D01*
X178712857Y-105798144D01*
X178665238Y-105744573D01*
X178617619Y-105643382D01*
X178617619Y-105357668D01*
X178665238Y-105268382D01*
X178712857Y-105226716D01*
D10*
X164044285Y-98488476D02*
X163377619Y-98488476D01*
X164425238Y-98250380D02*
X163710952Y-98012285D01*
X163710952Y-98631333D01*
X176077619Y-98107523D02*
X176077619Y-98298000D01*
X176125238Y-98393238D01*
X176172857Y-98440857D01*
X176315714Y-98536095D01*
X176506190Y-98583714D01*
X176887142Y-98583714D01*
X176982380Y-98536095D01*
X177030000Y-98488476D01*
X177077619Y-98393238D01*
X177077619Y-98202761D01*
X177030000Y-98107523D01*
X176982380Y-98059904D01*
X176887142Y-98012285D01*
X176649047Y-98012285D01*
X176553809Y-98059904D01*
X176506190Y-98107523D01*
X176458571Y-98202761D01*
X176458571Y-98393238D01*
X176506190Y-98488476D01*
X176553809Y-98536095D01*
X176649047Y-98583714D01*
D12*
X163377619Y-99801668D02*
X164377619Y-99926668D01*
X164377619Y-100307621D01*
X164330000Y-100396906D01*
X164282380Y-100438573D01*
X164187142Y-100474287D01*
X164044285Y-100456430D01*
X163949047Y-100396906D01*
X163901428Y-100343335D01*
X163853809Y-100242144D01*
X163853809Y-99861192D01*
X163901428Y-100867144D02*
X163901428Y-101200478D01*
X163377619Y-101277859D02*
X163377619Y-100801668D01*
X164377619Y-100926668D01*
X164377619Y-101402859D01*
X163377619Y-102230240D02*
X163377619Y-101658811D01*
X163377619Y-101944525D02*
X164377619Y-102069525D01*
X164234761Y-101956430D01*
X164139523Y-101849287D01*
X164091904Y-101748097D01*
D10*
X171997619Y-97964666D02*
X171997619Y-98631333D01*
X170997619Y-98202761D01*
X159202380Y-98012285D02*
X159250000Y-98059904D01*
X159297619Y-98155142D01*
X159297619Y-98393238D01*
X159250000Y-98488476D01*
X159202380Y-98536095D01*
X159107142Y-98583714D01*
X159011904Y-98583714D01*
X158869047Y-98536095D01*
X158297619Y-97964666D01*
X158297619Y-98583714D01*
X174109047Y-98202761D02*
X174156666Y-98107523D01*
X174204285Y-98059904D01*
X174299523Y-98012285D01*
X174347142Y-98012285D01*
X174442380Y-98059904D01*
X174490000Y-98107523D01*
X174537619Y-98202761D01*
X174537619Y-98393238D01*
X174490000Y-98488476D01*
X174442380Y-98536095D01*
X174347142Y-98583714D01*
X174299523Y-98583714D01*
X174204285Y-98536095D01*
X174156666Y-98488476D01*
X174109047Y-98393238D01*
X174109047Y-98202761D01*
X174061428Y-98107523D01*
X174013809Y-98059904D01*
X173918571Y-98012285D01*
X173728095Y-98012285D01*
X173632857Y-98059904D01*
X173585238Y-98107523D01*
X173537619Y-98202761D01*
X173537619Y-98393238D01*
X173585238Y-98488476D01*
X173632857Y-98536095D01*
X173728095Y-98583714D01*
X173918571Y-98583714D01*
X174013809Y-98536095D01*
X174061428Y-98488476D01*
X174109047Y-98393238D01*
X169457619Y-98488476D02*
X169457619Y-98298000D01*
X169410000Y-98202761D01*
X169362380Y-98155142D01*
X169219523Y-98059904D01*
X169029047Y-98012285D01*
X168648095Y-98012285D01*
X168552857Y-98059904D01*
X168505238Y-98107523D01*
X168457619Y-98202761D01*
X168457619Y-98393238D01*
X168505238Y-98488476D01*
X168552857Y-98536095D01*
X168648095Y-98583714D01*
X168886190Y-98583714D01*
X168981428Y-98536095D01*
X169029047Y-98488476D01*
X169076666Y-98393238D01*
X169076666Y-98202761D01*
X169029047Y-98107523D01*
X168981428Y-98059904D01*
X168886190Y-98012285D01*
D12*
X176077619Y-103310049D02*
X177077619Y-103435049D01*
X177077619Y-103816002D01*
X177030000Y-103905287D01*
X176982380Y-103946954D01*
X176887142Y-103982668D01*
X176744285Y-103964811D01*
X176649047Y-103905287D01*
X176601428Y-103851716D01*
X176553809Y-103750525D01*
X176553809Y-103369573D01*
X176601428Y-104708859D02*
X176553809Y-104845763D01*
X176506190Y-104887430D01*
X176410952Y-104923144D01*
X176268095Y-104905287D01*
X176172857Y-104845763D01*
X176125238Y-104792192D01*
X176077619Y-104691002D01*
X176077619Y-104310049D01*
X177077619Y-104435049D01*
X177077619Y-104768382D01*
X177030000Y-104857668D01*
X176982380Y-104899335D01*
X176887142Y-104935049D01*
X176791904Y-104923144D01*
X176696666Y-104863621D01*
X176649047Y-104810049D01*
X176601428Y-104708859D01*
X176601428Y-104375525D01*
X176982380Y-105375525D02*
X177030000Y-105429097D01*
X177077619Y-105530287D01*
X177077619Y-105768382D01*
X177030000Y-105857668D01*
X176982380Y-105899335D01*
X176887142Y-105935049D01*
X176791904Y-105923144D01*
X176649047Y-105857668D01*
X176077619Y-105214811D01*
X176077619Y-105833859D01*
X173537619Y-103310049D02*
X174537619Y-103435049D01*
X174537619Y-103816002D01*
X174490000Y-103905287D01*
X174442380Y-103946954D01*
X174347142Y-103982668D01*
X174204285Y-103964811D01*
X174109047Y-103905287D01*
X174061428Y-103851716D01*
X174013809Y-103750525D01*
X174013809Y-103369573D01*
X173632857Y-104893382D02*
X173585238Y-104839811D01*
X173537619Y-104691002D01*
X173537619Y-104595763D01*
X173585238Y-104458859D01*
X173680476Y-104375525D01*
X173775714Y-104339811D01*
X173966190Y-104316002D01*
X174109047Y-104333859D01*
X174299523Y-104405287D01*
X174394761Y-104464811D01*
X174490000Y-104571954D01*
X174537619Y-104720763D01*
X174537619Y-104816002D01*
X174490000Y-104952906D01*
X174442380Y-104994573D01*
X174537619Y-105339811D02*
X174537619Y-106006478D01*
X173537619Y-105452906D01*
D10*
X172720000Y-99314000D02*
X172720000Y-106426000D01*
X170180000Y-99314000D02*
X170180000Y-106426000D01*
X157480000Y-99314000D02*
X157480000Y-106426000D01*
X175260000Y-99314000D02*
X175260000Y-106426000D01*
X180340000Y-99314000D02*
X180340000Y-106426000D01*
X167640000Y-99314000D02*
X167640000Y-106426000D01*
X177800000Y-99314000D02*
X177800000Y-106426000D01*
X154940000Y-102616000D02*
X154940000Y-99314000D01*
X154940000Y-106426000D02*
X154940000Y-102616000D01*
X165100000Y-99314000D02*
X165100000Y-106426000D01*
X180340000Y-99314000D02*
X154940000Y-99314000D01*
X162560000Y-99314000D02*
X162560000Y-106426000D01*
X154940000Y-102870000D02*
X180340000Y-102870000D01*
X160020000Y-99314000D02*
X160020000Y-106426000D01*
D12*
X176077619Y-110398240D02*
X177077619Y-110523240D01*
X177077619Y-110904192D01*
X177030000Y-110993478D01*
X176982380Y-111035144D01*
X176887142Y-111070859D01*
X176744285Y-111053002D01*
X176649047Y-110993478D01*
X176601428Y-110939906D01*
X176553809Y-110838716D01*
X176553809Y-110457763D01*
X176077619Y-111398240D02*
X177077619Y-111523240D01*
X176077619Y-111969668D01*
X177077619Y-112094668D01*
X177077619Y-113047049D02*
X177077619Y-112570859D01*
X176601428Y-112463716D01*
X176649047Y-112517287D01*
X176696666Y-112618478D01*
X176696666Y-112856573D01*
X176649047Y-112945859D01*
X176601428Y-112987525D01*
X176506190Y-113023240D01*
X176268095Y-112993478D01*
X176172857Y-112933954D01*
X176125238Y-112880382D01*
X176077619Y-112779192D01*
X176077619Y-112541097D01*
X176125238Y-112451811D01*
X176172857Y-112410144D01*
X178617619Y-110398240D02*
X179617619Y-110523240D01*
X179617619Y-110904192D01*
X179570000Y-110993478D01*
X179522380Y-111035144D01*
X179427142Y-111070859D01*
X179284285Y-111053002D01*
X179189047Y-110993478D01*
X179141428Y-110939906D01*
X179093809Y-110838716D01*
X179093809Y-110457763D01*
X178617619Y-111398240D02*
X179617619Y-111523240D01*
X178617619Y-111969668D01*
X179617619Y-112094668D01*
X179284285Y-112957763D02*
X178617619Y-112874430D01*
X179665238Y-112767287D02*
X178950952Y-112439906D01*
X178950952Y-113058954D01*
X173537619Y-110422049D02*
X174537619Y-110547049D01*
X174537619Y-110928002D01*
X174490000Y-111017287D01*
X174442380Y-111058954D01*
X174347142Y-111094668D01*
X174204285Y-111076811D01*
X174109047Y-111017287D01*
X174061428Y-110963716D01*
X174013809Y-110862525D01*
X174013809Y-110481573D01*
X173537619Y-111422049D02*
X174537619Y-111547049D01*
X174537619Y-111928002D01*
X174490000Y-112017287D01*
X174442380Y-112058954D01*
X174347142Y-112094668D01*
X174204285Y-112076811D01*
X174109047Y-112017287D01*
X174061428Y-111963716D01*
X174013809Y-111862525D01*
X174013809Y-111481573D01*
X174204285Y-112933954D02*
X173537619Y-112850621D01*
X174585238Y-112743478D02*
X173870952Y-112416097D01*
X173870952Y-113035144D01*
X163377619Y-106866049D02*
X164377619Y-106991049D01*
X164377619Y-107372002D01*
X164330000Y-107461287D01*
X164282380Y-107502954D01*
X164187142Y-107538668D01*
X164044285Y-107520811D01*
X163949047Y-107461287D01*
X163901428Y-107407716D01*
X163853809Y-107306525D01*
X163853809Y-106925573D01*
X163901428Y-108264859D02*
X163853809Y-108401763D01*
X163806190Y-108443430D01*
X163710952Y-108479144D01*
X163568095Y-108461287D01*
X163472857Y-108401763D01*
X163425238Y-108348192D01*
X163377619Y-108247002D01*
X163377619Y-107866049D01*
X164377619Y-107991049D01*
X164377619Y-108324382D01*
X164330000Y-108413668D01*
X164282380Y-108455335D01*
X164187142Y-108491049D01*
X164091904Y-108479144D01*
X163996666Y-108419621D01*
X163949047Y-108366049D01*
X163901428Y-108264859D01*
X163901428Y-107931525D01*
X164377619Y-109467240D02*
X164377619Y-108991049D01*
X163901428Y-108883906D01*
X163949047Y-108937478D01*
X163996666Y-109038668D01*
X163996666Y-109276763D01*
X163949047Y-109366049D01*
X163901428Y-109407716D01*
X163806190Y-109443430D01*
X163568095Y-109413668D01*
X163472857Y-109354144D01*
X163425238Y-109300573D01*
X163377619Y-109199382D01*
X163377619Y-108961287D01*
X163425238Y-108872002D01*
X163472857Y-108830335D01*
X173537619Y-106866049D02*
X174537619Y-106991049D01*
X174537619Y-107372002D01*
X174490000Y-107461287D01*
X174442380Y-107502954D01*
X174347142Y-107538668D01*
X174204285Y-107520811D01*
X174109047Y-107461287D01*
X174061428Y-107407716D01*
X174013809Y-107306525D01*
X174013809Y-106925573D01*
X173537619Y-107866049D02*
X174537619Y-107991049D01*
X173537619Y-108437478D02*
X174109047Y-108080335D01*
X174537619Y-108562478D02*
X173966190Y-107919621D01*
X174537619Y-108895811D02*
X174537619Y-109514859D01*
X174156666Y-109133906D01*
X174156666Y-109276763D01*
X174109047Y-109366049D01*
X174061428Y-109407716D01*
X173966190Y-109443430D01*
X173728095Y-109413668D01*
X173632857Y-109354144D01*
X173585238Y-109300573D01*
X173537619Y-109199382D01*
X173537619Y-108913668D01*
X173585238Y-108824382D01*
X173632857Y-108782716D01*
X165917619Y-110422049D02*
X166917619Y-110547049D01*
X166917619Y-110928002D01*
X166870000Y-111017287D01*
X166822380Y-111058954D01*
X166727142Y-111094668D01*
X166584285Y-111076811D01*
X166489047Y-111017287D01*
X166441428Y-110963716D01*
X166393809Y-110862525D01*
X166393809Y-110481573D01*
X165917619Y-111422049D02*
X166917619Y-111547049D01*
X166917619Y-111785144D01*
X166870000Y-111922049D01*
X166774761Y-112005382D01*
X166679523Y-112041097D01*
X166489047Y-112064906D01*
X166346190Y-112047049D01*
X166155714Y-111975621D01*
X166060476Y-111916097D01*
X165965238Y-111808954D01*
X165917619Y-111660144D01*
X165917619Y-111422049D01*
X166584285Y-112933954D02*
X165917619Y-112850621D01*
X166965238Y-112743478D02*
X166250952Y-112416097D01*
X166250952Y-113035144D01*
X156138571Y-106866049D02*
X156138571Y-107627954D01*
X155757619Y-107199382D02*
X156519523Y-107294621D01*
X156757619Y-108657716D02*
X156757619Y-108181525D01*
X156281428Y-108074382D01*
X156329047Y-108127954D01*
X156376666Y-108229144D01*
X156376666Y-108467240D01*
X156329047Y-108556525D01*
X156281428Y-108598192D01*
X156186190Y-108633906D01*
X155948095Y-108604144D01*
X155852857Y-108544621D01*
X155805238Y-108491049D01*
X155757619Y-108389859D01*
X155757619Y-108151763D01*
X155805238Y-108062478D01*
X155852857Y-108020811D01*
X156757619Y-108991049D02*
X155757619Y-109199382D01*
X156757619Y-109657716D01*
X160837619Y-106866049D02*
X161837619Y-106991049D01*
X161837619Y-107372002D01*
X161790000Y-107461287D01*
X161742380Y-107502954D01*
X161647142Y-107538668D01*
X161504285Y-107520811D01*
X161409047Y-107461287D01*
X161361428Y-107407716D01*
X161313809Y-107306525D01*
X161313809Y-106925573D01*
X161361428Y-108264859D02*
X161313809Y-108401763D01*
X161266190Y-108443430D01*
X161170952Y-108479144D01*
X161028095Y-108461287D01*
X160932857Y-108401763D01*
X160885238Y-108348192D01*
X160837619Y-108247002D01*
X160837619Y-107866049D01*
X161837619Y-107991049D01*
X161837619Y-108324382D01*
X161790000Y-108413668D01*
X161742380Y-108455335D01*
X161647142Y-108491049D01*
X161551904Y-108479144D01*
X161456666Y-108419621D01*
X161409047Y-108366049D01*
X161361428Y-108264859D01*
X161361428Y-107931525D01*
X161504285Y-109377954D02*
X160837619Y-109294621D01*
X161885238Y-109187478D02*
X161170952Y-108860097D01*
X161170952Y-109479144D01*
X158297619Y-110422049D02*
X159297619Y-110547049D01*
X159297619Y-110928002D01*
X159250000Y-111017287D01*
X159202380Y-111058954D01*
X159107142Y-111094668D01*
X158964285Y-111076811D01*
X158869047Y-111017287D01*
X158821428Y-110963716D01*
X158773809Y-110862525D01*
X158773809Y-110481573D01*
X158297619Y-111422049D02*
X159297619Y-111547049D01*
X159297619Y-111785144D01*
X159250000Y-111922049D01*
X159154761Y-112005382D01*
X159059523Y-112041097D01*
X158869047Y-112064906D01*
X158726190Y-112047049D01*
X158535714Y-111975621D01*
X158440476Y-111916097D01*
X158345238Y-111808954D01*
X158297619Y-111660144D01*
X158297619Y-111422049D01*
X159202380Y-112487525D02*
X159250000Y-112541097D01*
X159297619Y-112642287D01*
X159297619Y-112880382D01*
X159250000Y-112969668D01*
X159202380Y-113011335D01*
X159107142Y-113047049D01*
X159011904Y-113035144D01*
X158869047Y-112969668D01*
X158297619Y-112326811D01*
X158297619Y-112945859D01*
X168457619Y-110422049D02*
X169457619Y-110547049D01*
X169457619Y-110928002D01*
X169410000Y-111017287D01*
X169362380Y-111058954D01*
X169267142Y-111094668D01*
X169124285Y-111076811D01*
X169029047Y-111017287D01*
X168981428Y-110963716D01*
X168933809Y-110862525D01*
X168933809Y-110481573D01*
X168457619Y-111422049D02*
X169457619Y-111547049D01*
X169457619Y-111785144D01*
X169410000Y-111922049D01*
X169314761Y-112005382D01*
X169219523Y-112041097D01*
X169029047Y-112064906D01*
X168886190Y-112047049D01*
X168695714Y-111975621D01*
X168600476Y-111916097D01*
X168505238Y-111808954D01*
X168457619Y-111660144D01*
X168457619Y-111422049D01*
X169457619Y-113023240D02*
X169457619Y-112547049D01*
X168981428Y-112439906D01*
X169029047Y-112493478D01*
X169076666Y-112594668D01*
X169076666Y-112832763D01*
X169029047Y-112922049D01*
X168981428Y-112963716D01*
X168886190Y-112999430D01*
X168648095Y-112969668D01*
X168552857Y-112910144D01*
X168505238Y-112856573D01*
X168457619Y-112755382D01*
X168457619Y-112517287D01*
X168505238Y-112428002D01*
X168552857Y-112386335D01*
X170997619Y-106866049D02*
X171997619Y-106991049D01*
X171997619Y-107372002D01*
X171950000Y-107461287D01*
X171902380Y-107502954D01*
X171807142Y-107538668D01*
X171664285Y-107520811D01*
X171569047Y-107461287D01*
X171521428Y-107407716D01*
X171473809Y-107306525D01*
X171473809Y-106925573D01*
X170997619Y-107866049D02*
X171997619Y-107991049D01*
X170997619Y-108437478D02*
X171569047Y-108080335D01*
X171997619Y-108562478D02*
X171426190Y-107919621D01*
X171902380Y-108931525D02*
X171950000Y-108985097D01*
X171997619Y-109086287D01*
X171997619Y-109324382D01*
X171950000Y-109413668D01*
X171902380Y-109455335D01*
X171807142Y-109491049D01*
X171711904Y-109479144D01*
X171569047Y-109413668D01*
X170997619Y-108770811D01*
X170997619Y-109389859D01*
X163377619Y-110422049D02*
X164377619Y-110547049D01*
X164377619Y-110928002D01*
X164330000Y-111017287D01*
X164282380Y-111058954D01*
X164187142Y-111094668D01*
X164044285Y-111076811D01*
X163949047Y-111017287D01*
X163901428Y-110963716D01*
X163853809Y-110862525D01*
X163853809Y-110481573D01*
X163377619Y-111422049D02*
X164377619Y-111547049D01*
X164377619Y-111928002D01*
X164330000Y-112017287D01*
X164282380Y-112058954D01*
X164187142Y-112094668D01*
X164044285Y-112076811D01*
X163949047Y-112017287D01*
X163901428Y-111963716D01*
X163853809Y-111862525D01*
X163853809Y-111481573D01*
X163377619Y-112945859D02*
X163377619Y-112374430D01*
X163377619Y-112660144D02*
X164377619Y-112785144D01*
X164234761Y-112672049D01*
X164139523Y-112564906D01*
X164091904Y-112463716D01*
X170997619Y-110398240D02*
X171997619Y-110523240D01*
X171997619Y-110904192D01*
X171950000Y-110993478D01*
X171902380Y-111035144D01*
X171807142Y-111070859D01*
X171664285Y-111053002D01*
X171569047Y-110993478D01*
X171521428Y-110939906D01*
X171473809Y-110838716D01*
X171473809Y-110457763D01*
X170902380Y-112053002D02*
X170950000Y-111963716D01*
X171045238Y-111880382D01*
X171188095Y-111755382D01*
X171235714Y-111666097D01*
X171235714Y-111570859D01*
X170997619Y-111588716D02*
X171045238Y-111499430D01*
X171140476Y-111416097D01*
X171330952Y-111392287D01*
X171664285Y-111433954D01*
X171854761Y-111505382D01*
X171950000Y-111612525D01*
X171997619Y-111713716D01*
X171997619Y-111904192D01*
X171950000Y-111993478D01*
X171854761Y-112076811D01*
X171664285Y-112100621D01*
X171330952Y-112058954D01*
X171140476Y-111987525D01*
X171045238Y-111880382D01*
X170997619Y-111779192D01*
X170997619Y-111588716D01*
X171997619Y-112761335D02*
X171997619Y-112856573D01*
X171950000Y-112945859D01*
X171902380Y-112987525D01*
X171807142Y-113023240D01*
X171616666Y-113047049D01*
X171378571Y-113017287D01*
X171188095Y-112945859D01*
X171092857Y-112886335D01*
X171045238Y-112832763D01*
X170997619Y-112731573D01*
X170997619Y-112636335D01*
X171045238Y-112547049D01*
X171092857Y-112505382D01*
X171188095Y-112469668D01*
X171378571Y-112445859D01*
X171616666Y-112475621D01*
X171807142Y-112547049D01*
X171902380Y-112606573D01*
X171950000Y-112660144D01*
X171997619Y-112761335D01*
X159250000Y-107461287D02*
X159297619Y-107372002D01*
X159297619Y-107229144D01*
X159250000Y-107080335D01*
X159154761Y-106973192D01*
X159059523Y-106913668D01*
X158869047Y-106842240D01*
X158726190Y-106824382D01*
X158535714Y-106848192D01*
X158440476Y-106883906D01*
X158345238Y-106967240D01*
X158297619Y-107104144D01*
X158297619Y-107199382D01*
X158345238Y-107348192D01*
X158392857Y-107401763D01*
X158726190Y-107443430D01*
X158726190Y-107252954D01*
X158297619Y-107818430D02*
X159297619Y-107943430D01*
X158297619Y-108389859D01*
X159297619Y-108514859D01*
X158297619Y-108866049D02*
X159297619Y-108991049D01*
X159297619Y-109229144D01*
X159250000Y-109366049D01*
X159154761Y-109449382D01*
X159059523Y-109485097D01*
X158869047Y-109508906D01*
X158726190Y-109491049D01*
X158535714Y-109419621D01*
X158440476Y-109360097D01*
X158345238Y-109252954D01*
X158297619Y-109104144D01*
X158297619Y-108866049D01*
X165917619Y-106866049D02*
X166917619Y-106991049D01*
X166917619Y-107372002D01*
X166870000Y-107461287D01*
X166822380Y-107502954D01*
X166727142Y-107538668D01*
X166584285Y-107520811D01*
X166489047Y-107461287D01*
X166441428Y-107407716D01*
X166393809Y-107306525D01*
X166393809Y-106925573D01*
X165917619Y-107866049D02*
X166917619Y-107991049D01*
X165917619Y-108437478D02*
X166489047Y-108080335D01*
X166917619Y-108562478D02*
X166346190Y-107919621D01*
X166917619Y-109181525D02*
X166917619Y-109276763D01*
X166870000Y-109366049D01*
X166822380Y-109407716D01*
X166727142Y-109443430D01*
X166536666Y-109467240D01*
X166298571Y-109437478D01*
X166108095Y-109366049D01*
X166012857Y-109306525D01*
X165965238Y-109252954D01*
X165917619Y-109151763D01*
X165917619Y-109056525D01*
X165965238Y-108967240D01*
X166012857Y-108925573D01*
X166108095Y-108889859D01*
X166298571Y-108866049D01*
X166536666Y-108895811D01*
X166727142Y-108967240D01*
X166822380Y-109026763D01*
X166870000Y-109080335D01*
X166917619Y-109181525D01*
X168457619Y-106842240D02*
X169457619Y-106967240D01*
X169457619Y-107348192D01*
X169410000Y-107437478D01*
X169362380Y-107479144D01*
X169267142Y-107514859D01*
X169124285Y-107497002D01*
X169029047Y-107437478D01*
X168981428Y-107383906D01*
X168933809Y-107282716D01*
X168933809Y-106901763D01*
X168362380Y-108497002D02*
X168410000Y-108407716D01*
X168505238Y-108324382D01*
X168648095Y-108199382D01*
X168695714Y-108110097D01*
X168695714Y-108014859D01*
X168457619Y-108032716D02*
X168505238Y-107943430D01*
X168600476Y-107860097D01*
X168790952Y-107836287D01*
X169124285Y-107877954D01*
X169314761Y-107949382D01*
X169410000Y-108056525D01*
X169457619Y-108157716D01*
X169457619Y-108348192D01*
X169410000Y-108437478D01*
X169314761Y-108520811D01*
X169124285Y-108544621D01*
X168790952Y-108502954D01*
X168600476Y-108431525D01*
X168505238Y-108324382D01*
X168457619Y-108223192D01*
X168457619Y-108032716D01*
X169362380Y-108955335D02*
X169410000Y-109008906D01*
X169457619Y-109110097D01*
X169457619Y-109348192D01*
X169410000Y-109437478D01*
X169362380Y-109479144D01*
X169267142Y-109514859D01*
X169171904Y-109502954D01*
X169029047Y-109437478D01*
X168457619Y-108794621D01*
X168457619Y-109413668D01*
X156138571Y-110422049D02*
X156138571Y-111183954D01*
X155757619Y-110755382D02*
X156519523Y-110850621D01*
X156757619Y-111642287D02*
X156757619Y-112261335D01*
X156376666Y-111880382D01*
X156376666Y-112023240D01*
X156329047Y-112112525D01*
X156281428Y-112154192D01*
X156186190Y-112189906D01*
X155948095Y-112160144D01*
X155852857Y-112100621D01*
X155805238Y-112047049D01*
X155757619Y-111945859D01*
X155757619Y-111660144D01*
X155805238Y-111570859D01*
X155852857Y-111529192D01*
X156757619Y-112547049D02*
X155757619Y-112755382D01*
X156757619Y-113213716D01*
X160837619Y-110422049D02*
X161837619Y-110547049D01*
X161837619Y-110928002D01*
X161790000Y-111017287D01*
X161742380Y-111058954D01*
X161647142Y-111094668D01*
X161504285Y-111076811D01*
X161409047Y-111017287D01*
X161361428Y-110963716D01*
X161313809Y-110862525D01*
X161313809Y-110481573D01*
X160837619Y-111422049D02*
X161837619Y-111547049D01*
X161837619Y-111928002D01*
X161790000Y-112017287D01*
X161742380Y-112058954D01*
X161647142Y-112094668D01*
X161504285Y-112076811D01*
X161409047Y-112017287D01*
X161361428Y-111963716D01*
X161313809Y-111862525D01*
X161313809Y-111481573D01*
X161837619Y-112737525D02*
X161837619Y-112832763D01*
X161790000Y-112922049D01*
X161742380Y-112963716D01*
X161647142Y-112999430D01*
X161456666Y-113023240D01*
X161218571Y-112993478D01*
X161028095Y-112922049D01*
X160932857Y-112862525D01*
X160885238Y-112808954D01*
X160837619Y-112707763D01*
X160837619Y-112612525D01*
X160885238Y-112523240D01*
X160932857Y-112481573D01*
X161028095Y-112445859D01*
X161218571Y-112422049D01*
X161456666Y-112451811D01*
X161647142Y-112523240D01*
X161742380Y-112582763D01*
X161790000Y-112636335D01*
X161837619Y-112737525D01*
X176077619Y-106937478D02*
X177077619Y-107062478D01*
X177077619Y-107443430D01*
X177030000Y-107532716D01*
X176982380Y-107574382D01*
X176887142Y-107610097D01*
X176744285Y-107592240D01*
X176649047Y-107532716D01*
X176601428Y-107479144D01*
X176553809Y-107377954D01*
X176553809Y-106997002D01*
X176363333Y-107925573D02*
X176363333Y-108401763D01*
X176077619Y-107794621D02*
X177077619Y-108252954D01*
X176077619Y-108461287D01*
X176744285Y-109306525D02*
X176077619Y-109223192D01*
X177125238Y-109116049D02*
X176410952Y-108788668D01*
X176410952Y-109407716D01*
X178617619Y-106937478D02*
X179617619Y-107062478D01*
X179617619Y-107443430D01*
X179570000Y-107532716D01*
X179522380Y-107574382D01*
X179427142Y-107610097D01*
X179284285Y-107592240D01*
X179189047Y-107532716D01*
X179141428Y-107479144D01*
X179093809Y-107377954D01*
X179093809Y-106997002D01*
X178903333Y-107925573D02*
X178903333Y-108401763D01*
X178617619Y-107794621D02*
X179617619Y-108252954D01*
X178617619Y-108461287D01*
X179617619Y-109395811D02*
X179617619Y-108919621D01*
X179141428Y-108812478D01*
X179189047Y-108866049D01*
X179236666Y-108967240D01*
X179236666Y-109205335D01*
X179189047Y-109294621D01*
X179141428Y-109336287D01*
X179046190Y-109372002D01*
X178808095Y-109342240D01*
X178712857Y-109282716D01*
X178665238Y-109229144D01*
X178617619Y-109127954D01*
X178617619Y-108889859D01*
X178665238Y-108800573D01*
X178712857Y-108758906D01*
D10*
X165100000Y-106426000D02*
X165100000Y-113538000D01*
X162560000Y-106426000D02*
X162560000Y-113538000D01*
X175260000Y-106426000D02*
X175260000Y-113538000D01*
X160020000Y-106426000D02*
X160020000Y-113538000D01*
X180340000Y-106426000D02*
X180340000Y-113538000D01*
X177800000Y-106426000D02*
X177800000Y-113538000D01*
X167640000Y-106426000D02*
X167640000Y-113538000D01*
X172720000Y-106426000D02*
X172720000Y-113538000D01*
X170180000Y-106426000D02*
X170180000Y-113538000D01*
X157480000Y-106426000D02*
X157480000Y-113538000D01*
X154940000Y-109982000D02*
X180340000Y-109982000D01*
X154940000Y-109728000D02*
X154940000Y-106426000D01*
X154940000Y-113538000D02*
X154940000Y-109728000D01*
X180340000Y-106426000D02*
X154940000Y-106426000D01*
X176077619Y-90487523D02*
X176077619Y-90678000D01*
X176125238Y-90773238D01*
X176172857Y-90820857D01*
X176315714Y-90916095D01*
X176506190Y-90963714D01*
X176887142Y-90963714D01*
X176982380Y-90916095D01*
X177030000Y-90868476D01*
X177077619Y-90773238D01*
X177077619Y-90582761D01*
X177030000Y-90487523D01*
X176982380Y-90439904D01*
X176887142Y-90392285D01*
X176649047Y-90392285D01*
X176553809Y-90439904D01*
X176506190Y-90487523D01*
X176458571Y-90582761D01*
X176458571Y-90773238D01*
X176506190Y-90868476D01*
X176553809Y-90916095D01*
X176649047Y-90963714D01*
X171997619Y-90344666D02*
X171997619Y-91011333D01*
X170997619Y-90582761D01*
X159202380Y-90392285D02*
X159250000Y-90439904D01*
X159297619Y-90535142D01*
X159297619Y-90773238D01*
X159250000Y-90868476D01*
X159202380Y-90916095D01*
X159107142Y-90963714D01*
X159011904Y-90963714D01*
X158869047Y-90916095D01*
X158297619Y-90344666D01*
X158297619Y-90963714D01*
X174109047Y-90582761D02*
X174156666Y-90487523D01*
X174204285Y-90439904D01*
X174299523Y-90392285D01*
X174347142Y-90392285D01*
X174442380Y-90439904D01*
X174490000Y-90487523D01*
X174537619Y-90582761D01*
X174537619Y-90773238D01*
X174490000Y-90868476D01*
X174442380Y-90916095D01*
X174347142Y-90963714D01*
X174299523Y-90963714D01*
X174204285Y-90916095D01*
X174156666Y-90868476D01*
X174109047Y-90773238D01*
X174109047Y-90582761D01*
X174061428Y-90487523D01*
X174013809Y-90439904D01*
X173918571Y-90392285D01*
X173728095Y-90392285D01*
X173632857Y-90439904D01*
X173585238Y-90487523D01*
X173537619Y-90582761D01*
X173537619Y-90773238D01*
X173585238Y-90868476D01*
X173632857Y-90916095D01*
X173728095Y-90963714D01*
X173918571Y-90963714D01*
X174013809Y-90916095D01*
X174061428Y-90868476D01*
X174109047Y-90773238D01*
X169457619Y-90868476D02*
X169457619Y-90678000D01*
X169410000Y-90582761D01*
X169362380Y-90535142D01*
X169219523Y-90439904D01*
X169029047Y-90392285D01*
X168648095Y-90392285D01*
X168552857Y-90439904D01*
X168505238Y-90487523D01*
X168457619Y-90582761D01*
X168457619Y-90773238D01*
X168505238Y-90868476D01*
X168552857Y-90916095D01*
X168648095Y-90963714D01*
X168886190Y-90963714D01*
X168981428Y-90916095D01*
X169029047Y-90868476D01*
X169076666Y-90773238D01*
X169076666Y-90582761D01*
X169029047Y-90487523D01*
X168981428Y-90439904D01*
X168886190Y-90392285D01*
X164044285Y-90868476D02*
X163377619Y-90868476D01*
X164425238Y-90630380D02*
X163710952Y-90392285D01*
X163710952Y-91011333D01*
X166917619Y-90916095D02*
X166917619Y-90439904D01*
X166441428Y-90392285D01*
X166489047Y-90439904D01*
X166536666Y-90535142D01*
X166536666Y-90773238D01*
X166489047Y-90868476D01*
X166441428Y-90916095D01*
X166346190Y-90963714D01*
X166108095Y-90963714D01*
X166012857Y-90916095D01*
X165965238Y-90868476D01*
X165917619Y-90773238D01*
X165917619Y-90535142D01*
X165965238Y-90439904D01*
X166012857Y-90392285D01*
X161837619Y-90344666D02*
X161837619Y-90963714D01*
X161456666Y-90630380D01*
X161456666Y-90773238D01*
X161409047Y-90868476D01*
X161361428Y-90916095D01*
X161266190Y-90963714D01*
X161028095Y-90963714D01*
X160932857Y-90916095D01*
X160885238Y-90868476D01*
X160837619Y-90773238D01*
X160837619Y-90487523D01*
X160885238Y-90392285D01*
X160932857Y-90344666D01*
X178617619Y-90487523D02*
X178617619Y-89916095D01*
X178617619Y-90201809D02*
X179617619Y-90201809D01*
X179474761Y-90106571D01*
X179379523Y-90011333D01*
X179331904Y-89916095D01*
X179617619Y-91106571D02*
X179617619Y-91201809D01*
X179570000Y-91297047D01*
X179522380Y-91344666D01*
X179427142Y-91392285D01*
X179236666Y-91439904D01*
X178998571Y-91439904D01*
X178808095Y-91392285D01*
X178712857Y-91344666D01*
X178665238Y-91297047D01*
X178617619Y-91201809D01*
X178617619Y-91106571D01*
X178665238Y-91011333D01*
X178712857Y-90963714D01*
X178808095Y-90916095D01*
X178998571Y-90868476D01*
X179236666Y-90868476D01*
X179427142Y-90916095D01*
X179522380Y-90963714D01*
X179570000Y-91011333D01*
X179617619Y-91106571D01*
D12*
X176077619Y-86641287D02*
X177077619Y-86766287D01*
X177077619Y-87147240D01*
X177030000Y-87236525D01*
X176982380Y-87278192D01*
X176887142Y-87313906D01*
X176744285Y-87296049D01*
X176649047Y-87236525D01*
X176601428Y-87182954D01*
X176553809Y-87081763D01*
X176553809Y-86700811D01*
X176077619Y-88117478D02*
X176077619Y-87641287D01*
X177077619Y-87766287D01*
X176982380Y-88516287D02*
X177030000Y-88569859D01*
X177077619Y-88671049D01*
X177077619Y-88909144D01*
X177030000Y-88998430D01*
X176982380Y-89040097D01*
X176887142Y-89075811D01*
X176791904Y-89063906D01*
X176649047Y-88998430D01*
X176077619Y-88355573D01*
X176077619Y-88974621D01*
X178617619Y-86641287D02*
X179617619Y-86766287D01*
X179617619Y-87147240D01*
X179570000Y-87236525D01*
X179522380Y-87278192D01*
X179427142Y-87313906D01*
X179284285Y-87296049D01*
X179189047Y-87236525D01*
X179141428Y-87182954D01*
X179093809Y-87081763D01*
X179093809Y-86700811D01*
X178617619Y-88117478D02*
X178617619Y-87641287D01*
X179617619Y-87766287D01*
X179617619Y-88480573D02*
X179617619Y-89099621D01*
X179236666Y-88718668D01*
X179236666Y-88861525D01*
X179189047Y-88950811D01*
X179141428Y-88992478D01*
X179046190Y-89028192D01*
X178808095Y-88998430D01*
X178712857Y-88938906D01*
X178665238Y-88885335D01*
X178617619Y-88784144D01*
X178617619Y-88498430D01*
X178665238Y-88409144D01*
X178712857Y-88367478D01*
X173537619Y-86641287D02*
X174537619Y-86766287D01*
X174537619Y-87147240D01*
X174490000Y-87236525D01*
X174442380Y-87278192D01*
X174347142Y-87313906D01*
X174204285Y-87296049D01*
X174109047Y-87236525D01*
X174061428Y-87182954D01*
X174013809Y-87081763D01*
X174013809Y-86700811D01*
X173537619Y-88117478D02*
X173537619Y-87641287D01*
X174537619Y-87766287D01*
X173537619Y-88974621D02*
X173537619Y-88403192D01*
X173537619Y-88688906D02*
X174537619Y-88813906D01*
X174394761Y-88700811D01*
X174299523Y-88593668D01*
X174251904Y-88492478D01*
X163377619Y-82966240D02*
X164377619Y-83091240D01*
X164377619Y-83472192D01*
X164330000Y-83561478D01*
X164282380Y-83603144D01*
X164187142Y-83638859D01*
X164044285Y-83621002D01*
X163949047Y-83561478D01*
X163901428Y-83507906D01*
X163853809Y-83406716D01*
X163853809Y-83025763D01*
X163377619Y-83966240D02*
X164377619Y-84091240D01*
X163901428Y-84031716D02*
X163901428Y-84603144D01*
X163377619Y-84537668D02*
X164377619Y-84662668D01*
X164377619Y-85043621D02*
X164377619Y-85662668D01*
X163996666Y-85281716D01*
X163996666Y-85424573D01*
X163949047Y-85513859D01*
X163901428Y-85555525D01*
X163806190Y-85591240D01*
X163568095Y-85561478D01*
X163472857Y-85501954D01*
X163425238Y-85448382D01*
X163377619Y-85347192D01*
X163377619Y-85061478D01*
X163425238Y-84972192D01*
X163472857Y-84930525D01*
X173537619Y-82966240D02*
X174537619Y-83091240D01*
X174537619Y-83472192D01*
X174490000Y-83561478D01*
X174442380Y-83603144D01*
X174347142Y-83638859D01*
X174204285Y-83621002D01*
X174109047Y-83561478D01*
X174061428Y-83507906D01*
X174013809Y-83406716D01*
X174013809Y-83025763D01*
X173537619Y-83966240D02*
X174537619Y-84091240D01*
X173537619Y-84537668D01*
X174537619Y-84662668D01*
X174442380Y-85079335D02*
X174490000Y-85132906D01*
X174537619Y-85234097D01*
X174537619Y-85472192D01*
X174490000Y-85561478D01*
X174442380Y-85603144D01*
X174347142Y-85638859D01*
X174251904Y-85626954D01*
X174109047Y-85561478D01*
X173537619Y-84918621D01*
X173537619Y-85537668D01*
X165917619Y-86641287D02*
X166917619Y-86766287D01*
X166917619Y-87147240D01*
X166870000Y-87236525D01*
X166822380Y-87278192D01*
X166727142Y-87313906D01*
X166584285Y-87296049D01*
X166489047Y-87236525D01*
X166441428Y-87182954D01*
X166393809Y-87081763D01*
X166393809Y-86700811D01*
X165917619Y-88117478D02*
X165917619Y-87641287D01*
X166917619Y-87766287D01*
X166584285Y-88962716D02*
X165917619Y-88879382D01*
X166965238Y-88772240D02*
X166250952Y-88444859D01*
X166250952Y-89063906D01*
X156710000Y-83585287D02*
X156757619Y-83496002D01*
X156757619Y-83353144D01*
X156710000Y-83204335D01*
X156614761Y-83097192D01*
X156519523Y-83037668D01*
X156329047Y-82966240D01*
X156186190Y-82948382D01*
X155995714Y-82972192D01*
X155900476Y-83007906D01*
X155805238Y-83091240D01*
X155757619Y-83228144D01*
X155757619Y-83323382D01*
X155805238Y-83472192D01*
X155852857Y-83525763D01*
X156186190Y-83567430D01*
X156186190Y-83376954D01*
X155757619Y-83942430D02*
X156757619Y-84067430D01*
X155757619Y-84513859D01*
X156757619Y-84638859D01*
X155757619Y-84990049D02*
X156757619Y-85115049D01*
X156757619Y-85353144D01*
X156710000Y-85490049D01*
X156614761Y-85573382D01*
X156519523Y-85609097D01*
X156329047Y-85632906D01*
X156186190Y-85615049D01*
X155995714Y-85543621D01*
X155900476Y-85484097D01*
X155805238Y-85376954D01*
X155757619Y-85228144D01*
X155757619Y-84990049D01*
X160837619Y-82966240D02*
X161837619Y-83091240D01*
X161837619Y-83472192D01*
X161790000Y-83561478D01*
X161742380Y-83603144D01*
X161647142Y-83638859D01*
X161504285Y-83621002D01*
X161409047Y-83561478D01*
X161361428Y-83507906D01*
X161313809Y-83406716D01*
X161313809Y-83025763D01*
X160837619Y-83966240D02*
X161837619Y-84091240D01*
X161361428Y-84031716D02*
X161361428Y-84603144D01*
X160837619Y-84537668D02*
X161837619Y-84662668D01*
X161742380Y-85079335D02*
X161790000Y-85132906D01*
X161837619Y-85234097D01*
X161837619Y-85472192D01*
X161790000Y-85561478D01*
X161742380Y-85603144D01*
X161647142Y-85638859D01*
X161551904Y-85626954D01*
X161409047Y-85561478D01*
X160837619Y-84918621D01*
X160837619Y-85537668D01*
X158297619Y-86617478D02*
X159297619Y-86742478D01*
X159297619Y-87123430D01*
X159250000Y-87212716D01*
X159202380Y-87254382D01*
X159107142Y-87290097D01*
X158964285Y-87272240D01*
X158869047Y-87212716D01*
X158821428Y-87159144D01*
X158773809Y-87057954D01*
X158773809Y-86677002D01*
X158821428Y-88016287D02*
X158821428Y-87682954D01*
X158297619Y-87617478D02*
X159297619Y-87742478D01*
X159297619Y-88218668D01*
X159202380Y-88540097D02*
X159250000Y-88593668D01*
X159297619Y-88694859D01*
X159297619Y-88932954D01*
X159250000Y-89022240D01*
X159202380Y-89063906D01*
X159107142Y-89099621D01*
X159011904Y-89087716D01*
X158869047Y-89022240D01*
X158297619Y-88379382D01*
X158297619Y-88998430D01*
X168457619Y-86641287D02*
X169457619Y-86766287D01*
X169457619Y-87147240D01*
X169410000Y-87236525D01*
X169362380Y-87278192D01*
X169267142Y-87313906D01*
X169124285Y-87296049D01*
X169029047Y-87236525D01*
X168981428Y-87182954D01*
X168933809Y-87081763D01*
X168933809Y-86700811D01*
X168457619Y-88117478D02*
X168457619Y-87641287D01*
X169457619Y-87766287D01*
X169457619Y-89052002D02*
X169457619Y-88575811D01*
X168981428Y-88468668D01*
X169029047Y-88522240D01*
X169076666Y-88623430D01*
X169076666Y-88861525D01*
X169029047Y-88950811D01*
X168981428Y-88992478D01*
X168886190Y-89028192D01*
X168648095Y-88998430D01*
X168552857Y-88938906D01*
X168505238Y-88885335D01*
X168457619Y-88784144D01*
X168457619Y-88546049D01*
X168505238Y-88456763D01*
X168552857Y-88415097D01*
X170997619Y-82990049D02*
X171997619Y-83115049D01*
X171997619Y-83496002D01*
X171950000Y-83585287D01*
X171902380Y-83626954D01*
X171807142Y-83662668D01*
X171664285Y-83644811D01*
X171569047Y-83585287D01*
X171521428Y-83531716D01*
X171473809Y-83430525D01*
X171473809Y-83049573D01*
X170997619Y-83990049D02*
X171997619Y-84115049D01*
X171997619Y-84353144D01*
X171950000Y-84490049D01*
X171854761Y-84573382D01*
X171759523Y-84609097D01*
X171569047Y-84632906D01*
X171426190Y-84615049D01*
X171235714Y-84543621D01*
X171140476Y-84484097D01*
X171045238Y-84376954D01*
X170997619Y-84228144D01*
X170997619Y-83990049D01*
X171997619Y-85305525D02*
X171997619Y-85400763D01*
X171950000Y-85490049D01*
X171902380Y-85531716D01*
X171807142Y-85567430D01*
X171616666Y-85591240D01*
X171378571Y-85561478D01*
X171188095Y-85490049D01*
X171092857Y-85430525D01*
X171045238Y-85376954D01*
X170997619Y-85275763D01*
X170997619Y-85180525D01*
X171045238Y-85091240D01*
X171092857Y-85049573D01*
X171188095Y-85013859D01*
X171378571Y-84990049D01*
X171616666Y-85019811D01*
X171807142Y-85091240D01*
X171902380Y-85150763D01*
X171950000Y-85204335D01*
X171997619Y-85305525D01*
X163377619Y-86546049D02*
X164377619Y-86671049D01*
X164377619Y-87052002D01*
X164330000Y-87141287D01*
X164282380Y-87182954D01*
X164187142Y-87218668D01*
X164044285Y-87200811D01*
X163949047Y-87141287D01*
X163901428Y-87087716D01*
X163853809Y-86986525D01*
X163853809Y-86605573D01*
X164330000Y-88188906D02*
X164377619Y-88099621D01*
X164377619Y-87956763D01*
X164330000Y-87807954D01*
X164234761Y-87700811D01*
X164139523Y-87641287D01*
X163949047Y-87569859D01*
X163806190Y-87552002D01*
X163615714Y-87575811D01*
X163520476Y-87611525D01*
X163425238Y-87694859D01*
X163377619Y-87831763D01*
X163377619Y-87927002D01*
X163425238Y-88075811D01*
X163472857Y-88129382D01*
X163806190Y-88171049D01*
X163806190Y-87980573D01*
X164377619Y-88861525D02*
X164377619Y-88956763D01*
X164330000Y-89046049D01*
X164282380Y-89087716D01*
X164187142Y-89123430D01*
X163996666Y-89147240D01*
X163758571Y-89117478D01*
X163568095Y-89046049D01*
X163472857Y-88986525D01*
X163425238Y-88932954D01*
X163377619Y-88831763D01*
X163377619Y-88736525D01*
X163425238Y-88647240D01*
X163472857Y-88605573D01*
X163568095Y-88569859D01*
X163758571Y-88546049D01*
X163996666Y-88575811D01*
X164187142Y-88647240D01*
X164282380Y-88706763D01*
X164330000Y-88760335D01*
X164377619Y-88861525D01*
X170997619Y-86641287D02*
X171997619Y-86766287D01*
X171997619Y-87147240D01*
X171950000Y-87236525D01*
X171902380Y-87278192D01*
X171807142Y-87313906D01*
X171664285Y-87296049D01*
X171569047Y-87236525D01*
X171521428Y-87182954D01*
X171473809Y-87081763D01*
X171473809Y-86700811D01*
X170997619Y-88117478D02*
X170997619Y-87641287D01*
X171997619Y-87766287D01*
X171997619Y-88766287D02*
X171997619Y-88861525D01*
X171950000Y-88950811D01*
X171902380Y-88992478D01*
X171807142Y-89028192D01*
X171616666Y-89052002D01*
X171378571Y-89022240D01*
X171188095Y-88950811D01*
X171092857Y-88891287D01*
X171045238Y-88837716D01*
X170997619Y-88736525D01*
X170997619Y-88641287D01*
X171045238Y-88552002D01*
X171092857Y-88510335D01*
X171188095Y-88474621D01*
X171378571Y-88450811D01*
X171616666Y-88480573D01*
X171807142Y-88552002D01*
X171902380Y-88611525D01*
X171950000Y-88665097D01*
X171997619Y-88766287D01*
X158297619Y-82918621D02*
X159297619Y-83043621D01*
X159297619Y-83424573D01*
X159250000Y-83513859D01*
X159202380Y-83555525D01*
X159107142Y-83591240D01*
X158964285Y-83573382D01*
X158869047Y-83513859D01*
X158821428Y-83460287D01*
X158773809Y-83359097D01*
X158773809Y-82978144D01*
X158297619Y-83918621D02*
X159297619Y-84043621D01*
X158583333Y-84287668D01*
X159297619Y-84710287D01*
X158297619Y-84585287D01*
X159297619Y-85091240D02*
X159297619Y-85710287D01*
X158916666Y-85329335D01*
X158916666Y-85472192D01*
X158869047Y-85561478D01*
X158821428Y-85603144D01*
X158726190Y-85638859D01*
X158488095Y-85609097D01*
X158392857Y-85549573D01*
X158345238Y-85496002D01*
X158297619Y-85394811D01*
X158297619Y-85109097D01*
X158345238Y-85019811D01*
X158392857Y-84978144D01*
X165917619Y-83680525D02*
X166393809Y-83406716D01*
X165917619Y-83109097D02*
X166917619Y-83234097D01*
X166917619Y-83615049D01*
X166870000Y-83704335D01*
X166822380Y-83746002D01*
X166727142Y-83781716D01*
X166584285Y-83763859D01*
X166489047Y-83704335D01*
X166441428Y-83650763D01*
X166393809Y-83549573D01*
X166393809Y-83168621D01*
X165965238Y-84067430D02*
X165917619Y-84204335D01*
X165917619Y-84442430D01*
X165965238Y-84543621D01*
X166012857Y-84597192D01*
X166108095Y-84656716D01*
X166203333Y-84668621D01*
X166298571Y-84632906D01*
X166346190Y-84591240D01*
X166393809Y-84501954D01*
X166441428Y-84317430D01*
X166489047Y-84228144D01*
X166536666Y-84186478D01*
X166631904Y-84150763D01*
X166727142Y-84162668D01*
X166822380Y-84222192D01*
X166870000Y-84275763D01*
X166917619Y-84376954D01*
X166917619Y-84615049D01*
X166870000Y-84751954D01*
X166917619Y-85043621D02*
X166917619Y-85615049D01*
X165917619Y-85204335D02*
X166917619Y-85329335D01*
X168457619Y-82990049D02*
X169457619Y-83115049D01*
X169457619Y-83496002D01*
X169410000Y-83585287D01*
X169362380Y-83626954D01*
X169267142Y-83662668D01*
X169124285Y-83644811D01*
X169029047Y-83585287D01*
X168981428Y-83531716D01*
X168933809Y-83430525D01*
X168933809Y-83049573D01*
X168457619Y-83990049D02*
X169457619Y-84115049D01*
X169457619Y-84353144D01*
X169410000Y-84490049D01*
X169314761Y-84573382D01*
X169219523Y-84609097D01*
X169029047Y-84632906D01*
X168886190Y-84615049D01*
X168695714Y-84543621D01*
X168600476Y-84484097D01*
X168505238Y-84376954D01*
X168457619Y-84228144D01*
X168457619Y-83990049D01*
X168457619Y-85513859D02*
X168457619Y-84942430D01*
X168457619Y-85228144D02*
X169457619Y-85353144D01*
X169314761Y-85240049D01*
X169219523Y-85132906D01*
X169171904Y-85031716D01*
D10*
X155757619Y-90963714D02*
X155757619Y-90392285D01*
X155757619Y-90678000D02*
X156757619Y-90678000D01*
X156614761Y-90582761D01*
X156519523Y-90487523D01*
X156471904Y-90392285D01*
D12*
X155757619Y-86617478D02*
X156757619Y-86742478D01*
X156757619Y-87123430D01*
X156710000Y-87212716D01*
X156662380Y-87254382D01*
X156567142Y-87290097D01*
X156424285Y-87272240D01*
X156329047Y-87212716D01*
X156281428Y-87159144D01*
X156233809Y-87057954D01*
X156233809Y-86677002D01*
X156281428Y-88016287D02*
X156281428Y-87682954D01*
X155757619Y-87617478D02*
X156757619Y-87742478D01*
X156757619Y-88218668D01*
X155757619Y-88998430D02*
X155757619Y-88427002D01*
X155757619Y-88712716D02*
X156757619Y-88837716D01*
X156614761Y-88724621D01*
X156519523Y-88617478D01*
X156471904Y-88516287D01*
X160837619Y-86617478D02*
X161837619Y-86742478D01*
X161837619Y-87123430D01*
X161790000Y-87212716D01*
X161742380Y-87254382D01*
X161647142Y-87290097D01*
X161504285Y-87272240D01*
X161409047Y-87212716D01*
X161361428Y-87159144D01*
X161313809Y-87057954D01*
X161313809Y-86677002D01*
X161361428Y-88016287D02*
X161361428Y-87682954D01*
X160837619Y-87617478D02*
X161837619Y-87742478D01*
X161837619Y-88218668D01*
X161837619Y-88504382D02*
X161837619Y-89123430D01*
X161456666Y-88742478D01*
X161456666Y-88885335D01*
X161409047Y-88974621D01*
X161361428Y-89016287D01*
X161266190Y-89052002D01*
X161028095Y-89022240D01*
X160932857Y-88962716D01*
X160885238Y-88909144D01*
X160837619Y-88807954D01*
X160837619Y-88522240D01*
X160885238Y-88432954D01*
X160932857Y-88391287D01*
X176077619Y-82966240D02*
X177077619Y-83091240D01*
X177077619Y-83472192D01*
X177030000Y-83561478D01*
X176982380Y-83603144D01*
X176887142Y-83638859D01*
X176744285Y-83621002D01*
X176649047Y-83561478D01*
X176601428Y-83507906D01*
X176553809Y-83406716D01*
X176553809Y-83025763D01*
X176077619Y-83966240D02*
X177077619Y-84091240D01*
X176077619Y-84537668D01*
X177077619Y-84662668D01*
X177077619Y-85043621D02*
X177077619Y-85662668D01*
X176696666Y-85281716D01*
X176696666Y-85424573D01*
X176649047Y-85513859D01*
X176601428Y-85555525D01*
X176506190Y-85591240D01*
X176268095Y-85561478D01*
X176172857Y-85501954D01*
X176125238Y-85448382D01*
X176077619Y-85347192D01*
X176077619Y-85061478D01*
X176125238Y-84972192D01*
X176172857Y-84930525D01*
X178617619Y-82990049D02*
X179617619Y-83115049D01*
X179617619Y-83496002D01*
X179570000Y-83585287D01*
X179522380Y-83626954D01*
X179427142Y-83662668D01*
X179284285Y-83644811D01*
X179189047Y-83585287D01*
X179141428Y-83531716D01*
X179093809Y-83430525D01*
X179093809Y-83049573D01*
X178617619Y-83990049D02*
X179617619Y-84115049D01*
X179617619Y-84496002D01*
X179570000Y-84585287D01*
X179522380Y-84626954D01*
X179427142Y-84662668D01*
X179284285Y-84644811D01*
X179189047Y-84585287D01*
X179141428Y-84531716D01*
X179093809Y-84430525D01*
X179093809Y-84049573D01*
X179522380Y-85055525D02*
X179570000Y-85109097D01*
X179617619Y-85210287D01*
X179617619Y-85448382D01*
X179570000Y-85537668D01*
X179522380Y-85579335D01*
X179427142Y-85615049D01*
X179331904Y-85603144D01*
X179189047Y-85537668D01*
X178617619Y-84894811D01*
X178617619Y-85513859D01*
D10*
X165100000Y-82550000D02*
X165100000Y-89662000D01*
X162560000Y-82550000D02*
X162560000Y-89662000D01*
X175260000Y-82550000D02*
X175260000Y-89662000D01*
X160020000Y-82550000D02*
X160020000Y-89662000D01*
X180340000Y-82550000D02*
X180340000Y-89662000D01*
X177800000Y-82550000D02*
X177800000Y-89662000D01*
X167640000Y-82550000D02*
X167640000Y-89662000D01*
X172720000Y-82550000D02*
X172720000Y-89662000D01*
X170180000Y-82550000D02*
X170180000Y-89662000D01*
X157480000Y-82550000D02*
X157480000Y-89662000D01*
X154940000Y-86106000D02*
X180340000Y-86106000D01*
X154940000Y-85852000D02*
X154940000Y-82550000D01*
X154940000Y-89662000D02*
X154940000Y-85852000D01*
X180340000Y-89662000D02*
X154940000Y-89662000D01*
X180340000Y-75438000D02*
X180340000Y-82550000D01*
X177800000Y-75438000D02*
X177800000Y-82550000D01*
X175260000Y-75438000D02*
X175260000Y-82550000D01*
X172720000Y-75438000D02*
X172720000Y-82550000D01*
X170180000Y-75438000D02*
X170180000Y-82550000D01*
X167640000Y-75438000D02*
X167640000Y-82550000D01*
X165100000Y-75438000D02*
X165100000Y-82550000D01*
X162560000Y-75438000D02*
X162560000Y-82550000D01*
X160020000Y-75438000D02*
X160020000Y-82550000D01*
X157480000Y-75438000D02*
X157480000Y-82550000D01*
X154940000Y-78994000D02*
X180340000Y-78994000D01*
X154940000Y-82550000D02*
X154940000Y-78740000D01*
X180340000Y-82550000D02*
X154940000Y-82550000D01*
X154940000Y-78740000D02*
X154940000Y-75438000D01*
D12*
X155757619Y-79434049D02*
X156757619Y-79559049D01*
X156757619Y-79940002D01*
X156710000Y-80029287D01*
X156662380Y-80070954D01*
X156567142Y-80106668D01*
X156424285Y-80088811D01*
X156329047Y-80029287D01*
X156281428Y-79975716D01*
X156233809Y-79874525D01*
X156233809Y-79493573D01*
X156710000Y-81076906D02*
X156757619Y-80987621D01*
X156757619Y-80844763D01*
X156710000Y-80695954D01*
X156614761Y-80588811D01*
X156519523Y-80529287D01*
X156329047Y-80457859D01*
X156186190Y-80440002D01*
X155995714Y-80463811D01*
X155900476Y-80499525D01*
X155805238Y-80582859D01*
X155757619Y-80719763D01*
X155757619Y-80815002D01*
X155805238Y-80963811D01*
X155852857Y-81017382D01*
X156186190Y-81059049D01*
X156186190Y-80868573D01*
X155757619Y-81957859D02*
X155757619Y-81386430D01*
X155757619Y-81672144D02*
X156757619Y-81797144D01*
X156614761Y-81684049D01*
X156519523Y-81576906D01*
X156471904Y-81475716D01*
X158297619Y-79434049D02*
X159297619Y-79559049D01*
X159297619Y-79940002D01*
X159250000Y-80029287D01*
X159202380Y-80070954D01*
X159107142Y-80106668D01*
X158964285Y-80088811D01*
X158869047Y-80029287D01*
X158821428Y-79975716D01*
X158773809Y-79874525D01*
X158773809Y-79493573D01*
X158297619Y-80434049D02*
X159297619Y-80559049D01*
X158297619Y-81005478D02*
X158869047Y-80648335D01*
X159297619Y-81130478D02*
X158726190Y-80487621D01*
X158964285Y-81945954D02*
X158297619Y-81862621D01*
X159345238Y-81755478D02*
X158630952Y-81428097D01*
X158630952Y-82047144D01*
X160837619Y-79434049D02*
X161837619Y-79559049D01*
X161837619Y-79940002D01*
X161790000Y-80029287D01*
X161742380Y-80070954D01*
X161647142Y-80106668D01*
X161504285Y-80088811D01*
X161409047Y-80029287D01*
X161361428Y-79975716D01*
X161313809Y-79874525D01*
X161313809Y-79493573D01*
X160837619Y-80434049D02*
X161837619Y-80559049D01*
X160837619Y-81005478D02*
X161409047Y-80648335D01*
X161837619Y-81130478D02*
X161266190Y-80487621D01*
X161837619Y-82035240D02*
X161837619Y-81559049D01*
X161361428Y-81451906D01*
X161409047Y-81505478D01*
X161456666Y-81606668D01*
X161456666Y-81844763D01*
X161409047Y-81934049D01*
X161361428Y-81975716D01*
X161266190Y-82011430D01*
X161028095Y-81981668D01*
X160932857Y-81922144D01*
X160885238Y-81868573D01*
X160837619Y-81767382D01*
X160837619Y-81529287D01*
X160885238Y-81440002D01*
X160932857Y-81398335D01*
X163377619Y-79362621D02*
X164377619Y-79487621D01*
X164377619Y-79868573D01*
X164330000Y-79957859D01*
X164282380Y-79999525D01*
X164187142Y-80035240D01*
X164044285Y-80017382D01*
X163949047Y-79957859D01*
X163901428Y-79904287D01*
X163853809Y-79803097D01*
X163853809Y-79422144D01*
X163377619Y-80362621D02*
X164377619Y-80487621D01*
X163663333Y-80731668D01*
X164377619Y-81154287D01*
X163377619Y-81029287D01*
X164377619Y-81820954D02*
X164377619Y-81916192D01*
X164330000Y-82005478D01*
X164282380Y-82047144D01*
X164187142Y-82082859D01*
X163996666Y-82106668D01*
X163758571Y-82076906D01*
X163568095Y-82005478D01*
X163472857Y-81945954D01*
X163425238Y-81892382D01*
X163377619Y-81791192D01*
X163377619Y-81695954D01*
X163425238Y-81606668D01*
X163472857Y-81565002D01*
X163568095Y-81529287D01*
X163758571Y-81505478D01*
X163996666Y-81535240D01*
X164187142Y-81606668D01*
X164282380Y-81666192D01*
X164330000Y-81719763D01*
X164377619Y-81820954D01*
X165917619Y-79362621D02*
X166917619Y-79487621D01*
X166917619Y-79868573D01*
X166870000Y-79957859D01*
X166822380Y-79999525D01*
X166727142Y-80035240D01*
X166584285Y-80017382D01*
X166489047Y-79957859D01*
X166441428Y-79904287D01*
X166393809Y-79803097D01*
X166393809Y-79422144D01*
X165917619Y-80362621D02*
X166917619Y-80487621D01*
X166203333Y-80731668D01*
X166917619Y-81154287D01*
X165917619Y-81029287D01*
X165917619Y-82029287D02*
X165917619Y-81457859D01*
X165917619Y-81743573D02*
X166917619Y-81868573D01*
X166774761Y-81755478D01*
X166679523Y-81648335D01*
X166631904Y-81547144D01*
X168457619Y-79362621D02*
X169457619Y-79487621D01*
X169457619Y-79868573D01*
X169410000Y-79957859D01*
X169362380Y-79999525D01*
X169267142Y-80035240D01*
X169124285Y-80017382D01*
X169029047Y-79957859D01*
X168981428Y-79904287D01*
X168933809Y-79803097D01*
X168933809Y-79422144D01*
X168457619Y-80362621D02*
X169457619Y-80487621D01*
X168743333Y-80731668D01*
X169457619Y-81154287D01*
X168457619Y-81029287D01*
X169362380Y-81570954D02*
X169410000Y-81624525D01*
X169457619Y-81725716D01*
X169457619Y-81963811D01*
X169410000Y-82053097D01*
X169362380Y-82094763D01*
X169267142Y-82130478D01*
X169171904Y-82118573D01*
X169029047Y-82053097D01*
X168457619Y-81410240D01*
X168457619Y-82029287D01*
X170997619Y-79410240D02*
X171997619Y-79535240D01*
X171997619Y-79916192D01*
X171950000Y-80005478D01*
X171902380Y-80047144D01*
X171807142Y-80082859D01*
X171664285Y-80065002D01*
X171569047Y-80005478D01*
X171521428Y-79951906D01*
X171473809Y-79850716D01*
X171473809Y-79469763D01*
X170997619Y-80410240D02*
X171997619Y-80535240D01*
X171521428Y-80475716D02*
X171521428Y-81047144D01*
X170997619Y-80981668D02*
X171997619Y-81106668D01*
X171997619Y-81773335D02*
X171997619Y-81868573D01*
X171950000Y-81957859D01*
X171902380Y-81999525D01*
X171807142Y-82035240D01*
X171616666Y-82059049D01*
X171378571Y-82029287D01*
X171188095Y-81957859D01*
X171092857Y-81898335D01*
X171045238Y-81844763D01*
X170997619Y-81743573D01*
X170997619Y-81648335D01*
X171045238Y-81559049D01*
X171092857Y-81517382D01*
X171188095Y-81481668D01*
X171378571Y-81457859D01*
X171616666Y-81487621D01*
X171807142Y-81559049D01*
X171902380Y-81618573D01*
X171950000Y-81672144D01*
X171997619Y-81773335D01*
X173537619Y-79410240D02*
X174537619Y-79535240D01*
X174537619Y-79916192D01*
X174490000Y-80005478D01*
X174442380Y-80047144D01*
X174347142Y-80082859D01*
X174204285Y-80065002D01*
X174109047Y-80005478D01*
X174061428Y-79951906D01*
X174013809Y-79850716D01*
X174013809Y-79469763D01*
X173537619Y-80410240D02*
X174537619Y-80535240D01*
X174061428Y-80475716D02*
X174061428Y-81047144D01*
X173537619Y-80981668D02*
X174537619Y-81106668D01*
X173537619Y-81981668D02*
X173537619Y-81410240D01*
X173537619Y-81695954D02*
X174537619Y-81820954D01*
X174394761Y-81707859D01*
X174299523Y-81600716D01*
X174251904Y-81499525D01*
X176077619Y-79434049D02*
X177077619Y-79559049D01*
X177077619Y-79940002D01*
X177030000Y-80029287D01*
X176982380Y-80070954D01*
X176887142Y-80106668D01*
X176744285Y-80088811D01*
X176649047Y-80029287D01*
X176601428Y-79975716D01*
X176553809Y-79874525D01*
X176553809Y-79493573D01*
X176077619Y-80434049D02*
X177077619Y-80559049D01*
X176077619Y-81005478D02*
X176649047Y-80648335D01*
X177077619Y-81130478D02*
X176506190Y-80487621D01*
X177077619Y-81987621D02*
X177077619Y-81797144D01*
X177030000Y-81695954D01*
X176982380Y-81642382D01*
X176839523Y-81529287D01*
X176649047Y-81457859D01*
X176268095Y-81410240D01*
X176172857Y-81445954D01*
X176125238Y-81487621D01*
X176077619Y-81576906D01*
X176077619Y-81767382D01*
X176125238Y-81868573D01*
X176172857Y-81922144D01*
X176268095Y-81981668D01*
X176506190Y-82011430D01*
X176601428Y-81975716D01*
X176649047Y-81934049D01*
X176696666Y-81844763D01*
X176696666Y-81654287D01*
X176649047Y-81553097D01*
X176601428Y-81499525D01*
X176506190Y-81440002D01*
X156710000Y-76473287D02*
X156757619Y-76384002D01*
X156757619Y-76241144D01*
X156710000Y-76092335D01*
X156614761Y-75985192D01*
X156519523Y-75925668D01*
X156329047Y-75854240D01*
X156186190Y-75836382D01*
X155995714Y-75860192D01*
X155900476Y-75895906D01*
X155805238Y-75979240D01*
X155757619Y-76116144D01*
X155757619Y-76211382D01*
X155805238Y-76360192D01*
X155852857Y-76413763D01*
X156186190Y-76455430D01*
X156186190Y-76264954D01*
X155757619Y-76830430D02*
X156757619Y-76955430D01*
X155757619Y-77401859D01*
X156757619Y-77526859D01*
X155757619Y-77878049D02*
X156757619Y-78003049D01*
X156757619Y-78241144D01*
X156710000Y-78378049D01*
X156614761Y-78461382D01*
X156519523Y-78497097D01*
X156329047Y-78520906D01*
X156186190Y-78503049D01*
X155995714Y-78431621D01*
X155900476Y-78372097D01*
X155805238Y-78264954D01*
X155757619Y-78116144D01*
X155757619Y-77878049D01*
X158297619Y-75806621D02*
X159297619Y-75931621D01*
X159297619Y-76312573D01*
X159250000Y-76401859D01*
X159202380Y-76443525D01*
X159107142Y-76479240D01*
X158964285Y-76461382D01*
X158869047Y-76401859D01*
X158821428Y-76348287D01*
X158773809Y-76247097D01*
X158773809Y-75866144D01*
X158297619Y-76806621D02*
X159297619Y-76931621D01*
X158583333Y-77175668D01*
X159297619Y-77598287D01*
X158297619Y-77473287D01*
X159297619Y-77979240D02*
X159297619Y-78645906D01*
X158297619Y-78092335D01*
X160837619Y-75878049D02*
X161837619Y-76003049D01*
X161837619Y-76384002D01*
X161790000Y-76473287D01*
X161742380Y-76514954D01*
X161647142Y-76550668D01*
X161504285Y-76532811D01*
X161409047Y-76473287D01*
X161361428Y-76419716D01*
X161313809Y-76318525D01*
X161313809Y-75937573D01*
X160837619Y-76878049D02*
X161837619Y-77003049D01*
X161837619Y-77384002D01*
X161790000Y-77473287D01*
X161742380Y-77514954D01*
X161647142Y-77550668D01*
X161504285Y-77532811D01*
X161409047Y-77473287D01*
X161361428Y-77419716D01*
X161313809Y-77318525D01*
X161313809Y-76937573D01*
X161837619Y-78479240D02*
X161837619Y-78003049D01*
X161361428Y-77895906D01*
X161409047Y-77949478D01*
X161456666Y-78050668D01*
X161456666Y-78288763D01*
X161409047Y-78378049D01*
X161361428Y-78419716D01*
X161266190Y-78455430D01*
X161028095Y-78425668D01*
X160932857Y-78366144D01*
X160885238Y-78312573D01*
X160837619Y-78211382D01*
X160837619Y-77973287D01*
X160885238Y-77884002D01*
X160932857Y-77842335D01*
X163377619Y-75949478D02*
X164377619Y-76074478D01*
X164377619Y-76455430D01*
X164330000Y-76544716D01*
X164282380Y-76586382D01*
X164187142Y-76622097D01*
X164044285Y-76604240D01*
X163949047Y-76544716D01*
X163901428Y-76491144D01*
X163853809Y-76389954D01*
X163853809Y-76009002D01*
X163663333Y-76937573D02*
X163663333Y-77413763D01*
X163377619Y-76806621D02*
X164377619Y-77264954D01*
X163377619Y-77473287D01*
X164377619Y-77836382D02*
X164377619Y-78503049D01*
X163377619Y-77949478D01*
X165917619Y-76568525D02*
X166393809Y-76294716D01*
X165917619Y-75997097D02*
X166917619Y-76122097D01*
X166917619Y-76503049D01*
X166870000Y-76592335D01*
X166822380Y-76634002D01*
X166727142Y-76669716D01*
X166584285Y-76651859D01*
X166489047Y-76592335D01*
X166441428Y-76538763D01*
X166393809Y-76437573D01*
X166393809Y-76056621D01*
X165965238Y-76955430D02*
X165917619Y-77092335D01*
X165917619Y-77330430D01*
X165965238Y-77431621D01*
X166012857Y-77485192D01*
X166108095Y-77544716D01*
X166203333Y-77556621D01*
X166298571Y-77520906D01*
X166346190Y-77479240D01*
X166393809Y-77389954D01*
X166441428Y-77205430D01*
X166489047Y-77116144D01*
X166536666Y-77074478D01*
X166631904Y-77038763D01*
X166727142Y-77050668D01*
X166822380Y-77110192D01*
X166870000Y-77163763D01*
X166917619Y-77264954D01*
X166917619Y-77503049D01*
X166870000Y-77639954D01*
X166917619Y-77931621D02*
X166917619Y-78503049D01*
X165917619Y-78092335D02*
X166917619Y-78217335D01*
X168457619Y-75854240D02*
X169457619Y-75979240D01*
X169457619Y-76360192D01*
X169410000Y-76449478D01*
X169362380Y-76491144D01*
X169267142Y-76526859D01*
X169124285Y-76509002D01*
X169029047Y-76449478D01*
X168981428Y-76395906D01*
X168933809Y-76294716D01*
X168933809Y-75913763D01*
X168362380Y-77509002D02*
X168410000Y-77419716D01*
X168505238Y-77336382D01*
X168648095Y-77211382D01*
X168695714Y-77122097D01*
X168695714Y-77026859D01*
X168457619Y-77044716D02*
X168505238Y-76955430D01*
X168600476Y-76872097D01*
X168790952Y-76848287D01*
X169124285Y-76889954D01*
X169314761Y-76961382D01*
X169410000Y-77068525D01*
X169457619Y-77169716D01*
X169457619Y-77360192D01*
X169410000Y-77449478D01*
X169314761Y-77532811D01*
X169124285Y-77556621D01*
X168790952Y-77514954D01*
X168600476Y-77443525D01*
X168505238Y-77336382D01*
X168457619Y-77235192D01*
X168457619Y-77044716D01*
X169362380Y-77967335D02*
X169410000Y-78020906D01*
X169457619Y-78122097D01*
X169457619Y-78360192D01*
X169410000Y-78449478D01*
X169362380Y-78491144D01*
X169267142Y-78526859D01*
X169171904Y-78514954D01*
X169029047Y-78449478D01*
X168457619Y-77806621D01*
X168457619Y-78425668D01*
X170997619Y-75854240D02*
X171997619Y-75979240D01*
X171997619Y-76360192D01*
X171950000Y-76449478D01*
X171902380Y-76491144D01*
X171807142Y-76526859D01*
X171664285Y-76509002D01*
X171569047Y-76449478D01*
X171521428Y-76395906D01*
X171473809Y-76294716D01*
X171473809Y-75913763D01*
X170902380Y-77509002D02*
X170950000Y-77419716D01*
X171045238Y-77336382D01*
X171188095Y-77211382D01*
X171235714Y-77122097D01*
X171235714Y-77026859D01*
X170997619Y-77044716D02*
X171045238Y-76955430D01*
X171140476Y-76872097D01*
X171330952Y-76848287D01*
X171664285Y-76889954D01*
X171854761Y-76961382D01*
X171950000Y-77068525D01*
X171997619Y-77169716D01*
X171997619Y-77360192D01*
X171950000Y-77449478D01*
X171854761Y-77532811D01*
X171664285Y-77556621D01*
X171330952Y-77514954D01*
X171140476Y-77443525D01*
X171045238Y-77336382D01*
X170997619Y-77235192D01*
X170997619Y-77044716D01*
X171997619Y-77931621D02*
X171997619Y-78550668D01*
X171616666Y-78169716D01*
X171616666Y-78312573D01*
X171569047Y-78401859D01*
X171521428Y-78443525D01*
X171426190Y-78479240D01*
X171188095Y-78449478D01*
X171092857Y-78389954D01*
X171045238Y-78336382D01*
X170997619Y-78235192D01*
X170997619Y-77949478D01*
X171045238Y-77860192D01*
X171092857Y-77818525D01*
X173537619Y-75878049D02*
X174537619Y-76003049D01*
X174537619Y-76384002D01*
X174490000Y-76473287D01*
X174442380Y-76514954D01*
X174347142Y-76550668D01*
X174204285Y-76532811D01*
X174109047Y-76473287D01*
X174061428Y-76419716D01*
X174013809Y-76318525D01*
X174013809Y-75937573D01*
X173537619Y-76878049D02*
X174537619Y-77003049D01*
X174537619Y-77384002D01*
X174490000Y-77473287D01*
X174442380Y-77514954D01*
X174347142Y-77550668D01*
X174204285Y-77532811D01*
X174109047Y-77473287D01*
X174061428Y-77419716D01*
X174013809Y-77318525D01*
X174013809Y-76937573D01*
X174537619Y-77907811D02*
X174537619Y-78526859D01*
X174156666Y-78145906D01*
X174156666Y-78288763D01*
X174109047Y-78378049D01*
X174061428Y-78419716D01*
X173966190Y-78455430D01*
X173728095Y-78425668D01*
X173632857Y-78366144D01*
X173585238Y-78312573D01*
X173537619Y-78211382D01*
X173537619Y-77925668D01*
X173585238Y-77836382D01*
X173632857Y-77794716D01*
X176077619Y-75854240D02*
X177077619Y-75979240D01*
X177077619Y-76360192D01*
X177030000Y-76449478D01*
X176982380Y-76491144D01*
X176887142Y-76526859D01*
X176744285Y-76509002D01*
X176649047Y-76449478D01*
X176601428Y-76395906D01*
X176553809Y-76294716D01*
X176553809Y-75913763D01*
X175982380Y-77509002D02*
X176030000Y-77419716D01*
X176125238Y-77336382D01*
X176268095Y-77211382D01*
X176315714Y-77122097D01*
X176315714Y-77026859D01*
X176077619Y-77044716D02*
X176125238Y-76955430D01*
X176220476Y-76872097D01*
X176410952Y-76848287D01*
X176744285Y-76889954D01*
X176934761Y-76961382D01*
X177030000Y-77068525D01*
X177077619Y-77169716D01*
X177077619Y-77360192D01*
X177030000Y-77449478D01*
X176934761Y-77532811D01*
X176744285Y-77556621D01*
X176410952Y-77514954D01*
X176220476Y-77443525D01*
X176125238Y-77336382D01*
X176077619Y-77235192D01*
X176077619Y-77044716D01*
X176077619Y-78425668D02*
X176077619Y-77854240D01*
X176077619Y-78139954D02*
X177077619Y-78264954D01*
X176934761Y-78151859D01*
X176839523Y-78044716D01*
X176791904Y-77943525D01*
X178617619Y-79434049D02*
X179617619Y-79559049D01*
X179617619Y-79940002D01*
X179570000Y-80029287D01*
X179522380Y-80070954D01*
X179427142Y-80106668D01*
X179284285Y-80088811D01*
X179189047Y-80029287D01*
X179141428Y-79975716D01*
X179093809Y-79874525D01*
X179093809Y-79493573D01*
X178617619Y-80434049D02*
X179617619Y-80559049D01*
X178617619Y-81005478D02*
X179189047Y-80648335D01*
X179617619Y-81130478D02*
X179046190Y-80487621D01*
X179617619Y-81463811D02*
X179617619Y-82130478D01*
X178617619Y-81576906D01*
X178617619Y-75806621D02*
X179617619Y-75931621D01*
X179617619Y-76312573D01*
X179570000Y-76401859D01*
X179522380Y-76443525D01*
X179427142Y-76479240D01*
X179284285Y-76461382D01*
X179189047Y-76401859D01*
X179141428Y-76348287D01*
X179093809Y-76247097D01*
X179093809Y-75866144D01*
X178617619Y-76806621D02*
X179617619Y-76931621D01*
X178903333Y-77175668D01*
X179617619Y-77598287D01*
X178617619Y-77473287D01*
X179617619Y-78503049D02*
X179617619Y-78312573D01*
X179570000Y-78211382D01*
X179522380Y-78157811D01*
X179379523Y-78044716D01*
X179189047Y-77973287D01*
X178808095Y-77925668D01*
X178712857Y-77961382D01*
X178665238Y-78003049D01*
X178617619Y-78092335D01*
X178617619Y-78282811D01*
X178665238Y-78384002D01*
X178712857Y-78437573D01*
X178808095Y-78497097D01*
X179046190Y-78526859D01*
X179141428Y-78491144D01*
X179189047Y-78449478D01*
X179236666Y-78360192D01*
X179236666Y-78169716D01*
X179189047Y-78068525D01*
X179141428Y-78014954D01*
X179046190Y-77955430D01*
D11*
X158468714Y-122512142D02*
X158683000Y-122583571D01*
X159040142Y-122583571D01*
X159183000Y-122512142D01*
X159254428Y-122440714D01*
X159325857Y-122297857D01*
X159325857Y-122155000D01*
X159254428Y-122012142D01*
X159183000Y-121940714D01*
X159040142Y-121869285D01*
X158754428Y-121797857D01*
X158611571Y-121726428D01*
X158540142Y-121655000D01*
X158468714Y-121512142D01*
X158468714Y-121369285D01*
X158540142Y-121226428D01*
X158611571Y-121155000D01*
X158754428Y-121083571D01*
X159111571Y-121083571D01*
X159325857Y-121155000D01*
X159754428Y-121583571D02*
X160325857Y-121583571D01*
X159968714Y-121083571D02*
X159968714Y-122369285D01*
X160040142Y-122512142D01*
X160183000Y-122583571D01*
X160325857Y-122583571D01*
X161468714Y-122583571D02*
X161468714Y-121797857D01*
X161397285Y-121655000D01*
X161254428Y-121583571D01*
X160968714Y-121583571D01*
X160825857Y-121655000D01*
X161468714Y-122512142D02*
X161325857Y-122583571D01*
X160968714Y-122583571D01*
X160825857Y-122512142D01*
X160754428Y-122369285D01*
X160754428Y-122226428D01*
X160825857Y-122083571D01*
X160968714Y-122012142D01*
X161325857Y-122012142D01*
X161468714Y-121940714D01*
X162183000Y-121583571D02*
X162183000Y-122583571D01*
X162183000Y-121726428D02*
X162254428Y-121655000D01*
X162397285Y-121583571D01*
X162611571Y-121583571D01*
X162754428Y-121655000D01*
X162825857Y-121797857D01*
X162825857Y-122583571D01*
X164183000Y-122583571D02*
X164183000Y-121083571D01*
X164183000Y-122512142D02*
X164040142Y-122583571D01*
X163754428Y-122583571D01*
X163611571Y-122512142D01*
X163540142Y-122440714D01*
X163468714Y-122297857D01*
X163468714Y-121869285D01*
X163540142Y-121726428D01*
X163611571Y-121655000D01*
X163754428Y-121583571D01*
X164040142Y-121583571D01*
X164183000Y-121655000D01*
X165540142Y-122583571D02*
X165540142Y-121797857D01*
X165468714Y-121655000D01*
X165325857Y-121583571D01*
X165040142Y-121583571D01*
X164897285Y-121655000D01*
X165540142Y-122512142D02*
X165397285Y-122583571D01*
X165040142Y-122583571D01*
X164897285Y-122512142D01*
X164825857Y-122369285D01*
X164825857Y-122226428D01*
X164897285Y-122083571D01*
X165040142Y-122012142D01*
X165397285Y-122012142D01*
X165540142Y-121940714D01*
X166254428Y-122583571D02*
X166254428Y-121583571D01*
X166254428Y-121869285D02*
X166325857Y-121726428D01*
X166397285Y-121655000D01*
X166540142Y-121583571D01*
X166683000Y-121583571D01*
X167825857Y-122583571D02*
X167825857Y-121083571D01*
X167825857Y-122512142D02*
X167683000Y-122583571D01*
X167397285Y-122583571D01*
X167254428Y-122512142D01*
X167183000Y-122440714D01*
X167111571Y-122297857D01*
X167111571Y-121869285D01*
X167183000Y-121726428D01*
X167254428Y-121655000D01*
X167397285Y-121583571D01*
X167683000Y-121583571D01*
X167825857Y-121655000D01*
X169040142Y-121797857D02*
X169254428Y-121869285D01*
X169325857Y-121940714D01*
X169397285Y-122083571D01*
X169397285Y-122297857D01*
X169325857Y-122440714D01*
X169254428Y-122512142D01*
X169111571Y-122583571D01*
X168540142Y-122583571D01*
X168540142Y-121083571D01*
X169040142Y-121083571D01*
X169183000Y-121155000D01*
X169254428Y-121226428D01*
X169325857Y-121369285D01*
X169325857Y-121512142D01*
X169254428Y-121655000D01*
X169183000Y-121726428D01*
X169040142Y-121797857D01*
X168540142Y-121797857D01*
X170254428Y-122583571D02*
X170111571Y-122512142D01*
X170040142Y-122440714D01*
X169968714Y-122297857D01*
X169968714Y-121869285D01*
X170040142Y-121726428D01*
X170111571Y-121655000D01*
X170254428Y-121583571D01*
X170468714Y-121583571D01*
X170611571Y-121655000D01*
X170683000Y-121726428D01*
X170754428Y-121869285D01*
X170754428Y-122297857D01*
X170683000Y-122440714D01*
X170611571Y-122512142D01*
X170468714Y-122583571D01*
X170254428Y-122583571D01*
X172040142Y-122583571D02*
X172040142Y-121797857D01*
X171968714Y-121655000D01*
X171825857Y-121583571D01*
X171540142Y-121583571D01*
X171397285Y-121655000D01*
X172040142Y-122512142D02*
X171897285Y-122583571D01*
X171540142Y-122583571D01*
X171397285Y-122512142D01*
X171325857Y-122369285D01*
X171325857Y-122226428D01*
X171397285Y-122083571D01*
X171540142Y-122012142D01*
X171897285Y-122012142D01*
X172040142Y-121940714D01*
X172754428Y-122583571D02*
X172754428Y-121583571D01*
X172754428Y-121869285D02*
X172825857Y-121726428D01*
X172897285Y-121655000D01*
X173040142Y-121583571D01*
X173183000Y-121583571D01*
X174325857Y-122583571D02*
X174325857Y-121083571D01*
X174325857Y-122512142D02*
X174183000Y-122583571D01*
X173897285Y-122583571D01*
X173754428Y-122512142D01*
X173683000Y-122440714D01*
X173611571Y-122297857D01*
X173611571Y-121869285D01*
X173683000Y-121726428D01*
X173754428Y-121655000D01*
X173897285Y-121583571D01*
X174183000Y-121583571D01*
X174325857Y-121655000D01*
X175040142Y-122012142D02*
X176183000Y-122012142D01*
X177397285Y-121797857D02*
X176897285Y-121797857D01*
X176897285Y-122583571D02*
X176897285Y-121083571D01*
X177611571Y-121083571D01*
X178825857Y-121583571D02*
X178825857Y-122583571D01*
X178183000Y-121583571D02*
X178183000Y-122369285D01*
X178254428Y-122512142D01*
X178397285Y-122583571D01*
X178611571Y-122583571D01*
X178754428Y-122512142D01*
X178825857Y-122440714D01*
X179754428Y-122583571D02*
X179611571Y-122512142D01*
X179540142Y-122369285D01*
X179540142Y-121083571D01*
X180540142Y-122583571D02*
X180397285Y-122512142D01*
X180325857Y-122369285D01*
X180325857Y-121083571D01*
X181183000Y-122512142D02*
X181183000Y-122583571D01*
X181111571Y-122726428D01*
X181040142Y-122797857D01*
X183825857Y-122583571D02*
X183325857Y-121869285D01*
X182968714Y-122583571D02*
X182968714Y-121083571D01*
X183540142Y-121083571D01*
X183683000Y-121155000D01*
X183754428Y-121226428D01*
X183825857Y-121369285D01*
X183825857Y-121583571D01*
X183754428Y-121726428D01*
X183683000Y-121797857D01*
X183540142Y-121869285D01*
X182968714Y-121869285D01*
X185040142Y-122512142D02*
X184897285Y-122583571D01*
X184611571Y-122583571D01*
X184468714Y-122512142D01*
X184397285Y-122369285D01*
X184397285Y-121797857D01*
X184468714Y-121655000D01*
X184611571Y-121583571D01*
X184897285Y-121583571D01*
X185040142Y-121655000D01*
X185111571Y-121797857D01*
X185111571Y-121940714D01*
X184397285Y-122083571D01*
X185611571Y-121583571D02*
X185968714Y-122583571D01*
X186325857Y-121583571D01*
X187683000Y-122583571D02*
X186825857Y-122583571D01*
X187254428Y-122583571D02*
X187254428Y-121083571D01*
X187111571Y-121297857D01*
X186968714Y-121440714D01*
X186825857Y-121512142D01*
X158540142Y-125133571D02*
X158540142Y-123633571D01*
X159040142Y-124705000D01*
X159540142Y-123633571D01*
X159540142Y-125133571D01*
X160897285Y-125133571D02*
X160897285Y-124347857D01*
X160825857Y-124205000D01*
X160683000Y-124133571D01*
X160397285Y-124133571D01*
X160254428Y-124205000D01*
X160897285Y-125062142D02*
X160754428Y-125133571D01*
X160397285Y-125133571D01*
X160254428Y-125062142D01*
X160183000Y-124919285D01*
X160183000Y-124776428D01*
X160254428Y-124633571D01*
X160397285Y-124562142D01*
X160754428Y-124562142D01*
X160897285Y-124490714D01*
X161611571Y-125133571D02*
X161611571Y-124133571D01*
X161611571Y-124419285D02*
X161683000Y-124276428D01*
X161754428Y-124205000D01*
X161897285Y-124133571D01*
X162040142Y-124133571D01*
X162468714Y-125062142D02*
X162611571Y-125133571D01*
X162897285Y-125133571D01*
X163040142Y-125062142D01*
X163111571Y-124919285D01*
X163111571Y-124847857D01*
X163040142Y-124705000D01*
X162897285Y-124633571D01*
X162683000Y-124633571D01*
X162540142Y-124562142D01*
X162468714Y-124419285D01*
X162468714Y-124347857D01*
X162540142Y-124205000D01*
X162683000Y-124133571D01*
X162897285Y-124133571D01*
X163040142Y-124205000D01*
X165754428Y-125133571D02*
X165254428Y-124419285D01*
X164897285Y-125133571D02*
X164897285Y-123633571D01*
X165468714Y-123633571D01*
X165611571Y-123705000D01*
X165683000Y-123776428D01*
X165754428Y-123919285D01*
X165754428Y-124133571D01*
X165683000Y-124276428D01*
X165611571Y-124347857D01*
X165468714Y-124419285D01*
X164897285Y-124419285D01*
X166611571Y-125133571D02*
X166468714Y-125062142D01*
X166397285Y-124990714D01*
X166325857Y-124847857D01*
X166325857Y-124419285D01*
X166397285Y-124276428D01*
X166468714Y-124205000D01*
X166611571Y-124133571D01*
X166825857Y-124133571D01*
X166968714Y-124205000D01*
X167040142Y-124276428D01*
X167111571Y-124419285D01*
X167111571Y-124847857D01*
X167040142Y-124990714D01*
X166968714Y-125062142D01*
X166825857Y-125133571D01*
X166611571Y-125133571D01*
X167611571Y-124133571D02*
X167968714Y-125133571D01*
X168325857Y-124133571D01*
X169468714Y-125062142D02*
X169325857Y-125133571D01*
X169040142Y-125133571D01*
X168897285Y-125062142D01*
X168825857Y-124919285D01*
X168825857Y-124347857D01*
X168897285Y-124205000D01*
X169040142Y-124133571D01*
X169325857Y-124133571D01*
X169468714Y-124205000D01*
X169540142Y-124347857D01*
X169540142Y-124490714D01*
X168825857Y-124633571D01*
X170183000Y-125133571D02*
X170183000Y-124133571D01*
X170183000Y-124419285D02*
X170254428Y-124276428D01*
X170325857Y-124205000D01*
X170468714Y-124133571D01*
X170611571Y-124133571D01*
X171183000Y-125062142D02*
X171183000Y-125133571D01*
X171111571Y-125276428D01*
X171040142Y-125347857D01*
X172897285Y-123776428D02*
X172968714Y-123705000D01*
X173111571Y-123633571D01*
X173468714Y-123633571D01*
X173611571Y-123705000D01*
X173683000Y-123776428D01*
X173754428Y-123919285D01*
X173754428Y-124062142D01*
X173683000Y-124276428D01*
X172825857Y-125133571D01*
X173754428Y-125133571D01*
X174683000Y-123633571D02*
X174825857Y-123633571D01*
X174968714Y-123705000D01*
X175040142Y-123776428D01*
X175111571Y-123919285D01*
X175183000Y-124205000D01*
X175183000Y-124562142D01*
X175111571Y-124847857D01*
X175040142Y-124990714D01*
X174968714Y-125062142D01*
X174825857Y-125133571D01*
X174683000Y-125133571D01*
X174540142Y-125062142D01*
X174468714Y-124990714D01*
X174397285Y-124847857D01*
X174325857Y-124562142D01*
X174325857Y-124205000D01*
X174397285Y-123919285D01*
X174468714Y-123776428D01*
X174540142Y-123705000D01*
X174683000Y-123633571D01*
X176611571Y-125133571D02*
X175754428Y-125133571D01*
X176183000Y-125133571D02*
X176183000Y-123633571D01*
X176040142Y-123847857D01*
X175897285Y-123990714D01*
X175754428Y-124062142D01*
X177325857Y-125133571D02*
X177611571Y-125133571D01*
X177754428Y-125062142D01*
X177825857Y-124990714D01*
X177968714Y-124776428D01*
X178040142Y-124490714D01*
X178040142Y-123919285D01*
X177968714Y-123776428D01*
X177897285Y-123705000D01*
X177754428Y-123633571D01*
X177468714Y-123633571D01*
X177325857Y-123705000D01*
X177254428Y-123776428D01*
X177183000Y-123919285D01*
X177183000Y-124276428D01*
X177254428Y-124419285D01*
X177325857Y-124490714D01*
X177468714Y-124562142D01*
X177754428Y-124562142D01*
X177897285Y-124490714D01*
X177968714Y-124419285D01*
X178040142Y-124276428D01*
X158540142Y-127683571D02*
X158540142Y-126183571D01*
X159040142Y-127255000D01*
X159540142Y-126183571D01*
X159540142Y-127683571D01*
X160254428Y-127683571D02*
X160254428Y-126683571D01*
X160254428Y-126183571D02*
X160183000Y-126255000D01*
X160254428Y-126326428D01*
X160325857Y-126255000D01*
X160254428Y-126183571D01*
X160254428Y-126326428D01*
X160897285Y-127612142D02*
X161040142Y-127683571D01*
X161325857Y-127683571D01*
X161468714Y-127612142D01*
X161540142Y-127469285D01*
X161540142Y-127397857D01*
X161468714Y-127255000D01*
X161325857Y-127183571D01*
X161111571Y-127183571D01*
X160968714Y-127112142D01*
X160897285Y-126969285D01*
X160897285Y-126897857D01*
X160968714Y-126755000D01*
X161111571Y-126683571D01*
X161325857Y-126683571D01*
X161468714Y-126755000D01*
X162111571Y-127612142D02*
X162254428Y-127683571D01*
X162540142Y-127683571D01*
X162683000Y-127612142D01*
X162754428Y-127469285D01*
X162754428Y-127397857D01*
X162683000Y-127255000D01*
X162540142Y-127183571D01*
X162325857Y-127183571D01*
X162183000Y-127112142D01*
X162111571Y-126969285D01*
X162111571Y-126897857D01*
X162183000Y-126755000D01*
X162325857Y-126683571D01*
X162540142Y-126683571D01*
X162683000Y-126755000D01*
X163611571Y-127683571D02*
X163468714Y-127612142D01*
X163397285Y-127540714D01*
X163325857Y-127397857D01*
X163325857Y-126969285D01*
X163397285Y-126826428D01*
X163468714Y-126755000D01*
X163611571Y-126683571D01*
X163825857Y-126683571D01*
X163968714Y-126755000D01*
X164040142Y-126826428D01*
X164111571Y-126969285D01*
X164111571Y-127397857D01*
X164040142Y-127540714D01*
X163968714Y-127612142D01*
X163825857Y-127683571D01*
X163611571Y-127683571D01*
X165397285Y-126683571D02*
X165397285Y-127683571D01*
X164754428Y-126683571D02*
X164754428Y-127469285D01*
X164825857Y-127612142D01*
X164968714Y-127683571D01*
X165183000Y-127683571D01*
X165325857Y-127612142D01*
X165397285Y-127540714D01*
X166111571Y-127683571D02*
X166111571Y-126683571D01*
X166111571Y-126969285D02*
X166183000Y-126826428D01*
X166254428Y-126755000D01*
X166397285Y-126683571D01*
X166540142Y-126683571D01*
X167040142Y-127683571D02*
X167040142Y-126683571D01*
X167040142Y-126183571D02*
X166968714Y-126255000D01*
X167040142Y-126326428D01*
X167111571Y-126255000D01*
X167040142Y-126183571D01*
X167040142Y-126326428D01*
X168825857Y-127612142D02*
X169040142Y-127683571D01*
X169397285Y-127683571D01*
X169540142Y-127612142D01*
X169611571Y-127540714D01*
X169683000Y-127397857D01*
X169683000Y-127255000D01*
X169611571Y-127112142D01*
X169540142Y-127040714D01*
X169397285Y-126969285D01*
X169111571Y-126897857D01*
X168968714Y-126826428D01*
X168897285Y-126755000D01*
X168825857Y-126612142D01*
X168825857Y-126469285D01*
X168897285Y-126326428D01*
X168968714Y-126255000D01*
X169111571Y-126183571D01*
X169468714Y-126183571D01*
X169683000Y-126255000D01*
X171540142Y-127683571D02*
X171468714Y-127683571D01*
X171325857Y-127612142D01*
X171111571Y-127397857D01*
X170754428Y-126969285D01*
X170611571Y-126755000D01*
X170540142Y-126540714D01*
X170540142Y-126397857D01*
X170611571Y-126255000D01*
X170754428Y-126183571D01*
X170825857Y-126183571D01*
X170968714Y-126255000D01*
X171040142Y-126397857D01*
X171040142Y-126469285D01*
X170968714Y-126612142D01*
X170897285Y-126683571D01*
X170468714Y-126969285D01*
X170397285Y-127040714D01*
X170325857Y-127183571D01*
X170325857Y-127397857D01*
X170397285Y-127540714D01*
X170468714Y-127612142D01*
X170611571Y-127683571D01*
X170825857Y-127683571D01*
X170968714Y-127612142D01*
X171040142Y-127540714D01*
X171254428Y-127255000D01*
X171325857Y-127040714D01*
X171325857Y-126897857D01*
X171968714Y-126183571D02*
X172825857Y-126183571D01*
X172397285Y-127683571D02*
X172397285Y-126183571D01*
X158468714Y-129805000D02*
X159183000Y-129805000D01*
X158325857Y-130233571D02*
X158825857Y-128733571D01*
X159325857Y-130233571D01*
X159825857Y-129233571D02*
X159825857Y-130233571D01*
X159825857Y-129376428D02*
X159897285Y-129305000D01*
X160040142Y-129233571D01*
X160254428Y-129233571D01*
X160397285Y-129305000D01*
X160468714Y-129447857D01*
X160468714Y-130233571D01*
X161825857Y-130233571D02*
X161825857Y-128733571D01*
X161825857Y-130162142D02*
X161683000Y-130233571D01*
X161397285Y-130233571D01*
X161254428Y-130162142D01*
X161183000Y-130090714D01*
X161111571Y-129947857D01*
X161111571Y-129519285D01*
X161183000Y-129376428D01*
X161254428Y-129305000D01*
X161397285Y-129233571D01*
X161683000Y-129233571D01*
X161825857Y-129305000D01*
X162540142Y-130233571D02*
X162540142Y-129233571D01*
X162540142Y-129519285D02*
X162611571Y-129376428D01*
X162683000Y-129305000D01*
X162825857Y-129233571D01*
X162968714Y-129233571D01*
X164040142Y-130162142D02*
X163897285Y-130233571D01*
X163611571Y-130233571D01*
X163468714Y-130162142D01*
X163397285Y-130019285D01*
X163397285Y-129447857D01*
X163468714Y-129305000D01*
X163611571Y-129233571D01*
X163897285Y-129233571D01*
X164040142Y-129305000D01*
X164111571Y-129447857D01*
X164111571Y-129590714D01*
X163397285Y-129733571D01*
X164611571Y-129233571D02*
X164897285Y-130233571D01*
X165183000Y-129519285D01*
X165468714Y-130233571D01*
X165754428Y-129233571D01*
X167254428Y-128733571D02*
X167754428Y-130233571D01*
X168254428Y-128733571D01*
X169397285Y-130233571D02*
X169397285Y-129447857D01*
X169325857Y-129305000D01*
X169183000Y-129233571D01*
X168897285Y-129233571D01*
X168754428Y-129305000D01*
X169397285Y-130162142D02*
X169254428Y-130233571D01*
X168897285Y-130233571D01*
X168754428Y-130162142D01*
X168683000Y-130019285D01*
X168683000Y-129876428D01*
X168754428Y-129733571D01*
X168897285Y-129662142D01*
X169254428Y-129662142D01*
X169397285Y-129590714D01*
X170111571Y-129233571D02*
X170111571Y-130233571D01*
X170111571Y-129376428D02*
X170183000Y-129305000D01*
X170325857Y-129233571D01*
X170540142Y-129233571D01*
X170683000Y-129305000D01*
X170754428Y-129447857D01*
X170754428Y-130233571D01*
X172611571Y-130233571D02*
X172611571Y-128733571D01*
X172611571Y-129447857D02*
X173468714Y-129447857D01*
X173468714Y-130233571D02*
X173468714Y-128733571D01*
X174397285Y-130233571D02*
X174254428Y-130162142D01*
X174183000Y-130090714D01*
X174111571Y-129947857D01*
X174111571Y-129519285D01*
X174183000Y-129376428D01*
X174254428Y-129305000D01*
X174397285Y-129233571D01*
X174611571Y-129233571D01*
X174754428Y-129305000D01*
X174825857Y-129376428D01*
X174897285Y-129519285D01*
X174897285Y-129947857D01*
X174825857Y-130090714D01*
X174754428Y-130162142D01*
X174611571Y-130233571D01*
X174397285Y-130233571D01*
X175540142Y-130233571D02*
X175540142Y-129233571D01*
X175540142Y-129519285D02*
X175611571Y-129376428D01*
X175683000Y-129305000D01*
X175825857Y-129233571D01*
X175968714Y-129233571D01*
X176468714Y-129233571D02*
X176468714Y-130233571D01*
X176468714Y-129376428D02*
X176540142Y-129305000D01*
X176683000Y-129233571D01*
X176897285Y-129233571D01*
X177040142Y-129305000D01*
X177111571Y-129447857D01*
X177111571Y-130233571D01*
D13*
X172284571Y-135409214D02*
X172103142Y-135590642D01*
X171558857Y-135772071D01*
X171196000Y-135772071D01*
X170651714Y-135590642D01*
X170288857Y-135227785D01*
X170107428Y-134864928D01*
X169926000Y-134139214D01*
X169926000Y-133594928D01*
X170107428Y-132869214D01*
X170288857Y-132506357D01*
X170651714Y-132143500D01*
X171196000Y-131962071D01*
X171558857Y-131962071D01*
X172103142Y-132143500D01*
X172284571Y-132324928D01*
X174461714Y-135772071D02*
X174098857Y-135590642D01*
X173917428Y-135409214D01*
X173736000Y-135046357D01*
X173736000Y-133957785D01*
X173917428Y-133594928D01*
X174098857Y-133413500D01*
X174461714Y-133232071D01*
X175006000Y-133232071D01*
X175368857Y-133413500D01*
X175550285Y-133594928D01*
X175731714Y-133957785D01*
X175731714Y-135046357D01*
X175550285Y-135409214D01*
X175368857Y-135590642D01*
X175006000Y-135772071D01*
X174461714Y-135772071D01*
X177364571Y-135772071D02*
X177364571Y-133232071D01*
X177364571Y-133594928D02*
X177546000Y-133413500D01*
X177908857Y-133232071D01*
X178453142Y-133232071D01*
X178816000Y-133413500D01*
X178997428Y-133776357D01*
X178997428Y-135772071D01*
X178997428Y-133776357D02*
X179178857Y-133413500D01*
X179541714Y-133232071D01*
X180086000Y-133232071D01*
X180448857Y-133413500D01*
X180630285Y-133776357D01*
X180630285Y-135772071D01*
X182444571Y-133232071D02*
X182444571Y-137042071D01*
X182444571Y-133413500D02*
X182807428Y-133232071D01*
X183533142Y-133232071D01*
X183896000Y-133413500D01*
X184077428Y-133594928D01*
X184258857Y-133957785D01*
X184258857Y-135046357D01*
X184077428Y-135409214D01*
X183896000Y-135590642D01*
X183533142Y-135772071D01*
X182807428Y-135772071D01*
X182444571Y-135590642D01*
X186436000Y-135772071D02*
X186073142Y-135590642D01*
X185891714Y-135409214D01*
X185710285Y-135046357D01*
X185710285Y-133957785D01*
X185891714Y-133594928D01*
X186073142Y-133413500D01*
X186436000Y-133232071D01*
X186980285Y-133232071D01*
X187343142Y-133413500D01*
X187524571Y-133594928D01*
X187706000Y-133957785D01*
X187706000Y-135046357D01*
X187524571Y-135409214D01*
X187343142Y-135590642D01*
X186980285Y-135772071D01*
X186436000Y-135772071D01*
X189338857Y-133232071D02*
X189338857Y-135772071D01*
X189338857Y-133594928D02*
X189520285Y-133413500D01*
X189883142Y-133232071D01*
X190427428Y-133232071D01*
X190790285Y-133413500D01*
X190971714Y-133776357D01*
X190971714Y-135772071D01*
X194237428Y-135590642D02*
X193874571Y-135772071D01*
X193148857Y-135772071D01*
X192786000Y-135590642D01*
X192604571Y-135227785D01*
X192604571Y-133776357D01*
X192786000Y-133413500D01*
X193148857Y-133232071D01*
X193874571Y-133232071D01*
X194237428Y-133413500D01*
X194418857Y-133776357D01*
X194418857Y-134139214D01*
X192604571Y-134502071D01*
X196051714Y-133232071D02*
X196051714Y-135772071D01*
X196051714Y-133594928D02*
X196233142Y-133413500D01*
X196596000Y-133232071D01*
X197140285Y-133232071D01*
X197503142Y-133413500D01*
X197684571Y-133776357D01*
X197684571Y-135772071D01*
X198954571Y-133232071D02*
X200406000Y-133232071D01*
X199498857Y-131962071D02*
X199498857Y-135227785D01*
X199680285Y-135590642D01*
X200043142Y-135772071D01*
X200406000Y-135772071D01*
X175913142Y-141995071D02*
X175913142Y-138185071D01*
X178090285Y-141995071D02*
X176457428Y-139817928D01*
X178090285Y-138185071D02*
X175913142Y-140362214D01*
X181174571Y-141813642D02*
X180811714Y-141995071D01*
X180086000Y-141995071D01*
X179723142Y-141813642D01*
X179541714Y-141450785D01*
X179541714Y-139999357D01*
X179723142Y-139636500D01*
X180086000Y-139455071D01*
X180811714Y-139455071D01*
X181174571Y-139636500D01*
X181356000Y-139999357D01*
X181356000Y-140362214D01*
X179541714Y-140725071D01*
X184440285Y-141813642D02*
X184077428Y-141995071D01*
X183351714Y-141995071D01*
X182988857Y-141813642D01*
X182807428Y-141450785D01*
X182807428Y-139999357D01*
X182988857Y-139636500D01*
X183351714Y-139455071D01*
X184077428Y-139455071D01*
X184440285Y-139636500D01*
X184621714Y-139999357D01*
X184621714Y-140362214D01*
X182807428Y-140725071D01*
X186254571Y-139455071D02*
X186254571Y-143265071D01*
X186254571Y-139636500D02*
X186617428Y-139455071D01*
X187343142Y-139455071D01*
X187706000Y-139636500D01*
X187887428Y-139817928D01*
X188068857Y-140180785D01*
X188068857Y-141269357D01*
X187887428Y-141632214D01*
X187706000Y-141813642D01*
X187343142Y-141995071D01*
X186617428Y-141995071D01*
X186254571Y-141813642D01*
X190246000Y-141995071D02*
X189883142Y-141813642D01*
X189701714Y-141632214D01*
X189520285Y-141269357D01*
X189520285Y-140180785D01*
X189701714Y-139817928D01*
X189883142Y-139636500D01*
X190246000Y-139455071D01*
X190790285Y-139455071D01*
X191153142Y-139636500D01*
X191334571Y-139817928D01*
X191516000Y-140180785D01*
X191516000Y-141269357D01*
X191334571Y-141632214D01*
X191153142Y-141813642D01*
X190790285Y-141995071D01*
X190246000Y-141995071D01*
X194781714Y-139455071D02*
X194781714Y-141995071D01*
X193148857Y-139455071D02*
X193148857Y-141450785D01*
X193330285Y-141813642D01*
X193693142Y-141995071D01*
X194237428Y-141995071D01*
X194600285Y-141813642D01*
X194781714Y-141632214D01*
X196051714Y-139455071D02*
X197503142Y-139455071D01*
X196596000Y-138185071D02*
X196596000Y-141450785D01*
X196777428Y-141813642D01*
X197140285Y-141995071D01*
X197503142Y-141995071D01*
X158750000Y-47234928D02*
X158931428Y-47053500D01*
X159294285Y-46872071D01*
X160201428Y-46872071D01*
X160564285Y-47053500D01*
X160745714Y-47234928D01*
X160927142Y-47597785D01*
X160927142Y-47960642D01*
X160745714Y-48504928D01*
X158568571Y-50682071D01*
X160927142Y-50682071D01*
X163285714Y-46872071D02*
X163648571Y-46872071D01*
X164011428Y-47053500D01*
X164192857Y-47234928D01*
X164374285Y-47597785D01*
X164555714Y-48323500D01*
X164555714Y-49230642D01*
X164374285Y-49956357D01*
X164192857Y-50319214D01*
X164011428Y-50500642D01*
X163648571Y-50682071D01*
X163285714Y-50682071D01*
X162922857Y-50500642D01*
X162741428Y-50319214D01*
X162560000Y-49956357D01*
X162378571Y-49230642D01*
X162378571Y-48323500D01*
X162560000Y-47597785D01*
X162741428Y-47234928D01*
X162922857Y-47053500D01*
X163285714Y-46872071D01*
X168184285Y-50682071D02*
X166007142Y-50682071D01*
X167095714Y-50682071D02*
X167095714Y-46872071D01*
X166732857Y-47416357D01*
X166370000Y-47779214D01*
X166007142Y-47960642D01*
X169998571Y-50682071D02*
X170724285Y-50682071D01*
X171087142Y-50500642D01*
X171268571Y-50319214D01*
X171631428Y-49774928D01*
X171812857Y-49049214D01*
X171812857Y-47597785D01*
X171631428Y-47234928D01*
X171450000Y-47053500D01*
X171087142Y-46872071D01*
X170361428Y-46872071D01*
X169998571Y-47053500D01*
X169817142Y-47234928D01*
X169635714Y-47597785D01*
X169635714Y-48504928D01*
X169817142Y-48867785D01*
X169998571Y-49049214D01*
X170361428Y-49230642D01*
X171087142Y-49230642D01*
X171450000Y-49049214D01*
X171631428Y-48867785D01*
X171812857Y-48504928D01*
X176348571Y-50682071D02*
X176348571Y-46872071D01*
X176348571Y-48686357D02*
X178525714Y-48686357D01*
X178525714Y-50682071D02*
X178525714Y-46872071D01*
X181972857Y-50682071D02*
X181972857Y-48686357D01*
X181791428Y-48323500D01*
X181428571Y-48142071D01*
X180702857Y-48142071D01*
X180340000Y-48323500D01*
X181972857Y-50500642D02*
X181610000Y-50682071D01*
X180702857Y-50682071D01*
X180340000Y-50500642D01*
X180158571Y-50137785D01*
X180158571Y-49774928D01*
X180340000Y-49412071D01*
X180702857Y-49230642D01*
X181610000Y-49230642D01*
X181972857Y-49049214D01*
X184331428Y-50682071D02*
X183968571Y-50500642D01*
X183787142Y-50137785D01*
X183787142Y-46872071D01*
X185238571Y-48142071D02*
X186689999Y-48142071D01*
X185782857Y-50682071D02*
X185782857Y-47416357D01*
X185964285Y-47053500D01*
X186327142Y-46872071D01*
X186689999Y-46872071D01*
X187960000Y-49230642D02*
X190862857Y-49230642D01*
X193947142Y-48686357D02*
X194491428Y-48867785D01*
X194672857Y-49049214D01*
X194854285Y-49412071D01*
X194854285Y-49956357D01*
X194672857Y-50319214D01*
X194491428Y-50500642D01*
X194128571Y-50682071D01*
X192677142Y-50682071D01*
X192677142Y-46872071D01*
X193947142Y-46872071D01*
X194310000Y-47053500D01*
X194491428Y-47234928D01*
X194672857Y-47597785D01*
X194672857Y-47960642D01*
X194491428Y-48323500D01*
X194310000Y-48504928D01*
X193947142Y-48686357D01*
X192677142Y-48686357D01*
X197031428Y-50682071D02*
X196668571Y-50500642D01*
X196487142Y-50319214D01*
X196305714Y-49956357D01*
X196305714Y-48867785D01*
X196487142Y-48504928D01*
X196668571Y-48323500D01*
X197031428Y-48142071D01*
X197575714Y-48142071D01*
X197938571Y-48323500D01*
X198120000Y-48504928D01*
X198301428Y-48867785D01*
X198301428Y-49956357D01*
X198120000Y-50319214D01*
X197938571Y-50500642D01*
X197575714Y-50682071D01*
X197031428Y-50682071D01*
X199752857Y-50500642D02*
X200115714Y-50682071D01*
X200841428Y-50682071D01*
X201204285Y-50500642D01*
X201385714Y-50137785D01*
X201385714Y-49956357D01*
X201204285Y-49593500D01*
X200841428Y-49412071D01*
X200297142Y-49412071D01*
X199934285Y-49230642D01*
X199752857Y-48867785D01*
X199752857Y-48686357D01*
X199934285Y-48323500D01*
X200297142Y-48142071D01*
X200841428Y-48142071D01*
X201204285Y-48323500D01*
X202474285Y-48142071D02*
X203925714Y-48142071D01*
X203018571Y-46872071D02*
X203018571Y-50137785D01*
X203200000Y-50500642D01*
X203562857Y-50682071D01*
X203925714Y-50682071D01*
X206647142Y-50500642D02*
X206284285Y-50682071D01*
X205558571Y-50682071D01*
X205195714Y-50500642D01*
X205014285Y-50137785D01*
X205014285Y-48686357D01*
X205195714Y-48323500D01*
X205558571Y-48142071D01*
X206284285Y-48142071D01*
X206647142Y-48323500D01*
X206828571Y-48686357D01*
X206828571Y-49049214D01*
X205014285Y-49412071D01*
X208461428Y-50682071D02*
X208461428Y-48142071D01*
X208461428Y-48867785D02*
X208642857Y-48504928D01*
X208824285Y-48323500D01*
X209187142Y-48142071D01*
X209550000Y-48142071D01*
X155847142Y-56723642D02*
X156391428Y-56905071D01*
X157298571Y-56905071D01*
X157661428Y-56723642D01*
X157842857Y-56542214D01*
X158024285Y-56179357D01*
X158024285Y-55816500D01*
X157842857Y-55453642D01*
X157661428Y-55272214D01*
X157298571Y-55090785D01*
X156572857Y-54909357D01*
X156210000Y-54727928D01*
X156028571Y-54546500D01*
X155847142Y-54183642D01*
X155847142Y-53820785D01*
X156028571Y-53457928D01*
X156210000Y-53276500D01*
X156572857Y-53095071D01*
X157480000Y-53095071D01*
X158024285Y-53276500D01*
X159112857Y-54365071D02*
X160564285Y-54365071D01*
X159657142Y-53095071D02*
X159657142Y-56360785D01*
X159838571Y-56723642D01*
X160201428Y-56905071D01*
X160564285Y-56905071D01*
X163467142Y-56905071D02*
X163467142Y-54909357D01*
X163285714Y-54546500D01*
X162922857Y-54365071D01*
X162197142Y-54365071D01*
X161834285Y-54546500D01*
X163467142Y-56723642D02*
X163104285Y-56905071D01*
X162197142Y-56905071D01*
X161834285Y-56723642D01*
X161652857Y-56360785D01*
X161652857Y-55997928D01*
X161834285Y-55635071D01*
X162197142Y-55453642D01*
X163104285Y-55453642D01*
X163467142Y-55272214D01*
X165281428Y-54365071D02*
X165281428Y-56905071D01*
X165281428Y-54727928D02*
X165462857Y-54546500D01*
X165825714Y-54365071D01*
X166370000Y-54365071D01*
X166732857Y-54546500D01*
X166914285Y-54909357D01*
X166914285Y-56905071D01*
X170361428Y-56905071D02*
X170361428Y-53095071D01*
X170361428Y-56723642D02*
X169998571Y-56905071D01*
X169272857Y-56905071D01*
X168910000Y-56723642D01*
X168728571Y-56542214D01*
X168547142Y-56179357D01*
X168547142Y-55090785D01*
X168728571Y-54727928D01*
X168910000Y-54546500D01*
X169272857Y-54365071D01*
X169998571Y-54365071D01*
X170361428Y-54546500D01*
X173808571Y-56905071D02*
X173808571Y-54909357D01*
X173627142Y-54546500D01*
X173264285Y-54365071D01*
X172538571Y-54365071D01*
X172175714Y-54546500D01*
X173808571Y-56723642D02*
X173445714Y-56905071D01*
X172538571Y-56905071D01*
X172175714Y-56723642D01*
X171994285Y-56360785D01*
X171994285Y-55997928D01*
X172175714Y-55635071D01*
X172538571Y-55453642D01*
X173445714Y-55453642D01*
X173808571Y-55272214D01*
X175622857Y-56905071D02*
X175622857Y-54365071D01*
X175622857Y-55090785D02*
X175804285Y-54727928D01*
X175985714Y-54546500D01*
X176348571Y-54365071D01*
X176711428Y-54365071D01*
X179614285Y-56905071D02*
X179614285Y-53095071D01*
X179614285Y-56723642D02*
X179251428Y-56905071D01*
X178525714Y-56905071D01*
X178162857Y-56723642D01*
X177981428Y-56542214D01*
X177800000Y-56179357D01*
X177800000Y-55090785D01*
X177981428Y-54727928D01*
X178162857Y-54546500D01*
X178525714Y-54365071D01*
X179251428Y-54365071D01*
X179614285Y-54546500D01*
X184331428Y-56905071D02*
X184331428Y-53095071D01*
X185238571Y-53095071D01*
X185782857Y-53276500D01*
X186145714Y-53639357D01*
X186327142Y-54002214D01*
X186508571Y-54727928D01*
X186508571Y-55272214D01*
X186327142Y-55997928D01*
X186145714Y-56360785D01*
X185782857Y-56723642D01*
X185238571Y-56905071D01*
X184331428Y-56905071D01*
X188141428Y-56905071D02*
X188141428Y-54365071D01*
X188141428Y-53095071D02*
X187960000Y-53276500D01*
X188141428Y-53457928D01*
X188322857Y-53276500D01*
X188141428Y-53095071D01*
X188141428Y-53457928D01*
X189955714Y-56905071D02*
X189955714Y-54365071D01*
X189955714Y-54727928D02*
X190137142Y-54546500D01*
X190500000Y-54365071D01*
X191044285Y-54365071D01*
X191407142Y-54546500D01*
X191588571Y-54909357D01*
X191588571Y-56905071D01*
X191588571Y-54909357D02*
X191770000Y-54546500D01*
X192132857Y-54365071D01*
X192677142Y-54365071D01*
X193040000Y-54546500D01*
X193221428Y-54909357D01*
X193221428Y-56905071D01*
X196487142Y-56723642D02*
X196124285Y-56905071D01*
X195398571Y-56905071D01*
X195035714Y-56723642D01*
X194854285Y-56360785D01*
X194854285Y-54909357D01*
X195035714Y-54546500D01*
X195398571Y-54365071D01*
X196124285Y-54365071D01*
X196487142Y-54546500D01*
X196668571Y-54909357D01*
X196668571Y-55272214D01*
X194854285Y-55635071D01*
X198301428Y-54365071D02*
X198301428Y-56905071D01*
X198301428Y-54727928D02*
X198482857Y-54546500D01*
X198845714Y-54365071D01*
X199390000Y-54365071D01*
X199752857Y-54546500D01*
X199934285Y-54909357D01*
X199934285Y-56905071D01*
X201567142Y-56723642D02*
X201930000Y-56905071D01*
X202655714Y-56905071D01*
X203018571Y-56723642D01*
X203200000Y-56360785D01*
X203200000Y-56179357D01*
X203018571Y-55816500D01*
X202655714Y-55635071D01*
X202111428Y-55635071D01*
X201748571Y-55453642D01*
X201567142Y-55090785D01*
X201567142Y-54909357D01*
X201748571Y-54546500D01*
X202111428Y-54365071D01*
X202655714Y-54365071D01*
X203018571Y-54546500D01*
X204832857Y-56905071D02*
X204832857Y-54365071D01*
X204832857Y-53095071D02*
X204651428Y-53276500D01*
X204832857Y-53457928D01*
X205014285Y-53276500D01*
X204832857Y-53095071D01*
X204832857Y-53457928D01*
X207191428Y-56905071D02*
X206828571Y-56723642D01*
X206647142Y-56542214D01*
X206465714Y-56179357D01*
X206465714Y-55090785D01*
X206647142Y-54727928D01*
X206828571Y-54546500D01*
X207191428Y-54365071D01*
X207735714Y-54365071D01*
X208098571Y-54546500D01*
X208280000Y-54727928D01*
X208461428Y-55090785D01*
X208461428Y-56179357D01*
X208280000Y-56542214D01*
X208098571Y-56723642D01*
X207735714Y-56905071D01*
X207191428Y-56905071D01*
X210094285Y-54365071D02*
X210094285Y-56905071D01*
X210094285Y-54727928D02*
X210275714Y-54546500D01*
X210638571Y-54365071D01*
X211182857Y-54365071D01*
X211545714Y-54546500D01*
X211727142Y-54909357D01*
X211727142Y-56905071D01*
X213360000Y-56723642D02*
X213722857Y-56905071D01*
X214448571Y-56905071D01*
X214811428Y-56723642D01*
X214992857Y-56360785D01*
X214992857Y-56179357D01*
X214811428Y-55816500D01*
X214448571Y-55635071D01*
X213904285Y-55635071D01*
X213541428Y-55453642D01*
X213360000Y-55090785D01*
X213360000Y-54909357D01*
X213541428Y-54546500D01*
X213904285Y-54365071D01*
X214448571Y-54365071D01*
X214811428Y-54546500D01*
D10*
G04 #@! TO.C,REF\002A\002A*
X154940000Y-70358000D02*
X154940000Y-75438000D01*
X180340000Y-70358000D02*
X154940000Y-70358000D01*
X180340000Y-75438000D02*
X180340000Y-70358000D01*
X154940000Y-118618000D02*
X180340000Y-118618000D01*
X154940000Y-113538000D02*
X154940000Y-118618000D01*
X180340000Y-118618000D02*
X180340000Y-113538000D01*
X154940000Y-75438000D02*
X180340000Y-75438000D01*
X180340000Y-113538000D02*
X154940000Y-113538000D01*
D14*
G04 #@! TO.C,G\002A\002A\002A*
G36*
X214415925Y-66795712D02*
X214612447Y-66824056D01*
X214772454Y-66870573D01*
X214796860Y-66881141D01*
X214894808Y-66926531D01*
X214804737Y-66911294D01*
X214491257Y-66876137D01*
X214197633Y-66878478D01*
X213937203Y-66918172D01*
X213926450Y-66920841D01*
X213622969Y-67020643D01*
X213306722Y-67170192D01*
X212976630Y-67370367D01*
X212631613Y-67622045D01*
X212270593Y-67926105D01*
X211892492Y-68283424D01*
X211496230Y-68694881D01*
X211080730Y-69161354D01*
X210873685Y-69405604D01*
X210681869Y-69637268D01*
X210498616Y-69863176D01*
X210321057Y-70087478D01*
X210146317Y-70314325D01*
X209971527Y-70547869D01*
X209793813Y-70792261D01*
X209610305Y-71051651D01*
X209418131Y-71330192D01*
X209214419Y-71632034D01*
X208996297Y-71961329D01*
X208760894Y-72322228D01*
X208505338Y-72718881D01*
X208226758Y-73155441D01*
X207922280Y-73636057D01*
X207666407Y-74041901D01*
X207082914Y-74982826D01*
X206521699Y-75915616D01*
X205991785Y-76825214D01*
X205858420Y-77059276D01*
X205737894Y-77270748D01*
X205598260Y-77513970D01*
X205451014Y-77769029D01*
X205307650Y-78016013D01*
X205181861Y-78231268D01*
X205056572Y-78446040D01*
X204919137Y-78683887D01*
X204780163Y-78926304D01*
X204650257Y-79154787D01*
X204540027Y-79350829D01*
X204536500Y-79357155D01*
X204441434Y-79527425D01*
X204351248Y-79688415D01*
X204271941Y-79829457D01*
X204209516Y-79939878D01*
X204169970Y-80009010D01*
X204168725Y-80011150D01*
X204093200Y-80140802D01*
X203976642Y-79831008D01*
X203915509Y-79677795D01*
X203839504Y-79501831D01*
X203752441Y-79310597D01*
X203658133Y-79111573D01*
X203560393Y-78912239D01*
X203463034Y-78720077D01*
X203369868Y-78542565D01*
X203284710Y-78387186D01*
X203211372Y-78261418D01*
X203153666Y-78172743D01*
X203115406Y-78128641D01*
X203107094Y-78125116D01*
X203086921Y-78150217D01*
X203043616Y-78219823D01*
X202982174Y-78325385D01*
X202907592Y-78458356D01*
X202839524Y-78582976D01*
X202729614Y-78785715D01*
X202611757Y-79001729D01*
X202489541Y-79224565D01*
X202366557Y-79447772D01*
X202246394Y-79664897D01*
X202132641Y-79869489D01*
X202028887Y-80055096D01*
X201938721Y-80215265D01*
X201865734Y-80343544D01*
X201813514Y-80433483D01*
X201785651Y-80478627D01*
X201783087Y-80481971D01*
X201781005Y-80468792D01*
X201796964Y-80409598D01*
X201827931Y-80314601D01*
X201858901Y-80226771D01*
X201934116Y-80020106D01*
X202017723Y-79792125D01*
X202107333Y-79549193D01*
X202200557Y-79297675D01*
X202295004Y-79043935D01*
X202388285Y-78794339D01*
X202478011Y-78555251D01*
X202561791Y-78333038D01*
X202637236Y-78134063D01*
X202701956Y-77964692D01*
X202753562Y-77831290D01*
X202789663Y-77740222D01*
X202807869Y-77697853D01*
X202809157Y-77695778D01*
X202834481Y-77707519D01*
X202881978Y-77760075D01*
X202942554Y-77843001D01*
X202959434Y-77868414D01*
X203022058Y-77960971D01*
X203073101Y-78029868D01*
X203103427Y-78062947D01*
X203106550Y-78064210D01*
X203125559Y-78038651D01*
X203168295Y-77967530D01*
X203230483Y-77858404D01*
X203307851Y-77718830D01*
X203396126Y-77556367D01*
X203440789Y-77473087D01*
X203545970Y-77277251D01*
X203671899Y-77044557D01*
X203810082Y-76790595D01*
X203952024Y-76530952D01*
X204089229Y-76281217D01*
X204172512Y-76130387D01*
X204293405Y-75911601D01*
X204435415Y-75653982D01*
X204590910Y-75371416D01*
X204752255Y-75077789D01*
X204911819Y-74786984D01*
X205061967Y-74512887D01*
X205114313Y-74417196D01*
X205357594Y-73975800D01*
X205596553Y-73549116D01*
X205828601Y-73141486D01*
X206051150Y-72757254D01*
X206261611Y-72400760D01*
X206457396Y-72076349D01*
X206635916Y-71788362D01*
X206794583Y-71541143D01*
X206930809Y-71339033D01*
X207033703Y-71197171D01*
X207177832Y-71023382D01*
X207306376Y-70898429D01*
X207417204Y-70823503D01*
X207508185Y-70799793D01*
X207577191Y-70828488D01*
X207609256Y-70875819D01*
X207638979Y-70956020D01*
X207644094Y-71003171D01*
X207627179Y-71009467D01*
X207590810Y-70967104D01*
X207583136Y-70954925D01*
X207525200Y-70884555D01*
X207471373Y-70864887D01*
X207470660Y-70865015D01*
X207414235Y-70901030D01*
X207336089Y-70990963D01*
X207237170Y-71133130D01*
X207118429Y-71325845D01*
X206980814Y-71567423D01*
X206825275Y-71856180D01*
X206652761Y-72190430D01*
X206464223Y-72568489D01*
X206260609Y-72988672D01*
X206187944Y-73141191D01*
X206116381Y-73293681D01*
X206029035Y-73482567D01*
X205928103Y-73702908D01*
X205815784Y-73949764D01*
X205694275Y-74218192D01*
X205565774Y-74503252D01*
X205432479Y-74800002D01*
X205296587Y-75103501D01*
X205160297Y-75408809D01*
X205025805Y-75710983D01*
X204895311Y-76005083D01*
X204771011Y-76286167D01*
X204655103Y-76549295D01*
X204549785Y-76789525D01*
X204457255Y-77001915D01*
X204379711Y-77181525D01*
X204319351Y-77323414D01*
X204278371Y-77422639D01*
X204258971Y-77474261D01*
X204257834Y-77480617D01*
X204276215Y-77459134D01*
X204323285Y-77394395D01*
X204394388Y-77293085D01*
X204484868Y-77161886D01*
X204590068Y-77007482D01*
X204671759Y-76886517D01*
X204807938Y-76685403D01*
X204969162Y-76449422D01*
X205151315Y-76184453D01*
X205350283Y-75896374D01*
X205561949Y-75591066D01*
X205782199Y-75274407D01*
X206006917Y-74952278D01*
X206231988Y-74630558D01*
X206453297Y-74315126D01*
X206666728Y-74011862D01*
X206868168Y-73726645D01*
X207053499Y-73465355D01*
X207218607Y-73233871D01*
X207359377Y-73038073D01*
X207471694Y-72883839D01*
X207503380Y-72840955D01*
X208051447Y-72112184D01*
X208574115Y-71436098D01*
X209072516Y-70811517D01*
X209547785Y-70237257D01*
X210001054Y-69712139D01*
X210433456Y-69234980D01*
X210846125Y-68804598D01*
X211240194Y-68419811D01*
X211616796Y-68079439D01*
X211977064Y-67782300D01*
X212322133Y-67527211D01*
X212653134Y-67312991D01*
X212971202Y-67138459D01*
X212973295Y-67137419D01*
X213210388Y-67024266D01*
X213412180Y-66939323D01*
X213593453Y-66877672D01*
X213768986Y-66834393D01*
X213953563Y-66804569D01*
X213985273Y-66800675D01*
X214200873Y-66787324D01*
X214415925Y-66795712D01*
X214415925Y-66795712D01*
G37*
X214415925Y-66795712D02*
X214612447Y-66824056D01*
X214772454Y-66870573D01*
X214796860Y-66881141D01*
X214894808Y-66926531D01*
X214804737Y-66911294D01*
X214491257Y-66876137D01*
X214197633Y-66878478D01*
X213937203Y-66918172D01*
X213926450Y-66920841D01*
X213622969Y-67020643D01*
X213306722Y-67170192D01*
X212976630Y-67370367D01*
X212631613Y-67622045D01*
X212270593Y-67926105D01*
X211892492Y-68283424D01*
X211496230Y-68694881D01*
X211080730Y-69161354D01*
X210873685Y-69405604D01*
X210681869Y-69637268D01*
X210498616Y-69863176D01*
X210321057Y-70087478D01*
X210146317Y-70314325D01*
X209971527Y-70547869D01*
X209793813Y-70792261D01*
X209610305Y-71051651D01*
X209418131Y-71330192D01*
X209214419Y-71632034D01*
X208996297Y-71961329D01*
X208760894Y-72322228D01*
X208505338Y-72718881D01*
X208226758Y-73155441D01*
X207922280Y-73636057D01*
X207666407Y-74041901D01*
X207082914Y-74982826D01*
X206521699Y-75915616D01*
X205991785Y-76825214D01*
X205858420Y-77059276D01*
X205737894Y-77270748D01*
X205598260Y-77513970D01*
X205451014Y-77769029D01*
X205307650Y-78016013D01*
X205181861Y-78231268D01*
X205056572Y-78446040D01*
X204919137Y-78683887D01*
X204780163Y-78926304D01*
X204650257Y-79154787D01*
X204540027Y-79350829D01*
X204536500Y-79357155D01*
X204441434Y-79527425D01*
X204351248Y-79688415D01*
X204271941Y-79829457D01*
X204209516Y-79939878D01*
X204169970Y-80009010D01*
X204168725Y-80011150D01*
X204093200Y-80140802D01*
X203976642Y-79831008D01*
X203915509Y-79677795D01*
X203839504Y-79501831D01*
X203752441Y-79310597D01*
X203658133Y-79111573D01*
X203560393Y-78912239D01*
X203463034Y-78720077D01*
X203369868Y-78542565D01*
X203284710Y-78387186D01*
X203211372Y-78261418D01*
X203153666Y-78172743D01*
X203115406Y-78128641D01*
X203107094Y-78125116D01*
X203086921Y-78150217D01*
X203043616Y-78219823D01*
X202982174Y-78325385D01*
X202907592Y-78458356D01*
X202839524Y-78582976D01*
X202729614Y-78785715D01*
X202611757Y-79001729D01*
X202489541Y-79224565D01*
X202366557Y-79447772D01*
X202246394Y-79664897D01*
X202132641Y-79869489D01*
X202028887Y-80055096D01*
X201938721Y-80215265D01*
X201865734Y-80343544D01*
X201813514Y-80433483D01*
X201785651Y-80478627D01*
X201783087Y-80481971D01*
X201781005Y-80468792D01*
X201796964Y-80409598D01*
X201827931Y-80314601D01*
X201858901Y-80226771D01*
X201934116Y-80020106D01*
X202017723Y-79792125D01*
X202107333Y-79549193D01*
X202200557Y-79297675D01*
X202295004Y-79043935D01*
X202388285Y-78794339D01*
X202478011Y-78555251D01*
X202561791Y-78333038D01*
X202637236Y-78134063D01*
X202701956Y-77964692D01*
X202753562Y-77831290D01*
X202789663Y-77740222D01*
X202807869Y-77697853D01*
X202809157Y-77695778D01*
X202834481Y-77707519D01*
X202881978Y-77760075D01*
X202942554Y-77843001D01*
X202959434Y-77868414D01*
X203022058Y-77960971D01*
X203073101Y-78029868D01*
X203103427Y-78062947D01*
X203106550Y-78064210D01*
X203125559Y-78038651D01*
X203168295Y-77967530D01*
X203230483Y-77858404D01*
X203307851Y-77718830D01*
X203396126Y-77556367D01*
X203440789Y-77473087D01*
X203545970Y-77277251D01*
X203671899Y-77044557D01*
X203810082Y-76790595D01*
X203952024Y-76530952D01*
X204089229Y-76281217D01*
X204172512Y-76130387D01*
X204293405Y-75911601D01*
X204435415Y-75653982D01*
X204590910Y-75371416D01*
X204752255Y-75077789D01*
X204911819Y-74786984D01*
X205061967Y-74512887D01*
X205114313Y-74417196D01*
X205357594Y-73975800D01*
X205596553Y-73549116D01*
X205828601Y-73141486D01*
X206051150Y-72757254D01*
X206261611Y-72400760D01*
X206457396Y-72076349D01*
X206635916Y-71788362D01*
X206794583Y-71541143D01*
X206930809Y-71339033D01*
X207033703Y-71197171D01*
X207177832Y-71023382D01*
X207306376Y-70898429D01*
X207417204Y-70823503D01*
X207508185Y-70799793D01*
X207577191Y-70828488D01*
X207609256Y-70875819D01*
X207638979Y-70956020D01*
X207644094Y-71003171D01*
X207627179Y-71009467D01*
X207590810Y-70967104D01*
X207583136Y-70954925D01*
X207525200Y-70884555D01*
X207471373Y-70864887D01*
X207470660Y-70865015D01*
X207414235Y-70901030D01*
X207336089Y-70990963D01*
X207237170Y-71133130D01*
X207118429Y-71325845D01*
X206980814Y-71567423D01*
X206825275Y-71856180D01*
X206652761Y-72190430D01*
X206464223Y-72568489D01*
X206260609Y-72988672D01*
X206187944Y-73141191D01*
X206116381Y-73293681D01*
X206029035Y-73482567D01*
X205928103Y-73702908D01*
X205815784Y-73949764D01*
X205694275Y-74218192D01*
X205565774Y-74503252D01*
X205432479Y-74800002D01*
X205296587Y-75103501D01*
X205160297Y-75408809D01*
X205025805Y-75710983D01*
X204895311Y-76005083D01*
X204771011Y-76286167D01*
X204655103Y-76549295D01*
X204549785Y-76789525D01*
X204457255Y-77001915D01*
X204379711Y-77181525D01*
X204319351Y-77323414D01*
X204278371Y-77422639D01*
X204258971Y-77474261D01*
X204257834Y-77480617D01*
X204276215Y-77459134D01*
X204323285Y-77394395D01*
X204394388Y-77293085D01*
X204484868Y-77161886D01*
X204590068Y-77007482D01*
X204671759Y-76886517D01*
X204807938Y-76685403D01*
X204969162Y-76449422D01*
X205151315Y-76184453D01*
X205350283Y-75896374D01*
X205561949Y-75591066D01*
X205782199Y-75274407D01*
X206006917Y-74952278D01*
X206231988Y-74630558D01*
X206453297Y-74315126D01*
X206666728Y-74011862D01*
X206868168Y-73726645D01*
X207053499Y-73465355D01*
X207218607Y-73233871D01*
X207359377Y-73038073D01*
X207471694Y-72883839D01*
X207503380Y-72840955D01*
X208051447Y-72112184D01*
X208574115Y-71436098D01*
X209072516Y-70811517D01*
X209547785Y-70237257D01*
X210001054Y-69712139D01*
X210433456Y-69234980D01*
X210846125Y-68804598D01*
X211240194Y-68419811D01*
X211616796Y-68079439D01*
X211977064Y-67782300D01*
X212322133Y-67527211D01*
X212653134Y-67312991D01*
X212971202Y-67138459D01*
X212973295Y-67137419D01*
X213210388Y-67024266D01*
X213412180Y-66939323D01*
X213593453Y-66877672D01*
X213768986Y-66834393D01*
X213953563Y-66804569D01*
X213985273Y-66800675D01*
X214200873Y-66787324D01*
X214415925Y-66795712D01*
G36*
X201759466Y-80542019D02*
X201744454Y-80557031D01*
X201729442Y-80542019D01*
X201744454Y-80527007D01*
X201759466Y-80542019D01*
X201759466Y-80542019D01*
G37*
X201759466Y-80542019D02*
X201744454Y-80557031D01*
X201729442Y-80542019D01*
X201744454Y-80527007D01*
X201759466Y-80542019D01*
G36*
X204576269Y-73489315D02*
X204560547Y-73525503D01*
X204509416Y-73602482D01*
X204480081Y-73644018D01*
X204425205Y-73725021D01*
X204371438Y-73813931D01*
X204315406Y-73917860D01*
X204253736Y-74043918D01*
X204183053Y-74199213D01*
X204099984Y-74390857D01*
X204001155Y-74625959D01*
X203913169Y-74838706D01*
X203838340Y-75022403D01*
X203746050Y-75251999D01*
X203640301Y-75517309D01*
X203525093Y-75808152D01*
X203404429Y-76114343D01*
X203282309Y-76425701D01*
X203162734Y-76732041D01*
X203049706Y-77023182D01*
X202947226Y-77288940D01*
X202859294Y-77519132D01*
X202841798Y-77565316D01*
X202809389Y-77651024D01*
X202640985Y-77420425D01*
X202566527Y-77324016D01*
X202503654Y-77252840D01*
X202461066Y-77216219D01*
X202448950Y-77214622D01*
X202432149Y-77245274D01*
X202391539Y-77325474D01*
X202329351Y-77450661D01*
X202247816Y-77616275D01*
X202149165Y-77817757D01*
X202035628Y-78050546D01*
X201909437Y-78310082D01*
X201772822Y-78591805D01*
X201628014Y-78891156D01*
X201570226Y-79010813D01*
X201237527Y-79699626D01*
X200928801Y-80337942D01*
X200642227Y-80929488D01*
X200375981Y-81477991D01*
X200128240Y-81987178D01*
X199897183Y-82460775D01*
X199680986Y-82902509D01*
X199477827Y-83316107D01*
X199285883Y-83705297D01*
X199103330Y-84073804D01*
X198928347Y-84425355D01*
X198759111Y-84763678D01*
X198662778Y-84955494D01*
X198532215Y-85216634D01*
X198420725Y-85441124D01*
X198324344Y-85634118D01*
X198239107Y-85800770D01*
X198161047Y-85946237D01*
X198086201Y-86075672D01*
X198010603Y-86194229D01*
X197930288Y-86307064D01*
X197841290Y-86419331D01*
X197739645Y-86536185D01*
X197621388Y-86662780D01*
X197482552Y-86804272D01*
X197319175Y-86965814D01*
X197127289Y-87152561D01*
X196902930Y-87369668D01*
X196642133Y-87622290D01*
X196520340Y-87740649D01*
X196300659Y-87955604D01*
X196085736Y-88168153D01*
X195881178Y-88372597D01*
X195692595Y-88563234D01*
X195525592Y-88734365D01*
X195385780Y-88880287D01*
X195278764Y-88995302D01*
X195216472Y-89066064D01*
X195047057Y-89265260D01*
X194841623Y-89500800D01*
X194606177Y-89766139D01*
X194346729Y-90054734D01*
X194069285Y-90360041D01*
X193779856Y-90675516D01*
X193484449Y-90994616D01*
X193189072Y-91310796D01*
X192899734Y-91617512D01*
X192622443Y-91908221D01*
X192363207Y-92176379D01*
X192320788Y-92219842D01*
X192177321Y-92367031D01*
X192049222Y-92499254D01*
X191942028Y-92610730D01*
X191861274Y-92695678D01*
X191812498Y-92748318D01*
X191800252Y-92763324D01*
X191837155Y-92776472D01*
X191920766Y-92800527D01*
X192039379Y-92832505D01*
X192181282Y-92869420D01*
X192334768Y-92908289D01*
X192488127Y-92946126D01*
X192629650Y-92979948D01*
X192747628Y-93006768D01*
X192793208Y-93016433D01*
X192986030Y-93052791D01*
X193126163Y-93071940D01*
X193218337Y-93074230D01*
X193267285Y-93060013D01*
X193274533Y-93052129D01*
X193303218Y-93023829D01*
X193368123Y-92967583D01*
X193458356Y-92892677D01*
X193524000Y-92839524D01*
X193758165Y-92651679D01*
X193521224Y-92875155D01*
X193284283Y-93098632D01*
X193386118Y-93116857D01*
X193566617Y-93142964D01*
X193782959Y-93164113D01*
X194026944Y-93180361D01*
X194290377Y-93191771D01*
X194565061Y-93198401D01*
X194842797Y-93200312D01*
X195115389Y-93197563D01*
X195374640Y-93190216D01*
X195612352Y-93178329D01*
X195820328Y-93161962D01*
X195990372Y-93141177D01*
X196114285Y-93116032D01*
X196167975Y-93096493D01*
X196202306Y-93061070D01*
X196263069Y-92978746D01*
X196347027Y-92854826D01*
X196450940Y-92694613D01*
X196571573Y-92503411D01*
X196705687Y-92286526D01*
X196850044Y-92049261D01*
X197001407Y-91796920D01*
X197156537Y-91534808D01*
X197312197Y-91268229D01*
X197465149Y-91002487D01*
X197612155Y-90742887D01*
X197691913Y-90599938D01*
X197818475Y-90375606D01*
X197954403Y-90141396D01*
X198091773Y-89910501D01*
X198222662Y-89696115D01*
X198339143Y-89511431D01*
X198413201Y-89398993D01*
X198524003Y-89229806D01*
X198652683Y-89024252D01*
X198789111Y-88799079D01*
X198923155Y-88571035D01*
X199044686Y-88356867D01*
X199056845Y-88334893D01*
X199206054Y-88071288D01*
X199352780Y-87827655D01*
X199507576Y-87587616D01*
X199680999Y-87334793D01*
X199879161Y-87058888D01*
X200303509Y-86465996D01*
X200704504Y-85880221D01*
X201091470Y-85287116D01*
X201473728Y-84672236D01*
X201860600Y-84021132D01*
X202040372Y-83709513D01*
X202148246Y-83524146D01*
X202246409Y-83364141D01*
X202343710Y-83216959D01*
X202448996Y-83070062D01*
X202571116Y-82910913D01*
X202718918Y-82726974D01*
X202824315Y-82598638D01*
X202969778Y-82422192D01*
X203114467Y-82246192D01*
X203250180Y-82080654D01*
X203368711Y-81935596D01*
X203461856Y-81821033D01*
X203500628Y-81772988D01*
X203593939Y-81658040D01*
X203712081Y-81514307D01*
X203841018Y-81358776D01*
X203966716Y-81208434D01*
X203987498Y-81183728D01*
X204089843Y-81059805D01*
X204176685Y-80950095D01*
X204241242Y-80863532D01*
X204276729Y-80809049D01*
X204281451Y-80796658D01*
X204273442Y-80751572D01*
X204252831Y-80669635D01*
X204224748Y-80568493D01*
X204194320Y-80465794D01*
X204166676Y-80379185D01*
X204146945Y-80326315D01*
X204142563Y-80318714D01*
X204116348Y-80330871D01*
X204060014Y-80375487D01*
X203990150Y-80438809D01*
X203920862Y-80501247D01*
X203888426Y-80521936D01*
X203894715Y-80499714D01*
X203896369Y-80496983D01*
X203938345Y-80423996D01*
X203989985Y-80328136D01*
X204010359Y-80288738D01*
X204051331Y-80211724D01*
X204076459Y-80181819D01*
X204096244Y-80192173D01*
X204113481Y-80221462D01*
X204129639Y-80246028D01*
X204150047Y-80254446D01*
X204182422Y-80241892D01*
X204234480Y-80203538D01*
X204313941Y-80134561D01*
X204428522Y-80030134D01*
X204447787Y-80012428D01*
X204787604Y-79702613D01*
X205090338Y-79432413D01*
X205360463Y-79198098D01*
X205602450Y-78995938D01*
X205820771Y-78822201D01*
X206019901Y-78673159D01*
X206204310Y-78545080D01*
X206217976Y-78536014D01*
X206462396Y-78384669D01*
X206671546Y-78276936D01*
X206844386Y-78213181D01*
X206979875Y-78193776D01*
X207076974Y-78219087D01*
X207088662Y-78227145D01*
X207120713Y-78255219D01*
X207114746Y-78268929D01*
X207062065Y-78273620D01*
X207011975Y-78274279D01*
X206878123Y-78294131D01*
X206745317Y-78357659D01*
X206739403Y-78361379D01*
X206634244Y-78435680D01*
X206498045Y-78543118D01*
X206341871Y-78674018D01*
X206176788Y-78818708D01*
X206013862Y-78967512D01*
X205864160Y-79110757D01*
X205752610Y-79224045D01*
X205659967Y-79322797D01*
X205542607Y-79449405D01*
X205406691Y-79597081D01*
X205258380Y-79759037D01*
X205103834Y-79928487D01*
X204949213Y-80098644D01*
X204800678Y-80262720D01*
X204664390Y-80413928D01*
X204546509Y-80545482D01*
X204453195Y-80650593D01*
X204390609Y-80722475D01*
X204370078Y-80747200D01*
X204303904Y-80831327D01*
X204385109Y-81197075D01*
X204451815Y-81514755D01*
X204503683Y-81805493D01*
X204542675Y-82086260D01*
X204570754Y-82374032D01*
X204589883Y-82685781D01*
X204602024Y-83038482D01*
X204603050Y-83081933D01*
X204606813Y-83570029D01*
X204593729Y-84015584D01*
X204562242Y-84434122D01*
X204510797Y-84841171D01*
X204437836Y-85252256D01*
X204342795Y-85678818D01*
X204134967Y-86410668D01*
X203872230Y-87120816D01*
X203556700Y-87806377D01*
X203190491Y-88464467D01*
X202775717Y-89092200D01*
X202314493Y-89686693D01*
X201808933Y-90245061D01*
X201261152Y-90764418D01*
X200673264Y-91241881D01*
X200047384Y-91674565D01*
X199864819Y-91787783D01*
X199241742Y-92133676D01*
X198589962Y-92436249D01*
X197919466Y-92691741D01*
X197240240Y-92896388D01*
X196562273Y-93046428D01*
X196490317Y-93059075D01*
X196332490Y-93091200D01*
X196230655Y-93124334D01*
X196181537Y-93158675D01*
X196154301Y-93197513D01*
X196098193Y-93278410D01*
X196018345Y-93393934D01*
X195919891Y-93536654D01*
X195807963Y-93699137D01*
X195719651Y-93827480D01*
X195390166Y-94295248D01*
X195080214Y-94711272D01*
X194786415Y-95079312D01*
X194505387Y-95403125D01*
X194233750Y-95686473D01*
X193968124Y-95933113D01*
X193705127Y-96146806D01*
X193506645Y-96288338D01*
X193331714Y-96395146D01*
X193130332Y-96501003D01*
X192921602Y-96597066D01*
X192724626Y-96674495D01*
X192570698Y-96721551D01*
X192324482Y-96765265D01*
X192058053Y-96784705D01*
X191797582Y-96778972D01*
X191605675Y-96754644D01*
X191249882Y-96656712D01*
X190908889Y-96500696D01*
X190583154Y-96286821D01*
X190470399Y-96196285D01*
X190383367Y-96128510D01*
X190312522Y-96093330D01*
X190231977Y-96080498D01*
X190174731Y-96079253D01*
X189772378Y-96055672D01*
X189364119Y-95987572D01*
X189267025Y-95961220D01*
X191485850Y-95961220D01*
X191527415Y-95987291D01*
X191566440Y-95999478D01*
X191623385Y-96006029D01*
X191721881Y-96009240D01*
X191843499Y-96008633D01*
X191881688Y-96007637D01*
X192056825Y-95994992D01*
X192201340Y-95965901D01*
X192325401Y-95922509D01*
X192528348Y-95829845D01*
X192709971Y-95723730D01*
X192886463Y-95593040D01*
X193074015Y-95426653D01*
X193140506Y-95362591D01*
X193238629Y-95264842D01*
X193311561Y-95188778D01*
X193353899Y-95140335D01*
X193360240Y-95125446D01*
X193352846Y-95129331D01*
X193042525Y-95322066D01*
X192774390Y-95475763D01*
X192546156Y-95591729D01*
X192535233Y-95596800D01*
X192374111Y-95665860D01*
X192189580Y-95736433D01*
X191998331Y-95802908D01*
X191817057Y-95859671D01*
X191662449Y-95901108D01*
X191581078Y-95917665D01*
X191503847Y-95937396D01*
X191485850Y-95961220D01*
X189267025Y-95961220D01*
X188963783Y-95878918D01*
X188585204Y-95733677D01*
X188242213Y-95555811D01*
X188152826Y-95499646D01*
X188049439Y-95439491D01*
X187947815Y-95392736D01*
X187888544Y-95374025D01*
X187810368Y-95350800D01*
X187700493Y-95308848D01*
X187580769Y-95256608D01*
X187563307Y-95248405D01*
X187323131Y-95101643D01*
X187322741Y-95101277D01*
X190246525Y-95101277D01*
X190256484Y-95125080D01*
X190284548Y-95157264D01*
X190291171Y-95164315D01*
X190328732Y-95201354D01*
X190366060Y-95224253D01*
X190414766Y-95233363D01*
X190486460Y-95229034D01*
X190592752Y-95211616D01*
X190745254Y-95181460D01*
X190760002Y-95178466D01*
X190882694Y-95151109D01*
X191023255Y-95115917D01*
X191170819Y-95076103D01*
X191314519Y-95034882D01*
X191443488Y-94995467D01*
X191546861Y-94961072D01*
X191613770Y-94934911D01*
X191633350Y-94920198D01*
X191633327Y-94920175D01*
X191600854Y-94920051D01*
X191523671Y-94929165D01*
X191416090Y-94945702D01*
X191370268Y-94953545D01*
X191239286Y-94973473D01*
X191070430Y-94994724D01*
X190885748Y-95014721D01*
X190711804Y-95030523D01*
X190526882Y-95045615D01*
X190394850Y-95058024D01*
X190308751Y-95069962D01*
X190261628Y-95083642D01*
X190246525Y-95101277D01*
X187322741Y-95101277D01*
X187114879Y-94906221D01*
X186940563Y-94665543D01*
X186802191Y-94383015D01*
X186701774Y-94062039D01*
X186641320Y-93706023D01*
X186638877Y-93682309D01*
X186617752Y-93553204D01*
X186580650Y-93400114D01*
X186535232Y-93254253D01*
X186530805Y-93242019D01*
X186413286Y-92880309D01*
X186398165Y-92821688D01*
X186983228Y-92821688D01*
X186996325Y-93036438D01*
X187009595Y-93167212D01*
X187036619Y-93274430D01*
X187086036Y-93386610D01*
X187123670Y-93456769D01*
X187379150Y-93870004D01*
X187656533Y-94228978D01*
X187957729Y-94536048D01*
X188083697Y-94643573D01*
X188263839Y-94789508D01*
X188458993Y-94770899D01*
X188560648Y-94759666D01*
X188635651Y-94748488D01*
X188666656Y-94740240D01*
X188673089Y-94732156D01*
X188667358Y-94721496D01*
X188640026Y-94701577D01*
X188581654Y-94665716D01*
X188482803Y-94607228D01*
X188458993Y-94593198D01*
X188130854Y-94372094D01*
X187836212Y-94113550D01*
X187570268Y-93812215D01*
X187328228Y-93462742D01*
X187132462Y-93113613D01*
X186983228Y-92821688D01*
X186398165Y-92821688D01*
X186306480Y-92466246D01*
X186211832Y-92006801D01*
X186130786Y-91508948D01*
X186067544Y-91005258D01*
X186053749Y-90848057D01*
X186042175Y-90656791D01*
X186032885Y-90440567D01*
X186025943Y-90208495D01*
X186021413Y-89969683D01*
X186019358Y-89733239D01*
X186019842Y-89508272D01*
X186022929Y-89303890D01*
X186028683Y-89129202D01*
X186037167Y-88993316D01*
X186048446Y-88905341D01*
X186052722Y-88888591D01*
X186069271Y-88843172D01*
X186078465Y-88840872D01*
X186082890Y-88887755D01*
X186084715Y-88963650D01*
X186094463Y-89202187D01*
X186115472Y-89485455D01*
X186145966Y-89799569D01*
X186184172Y-90130644D01*
X186228312Y-90464796D01*
X186276613Y-90788140D01*
X186327297Y-91086793D01*
X186378590Y-91346868D01*
X186403425Y-91456084D01*
X186449298Y-91638938D01*
X186497919Y-91819279D01*
X186546511Y-91988183D01*
X186592297Y-92136724D01*
X186632500Y-92255978D01*
X186664342Y-92337018D01*
X186685048Y-92370921D01*
X186688102Y-92371022D01*
X186715680Y-92322420D01*
X186729466Y-92226946D01*
X186729479Y-92096165D01*
X186715744Y-91941641D01*
X186688282Y-91774940D01*
X186686948Y-91768420D01*
X186643457Y-91544646D01*
X186608118Y-91330464D01*
X186580092Y-91115679D01*
X186558545Y-90890099D01*
X186542640Y-90643529D01*
X186531542Y-90365777D01*
X186524413Y-90046650D01*
X186520922Y-89744265D01*
X186516243Y-89159559D01*
X186689067Y-89159559D01*
X186691951Y-89276222D01*
X186697907Y-89421483D01*
X186706412Y-89584919D01*
X186716946Y-89756106D01*
X186728984Y-89924623D01*
X186742006Y-90080045D01*
X186750274Y-90164596D01*
X186766953Y-90305521D01*
X186789113Y-90467117D01*
X186814783Y-90637596D01*
X186841993Y-90805170D01*
X186868771Y-90958051D01*
X186893145Y-91084451D01*
X186913144Y-91172582D01*
X186924702Y-91207672D01*
X186940913Y-91195479D01*
X186970648Y-91135342D01*
X187009844Y-91036735D01*
X187054438Y-90909128D01*
X187059924Y-90892424D01*
X187127469Y-90690996D01*
X187187873Y-90521849D01*
X187238850Y-90390734D01*
X187278114Y-90303403D01*
X187303382Y-90265608D01*
X187308963Y-90265551D01*
X187307954Y-90298059D01*
X187295994Y-90377580D01*
X187275067Y-90492489D01*
X187247154Y-90631161D01*
X187244340Y-90644535D01*
X187206005Y-90833826D01*
X187165176Y-91048017D01*
X187127790Y-91255418D01*
X187108556Y-91369076D01*
X187050107Y-91727345D01*
X187141341Y-91989292D01*
X187217683Y-92190161D01*
X187312085Y-92410429D01*
X187416595Y-92633553D01*
X187523264Y-92842988D01*
X187624141Y-93022191D01*
X187680457Y-93111107D01*
X187823629Y-93300724D01*
X187997371Y-93496060D01*
X188183480Y-93678212D01*
X188363753Y-93828278D01*
X188388729Y-93846541D01*
X188479598Y-93906292D01*
X188591498Y-93972125D01*
X188712438Y-94037975D01*
X188830428Y-94097779D01*
X188933477Y-94145473D01*
X189009595Y-94174993D01*
X189046791Y-94180276D01*
X189047520Y-94179693D01*
X189041993Y-94148480D01*
X189016031Y-94077217D01*
X188974917Y-93980116D01*
X188965783Y-93959819D01*
X188877142Y-93755831D01*
X188777428Y-93511657D01*
X188673170Y-93244523D01*
X188570894Y-92971651D01*
X188477129Y-92710266D01*
X188398402Y-92477593D01*
X188369466Y-92386345D01*
X188319432Y-92219101D01*
X188265448Y-92030079D01*
X188209943Y-91828717D01*
X188155348Y-91624451D01*
X188104091Y-91426717D01*
X188058601Y-91244954D01*
X188021310Y-91088597D01*
X187994645Y-90967084D01*
X187981036Y-90889850D01*
X187979800Y-90872736D01*
X187990747Y-90884239D01*
X188021282Y-90945609D01*
X188068825Y-91050905D01*
X188130795Y-91194189D01*
X188204610Y-91369523D01*
X188287689Y-91570967D01*
X188350576Y-91725825D01*
X188482424Y-92049859D01*
X188598349Y-92328060D01*
X188703246Y-92570916D01*
X188802013Y-92788915D01*
X188899547Y-92992547D01*
X189000744Y-93192299D01*
X189110501Y-93398661D01*
X189233716Y-93622121D01*
X189247029Y-93645922D01*
X189366779Y-93858237D01*
X189462296Y-94023213D01*
X189537550Y-94146521D01*
X189596511Y-94233836D01*
X189643149Y-94290829D01*
X189681435Y-94323173D01*
X189715339Y-94336540D01*
X189731339Y-94337882D01*
X189785753Y-94321889D01*
X189875414Y-94278724D01*
X189986346Y-94215609D01*
X190069728Y-94163057D01*
X190192112Y-94078852D01*
X190343678Y-93968783D01*
X190507496Y-93845448D01*
X190666633Y-93721443D01*
X190711016Y-93685926D01*
X190739797Y-93662350D01*
X192482161Y-93662350D01*
X192497172Y-93677362D01*
X192512184Y-93662350D01*
X192497172Y-93647338D01*
X192482161Y-93662350D01*
X190739797Y-93662350D01*
X190770784Y-93636967D01*
X192542208Y-93636967D01*
X192565159Y-93631280D01*
X192633761Y-93587291D01*
X192747642Y-93505265D01*
X192906427Y-93385465D01*
X192986951Y-93323535D01*
X193088062Y-93243220D01*
X193166726Y-93176488D01*
X193213708Y-93131451D01*
X193222488Y-93116665D01*
X193196043Y-93129386D01*
X193133163Y-93171820D01*
X193044201Y-93236045D01*
X192939515Y-93314141D01*
X192829459Y-93398188D01*
X192724390Y-93480266D01*
X192634663Y-93552454D01*
X192570634Y-93606831D01*
X192542658Y-93635478D01*
X192542208Y-93636967D01*
X190770784Y-93636967D01*
X190840243Y-93580070D01*
X190982126Y-93460993D01*
X191129789Y-93334784D01*
X191276359Y-93207530D01*
X191414961Y-93085319D01*
X191538719Y-92974238D01*
X191640760Y-92880376D01*
X191714209Y-92809821D01*
X191752191Y-92768660D01*
X191755625Y-92760876D01*
X191725592Y-92747715D01*
X191650325Y-92718302D01*
X191541015Y-92676924D01*
X191408853Y-92627870D01*
X191402100Y-92625386D01*
X190702814Y-92337617D01*
X190027776Y-91998398D01*
X189381041Y-91610728D01*
X188766663Y-91177602D01*
X188188697Y-90702016D01*
X187651198Y-90186969D01*
X187158219Y-89635455D01*
X186884081Y-89286404D01*
X186808266Y-89186902D01*
X186745738Y-89108638D01*
X186705022Y-89062081D01*
X186694605Y-89053721D01*
X186689778Y-89081918D01*
X186689067Y-89159559D01*
X186516243Y-89159559D01*
X186513112Y-88768496D01*
X186312369Y-88438236D01*
X185945959Y-87778116D01*
X185633122Y-87091429D01*
X185373748Y-86377842D01*
X185167726Y-85637020D01*
X185014944Y-84868631D01*
X184942511Y-84340009D01*
X184928514Y-84172807D01*
X184918135Y-83959387D01*
X184911374Y-83713470D01*
X184908231Y-83448776D01*
X184908707Y-83179026D01*
X184912801Y-82917940D01*
X184920513Y-82679239D01*
X184931844Y-82476643D01*
X184942511Y-82358449D01*
X185060324Y-81569972D01*
X185232164Y-80807679D01*
X185458088Y-80071434D01*
X185738150Y-79361101D01*
X186072408Y-78676543D01*
X186460917Y-78017623D01*
X186903734Y-77384206D01*
X187074879Y-77164359D01*
X187227727Y-76982265D01*
X187413911Y-76774570D01*
X187620805Y-76554315D01*
X187835783Y-76334539D01*
X188046218Y-76128285D01*
X188239485Y-75948591D01*
X188323886Y-75874366D01*
X188927723Y-75395046D01*
X189562617Y-74966663D01*
X190226291Y-74590210D01*
X190916466Y-74266679D01*
X191630866Y-73997063D01*
X192367212Y-73782354D01*
X193123227Y-73623544D01*
X193668094Y-73545568D01*
X193891529Y-73525351D01*
X194157860Y-73510418D01*
X194451505Y-73500891D01*
X194756877Y-73496888D01*
X195058392Y-73498531D01*
X195340466Y-73505941D01*
X195587513Y-73519236D01*
X195709702Y-73529804D01*
X196487227Y-73638675D01*
X197240583Y-73802441D01*
X197970410Y-74021367D01*
X198677349Y-74295717D01*
X199362039Y-74625756D01*
X200025120Y-75011747D01*
X200667232Y-75453956D01*
X201008875Y-75718957D01*
X201139927Y-75829944D01*
X201296242Y-75970595D01*
X201468709Y-76131925D01*
X201648217Y-76304944D01*
X201825656Y-76480664D01*
X201991915Y-76650098D01*
X202137884Y-76804258D01*
X202254452Y-76934155D01*
X202314903Y-77007409D01*
X202378422Y-77086537D01*
X202427266Y-77142568D01*
X202450009Y-77162822D01*
X202466615Y-77137229D01*
X202506793Y-77064205D01*
X202567268Y-76950030D01*
X202644767Y-76800985D01*
X202736014Y-76623349D01*
X202837737Y-76423404D01*
X202907226Y-76285835D01*
X203122684Y-75862516D01*
X203329895Y-75464071D01*
X203527065Y-75093606D01*
X203712398Y-74754230D01*
X203884098Y-74449048D01*
X204040372Y-74181168D01*
X204179422Y-73953696D01*
X204299454Y-73769739D01*
X204398673Y-73632405D01*
X204475283Y-73544799D01*
X204505434Y-73520030D01*
X204557570Y-73489098D01*
X204576269Y-73489315D01*
X204576269Y-73489315D01*
G37*
X204576269Y-73489315D02*
X204560547Y-73525503D01*
X204509416Y-73602482D01*
X204480081Y-73644018D01*
X204425205Y-73725021D01*
X204371438Y-73813931D01*
X204315406Y-73917860D01*
X204253736Y-74043918D01*
X204183053Y-74199213D01*
X204099984Y-74390857D01*
X204001155Y-74625959D01*
X203913169Y-74838706D01*
X203838340Y-75022403D01*
X203746050Y-75251999D01*
X203640301Y-75517309D01*
X203525093Y-75808152D01*
X203404429Y-76114343D01*
X203282309Y-76425701D01*
X203162734Y-76732041D01*
X203049706Y-77023182D01*
X202947226Y-77288940D01*
X202859294Y-77519132D01*
X202841798Y-77565316D01*
X202809389Y-77651024D01*
X202640985Y-77420425D01*
X202566527Y-77324016D01*
X202503654Y-77252840D01*
X202461066Y-77216219D01*
X202448950Y-77214622D01*
X202432149Y-77245274D01*
X202391539Y-77325474D01*
X202329351Y-77450661D01*
X202247816Y-77616275D01*
X202149165Y-77817757D01*
X202035628Y-78050546D01*
X201909437Y-78310082D01*
X201772822Y-78591805D01*
X201628014Y-78891156D01*
X201570226Y-79010813D01*
X201237527Y-79699626D01*
X200928801Y-80337942D01*
X200642227Y-80929488D01*
X200375981Y-81477991D01*
X200128240Y-81987178D01*
X199897183Y-82460775D01*
X199680986Y-82902509D01*
X199477827Y-83316107D01*
X199285883Y-83705297D01*
X199103330Y-84073804D01*
X198928347Y-84425355D01*
X198759111Y-84763678D01*
X198662778Y-84955494D01*
X198532215Y-85216634D01*
X198420725Y-85441124D01*
X198324344Y-85634118D01*
X198239107Y-85800770D01*
X198161047Y-85946237D01*
X198086201Y-86075672D01*
X198010603Y-86194229D01*
X197930288Y-86307064D01*
X197841290Y-86419331D01*
X197739645Y-86536185D01*
X197621388Y-86662780D01*
X197482552Y-86804272D01*
X197319175Y-86965814D01*
X197127289Y-87152561D01*
X196902930Y-87369668D01*
X196642133Y-87622290D01*
X196520340Y-87740649D01*
X196300659Y-87955604D01*
X196085736Y-88168153D01*
X195881178Y-88372597D01*
X195692595Y-88563234D01*
X195525592Y-88734365D01*
X195385780Y-88880287D01*
X195278764Y-88995302D01*
X195216472Y-89066064D01*
X195047057Y-89265260D01*
X194841623Y-89500800D01*
X194606177Y-89766139D01*
X194346729Y-90054734D01*
X194069285Y-90360041D01*
X193779856Y-90675516D01*
X193484449Y-90994616D01*
X193189072Y-91310796D01*
X192899734Y-91617512D01*
X192622443Y-91908221D01*
X192363207Y-92176379D01*
X192320788Y-92219842D01*
X192177321Y-92367031D01*
X192049222Y-92499254D01*
X191942028Y-92610730D01*
X191861274Y-92695678D01*
X191812498Y-92748318D01*
X191800252Y-92763324D01*
X191837155Y-92776472D01*
X191920766Y-92800527D01*
X192039379Y-92832505D01*
X192181282Y-92869420D01*
X192334768Y-92908289D01*
X192488127Y-92946126D01*
X192629650Y-92979948D01*
X192747628Y-93006768D01*
X192793208Y-93016433D01*
X192986030Y-93052791D01*
X193126163Y-93071940D01*
X193218337Y-93074230D01*
X193267285Y-93060013D01*
X193274533Y-93052129D01*
X193303218Y-93023829D01*
X193368123Y-92967583D01*
X193458356Y-92892677D01*
X193524000Y-92839524D01*
X193758165Y-92651679D01*
X193521224Y-92875155D01*
X193284283Y-93098632D01*
X193386118Y-93116857D01*
X193566617Y-93142964D01*
X193782959Y-93164113D01*
X194026944Y-93180361D01*
X194290377Y-93191771D01*
X194565061Y-93198401D01*
X194842797Y-93200312D01*
X195115389Y-93197563D01*
X195374640Y-93190216D01*
X195612352Y-93178329D01*
X195820328Y-93161962D01*
X195990372Y-93141177D01*
X196114285Y-93116032D01*
X196167975Y-93096493D01*
X196202306Y-93061070D01*
X196263069Y-92978746D01*
X196347027Y-92854826D01*
X196450940Y-92694613D01*
X196571573Y-92503411D01*
X196705687Y-92286526D01*
X196850044Y-92049261D01*
X197001407Y-91796920D01*
X197156537Y-91534808D01*
X197312197Y-91268229D01*
X197465149Y-91002487D01*
X197612155Y-90742887D01*
X197691913Y-90599938D01*
X197818475Y-90375606D01*
X197954403Y-90141396D01*
X198091773Y-89910501D01*
X198222662Y-89696115D01*
X198339143Y-89511431D01*
X198413201Y-89398993D01*
X198524003Y-89229806D01*
X198652683Y-89024252D01*
X198789111Y-88799079D01*
X198923155Y-88571035D01*
X199044686Y-88356867D01*
X199056845Y-88334893D01*
X199206054Y-88071288D01*
X199352780Y-87827655D01*
X199507576Y-87587616D01*
X199680999Y-87334793D01*
X199879161Y-87058888D01*
X200303509Y-86465996D01*
X200704504Y-85880221D01*
X201091470Y-85287116D01*
X201473728Y-84672236D01*
X201860600Y-84021132D01*
X202040372Y-83709513D01*
X202148246Y-83524146D01*
X202246409Y-83364141D01*
X202343710Y-83216959D01*
X202448996Y-83070062D01*
X202571116Y-82910913D01*
X202718918Y-82726974D01*
X202824315Y-82598638D01*
X202969778Y-82422192D01*
X203114467Y-82246192D01*
X203250180Y-82080654D01*
X203368711Y-81935596D01*
X203461856Y-81821033D01*
X203500628Y-81772988D01*
X203593939Y-81658040D01*
X203712081Y-81514307D01*
X203841018Y-81358776D01*
X203966716Y-81208434D01*
X203987498Y-81183728D01*
X204089843Y-81059805D01*
X204176685Y-80950095D01*
X204241242Y-80863532D01*
X204276729Y-80809049D01*
X204281451Y-80796658D01*
X204273442Y-80751572D01*
X204252831Y-80669635D01*
X204224748Y-80568493D01*
X204194320Y-80465794D01*
X204166676Y-80379185D01*
X204146945Y-80326315D01*
X204142563Y-80318714D01*
X204116348Y-80330871D01*
X204060014Y-80375487D01*
X203990150Y-80438809D01*
X203920862Y-80501247D01*
X203888426Y-80521936D01*
X203894715Y-80499714D01*
X203896369Y-80496983D01*
X203938345Y-80423996D01*
X203989985Y-80328136D01*
X204010359Y-80288738D01*
X204051331Y-80211724D01*
X204076459Y-80181819D01*
X204096244Y-80192173D01*
X204113481Y-80221462D01*
X204129639Y-80246028D01*
X204150047Y-80254446D01*
X204182422Y-80241892D01*
X204234480Y-80203538D01*
X204313941Y-80134561D01*
X204428522Y-80030134D01*
X204447787Y-80012428D01*
X204787604Y-79702613D01*
X205090338Y-79432413D01*
X205360463Y-79198098D01*
X205602450Y-78995938D01*
X205820771Y-78822201D01*
X206019901Y-78673159D01*
X206204310Y-78545080D01*
X206217976Y-78536014D01*
X206462396Y-78384669D01*
X206671546Y-78276936D01*
X206844386Y-78213181D01*
X206979875Y-78193776D01*
X207076974Y-78219087D01*
X207088662Y-78227145D01*
X207120713Y-78255219D01*
X207114746Y-78268929D01*
X207062065Y-78273620D01*
X207011975Y-78274279D01*
X206878123Y-78294131D01*
X206745317Y-78357659D01*
X206739403Y-78361379D01*
X206634244Y-78435680D01*
X206498045Y-78543118D01*
X206341871Y-78674018D01*
X206176788Y-78818708D01*
X206013862Y-78967512D01*
X205864160Y-79110757D01*
X205752610Y-79224045D01*
X205659967Y-79322797D01*
X205542607Y-79449405D01*
X205406691Y-79597081D01*
X205258380Y-79759037D01*
X205103834Y-79928487D01*
X204949213Y-80098644D01*
X204800678Y-80262720D01*
X204664390Y-80413928D01*
X204546509Y-80545482D01*
X204453195Y-80650593D01*
X204390609Y-80722475D01*
X204370078Y-80747200D01*
X204303904Y-80831327D01*
X204385109Y-81197075D01*
X204451815Y-81514755D01*
X204503683Y-81805493D01*
X204542675Y-82086260D01*
X204570754Y-82374032D01*
X204589883Y-82685781D01*
X204602024Y-83038482D01*
X204603050Y-83081933D01*
X204606813Y-83570029D01*
X204593729Y-84015584D01*
X204562242Y-84434122D01*
X204510797Y-84841171D01*
X204437836Y-85252256D01*
X204342795Y-85678818D01*
X204134967Y-86410668D01*
X203872230Y-87120816D01*
X203556700Y-87806377D01*
X203190491Y-88464467D01*
X202775717Y-89092200D01*
X202314493Y-89686693D01*
X201808933Y-90245061D01*
X201261152Y-90764418D01*
X200673264Y-91241881D01*
X200047384Y-91674565D01*
X199864819Y-91787783D01*
X199241742Y-92133676D01*
X198589962Y-92436249D01*
X197919466Y-92691741D01*
X197240240Y-92896388D01*
X196562273Y-93046428D01*
X196490317Y-93059075D01*
X196332490Y-93091200D01*
X196230655Y-93124334D01*
X196181537Y-93158675D01*
X196154301Y-93197513D01*
X196098193Y-93278410D01*
X196018345Y-93393934D01*
X195919891Y-93536654D01*
X195807963Y-93699137D01*
X195719651Y-93827480D01*
X195390166Y-94295248D01*
X195080214Y-94711272D01*
X194786415Y-95079312D01*
X194505387Y-95403125D01*
X194233750Y-95686473D01*
X193968124Y-95933113D01*
X193705127Y-96146806D01*
X193506645Y-96288338D01*
X193331714Y-96395146D01*
X193130332Y-96501003D01*
X192921602Y-96597066D01*
X192724626Y-96674495D01*
X192570698Y-96721551D01*
X192324482Y-96765265D01*
X192058053Y-96784705D01*
X191797582Y-96778972D01*
X191605675Y-96754644D01*
X191249882Y-96656712D01*
X190908889Y-96500696D01*
X190583154Y-96286821D01*
X190470399Y-96196285D01*
X190383367Y-96128510D01*
X190312522Y-96093330D01*
X190231977Y-96080498D01*
X190174731Y-96079253D01*
X189772378Y-96055672D01*
X189364119Y-95987572D01*
X189267025Y-95961220D01*
X191485850Y-95961220D01*
X191527415Y-95987291D01*
X191566440Y-95999478D01*
X191623385Y-96006029D01*
X191721881Y-96009240D01*
X191843499Y-96008633D01*
X191881688Y-96007637D01*
X192056825Y-95994992D01*
X192201340Y-95965901D01*
X192325401Y-95922509D01*
X192528348Y-95829845D01*
X192709971Y-95723730D01*
X192886463Y-95593040D01*
X193074015Y-95426653D01*
X193140506Y-95362591D01*
X193238629Y-95264842D01*
X193311561Y-95188778D01*
X193353899Y-95140335D01*
X193360240Y-95125446D01*
X193352846Y-95129331D01*
X193042525Y-95322066D01*
X192774390Y-95475763D01*
X192546156Y-95591729D01*
X192535233Y-95596800D01*
X192374111Y-95665860D01*
X192189580Y-95736433D01*
X191998331Y-95802908D01*
X191817057Y-95859671D01*
X191662449Y-95901108D01*
X191581078Y-95917665D01*
X191503847Y-95937396D01*
X191485850Y-95961220D01*
X189267025Y-95961220D01*
X188963783Y-95878918D01*
X188585204Y-95733677D01*
X188242213Y-95555811D01*
X188152826Y-95499646D01*
X188049439Y-95439491D01*
X187947815Y-95392736D01*
X187888544Y-95374025D01*
X187810368Y-95350800D01*
X187700493Y-95308848D01*
X187580769Y-95256608D01*
X187563307Y-95248405D01*
X187323131Y-95101643D01*
X187322741Y-95101277D01*
X190246525Y-95101277D01*
X190256484Y-95125080D01*
X190284548Y-95157264D01*
X190291171Y-95164315D01*
X190328732Y-95201354D01*
X190366060Y-95224253D01*
X190414766Y-95233363D01*
X190486460Y-95229034D01*
X190592752Y-95211616D01*
X190745254Y-95181460D01*
X190760002Y-95178466D01*
X190882694Y-95151109D01*
X191023255Y-95115917D01*
X191170819Y-95076103D01*
X191314519Y-95034882D01*
X191443488Y-94995467D01*
X191546861Y-94961072D01*
X191613770Y-94934911D01*
X191633350Y-94920198D01*
X191633327Y-94920175D01*
X191600854Y-94920051D01*
X191523671Y-94929165D01*
X191416090Y-94945702D01*
X191370268Y-94953545D01*
X191239286Y-94973473D01*
X191070430Y-94994724D01*
X190885748Y-95014721D01*
X190711804Y-95030523D01*
X190526882Y-95045615D01*
X190394850Y-95058024D01*
X190308751Y-95069962D01*
X190261628Y-95083642D01*
X190246525Y-95101277D01*
X187322741Y-95101277D01*
X187114879Y-94906221D01*
X186940563Y-94665543D01*
X186802191Y-94383015D01*
X186701774Y-94062039D01*
X186641320Y-93706023D01*
X186638877Y-93682309D01*
X186617752Y-93553204D01*
X186580650Y-93400114D01*
X186535232Y-93254253D01*
X186530805Y-93242019D01*
X186413286Y-92880309D01*
X186398165Y-92821688D01*
X186983228Y-92821688D01*
X186996325Y-93036438D01*
X187009595Y-93167212D01*
X187036619Y-93274430D01*
X187086036Y-93386610D01*
X187123670Y-93456769D01*
X187379150Y-93870004D01*
X187656533Y-94228978D01*
X187957729Y-94536048D01*
X188083697Y-94643573D01*
X188263839Y-94789508D01*
X188458993Y-94770899D01*
X188560648Y-94759666D01*
X188635651Y-94748488D01*
X188666656Y-94740240D01*
X188673089Y-94732156D01*
X188667358Y-94721496D01*
X188640026Y-94701577D01*
X188581654Y-94665716D01*
X188482803Y-94607228D01*
X188458993Y-94593198D01*
X188130854Y-94372094D01*
X187836212Y-94113550D01*
X187570268Y-93812215D01*
X187328228Y-93462742D01*
X187132462Y-93113613D01*
X186983228Y-92821688D01*
X186398165Y-92821688D01*
X186306480Y-92466246D01*
X186211832Y-92006801D01*
X186130786Y-91508948D01*
X186067544Y-91005258D01*
X186053749Y-90848057D01*
X186042175Y-90656791D01*
X186032885Y-90440567D01*
X186025943Y-90208495D01*
X186021413Y-89969683D01*
X186019358Y-89733239D01*
X186019842Y-89508272D01*
X186022929Y-89303890D01*
X186028683Y-89129202D01*
X186037167Y-88993316D01*
X186048446Y-88905341D01*
X186052722Y-88888591D01*
X186069271Y-88843172D01*
X186078465Y-88840872D01*
X186082890Y-88887755D01*
X186084715Y-88963650D01*
X186094463Y-89202187D01*
X186115472Y-89485455D01*
X186145966Y-89799569D01*
X186184172Y-90130644D01*
X186228312Y-90464796D01*
X186276613Y-90788140D01*
X186327297Y-91086793D01*
X186378590Y-91346868D01*
X186403425Y-91456084D01*
X186449298Y-91638938D01*
X186497919Y-91819279D01*
X186546511Y-91988183D01*
X186592297Y-92136724D01*
X186632500Y-92255978D01*
X186664342Y-92337018D01*
X186685048Y-92370921D01*
X186688102Y-92371022D01*
X186715680Y-92322420D01*
X186729466Y-92226946D01*
X186729479Y-92096165D01*
X186715744Y-91941641D01*
X186688282Y-91774940D01*
X186686948Y-91768420D01*
X186643457Y-91544646D01*
X186608118Y-91330464D01*
X186580092Y-91115679D01*
X186558545Y-90890099D01*
X186542640Y-90643529D01*
X186531542Y-90365777D01*
X186524413Y-90046650D01*
X186520922Y-89744265D01*
X186516243Y-89159559D01*
X186689067Y-89159559D01*
X186691951Y-89276222D01*
X186697907Y-89421483D01*
X186706412Y-89584919D01*
X186716946Y-89756106D01*
X186728984Y-89924623D01*
X186742006Y-90080045D01*
X186750274Y-90164596D01*
X186766953Y-90305521D01*
X186789113Y-90467117D01*
X186814783Y-90637596D01*
X186841993Y-90805170D01*
X186868771Y-90958051D01*
X186893145Y-91084451D01*
X186913144Y-91172582D01*
X186924702Y-91207672D01*
X186940913Y-91195479D01*
X186970648Y-91135342D01*
X187009844Y-91036735D01*
X187054438Y-90909128D01*
X187059924Y-90892424D01*
X187127469Y-90690996D01*
X187187873Y-90521849D01*
X187238850Y-90390734D01*
X187278114Y-90303403D01*
X187303382Y-90265608D01*
X187308963Y-90265551D01*
X187307954Y-90298059D01*
X187295994Y-90377580D01*
X187275067Y-90492489D01*
X187247154Y-90631161D01*
X187244340Y-90644535D01*
X187206005Y-90833826D01*
X187165176Y-91048017D01*
X187127790Y-91255418D01*
X187108556Y-91369076D01*
X187050107Y-91727345D01*
X187141341Y-91989292D01*
X187217683Y-92190161D01*
X187312085Y-92410429D01*
X187416595Y-92633553D01*
X187523264Y-92842988D01*
X187624141Y-93022191D01*
X187680457Y-93111107D01*
X187823629Y-93300724D01*
X187997371Y-93496060D01*
X188183480Y-93678212D01*
X188363753Y-93828278D01*
X188388729Y-93846541D01*
X188479598Y-93906292D01*
X188591498Y-93972125D01*
X188712438Y-94037975D01*
X188830428Y-94097779D01*
X188933477Y-94145473D01*
X189009595Y-94174993D01*
X189046791Y-94180276D01*
X189047520Y-94179693D01*
X189041993Y-94148480D01*
X189016031Y-94077217D01*
X188974917Y-93980116D01*
X188965783Y-93959819D01*
X188877142Y-93755831D01*
X188777428Y-93511657D01*
X188673170Y-93244523D01*
X188570894Y-92971651D01*
X188477129Y-92710266D01*
X188398402Y-92477593D01*
X188369466Y-92386345D01*
X188319432Y-92219101D01*
X188265448Y-92030079D01*
X188209943Y-91828717D01*
X188155348Y-91624451D01*
X188104091Y-91426717D01*
X188058601Y-91244954D01*
X188021310Y-91088597D01*
X187994645Y-90967084D01*
X187981036Y-90889850D01*
X187979800Y-90872736D01*
X187990747Y-90884239D01*
X188021282Y-90945609D01*
X188068825Y-91050905D01*
X188130795Y-91194189D01*
X188204610Y-91369523D01*
X188287689Y-91570967D01*
X188350576Y-91725825D01*
X188482424Y-92049859D01*
X188598349Y-92328060D01*
X188703246Y-92570916D01*
X188802013Y-92788915D01*
X188899547Y-92992547D01*
X189000744Y-93192299D01*
X189110501Y-93398661D01*
X189233716Y-93622121D01*
X189247029Y-93645922D01*
X189366779Y-93858237D01*
X189462296Y-94023213D01*
X189537550Y-94146521D01*
X189596511Y-94233836D01*
X189643149Y-94290829D01*
X189681435Y-94323173D01*
X189715339Y-94336540D01*
X189731339Y-94337882D01*
X189785753Y-94321889D01*
X189875414Y-94278724D01*
X189986346Y-94215609D01*
X190069728Y-94163057D01*
X190192112Y-94078852D01*
X190343678Y-93968783D01*
X190507496Y-93845448D01*
X190666633Y-93721443D01*
X190711016Y-93685926D01*
X190739797Y-93662350D01*
X192482161Y-93662350D01*
X192497172Y-93677362D01*
X192512184Y-93662350D01*
X192497172Y-93647338D01*
X192482161Y-93662350D01*
X190739797Y-93662350D01*
X190770784Y-93636967D01*
X192542208Y-93636967D01*
X192565159Y-93631280D01*
X192633761Y-93587291D01*
X192747642Y-93505265D01*
X192906427Y-93385465D01*
X192986951Y-93323535D01*
X193088062Y-93243220D01*
X193166726Y-93176488D01*
X193213708Y-93131451D01*
X193222488Y-93116665D01*
X193196043Y-93129386D01*
X193133163Y-93171820D01*
X193044201Y-93236045D01*
X192939515Y-93314141D01*
X192829459Y-93398188D01*
X192724390Y-93480266D01*
X192634663Y-93552454D01*
X192570634Y-93606831D01*
X192542658Y-93635478D01*
X192542208Y-93636967D01*
X190770784Y-93636967D01*
X190840243Y-93580070D01*
X190982126Y-93460993D01*
X191129789Y-93334784D01*
X191276359Y-93207530D01*
X191414961Y-93085319D01*
X191538719Y-92974238D01*
X191640760Y-92880376D01*
X191714209Y-92809821D01*
X191752191Y-92768660D01*
X191755625Y-92760876D01*
X191725592Y-92747715D01*
X191650325Y-92718302D01*
X191541015Y-92676924D01*
X191408853Y-92627870D01*
X191402100Y-92625386D01*
X190702814Y-92337617D01*
X190027776Y-91998398D01*
X189381041Y-91610728D01*
X188766663Y-91177602D01*
X188188697Y-90702016D01*
X187651198Y-90186969D01*
X187158219Y-89635455D01*
X186884081Y-89286404D01*
X186808266Y-89186902D01*
X186745738Y-89108638D01*
X186705022Y-89062081D01*
X186694605Y-89053721D01*
X186689778Y-89081918D01*
X186689067Y-89159559D01*
X186516243Y-89159559D01*
X186513112Y-88768496D01*
X186312369Y-88438236D01*
X185945959Y-87778116D01*
X185633122Y-87091429D01*
X185373748Y-86377842D01*
X185167726Y-85637020D01*
X185014944Y-84868631D01*
X184942511Y-84340009D01*
X184928514Y-84172807D01*
X184918135Y-83959387D01*
X184911374Y-83713470D01*
X184908231Y-83448776D01*
X184908707Y-83179026D01*
X184912801Y-82917940D01*
X184920513Y-82679239D01*
X184931844Y-82476643D01*
X184942511Y-82358449D01*
X185060324Y-81569972D01*
X185232164Y-80807679D01*
X185458088Y-80071434D01*
X185738150Y-79361101D01*
X186072408Y-78676543D01*
X186460917Y-78017623D01*
X186903734Y-77384206D01*
X187074879Y-77164359D01*
X187227727Y-76982265D01*
X187413911Y-76774570D01*
X187620805Y-76554315D01*
X187835783Y-76334539D01*
X188046218Y-76128285D01*
X188239485Y-75948591D01*
X188323886Y-75874366D01*
X188927723Y-75395046D01*
X189562617Y-74966663D01*
X190226291Y-74590210D01*
X190916466Y-74266679D01*
X191630866Y-73997063D01*
X192367212Y-73782354D01*
X193123227Y-73623544D01*
X193668094Y-73545568D01*
X193891529Y-73525351D01*
X194157860Y-73510418D01*
X194451505Y-73500891D01*
X194756877Y-73496888D01*
X195058392Y-73498531D01*
X195340466Y-73505941D01*
X195587513Y-73519236D01*
X195709702Y-73529804D01*
X196487227Y-73638675D01*
X197240583Y-73802441D01*
X197970410Y-74021367D01*
X198677349Y-74295717D01*
X199362039Y-74625756D01*
X200025120Y-75011747D01*
X200667232Y-75453956D01*
X201008875Y-75718957D01*
X201139927Y-75829944D01*
X201296242Y-75970595D01*
X201468709Y-76131925D01*
X201648217Y-76304944D01*
X201825656Y-76480664D01*
X201991915Y-76650098D01*
X202137884Y-76804258D01*
X202254452Y-76934155D01*
X202314903Y-77007409D01*
X202378422Y-77086537D01*
X202427266Y-77142568D01*
X202450009Y-77162822D01*
X202466615Y-77137229D01*
X202506793Y-77064205D01*
X202567268Y-76950030D01*
X202644767Y-76800985D01*
X202736014Y-76623349D01*
X202837737Y-76423404D01*
X202907226Y-76285835D01*
X203122684Y-75862516D01*
X203329895Y-75464071D01*
X203527065Y-75093606D01*
X203712398Y-74754230D01*
X203884098Y-74449048D01*
X204040372Y-74181168D01*
X204179422Y-73953696D01*
X204299454Y-73769739D01*
X204398673Y-73632405D01*
X204475283Y-73544799D01*
X204505434Y-73520030D01*
X204557570Y-73489098D01*
X204576269Y-73489315D01*
G04 #@! TO.C,REF\002A\002A*
D10*
X181403714Y-117514666D02*
X181879904Y-117514666D01*
X181308476Y-117800380D02*
X181641809Y-116800380D01*
X181975142Y-117800380D01*
X182260857Y-116895619D02*
X182308476Y-116848000D01*
X182403714Y-116800380D01*
X182641809Y-116800380D01*
X182737047Y-116848000D01*
X182784666Y-116895619D01*
X182832285Y-116990857D01*
X182832285Y-117086095D01*
X182784666Y-117228952D01*
X182213238Y-117800380D01*
X182832285Y-117800380D01*
X181713238Y-114482571D02*
X181856095Y-114530190D01*
X181903714Y-114577809D01*
X181951333Y-114673047D01*
X181951333Y-114815904D01*
X181903714Y-114911142D01*
X181856095Y-114958761D01*
X181760857Y-115006380D01*
X181379904Y-115006380D01*
X181379904Y-114006380D01*
X181713238Y-114006380D01*
X181808476Y-114054000D01*
X181856095Y-114101619D01*
X181903714Y-114196857D01*
X181903714Y-114292095D01*
X181856095Y-114387333D01*
X181808476Y-114434952D01*
X181713238Y-114482571D01*
X181379904Y-114482571D01*
X182332285Y-114101619D02*
X182379904Y-114054000D01*
X182475142Y-114006380D01*
X182713238Y-114006380D01*
X182808476Y-114054000D01*
X182856095Y-114101619D01*
X182903714Y-114196857D01*
X182903714Y-114292095D01*
X182856095Y-114434952D01*
X182284666Y-115006380D01*
X182903714Y-115006380D01*
X180617904Y-71826380D02*
X180617904Y-70826380D01*
X180856000Y-70826380D01*
X180998857Y-70874000D01*
X181094095Y-70969238D01*
X181141714Y-71064476D01*
X181189333Y-71254952D01*
X181189333Y-71397809D01*
X181141714Y-71588285D01*
X181094095Y-71683523D01*
X180998857Y-71778761D01*
X180856000Y-71826380D01*
X180617904Y-71826380D01*
X181570285Y-70921619D02*
X181617904Y-70874000D01*
X181713142Y-70826380D01*
X181951238Y-70826380D01*
X182046476Y-70874000D01*
X182094095Y-70921619D01*
X182141714Y-71016857D01*
X182141714Y-71112095D01*
X182094095Y-71254952D01*
X181522666Y-71826380D01*
X182141714Y-71826380D01*
X181189333Y-74525142D02*
X181141714Y-74572761D01*
X180998857Y-74620380D01*
X180903619Y-74620380D01*
X180760761Y-74572761D01*
X180665523Y-74477523D01*
X180617904Y-74382285D01*
X180570285Y-74191809D01*
X180570285Y-74048952D01*
X180617904Y-73858476D01*
X180665523Y-73763238D01*
X180760761Y-73668000D01*
X180903619Y-73620380D01*
X180998857Y-73620380D01*
X181141714Y-73668000D01*
X181189333Y-73715619D01*
X181570285Y-73715619D02*
X181617904Y-73668000D01*
X181713142Y-73620380D01*
X181951238Y-73620380D01*
X182046476Y-73668000D01*
X182094095Y-73715619D01*
X182141714Y-73810857D01*
X182141714Y-73906095D01*
X182094095Y-74048952D01*
X181522666Y-74620380D01*
X182141714Y-74620380D01*
X180546476Y-112228380D02*
X181213142Y-113228380D01*
X181213142Y-112228380D02*
X180546476Y-113228380D01*
X182022666Y-112228380D02*
X181832190Y-112228380D01*
X181736952Y-112276000D01*
X181689333Y-112323619D01*
X181594095Y-112466476D01*
X181546476Y-112656952D01*
X181546476Y-113037904D01*
X181594095Y-113133142D01*
X181641714Y-113180761D01*
X181736952Y-113228380D01*
X181927428Y-113228380D01*
X182022666Y-113180761D01*
X182070285Y-113133142D01*
X182117904Y-113037904D01*
X182117904Y-112799809D01*
X182070285Y-112704571D01*
X182022666Y-112656952D01*
X181927428Y-112609333D01*
X181736952Y-112609333D01*
X181641714Y-112656952D01*
X181594095Y-112704571D01*
X181546476Y-112799809D01*
X180546476Y-75652380D02*
X181213142Y-76652380D01*
X181213142Y-75652380D02*
X180546476Y-76652380D01*
X181498857Y-75652380D02*
X182165523Y-75652380D01*
X181736952Y-76652380D01*
X156495714Y-113228380D02*
X155924285Y-113228380D01*
X156210000Y-113228380D02*
X156210000Y-112228380D01*
X156114761Y-112371238D01*
X156019523Y-112466476D01*
X155924285Y-112514095D01*
X156495714Y-76652380D02*
X155924285Y-76652380D01*
X156210000Y-76652380D02*
X156210000Y-75652380D01*
X156114761Y-75795238D01*
X156019523Y-75890476D01*
X155924285Y-75938095D01*
G04 #@! TD*
M02*
