G04 #@! TF.GenerationSoftware,KiCad,Pcbnew,(5.0.0)*
G04 #@! TF.CreationDate,2018-10-11T16:39:52-05:00*
G04 #@! TF.ProjectId,StandardBoard_HalfTiva,5374616E64617264426F6172645F4861,rev?*
G04 #@! TF.SameCoordinates,Original*
G04 #@! TF.FileFunction,Copper,L2,Bot,Signal*
G04 #@! TF.FilePolarity,Positive*
%FSLAX46Y46*%
G04 Gerber Fmt 4.6, Leading zero omitted, Abs format (unit mm)*
G04 Created by KiCad (PCBNEW (5.0.0)) date 10/11/18 16:39:52*
%MOMM*%
%LPD*%
G01*
G04 APERTURE LIST*
G04 #@! TA.AperFunction,ComponentPad*
%ADD10C,1.520000*%
G04 #@! TD*
G04 #@! TA.AperFunction,NonConductor*
%ADD11C,0.254000*%
G04 #@! TD*
G04 APERTURE END LIST*
D10*
G04 #@! TO.P,REF\002A\002A,PP5*
G04 #@! TO.N,N/C*
X161290000Y-71628000D03*
G04 #@! TO.P,REF\002A\002A,PM7*
X158750000Y-71628000D03*
G04 #@! TO.P,REF\002A\002A,GND*
X156210000Y-71628000D03*
G04 #@! TO.P,REF\002A\002A,PK7*
X179070000Y-74168000D03*
G04 #@! TO.P,REF\002A\002A,PK6*
X176530000Y-74168000D03*
G04 #@! TO.P,REF\002A\002A,PH1*
X173990000Y-74168000D03*
G04 #@! TO.P,REF\002A\002A,PH0*
X171450000Y-74168000D03*
G04 #@! TO.P,REF\002A\002A,PM2*
X168910000Y-74168000D03*
G04 #@! TO.P,REF\002A\002A,PM1*
X166370000Y-74168000D03*
G04 #@! TO.P,REF\002A\002A,PM0*
X163830000Y-74168000D03*
G04 #@! TO.P,REF\002A\002A,PK5*
X161290000Y-74168000D03*
G04 #@! TO.P,REF\002A\002A,PK4*
X158750000Y-74168000D03*
G04 #@! TO.P,REF\002A\002A,PG1*
X156210000Y-74168000D03*
G04 #@! TO.P,REF\002A\002A,PN4*
X179070000Y-117348000D03*
G04 #@! TO.P,REF\002A\002A,PP4*
X173990000Y-117348000D03*
G04 #@! TO.P,REF\002A\002A,PD5*
X168910000Y-117348000D03*
G04 #@! TO.P,REF\002A\002A,PD4*
X166370000Y-117348000D03*
G04 #@! TO.P,REF\002A\002A,PP1*
X163830000Y-117348000D03*
G04 #@! TO.P,REF\002A\002A,PP0*
X161290000Y-117348000D03*
G04 #@! TO.P,REF\002A\002A,PD2*
X158750000Y-117348000D03*
G04 #@! TO.P,REF\002A\002A,PA5*
X179070000Y-114808000D03*
G04 #@! TO.P,REF\002A\002A,PK3*
X173990000Y-114808000D03*
G04 #@! TO.P,REF\002A\002A,PB5*
X163830000Y-114808000D03*
G04 #@! TO.P,REF\002A\002A,PB4*
X161290000Y-114808000D03*
G04 #@! TO.P,REF\002A\002A,GND*
X158750000Y-114808000D03*
G04 #@! TO.P,REF\002A\002A,+5V*
X156210000Y-114808000D03*
G04 #@! TO.P,REF\002A\002A,PK1*
X168910000Y-114808000D03*
G04 #@! TO.P,REF\002A\002A,PK2*
X171450000Y-114808000D03*
G04 #@! TO.P,REF\002A\002A,PN5*
X176530000Y-117348000D03*
G04 #@! TO.P,REF\002A\002A,PA7*
X163830000Y-71628000D03*
G04 #@! TO.P,REF\002A\002A,Rese*
X166370000Y-71628000D03*
G04 #@! TO.P,REF\002A\002A,PA4*
X176530000Y-114808000D03*
G04 #@! TO.P,REF\002A\002A,PQ0*
X171450000Y-117348000D03*
G04 #@! TO.P,REF\002A\002A,PP3*
X173990000Y-71628000D03*
G04 #@! TO.P,REF\002A\002A,PQ3*
X171450000Y-71628000D03*
G04 #@! TO.P,REF\002A\002A,PK0*
X166370000Y-114808000D03*
G04 #@! TO.P,REF\002A\002A,PQ2*
X168910000Y-71628000D03*
G04 #@! TO.P,REF\002A\002A,PQ1*
X176530000Y-71628000D03*
G04 #@! TO.P,REF\002A\002A,PM6*
X179070000Y-71628000D03*
G04 #@! TO.P,REF\002A\002A,+3V3*
X156210000Y-117348000D03*
G04 #@! TD*
D11*
G36*
X214237009Y-44966090D02*
X214576352Y-45120381D01*
X214858752Y-45363712D01*
X215061506Y-45676523D01*
X215175348Y-46057184D01*
X215190000Y-46254350D01*
X215190001Y-58350074D01*
X215190000Y-96215419D01*
X215129910Y-96635009D01*
X214975619Y-96974352D01*
X214732288Y-97256752D01*
X214419479Y-97459506D01*
X214038815Y-97573348D01*
X213841649Y-97588000D01*
X198189926Y-97588000D01*
X198120000Y-97574091D01*
X198050075Y-97588000D01*
X198050074Y-97588000D01*
X197842972Y-97629195D01*
X197608119Y-97786119D01*
X197451195Y-98020972D01*
X197396091Y-98298000D01*
X197410001Y-98367931D01*
X197410000Y-119056074D01*
X197396091Y-119126000D01*
X197451195Y-119403028D01*
X197608119Y-119637881D01*
X197842972Y-119794805D01*
X198002571Y-119826551D01*
X198120000Y-119849909D01*
X198189925Y-119836000D01*
X213817419Y-119836000D01*
X214237009Y-119896090D01*
X214576352Y-120050381D01*
X214858752Y-120293712D01*
X215061506Y-120606523D01*
X215175348Y-120987184D01*
X215190001Y-121184363D01*
X215190000Y-128689760D01*
X214844241Y-128793164D01*
X214756769Y-128833582D01*
X214668806Y-128872929D01*
X214661502Y-128877601D01*
X214661498Y-128877603D01*
X214661499Y-128877603D01*
X214178040Y-129190966D01*
X214105447Y-129254293D01*
X214032045Y-129316763D01*
X214026343Y-129323300D01*
X213650266Y-129759759D01*
X213598347Y-129840942D01*
X213545446Y-129921475D01*
X213541808Y-129929350D01*
X213303347Y-130453817D01*
X213276300Y-130546309D01*
X213248129Y-130638452D01*
X213246847Y-130647031D01*
X213165171Y-131217346D01*
X213165171Y-131289766D01*
X213159362Y-131361963D01*
X213159952Y-131370618D01*
X213182272Y-131670966D01*
X213197826Y-131741711D01*
X213207654Y-131813455D01*
X213210088Y-131821781D01*
X213375164Y-132373758D01*
X213415591Y-132461250D01*
X213454930Y-132549194D01*
X213459603Y-132556501D01*
X213772966Y-133039961D01*
X213836328Y-133112594D01*
X213898763Y-133185955D01*
X213905296Y-133191654D01*
X213905300Y-133191658D01*
X213905305Y-133191661D01*
X214341759Y-133567734D01*
X214422942Y-133619653D01*
X214503475Y-133672554D01*
X214511346Y-133676190D01*
X214511349Y-133676192D01*
X214511352Y-133676193D01*
X215035817Y-133914653D01*
X215128309Y-133941700D01*
X215190001Y-133960561D01*
X215190000Y-141935418D01*
X215129910Y-142355009D01*
X214975619Y-142694352D01*
X214732288Y-142976752D01*
X214419479Y-143179506D01*
X214038815Y-143293348D01*
X213841649Y-143308000D01*
X157022581Y-143308000D01*
X156602991Y-143247910D01*
X156263648Y-143093619D01*
X155981248Y-142850288D01*
X155778494Y-142537479D01*
X155664652Y-142156815D01*
X155650000Y-141959649D01*
X155650000Y-133946239D01*
X155995758Y-133842836D01*
X156083250Y-133802409D01*
X156171194Y-133763070D01*
X156178498Y-133758399D01*
X156178502Y-133758397D01*
X156661961Y-133445034D01*
X156734594Y-133381672D01*
X156807955Y-133319237D01*
X156813654Y-133312704D01*
X156813658Y-133312700D01*
X156813661Y-133312695D01*
X157189734Y-132876241D01*
X157241653Y-132795058D01*
X157294554Y-132714525D01*
X157298192Y-132706650D01*
X157536653Y-132182183D01*
X157563700Y-132089691D01*
X157591871Y-131997548D01*
X157593153Y-131988969D01*
X157674829Y-131418653D01*
X157674829Y-131346233D01*
X157680638Y-131274036D01*
X157680048Y-131265382D01*
X157657728Y-130965033D01*
X157642174Y-130894288D01*
X157632346Y-130822544D01*
X157629912Y-130814219D01*
X157464836Y-130262241D01*
X157424418Y-130174769D01*
X157385071Y-130086806D01*
X157380397Y-130079499D01*
X157067034Y-129596040D01*
X157003707Y-129523447D01*
X156941237Y-129450045D01*
X156934700Y-129444343D01*
X156498241Y-129068266D01*
X156417058Y-129016347D01*
X156336525Y-128963446D01*
X156328654Y-128959810D01*
X156328651Y-128959808D01*
X156328648Y-128959807D01*
X155804183Y-128721347D01*
X155711691Y-128694300D01*
X155650000Y-128675439D01*
X155650000Y-118629346D01*
X155708493Y-118650206D01*
X155932517Y-118743000D01*
X155968696Y-118743000D01*
X156002780Y-118755155D01*
X156245001Y-118743000D01*
X156487483Y-118743000D01*
X156520909Y-118729155D01*
X156557049Y-118727341D01*
X156939941Y-118568742D01*
X156944210Y-118553817D01*
X157000204Y-118530624D01*
X157392624Y-118138204D01*
X157415817Y-118082210D01*
X157430742Y-118077941D01*
X157476320Y-117950137D01*
X157529258Y-118077941D01*
X157544183Y-118082210D01*
X157567376Y-118138204D01*
X157959796Y-118530624D01*
X158015790Y-118553817D01*
X158020059Y-118568742D01*
X158248493Y-118650206D01*
X158472517Y-118743000D01*
X158508696Y-118743000D01*
X158542780Y-118755155D01*
X158785001Y-118743000D01*
X159027483Y-118743000D01*
X159060909Y-118729155D01*
X159097049Y-118727341D01*
X159479941Y-118568742D01*
X159484210Y-118553817D01*
X159540204Y-118530624D01*
X159932624Y-118138204D01*
X159955817Y-118082210D01*
X159970742Y-118077941D01*
X160016320Y-117950137D01*
X160069258Y-118077941D01*
X160084183Y-118082210D01*
X160107376Y-118138204D01*
X160499796Y-118530624D01*
X160555790Y-118553817D01*
X160560059Y-118568742D01*
X160788493Y-118650206D01*
X161012517Y-118743000D01*
X161048696Y-118743000D01*
X161082780Y-118755155D01*
X161325001Y-118743000D01*
X161567483Y-118743000D01*
X161600909Y-118729155D01*
X161637049Y-118727341D01*
X162019941Y-118568742D01*
X162024210Y-118553817D01*
X162080204Y-118530624D01*
X162472624Y-118138204D01*
X162495817Y-118082210D01*
X162510742Y-118077941D01*
X162556320Y-117950137D01*
X162609258Y-118077941D01*
X162624183Y-118082210D01*
X162647376Y-118138204D01*
X163039796Y-118530624D01*
X163095790Y-118553817D01*
X163100059Y-118568742D01*
X163328493Y-118650206D01*
X163552517Y-118743000D01*
X163588696Y-118743000D01*
X163622780Y-118755155D01*
X163865001Y-118743000D01*
X164107483Y-118743000D01*
X164140909Y-118729155D01*
X164177049Y-118727341D01*
X164559941Y-118568742D01*
X164564210Y-118553817D01*
X164620204Y-118530624D01*
X165012624Y-118138204D01*
X165035817Y-118082210D01*
X165050742Y-118077941D01*
X165096320Y-117950137D01*
X165149258Y-118077941D01*
X165164183Y-118082210D01*
X165187376Y-118138204D01*
X165579796Y-118530624D01*
X165635790Y-118553817D01*
X165640059Y-118568742D01*
X165868493Y-118650206D01*
X166092517Y-118743000D01*
X166128696Y-118743000D01*
X166162780Y-118755155D01*
X166405001Y-118743000D01*
X166647483Y-118743000D01*
X166680909Y-118729155D01*
X166717049Y-118727341D01*
X167099941Y-118568742D01*
X167104210Y-118553817D01*
X167160204Y-118530624D01*
X167552624Y-118138204D01*
X167575817Y-118082210D01*
X167590742Y-118077941D01*
X167636320Y-117950137D01*
X167689258Y-118077941D01*
X167704183Y-118082210D01*
X167727376Y-118138204D01*
X168119796Y-118530624D01*
X168175790Y-118553817D01*
X168180059Y-118568742D01*
X168408493Y-118650206D01*
X168632517Y-118743000D01*
X168668696Y-118743000D01*
X168702780Y-118755155D01*
X168945001Y-118743000D01*
X169187483Y-118743000D01*
X169220909Y-118729155D01*
X169257049Y-118727341D01*
X169639941Y-118568742D01*
X169644210Y-118553817D01*
X169700204Y-118530624D01*
X170092624Y-118138204D01*
X170115817Y-118082210D01*
X170130742Y-118077941D01*
X170176320Y-117950137D01*
X170229258Y-118077941D01*
X170244183Y-118082210D01*
X170267376Y-118138204D01*
X170659796Y-118530624D01*
X170715790Y-118553817D01*
X170720059Y-118568742D01*
X170948493Y-118650206D01*
X171172517Y-118743000D01*
X171208696Y-118743000D01*
X171242780Y-118755155D01*
X171485001Y-118743000D01*
X171727483Y-118743000D01*
X171760909Y-118729155D01*
X171797049Y-118727341D01*
X172179941Y-118568742D01*
X172184210Y-118553817D01*
X172240204Y-118530624D01*
X172632624Y-118138204D01*
X172655817Y-118082210D01*
X172670742Y-118077941D01*
X172716320Y-117950137D01*
X172769258Y-118077941D01*
X172784183Y-118082210D01*
X172807376Y-118138204D01*
X173199796Y-118530624D01*
X173255790Y-118553817D01*
X173260059Y-118568742D01*
X173488493Y-118650206D01*
X173712517Y-118743000D01*
X173748696Y-118743000D01*
X173782780Y-118755155D01*
X174025001Y-118743000D01*
X174267483Y-118743000D01*
X174300909Y-118729155D01*
X174337049Y-118727341D01*
X174719941Y-118568742D01*
X174724210Y-118553817D01*
X174780204Y-118530624D01*
X175172624Y-118138204D01*
X175195817Y-118082210D01*
X175210742Y-118077941D01*
X175256320Y-117950137D01*
X175309258Y-118077941D01*
X175324183Y-118082210D01*
X175347376Y-118138204D01*
X175739796Y-118530624D01*
X175795790Y-118553817D01*
X175800059Y-118568742D01*
X176028493Y-118650206D01*
X176252517Y-118743000D01*
X176288696Y-118743000D01*
X176322780Y-118755155D01*
X176565001Y-118743000D01*
X176807483Y-118743000D01*
X176840909Y-118729155D01*
X176877049Y-118727341D01*
X177259941Y-118568742D01*
X177264210Y-118553817D01*
X177320204Y-118530624D01*
X177712624Y-118138204D01*
X177735817Y-118082210D01*
X177750742Y-118077941D01*
X177796320Y-117950137D01*
X177849258Y-118077941D01*
X177864183Y-118082210D01*
X177887376Y-118138204D01*
X178279796Y-118530624D01*
X178335790Y-118553817D01*
X178340059Y-118568742D01*
X178568493Y-118650206D01*
X178792517Y-118743000D01*
X178828696Y-118743000D01*
X178862780Y-118755155D01*
X179105001Y-118743000D01*
X179347483Y-118743000D01*
X179380909Y-118729155D01*
X179417049Y-118727341D01*
X179799941Y-118568742D01*
X179804210Y-118553817D01*
X179860204Y-118530624D01*
X180252624Y-118138204D01*
X180275817Y-118082210D01*
X180290742Y-118077941D01*
X180372206Y-117849507D01*
X180465000Y-117625483D01*
X180465000Y-117589304D01*
X180477155Y-117555220D01*
X180465000Y-117312999D01*
X180465000Y-117070517D01*
X180451155Y-117037091D01*
X180449341Y-117000951D01*
X180290742Y-116618059D01*
X180275817Y-116613790D01*
X180252624Y-116557796D01*
X179860204Y-116165376D01*
X179804210Y-116142183D01*
X179799941Y-116127258D01*
X179672137Y-116081680D01*
X179799941Y-116028742D01*
X179804210Y-116013817D01*
X179860204Y-115990624D01*
X180252624Y-115598204D01*
X180275817Y-115542210D01*
X180290742Y-115537941D01*
X180372206Y-115309507D01*
X180465000Y-115085483D01*
X180465000Y-115049304D01*
X180477155Y-115015220D01*
X180465000Y-114772999D01*
X180465000Y-114530517D01*
X180451155Y-114497091D01*
X180449341Y-114460951D01*
X180290742Y-114078059D01*
X180275817Y-114073790D01*
X180252624Y-114017796D01*
X179860204Y-113625376D01*
X179804210Y-113602183D01*
X179799941Y-113587258D01*
X179571507Y-113505794D01*
X179347483Y-113413000D01*
X179311304Y-113413000D01*
X179277220Y-113400845D01*
X179034999Y-113413000D01*
X178792517Y-113413000D01*
X178759091Y-113426845D01*
X178722951Y-113428659D01*
X178340059Y-113587258D01*
X178335790Y-113602183D01*
X178279796Y-113625376D01*
X177887376Y-114017796D01*
X177864183Y-114073790D01*
X177849258Y-114078059D01*
X177803680Y-114205863D01*
X177750742Y-114078059D01*
X177735817Y-114073790D01*
X177712624Y-114017796D01*
X177320204Y-113625376D01*
X177264210Y-113602183D01*
X177259941Y-113587258D01*
X177031507Y-113505794D01*
X176807483Y-113413000D01*
X176771304Y-113413000D01*
X176737220Y-113400845D01*
X176494999Y-113413000D01*
X176252517Y-113413000D01*
X176219091Y-113426845D01*
X176182951Y-113428659D01*
X175800059Y-113587258D01*
X175795790Y-113602183D01*
X175739796Y-113625376D01*
X175347376Y-114017796D01*
X175324183Y-114073790D01*
X175309258Y-114078059D01*
X175263680Y-114205863D01*
X175210742Y-114078059D01*
X175195817Y-114073790D01*
X175172624Y-114017796D01*
X174780204Y-113625376D01*
X174724210Y-113602183D01*
X174719941Y-113587258D01*
X174491507Y-113505794D01*
X174267483Y-113413000D01*
X174231304Y-113413000D01*
X174197220Y-113400845D01*
X173954999Y-113413000D01*
X173712517Y-113413000D01*
X173679091Y-113426845D01*
X173642951Y-113428659D01*
X173260059Y-113587258D01*
X173255790Y-113602183D01*
X173199796Y-113625376D01*
X172807376Y-114017796D01*
X172784183Y-114073790D01*
X172769258Y-114078059D01*
X172723680Y-114205863D01*
X172670742Y-114078059D01*
X172655817Y-114073790D01*
X172632624Y-114017796D01*
X172240204Y-113625376D01*
X172184210Y-113602183D01*
X172179941Y-113587258D01*
X171951507Y-113505794D01*
X171727483Y-113413000D01*
X171691304Y-113413000D01*
X171657220Y-113400845D01*
X171414999Y-113413000D01*
X171172517Y-113413000D01*
X171139091Y-113426845D01*
X171102951Y-113428659D01*
X170720059Y-113587258D01*
X170715790Y-113602183D01*
X170659796Y-113625376D01*
X170267376Y-114017796D01*
X170244183Y-114073790D01*
X170229258Y-114078059D01*
X170183680Y-114205863D01*
X170130742Y-114078059D01*
X170115817Y-114073790D01*
X170092624Y-114017796D01*
X169700204Y-113625376D01*
X169644210Y-113602183D01*
X169639941Y-113587258D01*
X169411507Y-113505794D01*
X169187483Y-113413000D01*
X169151304Y-113413000D01*
X169117220Y-113400845D01*
X168874999Y-113413000D01*
X168632517Y-113413000D01*
X168599091Y-113426845D01*
X168562951Y-113428659D01*
X168180059Y-113587258D01*
X168175790Y-113602183D01*
X168119796Y-113625376D01*
X167727376Y-114017796D01*
X167704183Y-114073790D01*
X167689258Y-114078059D01*
X167643680Y-114205863D01*
X167590742Y-114078059D01*
X167575817Y-114073790D01*
X167552624Y-114017796D01*
X167160204Y-113625376D01*
X167104210Y-113602183D01*
X167099941Y-113587258D01*
X166871507Y-113505794D01*
X166647483Y-113413000D01*
X166611304Y-113413000D01*
X166577220Y-113400845D01*
X166334999Y-113413000D01*
X166092517Y-113413000D01*
X166059091Y-113426845D01*
X166022951Y-113428659D01*
X165640059Y-113587258D01*
X165635790Y-113602183D01*
X165579796Y-113625376D01*
X165187376Y-114017796D01*
X165164183Y-114073790D01*
X165149258Y-114078059D01*
X165103680Y-114205863D01*
X165050742Y-114078059D01*
X165035817Y-114073790D01*
X165012624Y-114017796D01*
X164620204Y-113625376D01*
X164564210Y-113602183D01*
X164559941Y-113587258D01*
X164331507Y-113505794D01*
X164107483Y-113413000D01*
X164071304Y-113413000D01*
X164037220Y-113400845D01*
X163794999Y-113413000D01*
X163552517Y-113413000D01*
X163519091Y-113426845D01*
X163482951Y-113428659D01*
X163100059Y-113587258D01*
X163095790Y-113602183D01*
X163039796Y-113625376D01*
X162647376Y-114017796D01*
X162624183Y-114073790D01*
X162609258Y-114078059D01*
X162563680Y-114205863D01*
X162510742Y-114078059D01*
X162495817Y-114073790D01*
X162472624Y-114017796D01*
X162080204Y-113625376D01*
X162024210Y-113602183D01*
X162019941Y-113587258D01*
X161791507Y-113505794D01*
X161567483Y-113413000D01*
X161531304Y-113413000D01*
X161497220Y-113400845D01*
X161254999Y-113413000D01*
X161012517Y-113413000D01*
X160979091Y-113426845D01*
X160942951Y-113428659D01*
X160560059Y-113587258D01*
X160555790Y-113602183D01*
X160499796Y-113625376D01*
X160107376Y-114017796D01*
X160084183Y-114073790D01*
X160069258Y-114078059D01*
X160023680Y-114205863D01*
X159970742Y-114078059D01*
X159955817Y-114073790D01*
X159932624Y-114017796D01*
X159540204Y-113625376D01*
X159484210Y-113602183D01*
X159479941Y-113587258D01*
X159251507Y-113505794D01*
X159027483Y-113413000D01*
X158991304Y-113413000D01*
X158957220Y-113400845D01*
X158714999Y-113413000D01*
X158472517Y-113413000D01*
X158439091Y-113426845D01*
X158402951Y-113428659D01*
X158020059Y-113587258D01*
X158015790Y-113602183D01*
X157959796Y-113625376D01*
X157567376Y-114017796D01*
X157544183Y-114073790D01*
X157529258Y-114078059D01*
X157483680Y-114205863D01*
X157430742Y-114078059D01*
X157415817Y-114073790D01*
X157392624Y-114017796D01*
X157000204Y-113625376D01*
X156944210Y-113602183D01*
X156939941Y-113587258D01*
X156711507Y-113505794D01*
X156487483Y-113413000D01*
X156451304Y-113413000D01*
X156417220Y-113400845D01*
X156174999Y-113413000D01*
X155932517Y-113413000D01*
X155899091Y-113426845D01*
X155862951Y-113428659D01*
X155650000Y-113516866D01*
X155650000Y-75449346D01*
X155708493Y-75470206D01*
X155932517Y-75563000D01*
X155968696Y-75563000D01*
X156002780Y-75575155D01*
X156245001Y-75563000D01*
X156487483Y-75563000D01*
X156520909Y-75549155D01*
X156557049Y-75547341D01*
X156939941Y-75388742D01*
X156944210Y-75373817D01*
X157000204Y-75350624D01*
X157392624Y-74958204D01*
X157415817Y-74902210D01*
X157430742Y-74897941D01*
X157476320Y-74770137D01*
X157529258Y-74897941D01*
X157544183Y-74902210D01*
X157567376Y-74958204D01*
X157959796Y-75350624D01*
X158015790Y-75373817D01*
X158020059Y-75388742D01*
X158248493Y-75470206D01*
X158472517Y-75563000D01*
X158508696Y-75563000D01*
X158542780Y-75575155D01*
X158785001Y-75563000D01*
X159027483Y-75563000D01*
X159060909Y-75549155D01*
X159097049Y-75547341D01*
X159479941Y-75388742D01*
X159484210Y-75373817D01*
X159540204Y-75350624D01*
X159932624Y-74958204D01*
X159955817Y-74902210D01*
X159970742Y-74897941D01*
X160016320Y-74770137D01*
X160069258Y-74897941D01*
X160084183Y-74902210D01*
X160107376Y-74958204D01*
X160499796Y-75350624D01*
X160555790Y-75373817D01*
X160560059Y-75388742D01*
X160788493Y-75470206D01*
X161012517Y-75563000D01*
X161048696Y-75563000D01*
X161082780Y-75575155D01*
X161325001Y-75563000D01*
X161567483Y-75563000D01*
X161600909Y-75549155D01*
X161637049Y-75547341D01*
X162019941Y-75388742D01*
X162024210Y-75373817D01*
X162080204Y-75350624D01*
X162472624Y-74958204D01*
X162495817Y-74902210D01*
X162510742Y-74897941D01*
X162556320Y-74770137D01*
X162609258Y-74897941D01*
X162624183Y-74902210D01*
X162647376Y-74958204D01*
X163039796Y-75350624D01*
X163095790Y-75373817D01*
X163100059Y-75388742D01*
X163328493Y-75470206D01*
X163552517Y-75563000D01*
X163588696Y-75563000D01*
X163622780Y-75575155D01*
X163865001Y-75563000D01*
X164107483Y-75563000D01*
X164140909Y-75549155D01*
X164177049Y-75547341D01*
X164559941Y-75388742D01*
X164564210Y-75373817D01*
X164620204Y-75350624D01*
X165012624Y-74958204D01*
X165035817Y-74902210D01*
X165050742Y-74897941D01*
X165096320Y-74770137D01*
X165149258Y-74897941D01*
X165164183Y-74902210D01*
X165187376Y-74958204D01*
X165579796Y-75350624D01*
X165635790Y-75373817D01*
X165640059Y-75388742D01*
X165868493Y-75470206D01*
X166092517Y-75563000D01*
X166128696Y-75563000D01*
X166162780Y-75575155D01*
X166405001Y-75563000D01*
X166647483Y-75563000D01*
X166680909Y-75549155D01*
X166717049Y-75547341D01*
X167099941Y-75388742D01*
X167104210Y-75373817D01*
X167160204Y-75350624D01*
X167552624Y-74958204D01*
X167575817Y-74902210D01*
X167590742Y-74897941D01*
X167636320Y-74770137D01*
X167689258Y-74897941D01*
X167704183Y-74902210D01*
X167727376Y-74958204D01*
X168119796Y-75350624D01*
X168175790Y-75373817D01*
X168180059Y-75388742D01*
X168408493Y-75470206D01*
X168632517Y-75563000D01*
X168668696Y-75563000D01*
X168702780Y-75575155D01*
X168945001Y-75563000D01*
X169187483Y-75563000D01*
X169220909Y-75549155D01*
X169257049Y-75547341D01*
X169639941Y-75388742D01*
X169644210Y-75373817D01*
X169700204Y-75350624D01*
X170092624Y-74958204D01*
X170115817Y-74902210D01*
X170130742Y-74897941D01*
X170176320Y-74770137D01*
X170229258Y-74897941D01*
X170244183Y-74902210D01*
X170267376Y-74958204D01*
X170659796Y-75350624D01*
X170715790Y-75373817D01*
X170720059Y-75388742D01*
X170948493Y-75470206D01*
X171172517Y-75563000D01*
X171208696Y-75563000D01*
X171242780Y-75575155D01*
X171485001Y-75563000D01*
X171727483Y-75563000D01*
X171760909Y-75549155D01*
X171797049Y-75547341D01*
X172179941Y-75388742D01*
X172184210Y-75373817D01*
X172240204Y-75350624D01*
X172632624Y-74958204D01*
X172655817Y-74902210D01*
X172670742Y-74897941D01*
X172716320Y-74770137D01*
X172769258Y-74897941D01*
X172784183Y-74902210D01*
X172807376Y-74958204D01*
X173199796Y-75350624D01*
X173255790Y-75373817D01*
X173260059Y-75388742D01*
X173488493Y-75470206D01*
X173712517Y-75563000D01*
X173748696Y-75563000D01*
X173782780Y-75575155D01*
X174025001Y-75563000D01*
X174267483Y-75563000D01*
X174300909Y-75549155D01*
X174337049Y-75547341D01*
X174719941Y-75388742D01*
X174724210Y-75373817D01*
X174780204Y-75350624D01*
X175172624Y-74958204D01*
X175195817Y-74902210D01*
X175210742Y-74897941D01*
X175256320Y-74770137D01*
X175309258Y-74897941D01*
X175324183Y-74902210D01*
X175347376Y-74958204D01*
X175739796Y-75350624D01*
X175795790Y-75373817D01*
X175800059Y-75388742D01*
X176028493Y-75470206D01*
X176252517Y-75563000D01*
X176288696Y-75563000D01*
X176322780Y-75575155D01*
X176565001Y-75563000D01*
X176807483Y-75563000D01*
X176840909Y-75549155D01*
X176877049Y-75547341D01*
X177259941Y-75388742D01*
X177264210Y-75373817D01*
X177320204Y-75350624D01*
X177712624Y-74958204D01*
X177735817Y-74902210D01*
X177750742Y-74897941D01*
X177796320Y-74770137D01*
X177849258Y-74897941D01*
X177864183Y-74902210D01*
X177887376Y-74958204D01*
X178279796Y-75350624D01*
X178335790Y-75373817D01*
X178340059Y-75388742D01*
X178568493Y-75470206D01*
X178792517Y-75563000D01*
X178828696Y-75563000D01*
X178862780Y-75575155D01*
X179105001Y-75563000D01*
X179347483Y-75563000D01*
X179380909Y-75549155D01*
X179417049Y-75547341D01*
X179799941Y-75388742D01*
X179804210Y-75373817D01*
X179860204Y-75350624D01*
X180252624Y-74958204D01*
X180275817Y-74902210D01*
X180290742Y-74897941D01*
X180372206Y-74669507D01*
X180465000Y-74445483D01*
X180465000Y-74409304D01*
X180477155Y-74375220D01*
X180465000Y-74132999D01*
X180465000Y-73890517D01*
X180451155Y-73857091D01*
X180449341Y-73820951D01*
X180290742Y-73438059D01*
X180275817Y-73433790D01*
X180252624Y-73377796D01*
X179860204Y-72985376D01*
X179804210Y-72962183D01*
X179799941Y-72947258D01*
X179672137Y-72901680D01*
X179799941Y-72848742D01*
X179804210Y-72833817D01*
X179860204Y-72810624D01*
X180252624Y-72418204D01*
X180275817Y-72362210D01*
X180290742Y-72357941D01*
X180372206Y-72129507D01*
X180465000Y-71905483D01*
X180465000Y-71869304D01*
X180477155Y-71835220D01*
X180465000Y-71592999D01*
X180465000Y-71350517D01*
X180451155Y-71317091D01*
X180449341Y-71280951D01*
X180290742Y-70898059D01*
X180275817Y-70893790D01*
X180252624Y-70837796D01*
X179860204Y-70445376D01*
X179804210Y-70422183D01*
X179799941Y-70407258D01*
X179571507Y-70325794D01*
X179347483Y-70233000D01*
X179311304Y-70233000D01*
X179277220Y-70220845D01*
X179034999Y-70233000D01*
X178792517Y-70233000D01*
X178759091Y-70246845D01*
X178722951Y-70248659D01*
X178340059Y-70407258D01*
X178335790Y-70422183D01*
X178279796Y-70445376D01*
X177887376Y-70837796D01*
X177864183Y-70893790D01*
X177849258Y-70898059D01*
X177803680Y-71025863D01*
X177750742Y-70898059D01*
X177735817Y-70893790D01*
X177712624Y-70837796D01*
X177320204Y-70445376D01*
X177264210Y-70422183D01*
X177259941Y-70407258D01*
X177031507Y-70325794D01*
X176807483Y-70233000D01*
X176771304Y-70233000D01*
X176737220Y-70220845D01*
X176494999Y-70233000D01*
X176252517Y-70233000D01*
X176219091Y-70246845D01*
X176182951Y-70248659D01*
X175800059Y-70407258D01*
X175795790Y-70422183D01*
X175739796Y-70445376D01*
X175347376Y-70837796D01*
X175324183Y-70893790D01*
X175309258Y-70898059D01*
X175263680Y-71025863D01*
X175210742Y-70898059D01*
X175195817Y-70893790D01*
X175172624Y-70837796D01*
X174780204Y-70445376D01*
X174724210Y-70422183D01*
X174719941Y-70407258D01*
X174491507Y-70325794D01*
X174267483Y-70233000D01*
X174231304Y-70233000D01*
X174197220Y-70220845D01*
X173954999Y-70233000D01*
X173712517Y-70233000D01*
X173679091Y-70246845D01*
X173642951Y-70248659D01*
X173260059Y-70407258D01*
X173255790Y-70422183D01*
X173199796Y-70445376D01*
X172807376Y-70837796D01*
X172784183Y-70893790D01*
X172769258Y-70898059D01*
X172723680Y-71025863D01*
X172670742Y-70898059D01*
X172655817Y-70893790D01*
X172632624Y-70837796D01*
X172240204Y-70445376D01*
X172184210Y-70422183D01*
X172179941Y-70407258D01*
X171951507Y-70325794D01*
X171727483Y-70233000D01*
X171691304Y-70233000D01*
X171657220Y-70220845D01*
X171414999Y-70233000D01*
X171172517Y-70233000D01*
X171139091Y-70246845D01*
X171102951Y-70248659D01*
X170720059Y-70407258D01*
X170715790Y-70422183D01*
X170659796Y-70445376D01*
X170267376Y-70837796D01*
X170244183Y-70893790D01*
X170229258Y-70898059D01*
X170183680Y-71025863D01*
X170130742Y-70898059D01*
X170115817Y-70893790D01*
X170092624Y-70837796D01*
X169700204Y-70445376D01*
X169644210Y-70422183D01*
X169639941Y-70407258D01*
X169411507Y-70325794D01*
X169187483Y-70233000D01*
X169151304Y-70233000D01*
X169117220Y-70220845D01*
X168874999Y-70233000D01*
X168632517Y-70233000D01*
X168599091Y-70246845D01*
X168562951Y-70248659D01*
X168180059Y-70407258D01*
X168175790Y-70422183D01*
X168119796Y-70445376D01*
X167727376Y-70837796D01*
X167704183Y-70893790D01*
X167689258Y-70898059D01*
X167643680Y-71025863D01*
X167590742Y-70898059D01*
X167575817Y-70893790D01*
X167552624Y-70837796D01*
X167160204Y-70445376D01*
X167104210Y-70422183D01*
X167099941Y-70407258D01*
X166871507Y-70325794D01*
X166647483Y-70233000D01*
X166611304Y-70233000D01*
X166577220Y-70220845D01*
X166334999Y-70233000D01*
X166092517Y-70233000D01*
X166059091Y-70246845D01*
X166022951Y-70248659D01*
X165640059Y-70407258D01*
X165635790Y-70422183D01*
X165579796Y-70445376D01*
X165187376Y-70837796D01*
X165164183Y-70893790D01*
X165149258Y-70898059D01*
X165103680Y-71025863D01*
X165050742Y-70898059D01*
X165035817Y-70893790D01*
X165012624Y-70837796D01*
X164620204Y-70445376D01*
X164564210Y-70422183D01*
X164559941Y-70407258D01*
X164331507Y-70325794D01*
X164107483Y-70233000D01*
X164071304Y-70233000D01*
X164037220Y-70220845D01*
X163794999Y-70233000D01*
X163552517Y-70233000D01*
X163519091Y-70246845D01*
X163482951Y-70248659D01*
X163100059Y-70407258D01*
X163095790Y-70422183D01*
X163039796Y-70445376D01*
X162647376Y-70837796D01*
X162624183Y-70893790D01*
X162609258Y-70898059D01*
X162563680Y-71025863D01*
X162510742Y-70898059D01*
X162495817Y-70893790D01*
X162472624Y-70837796D01*
X162080204Y-70445376D01*
X162024210Y-70422183D01*
X162019941Y-70407258D01*
X161791507Y-70325794D01*
X161567483Y-70233000D01*
X161531304Y-70233000D01*
X161497220Y-70220845D01*
X161254999Y-70233000D01*
X161012517Y-70233000D01*
X160979091Y-70246845D01*
X160942951Y-70248659D01*
X160560059Y-70407258D01*
X160555790Y-70422183D01*
X160499796Y-70445376D01*
X160107376Y-70837796D01*
X160084183Y-70893790D01*
X160069258Y-70898059D01*
X160023680Y-71025863D01*
X159970742Y-70898059D01*
X159955817Y-70893790D01*
X159932624Y-70837796D01*
X159540204Y-70445376D01*
X159484210Y-70422183D01*
X159479941Y-70407258D01*
X159251507Y-70325794D01*
X159027483Y-70233000D01*
X158991304Y-70233000D01*
X158957220Y-70220845D01*
X158714999Y-70233000D01*
X158472517Y-70233000D01*
X158439091Y-70246845D01*
X158402951Y-70248659D01*
X158020059Y-70407258D01*
X158015790Y-70422183D01*
X157959796Y-70445376D01*
X157567376Y-70837796D01*
X157544183Y-70893790D01*
X157529258Y-70898059D01*
X157483680Y-71025863D01*
X157430742Y-70898059D01*
X157415817Y-70893790D01*
X157392624Y-70837796D01*
X157000204Y-70445376D01*
X156944210Y-70422183D01*
X156939941Y-70407258D01*
X156711507Y-70325794D01*
X156487483Y-70233000D01*
X156451304Y-70233000D01*
X156417220Y-70220845D01*
X156174999Y-70233000D01*
X155932517Y-70233000D01*
X155899091Y-70246845D01*
X155862951Y-70248659D01*
X155650000Y-70336866D01*
X155650000Y-46278581D01*
X155710090Y-45858991D01*
X155864381Y-45519648D01*
X156107712Y-45237248D01*
X156420523Y-45034494D01*
X156801184Y-44920652D01*
X156998350Y-44906000D01*
X213817419Y-44906000D01*
X214237009Y-44966090D01*
X214237009Y-44966090D01*
G37*
X214237009Y-44966090D02*
X214576352Y-45120381D01*
X214858752Y-45363712D01*
X215061506Y-45676523D01*
X215175348Y-46057184D01*
X215190000Y-46254350D01*
X215190001Y-58350074D01*
X215190000Y-96215419D01*
X215129910Y-96635009D01*
X214975619Y-96974352D01*
X214732288Y-97256752D01*
X214419479Y-97459506D01*
X214038815Y-97573348D01*
X213841649Y-97588000D01*
X198189926Y-97588000D01*
X198120000Y-97574091D01*
X198050075Y-97588000D01*
X198050074Y-97588000D01*
X197842972Y-97629195D01*
X197608119Y-97786119D01*
X197451195Y-98020972D01*
X197396091Y-98298000D01*
X197410001Y-98367931D01*
X197410000Y-119056074D01*
X197396091Y-119126000D01*
X197451195Y-119403028D01*
X197608119Y-119637881D01*
X197842972Y-119794805D01*
X198002571Y-119826551D01*
X198120000Y-119849909D01*
X198189925Y-119836000D01*
X213817419Y-119836000D01*
X214237009Y-119896090D01*
X214576352Y-120050381D01*
X214858752Y-120293712D01*
X215061506Y-120606523D01*
X215175348Y-120987184D01*
X215190001Y-121184363D01*
X215190000Y-128689760D01*
X214844241Y-128793164D01*
X214756769Y-128833582D01*
X214668806Y-128872929D01*
X214661502Y-128877601D01*
X214661498Y-128877603D01*
X214661499Y-128877603D01*
X214178040Y-129190966D01*
X214105447Y-129254293D01*
X214032045Y-129316763D01*
X214026343Y-129323300D01*
X213650266Y-129759759D01*
X213598347Y-129840942D01*
X213545446Y-129921475D01*
X213541808Y-129929350D01*
X213303347Y-130453817D01*
X213276300Y-130546309D01*
X213248129Y-130638452D01*
X213246847Y-130647031D01*
X213165171Y-131217346D01*
X213165171Y-131289766D01*
X213159362Y-131361963D01*
X213159952Y-131370618D01*
X213182272Y-131670966D01*
X213197826Y-131741711D01*
X213207654Y-131813455D01*
X213210088Y-131821781D01*
X213375164Y-132373758D01*
X213415591Y-132461250D01*
X213454930Y-132549194D01*
X213459603Y-132556501D01*
X213772966Y-133039961D01*
X213836328Y-133112594D01*
X213898763Y-133185955D01*
X213905296Y-133191654D01*
X213905300Y-133191658D01*
X213905305Y-133191661D01*
X214341759Y-133567734D01*
X214422942Y-133619653D01*
X214503475Y-133672554D01*
X214511346Y-133676190D01*
X214511349Y-133676192D01*
X214511352Y-133676193D01*
X215035817Y-133914653D01*
X215128309Y-133941700D01*
X215190001Y-133960561D01*
X215190000Y-141935418D01*
X215129910Y-142355009D01*
X214975619Y-142694352D01*
X214732288Y-142976752D01*
X214419479Y-143179506D01*
X214038815Y-143293348D01*
X213841649Y-143308000D01*
X157022581Y-143308000D01*
X156602991Y-143247910D01*
X156263648Y-143093619D01*
X155981248Y-142850288D01*
X155778494Y-142537479D01*
X155664652Y-142156815D01*
X155650000Y-141959649D01*
X155650000Y-133946239D01*
X155995758Y-133842836D01*
X156083250Y-133802409D01*
X156171194Y-133763070D01*
X156178498Y-133758399D01*
X156178502Y-133758397D01*
X156661961Y-133445034D01*
X156734594Y-133381672D01*
X156807955Y-133319237D01*
X156813654Y-133312704D01*
X156813658Y-133312700D01*
X156813661Y-133312695D01*
X157189734Y-132876241D01*
X157241653Y-132795058D01*
X157294554Y-132714525D01*
X157298192Y-132706650D01*
X157536653Y-132182183D01*
X157563700Y-132089691D01*
X157591871Y-131997548D01*
X157593153Y-131988969D01*
X157674829Y-131418653D01*
X157674829Y-131346233D01*
X157680638Y-131274036D01*
X157680048Y-131265382D01*
X157657728Y-130965033D01*
X157642174Y-130894288D01*
X157632346Y-130822544D01*
X157629912Y-130814219D01*
X157464836Y-130262241D01*
X157424418Y-130174769D01*
X157385071Y-130086806D01*
X157380397Y-130079499D01*
X157067034Y-129596040D01*
X157003707Y-129523447D01*
X156941237Y-129450045D01*
X156934700Y-129444343D01*
X156498241Y-129068266D01*
X156417058Y-129016347D01*
X156336525Y-128963446D01*
X156328654Y-128959810D01*
X156328651Y-128959808D01*
X156328648Y-128959807D01*
X155804183Y-128721347D01*
X155711691Y-128694300D01*
X155650000Y-128675439D01*
X155650000Y-118629346D01*
X155708493Y-118650206D01*
X155932517Y-118743000D01*
X155968696Y-118743000D01*
X156002780Y-118755155D01*
X156245001Y-118743000D01*
X156487483Y-118743000D01*
X156520909Y-118729155D01*
X156557049Y-118727341D01*
X156939941Y-118568742D01*
X156944210Y-118553817D01*
X157000204Y-118530624D01*
X157392624Y-118138204D01*
X157415817Y-118082210D01*
X157430742Y-118077941D01*
X157476320Y-117950137D01*
X157529258Y-118077941D01*
X157544183Y-118082210D01*
X157567376Y-118138204D01*
X157959796Y-118530624D01*
X158015790Y-118553817D01*
X158020059Y-118568742D01*
X158248493Y-118650206D01*
X158472517Y-118743000D01*
X158508696Y-118743000D01*
X158542780Y-118755155D01*
X158785001Y-118743000D01*
X159027483Y-118743000D01*
X159060909Y-118729155D01*
X159097049Y-118727341D01*
X159479941Y-118568742D01*
X159484210Y-118553817D01*
X159540204Y-118530624D01*
X159932624Y-118138204D01*
X159955817Y-118082210D01*
X159970742Y-118077941D01*
X160016320Y-117950137D01*
X160069258Y-118077941D01*
X160084183Y-118082210D01*
X160107376Y-118138204D01*
X160499796Y-118530624D01*
X160555790Y-118553817D01*
X160560059Y-118568742D01*
X160788493Y-118650206D01*
X161012517Y-118743000D01*
X161048696Y-118743000D01*
X161082780Y-118755155D01*
X161325001Y-118743000D01*
X161567483Y-118743000D01*
X161600909Y-118729155D01*
X161637049Y-118727341D01*
X162019941Y-118568742D01*
X162024210Y-118553817D01*
X162080204Y-118530624D01*
X162472624Y-118138204D01*
X162495817Y-118082210D01*
X162510742Y-118077941D01*
X162556320Y-117950137D01*
X162609258Y-118077941D01*
X162624183Y-118082210D01*
X162647376Y-118138204D01*
X163039796Y-118530624D01*
X163095790Y-118553817D01*
X163100059Y-118568742D01*
X163328493Y-118650206D01*
X163552517Y-118743000D01*
X163588696Y-118743000D01*
X163622780Y-118755155D01*
X163865001Y-118743000D01*
X164107483Y-118743000D01*
X164140909Y-118729155D01*
X164177049Y-118727341D01*
X164559941Y-118568742D01*
X164564210Y-118553817D01*
X164620204Y-118530624D01*
X165012624Y-118138204D01*
X165035817Y-118082210D01*
X165050742Y-118077941D01*
X165096320Y-117950137D01*
X165149258Y-118077941D01*
X165164183Y-118082210D01*
X165187376Y-118138204D01*
X165579796Y-118530624D01*
X165635790Y-118553817D01*
X165640059Y-118568742D01*
X165868493Y-118650206D01*
X166092517Y-118743000D01*
X166128696Y-118743000D01*
X166162780Y-118755155D01*
X166405001Y-118743000D01*
X166647483Y-118743000D01*
X166680909Y-118729155D01*
X166717049Y-118727341D01*
X167099941Y-118568742D01*
X167104210Y-118553817D01*
X167160204Y-118530624D01*
X167552624Y-118138204D01*
X167575817Y-118082210D01*
X167590742Y-118077941D01*
X167636320Y-117950137D01*
X167689258Y-118077941D01*
X167704183Y-118082210D01*
X167727376Y-118138204D01*
X168119796Y-118530624D01*
X168175790Y-118553817D01*
X168180059Y-118568742D01*
X168408493Y-118650206D01*
X168632517Y-118743000D01*
X168668696Y-118743000D01*
X168702780Y-118755155D01*
X168945001Y-118743000D01*
X169187483Y-118743000D01*
X169220909Y-118729155D01*
X169257049Y-118727341D01*
X169639941Y-118568742D01*
X169644210Y-118553817D01*
X169700204Y-118530624D01*
X170092624Y-118138204D01*
X170115817Y-118082210D01*
X170130742Y-118077941D01*
X170176320Y-117950137D01*
X170229258Y-118077941D01*
X170244183Y-118082210D01*
X170267376Y-118138204D01*
X170659796Y-118530624D01*
X170715790Y-118553817D01*
X170720059Y-118568742D01*
X170948493Y-118650206D01*
X171172517Y-118743000D01*
X171208696Y-118743000D01*
X171242780Y-118755155D01*
X171485001Y-118743000D01*
X171727483Y-118743000D01*
X171760909Y-118729155D01*
X171797049Y-118727341D01*
X172179941Y-118568742D01*
X172184210Y-118553817D01*
X172240204Y-118530624D01*
X172632624Y-118138204D01*
X172655817Y-118082210D01*
X172670742Y-118077941D01*
X172716320Y-117950137D01*
X172769258Y-118077941D01*
X172784183Y-118082210D01*
X172807376Y-118138204D01*
X173199796Y-118530624D01*
X173255790Y-118553817D01*
X173260059Y-118568742D01*
X173488493Y-118650206D01*
X173712517Y-118743000D01*
X173748696Y-118743000D01*
X173782780Y-118755155D01*
X174025001Y-118743000D01*
X174267483Y-118743000D01*
X174300909Y-118729155D01*
X174337049Y-118727341D01*
X174719941Y-118568742D01*
X174724210Y-118553817D01*
X174780204Y-118530624D01*
X175172624Y-118138204D01*
X175195817Y-118082210D01*
X175210742Y-118077941D01*
X175256320Y-117950137D01*
X175309258Y-118077941D01*
X175324183Y-118082210D01*
X175347376Y-118138204D01*
X175739796Y-118530624D01*
X175795790Y-118553817D01*
X175800059Y-118568742D01*
X176028493Y-118650206D01*
X176252517Y-118743000D01*
X176288696Y-118743000D01*
X176322780Y-118755155D01*
X176565001Y-118743000D01*
X176807483Y-118743000D01*
X176840909Y-118729155D01*
X176877049Y-118727341D01*
X177259941Y-118568742D01*
X177264210Y-118553817D01*
X177320204Y-118530624D01*
X177712624Y-118138204D01*
X177735817Y-118082210D01*
X177750742Y-118077941D01*
X177796320Y-117950137D01*
X177849258Y-118077941D01*
X177864183Y-118082210D01*
X177887376Y-118138204D01*
X178279796Y-118530624D01*
X178335790Y-118553817D01*
X178340059Y-118568742D01*
X178568493Y-118650206D01*
X178792517Y-118743000D01*
X178828696Y-118743000D01*
X178862780Y-118755155D01*
X179105001Y-118743000D01*
X179347483Y-118743000D01*
X179380909Y-118729155D01*
X179417049Y-118727341D01*
X179799941Y-118568742D01*
X179804210Y-118553817D01*
X179860204Y-118530624D01*
X180252624Y-118138204D01*
X180275817Y-118082210D01*
X180290742Y-118077941D01*
X180372206Y-117849507D01*
X180465000Y-117625483D01*
X180465000Y-117589304D01*
X180477155Y-117555220D01*
X180465000Y-117312999D01*
X180465000Y-117070517D01*
X180451155Y-117037091D01*
X180449341Y-117000951D01*
X180290742Y-116618059D01*
X180275817Y-116613790D01*
X180252624Y-116557796D01*
X179860204Y-116165376D01*
X179804210Y-116142183D01*
X179799941Y-116127258D01*
X179672137Y-116081680D01*
X179799941Y-116028742D01*
X179804210Y-116013817D01*
X179860204Y-115990624D01*
X180252624Y-115598204D01*
X180275817Y-115542210D01*
X180290742Y-115537941D01*
X180372206Y-115309507D01*
X180465000Y-115085483D01*
X180465000Y-115049304D01*
X180477155Y-115015220D01*
X180465000Y-114772999D01*
X180465000Y-114530517D01*
X180451155Y-114497091D01*
X180449341Y-114460951D01*
X180290742Y-114078059D01*
X180275817Y-114073790D01*
X180252624Y-114017796D01*
X179860204Y-113625376D01*
X179804210Y-113602183D01*
X179799941Y-113587258D01*
X179571507Y-113505794D01*
X179347483Y-113413000D01*
X179311304Y-113413000D01*
X179277220Y-113400845D01*
X179034999Y-113413000D01*
X178792517Y-113413000D01*
X178759091Y-113426845D01*
X178722951Y-113428659D01*
X178340059Y-113587258D01*
X178335790Y-113602183D01*
X178279796Y-113625376D01*
X177887376Y-114017796D01*
X177864183Y-114073790D01*
X177849258Y-114078059D01*
X177803680Y-114205863D01*
X177750742Y-114078059D01*
X177735817Y-114073790D01*
X177712624Y-114017796D01*
X177320204Y-113625376D01*
X177264210Y-113602183D01*
X177259941Y-113587258D01*
X177031507Y-113505794D01*
X176807483Y-113413000D01*
X176771304Y-113413000D01*
X176737220Y-113400845D01*
X176494999Y-113413000D01*
X176252517Y-113413000D01*
X176219091Y-113426845D01*
X176182951Y-113428659D01*
X175800059Y-113587258D01*
X175795790Y-113602183D01*
X175739796Y-113625376D01*
X175347376Y-114017796D01*
X175324183Y-114073790D01*
X175309258Y-114078059D01*
X175263680Y-114205863D01*
X175210742Y-114078059D01*
X175195817Y-114073790D01*
X175172624Y-114017796D01*
X174780204Y-113625376D01*
X174724210Y-113602183D01*
X174719941Y-113587258D01*
X174491507Y-113505794D01*
X174267483Y-113413000D01*
X174231304Y-113413000D01*
X174197220Y-113400845D01*
X173954999Y-113413000D01*
X173712517Y-113413000D01*
X173679091Y-113426845D01*
X173642951Y-113428659D01*
X173260059Y-113587258D01*
X173255790Y-113602183D01*
X173199796Y-113625376D01*
X172807376Y-114017796D01*
X172784183Y-114073790D01*
X172769258Y-114078059D01*
X172723680Y-114205863D01*
X172670742Y-114078059D01*
X172655817Y-114073790D01*
X172632624Y-114017796D01*
X172240204Y-113625376D01*
X172184210Y-113602183D01*
X172179941Y-113587258D01*
X171951507Y-113505794D01*
X171727483Y-113413000D01*
X171691304Y-113413000D01*
X171657220Y-113400845D01*
X171414999Y-113413000D01*
X171172517Y-113413000D01*
X171139091Y-113426845D01*
X171102951Y-113428659D01*
X170720059Y-113587258D01*
X170715790Y-113602183D01*
X170659796Y-113625376D01*
X170267376Y-114017796D01*
X170244183Y-114073790D01*
X170229258Y-114078059D01*
X170183680Y-114205863D01*
X170130742Y-114078059D01*
X170115817Y-114073790D01*
X170092624Y-114017796D01*
X169700204Y-113625376D01*
X169644210Y-113602183D01*
X169639941Y-113587258D01*
X169411507Y-113505794D01*
X169187483Y-113413000D01*
X169151304Y-113413000D01*
X169117220Y-113400845D01*
X168874999Y-113413000D01*
X168632517Y-113413000D01*
X168599091Y-113426845D01*
X168562951Y-113428659D01*
X168180059Y-113587258D01*
X168175790Y-113602183D01*
X168119796Y-113625376D01*
X167727376Y-114017796D01*
X167704183Y-114073790D01*
X167689258Y-114078059D01*
X167643680Y-114205863D01*
X167590742Y-114078059D01*
X167575817Y-114073790D01*
X167552624Y-114017796D01*
X167160204Y-113625376D01*
X167104210Y-113602183D01*
X167099941Y-113587258D01*
X166871507Y-113505794D01*
X166647483Y-113413000D01*
X166611304Y-113413000D01*
X166577220Y-113400845D01*
X166334999Y-113413000D01*
X166092517Y-113413000D01*
X166059091Y-113426845D01*
X166022951Y-113428659D01*
X165640059Y-113587258D01*
X165635790Y-113602183D01*
X165579796Y-113625376D01*
X165187376Y-114017796D01*
X165164183Y-114073790D01*
X165149258Y-114078059D01*
X165103680Y-114205863D01*
X165050742Y-114078059D01*
X165035817Y-114073790D01*
X165012624Y-114017796D01*
X164620204Y-113625376D01*
X164564210Y-113602183D01*
X164559941Y-113587258D01*
X164331507Y-113505794D01*
X164107483Y-113413000D01*
X164071304Y-113413000D01*
X164037220Y-113400845D01*
X163794999Y-113413000D01*
X163552517Y-113413000D01*
X163519091Y-113426845D01*
X163482951Y-113428659D01*
X163100059Y-113587258D01*
X163095790Y-113602183D01*
X163039796Y-113625376D01*
X162647376Y-114017796D01*
X162624183Y-114073790D01*
X162609258Y-114078059D01*
X162563680Y-114205863D01*
X162510742Y-114078059D01*
X162495817Y-114073790D01*
X162472624Y-114017796D01*
X162080204Y-113625376D01*
X162024210Y-113602183D01*
X162019941Y-113587258D01*
X161791507Y-113505794D01*
X161567483Y-113413000D01*
X161531304Y-113413000D01*
X161497220Y-113400845D01*
X161254999Y-113413000D01*
X161012517Y-113413000D01*
X160979091Y-113426845D01*
X160942951Y-113428659D01*
X160560059Y-113587258D01*
X160555790Y-113602183D01*
X160499796Y-113625376D01*
X160107376Y-114017796D01*
X160084183Y-114073790D01*
X160069258Y-114078059D01*
X160023680Y-114205863D01*
X159970742Y-114078059D01*
X159955817Y-114073790D01*
X159932624Y-114017796D01*
X159540204Y-113625376D01*
X159484210Y-113602183D01*
X159479941Y-113587258D01*
X159251507Y-113505794D01*
X159027483Y-113413000D01*
X158991304Y-113413000D01*
X158957220Y-113400845D01*
X158714999Y-113413000D01*
X158472517Y-113413000D01*
X158439091Y-113426845D01*
X158402951Y-113428659D01*
X158020059Y-113587258D01*
X158015790Y-113602183D01*
X157959796Y-113625376D01*
X157567376Y-114017796D01*
X157544183Y-114073790D01*
X157529258Y-114078059D01*
X157483680Y-114205863D01*
X157430742Y-114078059D01*
X157415817Y-114073790D01*
X157392624Y-114017796D01*
X157000204Y-113625376D01*
X156944210Y-113602183D01*
X156939941Y-113587258D01*
X156711507Y-113505794D01*
X156487483Y-113413000D01*
X156451304Y-113413000D01*
X156417220Y-113400845D01*
X156174999Y-113413000D01*
X155932517Y-113413000D01*
X155899091Y-113426845D01*
X155862951Y-113428659D01*
X155650000Y-113516866D01*
X155650000Y-75449346D01*
X155708493Y-75470206D01*
X155932517Y-75563000D01*
X155968696Y-75563000D01*
X156002780Y-75575155D01*
X156245001Y-75563000D01*
X156487483Y-75563000D01*
X156520909Y-75549155D01*
X156557049Y-75547341D01*
X156939941Y-75388742D01*
X156944210Y-75373817D01*
X157000204Y-75350624D01*
X157392624Y-74958204D01*
X157415817Y-74902210D01*
X157430742Y-74897941D01*
X157476320Y-74770137D01*
X157529258Y-74897941D01*
X157544183Y-74902210D01*
X157567376Y-74958204D01*
X157959796Y-75350624D01*
X158015790Y-75373817D01*
X158020059Y-75388742D01*
X158248493Y-75470206D01*
X158472517Y-75563000D01*
X158508696Y-75563000D01*
X158542780Y-75575155D01*
X158785001Y-75563000D01*
X159027483Y-75563000D01*
X159060909Y-75549155D01*
X159097049Y-75547341D01*
X159479941Y-75388742D01*
X159484210Y-75373817D01*
X159540204Y-75350624D01*
X159932624Y-74958204D01*
X159955817Y-74902210D01*
X159970742Y-74897941D01*
X160016320Y-74770137D01*
X160069258Y-74897941D01*
X160084183Y-74902210D01*
X160107376Y-74958204D01*
X160499796Y-75350624D01*
X160555790Y-75373817D01*
X160560059Y-75388742D01*
X160788493Y-75470206D01*
X161012517Y-75563000D01*
X161048696Y-75563000D01*
X161082780Y-75575155D01*
X161325001Y-75563000D01*
X161567483Y-75563000D01*
X161600909Y-75549155D01*
X161637049Y-75547341D01*
X162019941Y-75388742D01*
X162024210Y-75373817D01*
X162080204Y-75350624D01*
X162472624Y-74958204D01*
X162495817Y-74902210D01*
X162510742Y-74897941D01*
X162556320Y-74770137D01*
X162609258Y-74897941D01*
X162624183Y-74902210D01*
X162647376Y-74958204D01*
X163039796Y-75350624D01*
X163095790Y-75373817D01*
X163100059Y-75388742D01*
X163328493Y-75470206D01*
X163552517Y-75563000D01*
X163588696Y-75563000D01*
X163622780Y-75575155D01*
X163865001Y-75563000D01*
X164107483Y-75563000D01*
X164140909Y-75549155D01*
X164177049Y-75547341D01*
X164559941Y-75388742D01*
X164564210Y-75373817D01*
X164620204Y-75350624D01*
X165012624Y-74958204D01*
X165035817Y-74902210D01*
X165050742Y-74897941D01*
X165096320Y-74770137D01*
X165149258Y-74897941D01*
X165164183Y-74902210D01*
X165187376Y-74958204D01*
X165579796Y-75350624D01*
X165635790Y-75373817D01*
X165640059Y-75388742D01*
X165868493Y-75470206D01*
X166092517Y-75563000D01*
X166128696Y-75563000D01*
X166162780Y-75575155D01*
X166405001Y-75563000D01*
X166647483Y-75563000D01*
X166680909Y-75549155D01*
X166717049Y-75547341D01*
X167099941Y-75388742D01*
X167104210Y-75373817D01*
X167160204Y-75350624D01*
X167552624Y-74958204D01*
X167575817Y-74902210D01*
X167590742Y-74897941D01*
X167636320Y-74770137D01*
X167689258Y-74897941D01*
X167704183Y-74902210D01*
X167727376Y-74958204D01*
X168119796Y-75350624D01*
X168175790Y-75373817D01*
X168180059Y-75388742D01*
X168408493Y-75470206D01*
X168632517Y-75563000D01*
X168668696Y-75563000D01*
X168702780Y-75575155D01*
X168945001Y-75563000D01*
X169187483Y-75563000D01*
X169220909Y-75549155D01*
X169257049Y-75547341D01*
X169639941Y-75388742D01*
X169644210Y-75373817D01*
X169700204Y-75350624D01*
X170092624Y-74958204D01*
X170115817Y-74902210D01*
X170130742Y-74897941D01*
X170176320Y-74770137D01*
X170229258Y-74897941D01*
X170244183Y-74902210D01*
X170267376Y-74958204D01*
X170659796Y-75350624D01*
X170715790Y-75373817D01*
X170720059Y-75388742D01*
X170948493Y-75470206D01*
X171172517Y-75563000D01*
X171208696Y-75563000D01*
X171242780Y-75575155D01*
X171485001Y-75563000D01*
X171727483Y-75563000D01*
X171760909Y-75549155D01*
X171797049Y-75547341D01*
X172179941Y-75388742D01*
X172184210Y-75373817D01*
X172240204Y-75350624D01*
X172632624Y-74958204D01*
X172655817Y-74902210D01*
X172670742Y-74897941D01*
X172716320Y-74770137D01*
X172769258Y-74897941D01*
X172784183Y-74902210D01*
X172807376Y-74958204D01*
X173199796Y-75350624D01*
X173255790Y-75373817D01*
X173260059Y-75388742D01*
X173488493Y-75470206D01*
X173712517Y-75563000D01*
X173748696Y-75563000D01*
X173782780Y-75575155D01*
X174025001Y-75563000D01*
X174267483Y-75563000D01*
X174300909Y-75549155D01*
X174337049Y-75547341D01*
X174719941Y-75388742D01*
X174724210Y-75373817D01*
X174780204Y-75350624D01*
X175172624Y-74958204D01*
X175195817Y-74902210D01*
X175210742Y-74897941D01*
X175256320Y-74770137D01*
X175309258Y-74897941D01*
X175324183Y-74902210D01*
X175347376Y-74958204D01*
X175739796Y-75350624D01*
X175795790Y-75373817D01*
X175800059Y-75388742D01*
X176028493Y-75470206D01*
X176252517Y-75563000D01*
X176288696Y-75563000D01*
X176322780Y-75575155D01*
X176565001Y-75563000D01*
X176807483Y-75563000D01*
X176840909Y-75549155D01*
X176877049Y-75547341D01*
X177259941Y-75388742D01*
X177264210Y-75373817D01*
X177320204Y-75350624D01*
X177712624Y-74958204D01*
X177735817Y-74902210D01*
X177750742Y-74897941D01*
X177796320Y-74770137D01*
X177849258Y-74897941D01*
X177864183Y-74902210D01*
X177887376Y-74958204D01*
X178279796Y-75350624D01*
X178335790Y-75373817D01*
X178340059Y-75388742D01*
X178568493Y-75470206D01*
X178792517Y-75563000D01*
X178828696Y-75563000D01*
X178862780Y-75575155D01*
X179105001Y-75563000D01*
X179347483Y-75563000D01*
X179380909Y-75549155D01*
X179417049Y-75547341D01*
X179799941Y-75388742D01*
X179804210Y-75373817D01*
X179860204Y-75350624D01*
X180252624Y-74958204D01*
X180275817Y-74902210D01*
X180290742Y-74897941D01*
X180372206Y-74669507D01*
X180465000Y-74445483D01*
X180465000Y-74409304D01*
X180477155Y-74375220D01*
X180465000Y-74132999D01*
X180465000Y-73890517D01*
X180451155Y-73857091D01*
X180449341Y-73820951D01*
X180290742Y-73438059D01*
X180275817Y-73433790D01*
X180252624Y-73377796D01*
X179860204Y-72985376D01*
X179804210Y-72962183D01*
X179799941Y-72947258D01*
X179672137Y-72901680D01*
X179799941Y-72848742D01*
X179804210Y-72833817D01*
X179860204Y-72810624D01*
X180252624Y-72418204D01*
X180275817Y-72362210D01*
X180290742Y-72357941D01*
X180372206Y-72129507D01*
X180465000Y-71905483D01*
X180465000Y-71869304D01*
X180477155Y-71835220D01*
X180465000Y-71592999D01*
X180465000Y-71350517D01*
X180451155Y-71317091D01*
X180449341Y-71280951D01*
X180290742Y-70898059D01*
X180275817Y-70893790D01*
X180252624Y-70837796D01*
X179860204Y-70445376D01*
X179804210Y-70422183D01*
X179799941Y-70407258D01*
X179571507Y-70325794D01*
X179347483Y-70233000D01*
X179311304Y-70233000D01*
X179277220Y-70220845D01*
X179034999Y-70233000D01*
X178792517Y-70233000D01*
X178759091Y-70246845D01*
X178722951Y-70248659D01*
X178340059Y-70407258D01*
X178335790Y-70422183D01*
X178279796Y-70445376D01*
X177887376Y-70837796D01*
X177864183Y-70893790D01*
X177849258Y-70898059D01*
X177803680Y-71025863D01*
X177750742Y-70898059D01*
X177735817Y-70893790D01*
X177712624Y-70837796D01*
X177320204Y-70445376D01*
X177264210Y-70422183D01*
X177259941Y-70407258D01*
X177031507Y-70325794D01*
X176807483Y-70233000D01*
X176771304Y-70233000D01*
X176737220Y-70220845D01*
X176494999Y-70233000D01*
X176252517Y-70233000D01*
X176219091Y-70246845D01*
X176182951Y-70248659D01*
X175800059Y-70407258D01*
X175795790Y-70422183D01*
X175739796Y-70445376D01*
X175347376Y-70837796D01*
X175324183Y-70893790D01*
X175309258Y-70898059D01*
X175263680Y-71025863D01*
X175210742Y-70898059D01*
X175195817Y-70893790D01*
X175172624Y-70837796D01*
X174780204Y-70445376D01*
X174724210Y-70422183D01*
X174719941Y-70407258D01*
X174491507Y-70325794D01*
X174267483Y-70233000D01*
X174231304Y-70233000D01*
X174197220Y-70220845D01*
X173954999Y-70233000D01*
X173712517Y-70233000D01*
X173679091Y-70246845D01*
X173642951Y-70248659D01*
X173260059Y-70407258D01*
X173255790Y-70422183D01*
X173199796Y-70445376D01*
X172807376Y-70837796D01*
X172784183Y-70893790D01*
X172769258Y-70898059D01*
X172723680Y-71025863D01*
X172670742Y-70898059D01*
X172655817Y-70893790D01*
X172632624Y-70837796D01*
X172240204Y-70445376D01*
X172184210Y-70422183D01*
X172179941Y-70407258D01*
X171951507Y-70325794D01*
X171727483Y-70233000D01*
X171691304Y-70233000D01*
X171657220Y-70220845D01*
X171414999Y-70233000D01*
X171172517Y-70233000D01*
X171139091Y-70246845D01*
X171102951Y-70248659D01*
X170720059Y-70407258D01*
X170715790Y-70422183D01*
X170659796Y-70445376D01*
X170267376Y-70837796D01*
X170244183Y-70893790D01*
X170229258Y-70898059D01*
X170183680Y-71025863D01*
X170130742Y-70898059D01*
X170115817Y-70893790D01*
X170092624Y-70837796D01*
X169700204Y-70445376D01*
X169644210Y-70422183D01*
X169639941Y-70407258D01*
X169411507Y-70325794D01*
X169187483Y-70233000D01*
X169151304Y-70233000D01*
X169117220Y-70220845D01*
X168874999Y-70233000D01*
X168632517Y-70233000D01*
X168599091Y-70246845D01*
X168562951Y-70248659D01*
X168180059Y-70407258D01*
X168175790Y-70422183D01*
X168119796Y-70445376D01*
X167727376Y-70837796D01*
X167704183Y-70893790D01*
X167689258Y-70898059D01*
X167643680Y-71025863D01*
X167590742Y-70898059D01*
X167575817Y-70893790D01*
X167552624Y-70837796D01*
X167160204Y-70445376D01*
X167104210Y-70422183D01*
X167099941Y-70407258D01*
X166871507Y-70325794D01*
X166647483Y-70233000D01*
X166611304Y-70233000D01*
X166577220Y-70220845D01*
X166334999Y-70233000D01*
X166092517Y-70233000D01*
X166059091Y-70246845D01*
X166022951Y-70248659D01*
X165640059Y-70407258D01*
X165635790Y-70422183D01*
X165579796Y-70445376D01*
X165187376Y-70837796D01*
X165164183Y-70893790D01*
X165149258Y-70898059D01*
X165103680Y-71025863D01*
X165050742Y-70898059D01*
X165035817Y-70893790D01*
X165012624Y-70837796D01*
X164620204Y-70445376D01*
X164564210Y-70422183D01*
X164559941Y-70407258D01*
X164331507Y-70325794D01*
X164107483Y-70233000D01*
X164071304Y-70233000D01*
X164037220Y-70220845D01*
X163794999Y-70233000D01*
X163552517Y-70233000D01*
X163519091Y-70246845D01*
X163482951Y-70248659D01*
X163100059Y-70407258D01*
X163095790Y-70422183D01*
X163039796Y-70445376D01*
X162647376Y-70837796D01*
X162624183Y-70893790D01*
X162609258Y-70898059D01*
X162563680Y-71025863D01*
X162510742Y-70898059D01*
X162495817Y-70893790D01*
X162472624Y-70837796D01*
X162080204Y-70445376D01*
X162024210Y-70422183D01*
X162019941Y-70407258D01*
X161791507Y-70325794D01*
X161567483Y-70233000D01*
X161531304Y-70233000D01*
X161497220Y-70220845D01*
X161254999Y-70233000D01*
X161012517Y-70233000D01*
X160979091Y-70246845D01*
X160942951Y-70248659D01*
X160560059Y-70407258D01*
X160555790Y-70422183D01*
X160499796Y-70445376D01*
X160107376Y-70837796D01*
X160084183Y-70893790D01*
X160069258Y-70898059D01*
X160023680Y-71025863D01*
X159970742Y-70898059D01*
X159955817Y-70893790D01*
X159932624Y-70837796D01*
X159540204Y-70445376D01*
X159484210Y-70422183D01*
X159479941Y-70407258D01*
X159251507Y-70325794D01*
X159027483Y-70233000D01*
X158991304Y-70233000D01*
X158957220Y-70220845D01*
X158714999Y-70233000D01*
X158472517Y-70233000D01*
X158439091Y-70246845D01*
X158402951Y-70248659D01*
X158020059Y-70407258D01*
X158015790Y-70422183D01*
X157959796Y-70445376D01*
X157567376Y-70837796D01*
X157544183Y-70893790D01*
X157529258Y-70898059D01*
X157483680Y-71025863D01*
X157430742Y-70898059D01*
X157415817Y-70893790D01*
X157392624Y-70837796D01*
X157000204Y-70445376D01*
X156944210Y-70422183D01*
X156939941Y-70407258D01*
X156711507Y-70325794D01*
X156487483Y-70233000D01*
X156451304Y-70233000D01*
X156417220Y-70220845D01*
X156174999Y-70233000D01*
X155932517Y-70233000D01*
X155899091Y-70246845D01*
X155862951Y-70248659D01*
X155650000Y-70336866D01*
X155650000Y-46278581D01*
X155710090Y-45858991D01*
X155864381Y-45519648D01*
X156107712Y-45237248D01*
X156420523Y-45034494D01*
X156801184Y-44920652D01*
X156998350Y-44906000D01*
X213817419Y-44906000D01*
X214237009Y-44966090D01*
G36*
X155309009Y-130056090D02*
X155648352Y-130210381D01*
X155930752Y-130453712D01*
X156133506Y-130766523D01*
X156247348Y-131147184D01*
X156258236Y-131293701D01*
X156201910Y-131687009D01*
X156047619Y-132026352D01*
X155804288Y-132308752D01*
X155491479Y-132511506D01*
X155110815Y-132625348D01*
X155067000Y-132628604D01*
X155067000Y-130021432D01*
X155309009Y-130056090D01*
X155309009Y-130056090D01*
G37*
X155309009Y-130056090D02*
X155648352Y-130210381D01*
X155930752Y-130453712D01*
X156133506Y-130766523D01*
X156247348Y-131147184D01*
X156258236Y-131293701D01*
X156201910Y-131687009D01*
X156047619Y-132026352D01*
X155804288Y-132308752D01*
X155491479Y-132511506D01*
X155110815Y-132625348D01*
X155067000Y-132628604D01*
X155067000Y-130021432D01*
X155309009Y-130056090D01*
G36*
X215773000Y-132614568D02*
X215530991Y-132579910D01*
X215191648Y-132425619D01*
X214909248Y-132182288D01*
X214706494Y-131869479D01*
X214592652Y-131488815D01*
X214581764Y-131342299D01*
X214638090Y-130948991D01*
X214792381Y-130609648D01*
X215035712Y-130327248D01*
X215348523Y-130124494D01*
X215729184Y-130010652D01*
X215773000Y-130007396D01*
X215773000Y-132614568D01*
X215773000Y-132614568D01*
G37*
X215773000Y-132614568D02*
X215530991Y-132579910D01*
X215191648Y-132425619D01*
X214909248Y-132182288D01*
X214706494Y-131869479D01*
X214592652Y-131488815D01*
X214581764Y-131342299D01*
X214638090Y-130948991D01*
X214792381Y-130609648D01*
X215035712Y-130327248D01*
X215348523Y-130124494D01*
X215729184Y-130010652D01*
X215773000Y-130007396D01*
X215773000Y-132614568D01*
G36*
X215773000Y-119207053D02*
X215426241Y-118908266D01*
X215345058Y-118856347D01*
X215264525Y-118803446D01*
X215256654Y-118799810D01*
X215256651Y-118799808D01*
X215256648Y-118799807D01*
X214732183Y-118561347D01*
X214639691Y-118534300D01*
X214547548Y-118506129D01*
X214538969Y-118504847D01*
X213987664Y-118425893D01*
X213937926Y-118416000D01*
X198830000Y-118416000D01*
X198830000Y-99008000D01*
X213937926Y-99008000D01*
X213963915Y-99002830D01*
X214220966Y-98983728D01*
X214291711Y-98968174D01*
X214363455Y-98958346D01*
X214371781Y-98955912D01*
X214923758Y-98790836D01*
X215011250Y-98750409D01*
X215099194Y-98711070D01*
X215106498Y-98706399D01*
X215106502Y-98706397D01*
X215589961Y-98393034D01*
X215662594Y-98329672D01*
X215735955Y-98267237D01*
X215741654Y-98260704D01*
X215741658Y-98260700D01*
X215741661Y-98260695D01*
X215773000Y-98224324D01*
X215773000Y-119207053D01*
X215773000Y-119207053D01*
G37*
X215773000Y-119207053D02*
X215426241Y-118908266D01*
X215345058Y-118856347D01*
X215264525Y-118803446D01*
X215256654Y-118799810D01*
X215256651Y-118799808D01*
X215256648Y-118799807D01*
X214732183Y-118561347D01*
X214639691Y-118534300D01*
X214547548Y-118506129D01*
X214538969Y-118504847D01*
X213987664Y-118425893D01*
X213937926Y-118416000D01*
X198830000Y-118416000D01*
X198830000Y-99008000D01*
X213937926Y-99008000D01*
X213963915Y-99002830D01*
X214220966Y-98983728D01*
X214291711Y-98968174D01*
X214363455Y-98958346D01*
X214371781Y-98955912D01*
X214923758Y-98790836D01*
X215011250Y-98750409D01*
X215099194Y-98711070D01*
X215106498Y-98706399D01*
X215106502Y-98706397D01*
X215589961Y-98393034D01*
X215662594Y-98329672D01*
X215735955Y-98267237D01*
X215741654Y-98260704D01*
X215741658Y-98260700D01*
X215741661Y-98260695D01*
X215773000Y-98224324D01*
X215773000Y-119207053D01*
G36*
X175309258Y-115537941D02*
X175324183Y-115542210D01*
X175347376Y-115598204D01*
X175739796Y-115990624D01*
X175795790Y-116013817D01*
X175800059Y-116028742D01*
X175927863Y-116074320D01*
X175800059Y-116127258D01*
X175795790Y-116142183D01*
X175739796Y-116165376D01*
X175347376Y-116557796D01*
X175324183Y-116613790D01*
X175309258Y-116618059D01*
X175263680Y-116745863D01*
X175210742Y-116618059D01*
X175195817Y-116613790D01*
X175172624Y-116557796D01*
X174780204Y-116165376D01*
X174724210Y-116142183D01*
X174719941Y-116127258D01*
X174592137Y-116081680D01*
X174719941Y-116028742D01*
X174724210Y-116013817D01*
X174780204Y-115990624D01*
X175172624Y-115598204D01*
X175195817Y-115542210D01*
X175210742Y-115537941D01*
X175256320Y-115410137D01*
X175309258Y-115537941D01*
X175309258Y-115537941D01*
G37*
X175309258Y-115537941D02*
X175324183Y-115542210D01*
X175347376Y-115598204D01*
X175739796Y-115990624D01*
X175795790Y-116013817D01*
X175800059Y-116028742D01*
X175927863Y-116074320D01*
X175800059Y-116127258D01*
X175795790Y-116142183D01*
X175739796Y-116165376D01*
X175347376Y-116557796D01*
X175324183Y-116613790D01*
X175309258Y-116618059D01*
X175263680Y-116745863D01*
X175210742Y-116618059D01*
X175195817Y-116613790D01*
X175172624Y-116557796D01*
X174780204Y-116165376D01*
X174724210Y-116142183D01*
X174719941Y-116127258D01*
X174592137Y-116081680D01*
X174719941Y-116028742D01*
X174724210Y-116013817D01*
X174780204Y-115990624D01*
X175172624Y-115598204D01*
X175195817Y-115542210D01*
X175210742Y-115537941D01*
X175256320Y-115410137D01*
X175309258Y-115537941D01*
G36*
X172769258Y-115537941D02*
X172784183Y-115542210D01*
X172807376Y-115598204D01*
X173199796Y-115990624D01*
X173255790Y-116013817D01*
X173260059Y-116028742D01*
X173387863Y-116074320D01*
X173260059Y-116127258D01*
X173255790Y-116142183D01*
X173199796Y-116165376D01*
X172807376Y-116557796D01*
X172784183Y-116613790D01*
X172769258Y-116618059D01*
X172723680Y-116745863D01*
X172670742Y-116618059D01*
X172655817Y-116613790D01*
X172632624Y-116557796D01*
X172240204Y-116165376D01*
X172184210Y-116142183D01*
X172179941Y-116127258D01*
X172052137Y-116081680D01*
X172179941Y-116028742D01*
X172184210Y-116013817D01*
X172240204Y-115990624D01*
X172632624Y-115598204D01*
X172655817Y-115542210D01*
X172670742Y-115537941D01*
X172716320Y-115410137D01*
X172769258Y-115537941D01*
X172769258Y-115537941D01*
G37*
X172769258Y-115537941D02*
X172784183Y-115542210D01*
X172807376Y-115598204D01*
X173199796Y-115990624D01*
X173255790Y-116013817D01*
X173260059Y-116028742D01*
X173387863Y-116074320D01*
X173260059Y-116127258D01*
X173255790Y-116142183D01*
X173199796Y-116165376D01*
X172807376Y-116557796D01*
X172784183Y-116613790D01*
X172769258Y-116618059D01*
X172723680Y-116745863D01*
X172670742Y-116618059D01*
X172655817Y-116613790D01*
X172632624Y-116557796D01*
X172240204Y-116165376D01*
X172184210Y-116142183D01*
X172179941Y-116127258D01*
X172052137Y-116081680D01*
X172179941Y-116028742D01*
X172184210Y-116013817D01*
X172240204Y-115990624D01*
X172632624Y-115598204D01*
X172655817Y-115542210D01*
X172670742Y-115537941D01*
X172716320Y-115410137D01*
X172769258Y-115537941D01*
G36*
X177849258Y-115537941D02*
X177864183Y-115542210D01*
X177887376Y-115598204D01*
X178279796Y-115990624D01*
X178335790Y-116013817D01*
X178340059Y-116028742D01*
X178467863Y-116074320D01*
X178340059Y-116127258D01*
X178335790Y-116142183D01*
X178279796Y-116165376D01*
X177887376Y-116557796D01*
X177864183Y-116613790D01*
X177849258Y-116618059D01*
X177803680Y-116745863D01*
X177750742Y-116618059D01*
X177735817Y-116613790D01*
X177712624Y-116557796D01*
X177320204Y-116165376D01*
X177264210Y-116142183D01*
X177259941Y-116127258D01*
X177132137Y-116081680D01*
X177259941Y-116028742D01*
X177264210Y-116013817D01*
X177320204Y-115990624D01*
X177712624Y-115598204D01*
X177735817Y-115542210D01*
X177750742Y-115537941D01*
X177796320Y-115410137D01*
X177849258Y-115537941D01*
X177849258Y-115537941D01*
G37*
X177849258Y-115537941D02*
X177864183Y-115542210D01*
X177887376Y-115598204D01*
X178279796Y-115990624D01*
X178335790Y-116013817D01*
X178340059Y-116028742D01*
X178467863Y-116074320D01*
X178340059Y-116127258D01*
X178335790Y-116142183D01*
X178279796Y-116165376D01*
X177887376Y-116557796D01*
X177864183Y-116613790D01*
X177849258Y-116618059D01*
X177803680Y-116745863D01*
X177750742Y-116618059D01*
X177735817Y-116613790D01*
X177712624Y-116557796D01*
X177320204Y-116165376D01*
X177264210Y-116142183D01*
X177259941Y-116127258D01*
X177132137Y-116081680D01*
X177259941Y-116028742D01*
X177264210Y-116013817D01*
X177320204Y-115990624D01*
X177712624Y-115598204D01*
X177735817Y-115542210D01*
X177750742Y-115537941D01*
X177796320Y-115410137D01*
X177849258Y-115537941D01*
G36*
X170229258Y-115537941D02*
X170244183Y-115542210D01*
X170267376Y-115598204D01*
X170659796Y-115990624D01*
X170715790Y-116013817D01*
X170720059Y-116028742D01*
X170847863Y-116074320D01*
X170720059Y-116127258D01*
X170715790Y-116142183D01*
X170659796Y-116165376D01*
X170267376Y-116557796D01*
X170244183Y-116613790D01*
X170229258Y-116618059D01*
X170183680Y-116745863D01*
X170130742Y-116618059D01*
X170115817Y-116613790D01*
X170092624Y-116557796D01*
X169700204Y-116165376D01*
X169644210Y-116142183D01*
X169639941Y-116127258D01*
X169512137Y-116081680D01*
X169639941Y-116028742D01*
X169644210Y-116013817D01*
X169700204Y-115990624D01*
X170092624Y-115598204D01*
X170115817Y-115542210D01*
X170130742Y-115537941D01*
X170176320Y-115410137D01*
X170229258Y-115537941D01*
X170229258Y-115537941D01*
G37*
X170229258Y-115537941D02*
X170244183Y-115542210D01*
X170267376Y-115598204D01*
X170659796Y-115990624D01*
X170715790Y-116013817D01*
X170720059Y-116028742D01*
X170847863Y-116074320D01*
X170720059Y-116127258D01*
X170715790Y-116142183D01*
X170659796Y-116165376D01*
X170267376Y-116557796D01*
X170244183Y-116613790D01*
X170229258Y-116618059D01*
X170183680Y-116745863D01*
X170130742Y-116618059D01*
X170115817Y-116613790D01*
X170092624Y-116557796D01*
X169700204Y-116165376D01*
X169644210Y-116142183D01*
X169639941Y-116127258D01*
X169512137Y-116081680D01*
X169639941Y-116028742D01*
X169644210Y-116013817D01*
X169700204Y-115990624D01*
X170092624Y-115598204D01*
X170115817Y-115542210D01*
X170130742Y-115537941D01*
X170176320Y-115410137D01*
X170229258Y-115537941D01*
G36*
X167689258Y-115537941D02*
X167704183Y-115542210D01*
X167727376Y-115598204D01*
X168119796Y-115990624D01*
X168175790Y-116013817D01*
X168180059Y-116028742D01*
X168307863Y-116074320D01*
X168180059Y-116127258D01*
X168175790Y-116142183D01*
X168119796Y-116165376D01*
X167727376Y-116557796D01*
X167704183Y-116613790D01*
X167689258Y-116618059D01*
X167643680Y-116745863D01*
X167590742Y-116618059D01*
X167575817Y-116613790D01*
X167552624Y-116557796D01*
X167160204Y-116165376D01*
X167104210Y-116142183D01*
X167099941Y-116127258D01*
X166972137Y-116081680D01*
X167099941Y-116028742D01*
X167104210Y-116013817D01*
X167160204Y-115990624D01*
X167552624Y-115598204D01*
X167575817Y-115542210D01*
X167590742Y-115537941D01*
X167636320Y-115410137D01*
X167689258Y-115537941D01*
X167689258Y-115537941D01*
G37*
X167689258Y-115537941D02*
X167704183Y-115542210D01*
X167727376Y-115598204D01*
X168119796Y-115990624D01*
X168175790Y-116013817D01*
X168180059Y-116028742D01*
X168307863Y-116074320D01*
X168180059Y-116127258D01*
X168175790Y-116142183D01*
X168119796Y-116165376D01*
X167727376Y-116557796D01*
X167704183Y-116613790D01*
X167689258Y-116618059D01*
X167643680Y-116745863D01*
X167590742Y-116618059D01*
X167575817Y-116613790D01*
X167552624Y-116557796D01*
X167160204Y-116165376D01*
X167104210Y-116142183D01*
X167099941Y-116127258D01*
X166972137Y-116081680D01*
X167099941Y-116028742D01*
X167104210Y-116013817D01*
X167160204Y-115990624D01*
X167552624Y-115598204D01*
X167575817Y-115542210D01*
X167590742Y-115537941D01*
X167636320Y-115410137D01*
X167689258Y-115537941D01*
G36*
X165149258Y-115537941D02*
X165164183Y-115542210D01*
X165187376Y-115598204D01*
X165579796Y-115990624D01*
X165635790Y-116013817D01*
X165640059Y-116028742D01*
X165767863Y-116074320D01*
X165640059Y-116127258D01*
X165635790Y-116142183D01*
X165579796Y-116165376D01*
X165187376Y-116557796D01*
X165164183Y-116613790D01*
X165149258Y-116618059D01*
X165103680Y-116745863D01*
X165050742Y-116618059D01*
X165035817Y-116613790D01*
X165012624Y-116557796D01*
X164620204Y-116165376D01*
X164564210Y-116142183D01*
X164559941Y-116127258D01*
X164432137Y-116081680D01*
X164559941Y-116028742D01*
X164564210Y-116013817D01*
X164620204Y-115990624D01*
X165012624Y-115598204D01*
X165035817Y-115542210D01*
X165050742Y-115537941D01*
X165096320Y-115410137D01*
X165149258Y-115537941D01*
X165149258Y-115537941D01*
G37*
X165149258Y-115537941D02*
X165164183Y-115542210D01*
X165187376Y-115598204D01*
X165579796Y-115990624D01*
X165635790Y-116013817D01*
X165640059Y-116028742D01*
X165767863Y-116074320D01*
X165640059Y-116127258D01*
X165635790Y-116142183D01*
X165579796Y-116165376D01*
X165187376Y-116557796D01*
X165164183Y-116613790D01*
X165149258Y-116618059D01*
X165103680Y-116745863D01*
X165050742Y-116618059D01*
X165035817Y-116613790D01*
X165012624Y-116557796D01*
X164620204Y-116165376D01*
X164564210Y-116142183D01*
X164559941Y-116127258D01*
X164432137Y-116081680D01*
X164559941Y-116028742D01*
X164564210Y-116013817D01*
X164620204Y-115990624D01*
X165012624Y-115598204D01*
X165035817Y-115542210D01*
X165050742Y-115537941D01*
X165096320Y-115410137D01*
X165149258Y-115537941D01*
G36*
X162609258Y-115537941D02*
X162624183Y-115542210D01*
X162647376Y-115598204D01*
X163039796Y-115990624D01*
X163095790Y-116013817D01*
X163100059Y-116028742D01*
X163227863Y-116074320D01*
X163100059Y-116127258D01*
X163095790Y-116142183D01*
X163039796Y-116165376D01*
X162647376Y-116557796D01*
X162624183Y-116613790D01*
X162609258Y-116618059D01*
X162563680Y-116745863D01*
X162510742Y-116618059D01*
X162495817Y-116613790D01*
X162472624Y-116557796D01*
X162080204Y-116165376D01*
X162024210Y-116142183D01*
X162019941Y-116127258D01*
X161892137Y-116081680D01*
X162019941Y-116028742D01*
X162024210Y-116013817D01*
X162080204Y-115990624D01*
X162472624Y-115598204D01*
X162495817Y-115542210D01*
X162510742Y-115537941D01*
X162556320Y-115410137D01*
X162609258Y-115537941D01*
X162609258Y-115537941D01*
G37*
X162609258Y-115537941D02*
X162624183Y-115542210D01*
X162647376Y-115598204D01*
X163039796Y-115990624D01*
X163095790Y-116013817D01*
X163100059Y-116028742D01*
X163227863Y-116074320D01*
X163100059Y-116127258D01*
X163095790Y-116142183D01*
X163039796Y-116165376D01*
X162647376Y-116557796D01*
X162624183Y-116613790D01*
X162609258Y-116618059D01*
X162563680Y-116745863D01*
X162510742Y-116618059D01*
X162495817Y-116613790D01*
X162472624Y-116557796D01*
X162080204Y-116165376D01*
X162024210Y-116142183D01*
X162019941Y-116127258D01*
X161892137Y-116081680D01*
X162019941Y-116028742D01*
X162024210Y-116013817D01*
X162080204Y-115990624D01*
X162472624Y-115598204D01*
X162495817Y-115542210D01*
X162510742Y-115537941D01*
X162556320Y-115410137D01*
X162609258Y-115537941D01*
G36*
X157529258Y-115537941D02*
X157544183Y-115542210D01*
X157567376Y-115598204D01*
X157959796Y-115990624D01*
X158015790Y-116013817D01*
X158020059Y-116028742D01*
X158147863Y-116074320D01*
X158020059Y-116127258D01*
X158015790Y-116142183D01*
X157959796Y-116165376D01*
X157567376Y-116557796D01*
X157544183Y-116613790D01*
X157529258Y-116618059D01*
X157483680Y-116745863D01*
X157430742Y-116618059D01*
X157415817Y-116613790D01*
X157392624Y-116557796D01*
X157000204Y-116165376D01*
X156944210Y-116142183D01*
X156939941Y-116127258D01*
X156812137Y-116081680D01*
X156939941Y-116028742D01*
X156944210Y-116013817D01*
X157000204Y-115990624D01*
X157392624Y-115598204D01*
X157415817Y-115542210D01*
X157430742Y-115537941D01*
X157476320Y-115410137D01*
X157529258Y-115537941D01*
X157529258Y-115537941D01*
G37*
X157529258Y-115537941D02*
X157544183Y-115542210D01*
X157567376Y-115598204D01*
X157959796Y-115990624D01*
X158015790Y-116013817D01*
X158020059Y-116028742D01*
X158147863Y-116074320D01*
X158020059Y-116127258D01*
X158015790Y-116142183D01*
X157959796Y-116165376D01*
X157567376Y-116557796D01*
X157544183Y-116613790D01*
X157529258Y-116618059D01*
X157483680Y-116745863D01*
X157430742Y-116618059D01*
X157415817Y-116613790D01*
X157392624Y-116557796D01*
X157000204Y-116165376D01*
X156944210Y-116142183D01*
X156939941Y-116127258D01*
X156812137Y-116081680D01*
X156939941Y-116028742D01*
X156944210Y-116013817D01*
X157000204Y-115990624D01*
X157392624Y-115598204D01*
X157415817Y-115542210D01*
X157430742Y-115537941D01*
X157476320Y-115410137D01*
X157529258Y-115537941D01*
G36*
X160069258Y-115537941D02*
X160084183Y-115542210D01*
X160107376Y-115598204D01*
X160499796Y-115990624D01*
X160555790Y-116013817D01*
X160560059Y-116028742D01*
X160687863Y-116074320D01*
X160560059Y-116127258D01*
X160555790Y-116142183D01*
X160499796Y-116165376D01*
X160107376Y-116557796D01*
X160084183Y-116613790D01*
X160069258Y-116618059D01*
X160023680Y-116745863D01*
X159970742Y-116618059D01*
X159955817Y-116613790D01*
X159932624Y-116557796D01*
X159540204Y-116165376D01*
X159484210Y-116142183D01*
X159479941Y-116127258D01*
X159352137Y-116081680D01*
X159479941Y-116028742D01*
X159484210Y-116013817D01*
X159540204Y-115990624D01*
X159932624Y-115598204D01*
X159955817Y-115542210D01*
X159970742Y-115537941D01*
X160016320Y-115410137D01*
X160069258Y-115537941D01*
X160069258Y-115537941D01*
G37*
X160069258Y-115537941D02*
X160084183Y-115542210D01*
X160107376Y-115598204D01*
X160499796Y-115990624D01*
X160555790Y-116013817D01*
X160560059Y-116028742D01*
X160687863Y-116074320D01*
X160560059Y-116127258D01*
X160555790Y-116142183D01*
X160499796Y-116165376D01*
X160107376Y-116557796D01*
X160084183Y-116613790D01*
X160069258Y-116618059D01*
X160023680Y-116745863D01*
X159970742Y-116618059D01*
X159955817Y-116613790D01*
X159932624Y-116557796D01*
X159540204Y-116165376D01*
X159484210Y-116142183D01*
X159479941Y-116127258D01*
X159352137Y-116081680D01*
X159479941Y-116028742D01*
X159484210Y-116013817D01*
X159540204Y-115990624D01*
X159932624Y-115598204D01*
X159955817Y-115542210D01*
X159970742Y-115537941D01*
X160016320Y-115410137D01*
X160069258Y-115537941D01*
G36*
X157529258Y-72357941D02*
X157544183Y-72362210D01*
X157567376Y-72418204D01*
X157959796Y-72810624D01*
X158015790Y-72833817D01*
X158020059Y-72848742D01*
X158147863Y-72894320D01*
X158020059Y-72947258D01*
X158015790Y-72962183D01*
X157959796Y-72985376D01*
X157567376Y-73377796D01*
X157544183Y-73433790D01*
X157529258Y-73438059D01*
X157483680Y-73565863D01*
X157430742Y-73438059D01*
X157415817Y-73433790D01*
X157392624Y-73377796D01*
X157000204Y-72985376D01*
X156944210Y-72962183D01*
X156939941Y-72947258D01*
X156812137Y-72901680D01*
X156939941Y-72848742D01*
X156944210Y-72833817D01*
X157000204Y-72810624D01*
X157392624Y-72418204D01*
X157415817Y-72362210D01*
X157430742Y-72357941D01*
X157476320Y-72230137D01*
X157529258Y-72357941D01*
X157529258Y-72357941D01*
G37*
X157529258Y-72357941D02*
X157544183Y-72362210D01*
X157567376Y-72418204D01*
X157959796Y-72810624D01*
X158015790Y-72833817D01*
X158020059Y-72848742D01*
X158147863Y-72894320D01*
X158020059Y-72947258D01*
X158015790Y-72962183D01*
X157959796Y-72985376D01*
X157567376Y-73377796D01*
X157544183Y-73433790D01*
X157529258Y-73438059D01*
X157483680Y-73565863D01*
X157430742Y-73438059D01*
X157415817Y-73433790D01*
X157392624Y-73377796D01*
X157000204Y-72985376D01*
X156944210Y-72962183D01*
X156939941Y-72947258D01*
X156812137Y-72901680D01*
X156939941Y-72848742D01*
X156944210Y-72833817D01*
X157000204Y-72810624D01*
X157392624Y-72418204D01*
X157415817Y-72362210D01*
X157430742Y-72357941D01*
X157476320Y-72230137D01*
X157529258Y-72357941D01*
G36*
X160069258Y-72357941D02*
X160084183Y-72362210D01*
X160107376Y-72418204D01*
X160499796Y-72810624D01*
X160555790Y-72833817D01*
X160560059Y-72848742D01*
X160687863Y-72894320D01*
X160560059Y-72947258D01*
X160555790Y-72962183D01*
X160499796Y-72985376D01*
X160107376Y-73377796D01*
X160084183Y-73433790D01*
X160069258Y-73438059D01*
X160023680Y-73565863D01*
X159970742Y-73438059D01*
X159955817Y-73433790D01*
X159932624Y-73377796D01*
X159540204Y-72985376D01*
X159484210Y-72962183D01*
X159479941Y-72947258D01*
X159352137Y-72901680D01*
X159479941Y-72848742D01*
X159484210Y-72833817D01*
X159540204Y-72810624D01*
X159932624Y-72418204D01*
X159955817Y-72362210D01*
X159970742Y-72357941D01*
X160016320Y-72230137D01*
X160069258Y-72357941D01*
X160069258Y-72357941D01*
G37*
X160069258Y-72357941D02*
X160084183Y-72362210D01*
X160107376Y-72418204D01*
X160499796Y-72810624D01*
X160555790Y-72833817D01*
X160560059Y-72848742D01*
X160687863Y-72894320D01*
X160560059Y-72947258D01*
X160555790Y-72962183D01*
X160499796Y-72985376D01*
X160107376Y-73377796D01*
X160084183Y-73433790D01*
X160069258Y-73438059D01*
X160023680Y-73565863D01*
X159970742Y-73438059D01*
X159955817Y-73433790D01*
X159932624Y-73377796D01*
X159540204Y-72985376D01*
X159484210Y-72962183D01*
X159479941Y-72947258D01*
X159352137Y-72901680D01*
X159479941Y-72848742D01*
X159484210Y-72833817D01*
X159540204Y-72810624D01*
X159932624Y-72418204D01*
X159955817Y-72362210D01*
X159970742Y-72357941D01*
X160016320Y-72230137D01*
X160069258Y-72357941D01*
G36*
X162609258Y-72357941D02*
X162624183Y-72362210D01*
X162647376Y-72418204D01*
X163039796Y-72810624D01*
X163095790Y-72833817D01*
X163100059Y-72848742D01*
X163227863Y-72894320D01*
X163100059Y-72947258D01*
X163095790Y-72962183D01*
X163039796Y-72985376D01*
X162647376Y-73377796D01*
X162624183Y-73433790D01*
X162609258Y-73438059D01*
X162563680Y-73565863D01*
X162510742Y-73438059D01*
X162495817Y-73433790D01*
X162472624Y-73377796D01*
X162080204Y-72985376D01*
X162024210Y-72962183D01*
X162019941Y-72947258D01*
X161892137Y-72901680D01*
X162019941Y-72848742D01*
X162024210Y-72833817D01*
X162080204Y-72810624D01*
X162472624Y-72418204D01*
X162495817Y-72362210D01*
X162510742Y-72357941D01*
X162556320Y-72230137D01*
X162609258Y-72357941D01*
X162609258Y-72357941D01*
G37*
X162609258Y-72357941D02*
X162624183Y-72362210D01*
X162647376Y-72418204D01*
X163039796Y-72810624D01*
X163095790Y-72833817D01*
X163100059Y-72848742D01*
X163227863Y-72894320D01*
X163100059Y-72947258D01*
X163095790Y-72962183D01*
X163039796Y-72985376D01*
X162647376Y-73377796D01*
X162624183Y-73433790D01*
X162609258Y-73438059D01*
X162563680Y-73565863D01*
X162510742Y-73438059D01*
X162495817Y-73433790D01*
X162472624Y-73377796D01*
X162080204Y-72985376D01*
X162024210Y-72962183D01*
X162019941Y-72947258D01*
X161892137Y-72901680D01*
X162019941Y-72848742D01*
X162024210Y-72833817D01*
X162080204Y-72810624D01*
X162472624Y-72418204D01*
X162495817Y-72362210D01*
X162510742Y-72357941D01*
X162556320Y-72230137D01*
X162609258Y-72357941D01*
G36*
X165149258Y-72357941D02*
X165164183Y-72362210D01*
X165187376Y-72418204D01*
X165579796Y-72810624D01*
X165635790Y-72833817D01*
X165640059Y-72848742D01*
X165767863Y-72894320D01*
X165640059Y-72947258D01*
X165635790Y-72962183D01*
X165579796Y-72985376D01*
X165187376Y-73377796D01*
X165164183Y-73433790D01*
X165149258Y-73438059D01*
X165103680Y-73565863D01*
X165050742Y-73438059D01*
X165035817Y-73433790D01*
X165012624Y-73377796D01*
X164620204Y-72985376D01*
X164564210Y-72962183D01*
X164559941Y-72947258D01*
X164432137Y-72901680D01*
X164559941Y-72848742D01*
X164564210Y-72833817D01*
X164620204Y-72810624D01*
X165012624Y-72418204D01*
X165035817Y-72362210D01*
X165050742Y-72357941D01*
X165096320Y-72230137D01*
X165149258Y-72357941D01*
X165149258Y-72357941D01*
G37*
X165149258Y-72357941D02*
X165164183Y-72362210D01*
X165187376Y-72418204D01*
X165579796Y-72810624D01*
X165635790Y-72833817D01*
X165640059Y-72848742D01*
X165767863Y-72894320D01*
X165640059Y-72947258D01*
X165635790Y-72962183D01*
X165579796Y-72985376D01*
X165187376Y-73377796D01*
X165164183Y-73433790D01*
X165149258Y-73438059D01*
X165103680Y-73565863D01*
X165050742Y-73438059D01*
X165035817Y-73433790D01*
X165012624Y-73377796D01*
X164620204Y-72985376D01*
X164564210Y-72962183D01*
X164559941Y-72947258D01*
X164432137Y-72901680D01*
X164559941Y-72848742D01*
X164564210Y-72833817D01*
X164620204Y-72810624D01*
X165012624Y-72418204D01*
X165035817Y-72362210D01*
X165050742Y-72357941D01*
X165096320Y-72230137D01*
X165149258Y-72357941D01*
G36*
X167689258Y-72357941D02*
X167704183Y-72362210D01*
X167727376Y-72418204D01*
X168119796Y-72810624D01*
X168175790Y-72833817D01*
X168180059Y-72848742D01*
X168307863Y-72894320D01*
X168180059Y-72947258D01*
X168175790Y-72962183D01*
X168119796Y-72985376D01*
X167727376Y-73377796D01*
X167704183Y-73433790D01*
X167689258Y-73438059D01*
X167643680Y-73565863D01*
X167590742Y-73438059D01*
X167575817Y-73433790D01*
X167552624Y-73377796D01*
X167160204Y-72985376D01*
X167104210Y-72962183D01*
X167099941Y-72947258D01*
X166972137Y-72901680D01*
X167099941Y-72848742D01*
X167104210Y-72833817D01*
X167160204Y-72810624D01*
X167552624Y-72418204D01*
X167575817Y-72362210D01*
X167590742Y-72357941D01*
X167636320Y-72230137D01*
X167689258Y-72357941D01*
X167689258Y-72357941D01*
G37*
X167689258Y-72357941D02*
X167704183Y-72362210D01*
X167727376Y-72418204D01*
X168119796Y-72810624D01*
X168175790Y-72833817D01*
X168180059Y-72848742D01*
X168307863Y-72894320D01*
X168180059Y-72947258D01*
X168175790Y-72962183D01*
X168119796Y-72985376D01*
X167727376Y-73377796D01*
X167704183Y-73433790D01*
X167689258Y-73438059D01*
X167643680Y-73565863D01*
X167590742Y-73438059D01*
X167575817Y-73433790D01*
X167552624Y-73377796D01*
X167160204Y-72985376D01*
X167104210Y-72962183D01*
X167099941Y-72947258D01*
X166972137Y-72901680D01*
X167099941Y-72848742D01*
X167104210Y-72833817D01*
X167160204Y-72810624D01*
X167552624Y-72418204D01*
X167575817Y-72362210D01*
X167590742Y-72357941D01*
X167636320Y-72230137D01*
X167689258Y-72357941D01*
G36*
X170229258Y-72357941D02*
X170244183Y-72362210D01*
X170267376Y-72418204D01*
X170659796Y-72810624D01*
X170715790Y-72833817D01*
X170720059Y-72848742D01*
X170847863Y-72894320D01*
X170720059Y-72947258D01*
X170715790Y-72962183D01*
X170659796Y-72985376D01*
X170267376Y-73377796D01*
X170244183Y-73433790D01*
X170229258Y-73438059D01*
X170183680Y-73565863D01*
X170130742Y-73438059D01*
X170115817Y-73433790D01*
X170092624Y-73377796D01*
X169700204Y-72985376D01*
X169644210Y-72962183D01*
X169639941Y-72947258D01*
X169512137Y-72901680D01*
X169639941Y-72848742D01*
X169644210Y-72833817D01*
X169700204Y-72810624D01*
X170092624Y-72418204D01*
X170115817Y-72362210D01*
X170130742Y-72357941D01*
X170176320Y-72230137D01*
X170229258Y-72357941D01*
X170229258Y-72357941D01*
G37*
X170229258Y-72357941D02*
X170244183Y-72362210D01*
X170267376Y-72418204D01*
X170659796Y-72810624D01*
X170715790Y-72833817D01*
X170720059Y-72848742D01*
X170847863Y-72894320D01*
X170720059Y-72947258D01*
X170715790Y-72962183D01*
X170659796Y-72985376D01*
X170267376Y-73377796D01*
X170244183Y-73433790D01*
X170229258Y-73438059D01*
X170183680Y-73565863D01*
X170130742Y-73438059D01*
X170115817Y-73433790D01*
X170092624Y-73377796D01*
X169700204Y-72985376D01*
X169644210Y-72962183D01*
X169639941Y-72947258D01*
X169512137Y-72901680D01*
X169639941Y-72848742D01*
X169644210Y-72833817D01*
X169700204Y-72810624D01*
X170092624Y-72418204D01*
X170115817Y-72362210D01*
X170130742Y-72357941D01*
X170176320Y-72230137D01*
X170229258Y-72357941D01*
G36*
X177849258Y-72357941D02*
X177864183Y-72362210D01*
X177887376Y-72418204D01*
X178279796Y-72810624D01*
X178335790Y-72833817D01*
X178340059Y-72848742D01*
X178467863Y-72894320D01*
X178340059Y-72947258D01*
X178335790Y-72962183D01*
X178279796Y-72985376D01*
X177887376Y-73377796D01*
X177864183Y-73433790D01*
X177849258Y-73438059D01*
X177803680Y-73565863D01*
X177750742Y-73438059D01*
X177735817Y-73433790D01*
X177712624Y-73377796D01*
X177320204Y-72985376D01*
X177264210Y-72962183D01*
X177259941Y-72947258D01*
X177132137Y-72901680D01*
X177259941Y-72848742D01*
X177264210Y-72833817D01*
X177320204Y-72810624D01*
X177712624Y-72418204D01*
X177735817Y-72362210D01*
X177750742Y-72357941D01*
X177796320Y-72230137D01*
X177849258Y-72357941D01*
X177849258Y-72357941D01*
G37*
X177849258Y-72357941D02*
X177864183Y-72362210D01*
X177887376Y-72418204D01*
X178279796Y-72810624D01*
X178335790Y-72833817D01*
X178340059Y-72848742D01*
X178467863Y-72894320D01*
X178340059Y-72947258D01*
X178335790Y-72962183D01*
X178279796Y-72985376D01*
X177887376Y-73377796D01*
X177864183Y-73433790D01*
X177849258Y-73438059D01*
X177803680Y-73565863D01*
X177750742Y-73438059D01*
X177735817Y-73433790D01*
X177712624Y-73377796D01*
X177320204Y-72985376D01*
X177264210Y-72962183D01*
X177259941Y-72947258D01*
X177132137Y-72901680D01*
X177259941Y-72848742D01*
X177264210Y-72833817D01*
X177320204Y-72810624D01*
X177712624Y-72418204D01*
X177735817Y-72362210D01*
X177750742Y-72357941D01*
X177796320Y-72230137D01*
X177849258Y-72357941D01*
G36*
X172769258Y-72357941D02*
X172784183Y-72362210D01*
X172807376Y-72418204D01*
X173199796Y-72810624D01*
X173255790Y-72833817D01*
X173260059Y-72848742D01*
X173387863Y-72894320D01*
X173260059Y-72947258D01*
X173255790Y-72962183D01*
X173199796Y-72985376D01*
X172807376Y-73377796D01*
X172784183Y-73433790D01*
X172769258Y-73438059D01*
X172723680Y-73565863D01*
X172670742Y-73438059D01*
X172655817Y-73433790D01*
X172632624Y-73377796D01*
X172240204Y-72985376D01*
X172184210Y-72962183D01*
X172179941Y-72947258D01*
X172052137Y-72901680D01*
X172179941Y-72848742D01*
X172184210Y-72833817D01*
X172240204Y-72810624D01*
X172632624Y-72418204D01*
X172655817Y-72362210D01*
X172670742Y-72357941D01*
X172716320Y-72230137D01*
X172769258Y-72357941D01*
X172769258Y-72357941D01*
G37*
X172769258Y-72357941D02*
X172784183Y-72362210D01*
X172807376Y-72418204D01*
X173199796Y-72810624D01*
X173255790Y-72833817D01*
X173260059Y-72848742D01*
X173387863Y-72894320D01*
X173260059Y-72947258D01*
X173255790Y-72962183D01*
X173199796Y-72985376D01*
X172807376Y-73377796D01*
X172784183Y-73433790D01*
X172769258Y-73438059D01*
X172723680Y-73565863D01*
X172670742Y-73438059D01*
X172655817Y-73433790D01*
X172632624Y-73377796D01*
X172240204Y-72985376D01*
X172184210Y-72962183D01*
X172179941Y-72947258D01*
X172052137Y-72901680D01*
X172179941Y-72848742D01*
X172184210Y-72833817D01*
X172240204Y-72810624D01*
X172632624Y-72418204D01*
X172655817Y-72362210D01*
X172670742Y-72357941D01*
X172716320Y-72230137D01*
X172769258Y-72357941D01*
G36*
X175309258Y-72357941D02*
X175324183Y-72362210D01*
X175347376Y-72418204D01*
X175739796Y-72810624D01*
X175795790Y-72833817D01*
X175800059Y-72848742D01*
X175927863Y-72894320D01*
X175800059Y-72947258D01*
X175795790Y-72962183D01*
X175739796Y-72985376D01*
X175347376Y-73377796D01*
X175324183Y-73433790D01*
X175309258Y-73438059D01*
X175263680Y-73565863D01*
X175210742Y-73438059D01*
X175195817Y-73433790D01*
X175172624Y-73377796D01*
X174780204Y-72985376D01*
X174724210Y-72962183D01*
X174719941Y-72947258D01*
X174592137Y-72901680D01*
X174719941Y-72848742D01*
X174724210Y-72833817D01*
X174780204Y-72810624D01*
X175172624Y-72418204D01*
X175195817Y-72362210D01*
X175210742Y-72357941D01*
X175256320Y-72230137D01*
X175309258Y-72357941D01*
X175309258Y-72357941D01*
G37*
X175309258Y-72357941D02*
X175324183Y-72362210D01*
X175347376Y-72418204D01*
X175739796Y-72810624D01*
X175795790Y-72833817D01*
X175800059Y-72848742D01*
X175927863Y-72894320D01*
X175800059Y-72947258D01*
X175795790Y-72962183D01*
X175739796Y-72985376D01*
X175347376Y-73377796D01*
X175324183Y-73433790D01*
X175309258Y-73438059D01*
X175263680Y-73565863D01*
X175210742Y-73438059D01*
X175195817Y-73433790D01*
X175172624Y-73377796D01*
X174780204Y-72985376D01*
X174724210Y-72962183D01*
X174719941Y-72947258D01*
X174592137Y-72901680D01*
X174719941Y-72848742D01*
X174724210Y-72833817D01*
X174780204Y-72810624D01*
X175172624Y-72418204D01*
X175195817Y-72362210D01*
X175210742Y-72357941D01*
X175256320Y-72230137D01*
X175309258Y-72357941D01*
M02*
