G04 #@! TF.GenerationSoftware,KiCad,Pcbnew,(5.0.0)*
G04 #@! TF.CreationDate,2018-10-11T16:39:52-05:00*
G04 #@! TF.ProjectId,StandardBoard_HalfTiva,5374616E64617264426F6172645F4861,rev?*
G04 #@! TF.SameCoordinates,Original*
G04 #@! TF.FileFunction,Soldermask,Top*
G04 #@! TF.FilePolarity,Negative*
%FSLAX46Y46*%
G04 Gerber Fmt 4.6, Leading zero omitted, Abs format (unit mm)*
G04 Created by KiCad (PCBNEW (5.0.0)) date 10/11/18 16:39:52*
%MOMM*%
%LPD*%
G01*
G04 APERTURE LIST*
%ADD10C,1.920000*%
G04 APERTURE END LIST*
D10*
G04 #@! TO.C,REF\002A\002A*
X161290000Y-71628000D03*
X158750000Y-71628000D03*
X156210000Y-71628000D03*
X179070000Y-74168000D03*
X176530000Y-74168000D03*
X173990000Y-74168000D03*
X171450000Y-74168000D03*
X168910000Y-74168000D03*
X166370000Y-74168000D03*
X163830000Y-74168000D03*
X161290000Y-74168000D03*
X158750000Y-74168000D03*
X156210000Y-74168000D03*
X179070000Y-117348000D03*
X173990000Y-117348000D03*
X168910000Y-117348000D03*
X166370000Y-117348000D03*
X163830000Y-117348000D03*
X161290000Y-117348000D03*
X158750000Y-117348000D03*
X179070000Y-114808000D03*
X173990000Y-114808000D03*
X163830000Y-114808000D03*
X161290000Y-114808000D03*
X158750000Y-114808000D03*
X156210000Y-114808000D03*
X168910000Y-114808000D03*
X171450000Y-114808000D03*
X176530000Y-117348000D03*
X163830000Y-71628000D03*
X166370000Y-71628000D03*
X176530000Y-114808000D03*
X171450000Y-117348000D03*
X173990000Y-71628000D03*
X171450000Y-71628000D03*
X166370000Y-114808000D03*
X168910000Y-71628000D03*
X176530000Y-71628000D03*
X179070000Y-71628000D03*
X156210000Y-117348000D03*
G04 #@! TD*
M02*
