M48
;DRILL file {KiCad (5.0.0)} date 10/11/18 16:39:54
;FORMAT={-:-/ absolute / inch / decimal}
FMAT,2
INCH,TZ
T1C0.0394
%
G90
G05
M72
T1
X6.15Y-2.82
X6.15Y-2.92
X6.15Y-4.52
X6.15Y-4.62
X6.25Y-2.82
X6.25Y-2.92
X6.25Y-4.52
X6.25Y-4.62
X6.35Y-2.82
X6.35Y-2.92
X6.35Y-4.52
X6.35Y-4.62
X6.45Y-2.82
X6.45Y-2.92
X6.45Y-4.52
X6.45Y-4.62
X6.55Y-2.82
X6.55Y-2.92
X6.55Y-4.52
X6.55Y-4.62
X6.65Y-2.82
X6.65Y-2.92
X6.65Y-4.52
X6.65Y-4.62
X6.75Y-2.82
X6.75Y-2.92
X6.75Y-4.52
X6.75Y-4.62
X6.85Y-2.82
X6.85Y-2.92
X6.85Y-4.52
X6.85Y-4.62
X6.95Y-2.82
X6.95Y-2.92
X6.95Y-4.52
X6.95Y-4.62
X7.05Y-2.82
X7.05Y-2.92
X7.05Y-4.52
X7.05Y-4.62
T0
M30
